<svg width="22" height="22" viewBox="0 0 22 22" fill="none" xmlns="http://www.w3.org/2000/svg">
<path d="M11.0005 22.0015C11.8923 22.0015 12.7741 21.9855 13.6439 21.9555C18.1508 21.7965 21.794 18.1525 21.9529 13.6445C22.0157 11.8824 22.0157 10.1186 21.9529 8.35646C21.794 3.84846 18.1508 0.20446 13.6439 0.0454617C11.8822 -0.017292 10.1188 -0.017292 8.35712 0.0454617C3.84917 0.20446 0.206017 3.84846 0.0470542 8.35746C-0.0156847 10.1196 -0.0156847 11.8834 0.0470542 13.6455C0.206017 18.1525 3.84917 21.7965 8.35712 21.9545C9.2379 21.9855 10.1192 22.0018 11.0005 22.0015ZM6.38158 15.2805C6.28792 15.1794 6.21509 15.0608 6.16726 14.9316C6.11943 14.8023 6.09754 14.6649 6.10283 14.5272C6.10812 14.3894 6.1405 14.2541 6.1981 14.1289C6.25571 14.0037 6.33742 13.8911 6.43856 13.7975L12.5012 8.17846L8.877 7.80746C8.61306 7.78046 8.38111 7.65746 8.21415 7.47646C8.06847 7.32026 7.97399 7.12325 7.94338 6.91183C7.91276 6.70042 7.94747 6.4847 8.04285 6.29356C8.13823 6.10243 8.28973 5.94502 8.47705 5.84241C8.66437 5.73981 8.87857 5.69691 9.09095 5.71946L14.6876 6.29546C14.8634 6.30016 15.0365 6.34012 15.1965 6.41295C15.3566 6.48578 15.5004 6.59001 15.6194 6.71946C15.8614 6.98046 15.9863 7.32146 15.9713 7.60646L16.1183 13.3065C16.1269 13.4472 16.1071 13.5882 16.0601 13.7211C16.013 13.854 15.9397 13.976 15.8445 14.0799C15.7493 14.1839 15.6341 14.2676 15.5059 14.326C15.3776 14.3845 15.2389 14.4165 15.098 14.4202C14.9571 14.4239 14.8169 14.3992 14.6858 14.3475C14.5547 14.2959 14.4353 14.2183 14.3347 14.1195C14.2342 14.0207 14.1546 13.9027 14.1007 13.7724C14.0467 13.6422 14.0196 13.5024 14.0208 13.3615L13.9288 9.71846L7.86523 15.3375C7.76414 15.4312 7.64558 15.5042 7.5163 15.5521C7.38703 15.6001 7.24958 15.622 7.11181 15.6168C6.97403 15.6116 6.83863 15.5794 6.71334 15.5218C6.58805 15.4643 6.47531 15.3816 6.38158 15.2805Z" fill="#FFF8E7"/>
</svg>
