<svg width="316" height="422" viewBox="0 0 316 422" fill="none" xmlns="http://www.w3.org/2000/svg">
<path d="M162.831 362.319C162.809 362.319 162.787 362.308 162.765 362.286L139.515 336.781C139.482 336.737 139.471 336.671 139.482 336.617C139.493 336.562 139.537 336.518 139.58 336.518H164.28C164.313 336.518 164.335 336.54 164.357 336.562C164.379 336.595 164.39 336.628 164.39 336.671L162.941 362.177C162.941 362.232 162.908 362.275 162.875 362.297C162.864 362.319 162.853 362.319 162.831 362.319ZM139.888 336.803L162.743 361.88L164.17 336.803H139.888Z" fill="#FFBF19"/>
<path d="M139.59 336.803C139.568 336.803 139.546 336.792 139.535 336.781L89.8729 272.393C89.84 272.36 89.818 272.305 89.829 272.25C89.829 272.195 89.862 272.151 89.9059 272.129L159.91 263.92C159.954 263.898 159.998 263.92 160.02 263.964C160.052 264.008 160.063 264.063 160.041 264.118L139.7 336.716C139.689 336.759 139.667 336.792 139.634 336.803C139.612 336.803 139.601 336.803 139.59 336.803ZM90.1693 272.316L139.535 336.441L159.756 264.293L90.1693 272.316Z" fill="#FFBF19"/>
<path d="M159.932 264.205C159.899 264.205 159.855 264.172 159.833 264.129C159.811 264.063 159.822 263.986 159.866 263.942L178.319 178.043C178.352 178.01 178.396 178.01 178.429 178.032C178.462 178.054 178.484 178.109 178.484 178.164L205.072 242.486C205.072 242.552 205.039 242.607 205.006 242.618L159.965 264.205C159.954 264.205 159.943 264.205 159.932 264.205ZM178.276 178.449L160.569 263.602L204.863 242.377L178.276 178.449Z" fill="#FFBF19"/>
<path d="M287.787 407.448C287.732 407.448 287.688 407.393 287.677 407.316L278.961 291.544C278.961 291.489 278.972 291.434 279.016 291.401C279.049 291.368 279.104 291.379 279.137 291.412L303.836 316.917C303.869 316.95 303.88 317.016 303.88 317.071L287.897 407.338C287.886 407.404 287.842 407.448 287.787 407.448ZM279.202 291.851L287.831 406.438L303.649 317.104L279.202 291.851Z" fill="#FFBF19"/>
<path d="M204.974 242.618C204.941 242.618 204.919 242.607 204.897 242.574C204.875 242.552 204.864 242.508 204.864 242.475L178.276 178.152C178.276 178.109 178.287 178.065 178.32 178.043C178.342 178.021 178.375 177.999 178.408 178.01L299.447 240.368C299.502 240.379 299.534 240.445 299.534 240.522C299.534 240.599 299.491 240.653 299.425 240.653L204.974 242.618ZM178.485 178.328L205.073 242.333L298.239 240.39L178.485 178.328Z" fill="#FFBF19"/>
<path d="M279.072 291.675C279.05 291.675 279.039 291.664 279.028 291.664L204.93 242.607C204.886 242.574 204.864 242.508 204.875 242.443C204.886 242.377 204.93 242.333 204.974 242.333L299.414 240.368C299.458 240.368 299.49 240.39 299.501 240.434C299.523 240.478 299.523 240.533 299.501 240.577L279.16 291.598C279.149 291.653 279.105 291.675 279.072 291.675ZM205.424 242.618L279.028 291.346L299.238 240.676L205.424 242.618Z" fill="#FFBF19"/>
<path d="M212.976 421.978H213.404L174.939 391.82L287.613 407.426L281.454 421.978H281.707L287.887 407.371C287.909 407.327 287.909 407.272 287.887 407.228C287.876 407.184 287.843 407.162 287.799 407.151L174.467 391.458C174.412 391.436 174.368 391.49 174.357 391.556C174.335 391.622 174.357 391.699 174.401 391.732L212.976 421.978Z" fill="#FFBF19"/>
<path d="M315.989 308.631L303.957 316.752L315.989 266.521V265.577L303.672 316.994C303.661 317.049 303.672 317.114 303.705 317.147C303.727 317.169 303.749 317.18 303.771 317.18C303.782 317.18 303.804 317.18 303.815 317.169L315.978 308.96V308.631H315.989Z" fill="#FFBF19"/>
<path d="M315.989 329.011L303.979 317.06L315.989 308.949V308.62L303.727 316.895C303.694 316.917 303.672 316.961 303.672 317.016C303.672 317.06 303.683 317.115 303.716 317.147L315.989 329.362V329.011Z" fill="#FFBF19"/>
<path d="M15.4241 421.978L13.3164 397.757L45.6014 421.978H46.0405L13.2395 397.362C13.2066 397.329 13.1627 397.34 13.1298 397.373C13.0968 397.406 13.0749 397.45 13.0859 397.516L15.2155 421.989H15.4241V421.978Z" fill="#FFBF19"/>
<path d="M45.6005 421.978H46.0396L13.7217 397.724L47.9717 403.507L51.3857 421.978H51.6053L48.1583 403.343C48.1473 403.288 48.1144 403.244 48.0705 403.233L13.1948 397.351C13.1399 397.329 13.096 397.384 13.085 397.449C13.074 397.515 13.085 397.592 13.1289 397.625L45.6005 421.978Z" fill="#FFBF19"/>
<path d="M139.59 336.803C139.579 336.803 139.568 336.803 139.557 336.792L95.9656 315.205C95.9327 315.194 95.9107 315.15 95.8997 315.106L89.8292 272.294C89.8182 272.239 89.8292 272.173 89.8731 272.14C89.906 272.107 89.9609 272.107 89.9938 272.14L139.645 336.518C139.689 336.54 139.711 336.584 139.711 336.65C139.7 336.737 139.656 336.803 139.59 336.803ZM96.0864 314.964L138.778 336.101L90.1036 272.601L96.0864 314.964Z" fill="#FFBF19"/>
<path d="M48.0494 403.518H48.0384L13.1627 397.636C13.1297 397.636 13.0968 397.603 13.0858 397.57C13.0749 397.537 13.0639 397.482 13.0749 397.449L34.8653 313.076C34.8763 313.01 34.9312 312.966 34.9751 312.977C35.019 312.977 35.0629 313.032 35.0739 313.098L48.1482 403.354C48.1591 403.398 48.1482 403.442 48.1262 403.475C48.1042 403.508 48.0823 403.518 48.0494 403.518ZM13.3273 397.373L47.9176 403.211L34.9422 313.668L13.3273 397.373Z" fill="#FFBF19"/>
<path d="M48.0483 403.518C48.0373 403.518 48.0373 403.518 48.0263 403.518C47.9824 403.507 47.9495 403.464 47.9385 403.409L34.8643 313.142C34.8643 313.098 34.8643 313.054 34.8862 313.021C34.9082 312.988 34.9411 312.966 34.974 312.966L95.9983 314.931C96.0422 314.931 96.0751 314.963 96.0861 315.007C96.108 315.051 96.0971 315.117 96.0751 315.161L48.1251 403.464C48.1142 403.497 48.0812 403.518 48.0483 403.518ZM35.1058 313.262L48.1142 403.025L95.7897 315.216L35.1058 313.262Z" fill="#FFBF19"/>
<path d="M95.9983 315.227L34.9631 313.262C34.9082 313.262 34.8643 313.208 34.8643 313.131C34.8643 313.065 34.8972 312.988 34.9411 312.977L89.8838 272.129C89.9387 272.107 90.0045 272.151 90.0155 272.228L96.0861 314.996C96.0971 315.018 96.108 315.051 96.108 315.073C96.108 315.161 96.0641 315.227 95.9983 315.227ZM35.7534 312.999L95.8556 314.931L89.8508 272.447L35.7534 312.999Z" fill="#FFBF19"/>
<path d="M167.079 421.978L174.522 391.82L212.987 421.978H213.415L174.522 391.479C174.489 391.457 174.467 391.457 174.434 391.468C174.401 391.49 174.379 391.512 174.368 391.556L166.859 421.978H167.079V421.978Z" fill="#FFBF19"/>
<path d="M138.679 421.978L174.269 391.94L166.859 421.978H167.089L174.576 391.655C174.587 391.6 174.576 391.534 174.543 391.49C174.51 391.457 174.455 391.446 174.422 391.479L138.284 421.978H138.679V421.978Z" fill="#FFBF19"/>
<path d="M125.056 385.86C125.034 385.86 125.001 385.849 124.979 385.816C124.946 385.773 124.935 385.707 124.957 385.652L139.491 336.595C139.502 336.551 139.535 336.518 139.568 336.507C139.601 336.496 139.634 336.507 139.667 336.54L162.917 362.045C162.95 362.078 162.961 362.122 162.961 362.177C162.961 362.221 162.928 362.265 162.895 362.287L125.121 385.838C125.088 385.86 125.067 385.86 125.056 385.86ZM139.634 336.902L125.253 385.443L162.632 362.144L139.634 336.902Z" fill="#FFBF19"/>
<path d="M174.456 391.754L125.046 385.872C125.002 385.861 124.958 385.817 124.947 385.751C124.936 385.685 124.958 385.619 125.002 385.597L162.776 362.056C162.831 362.023 162.886 362.056 162.918 362.122L174.533 391.524C174.555 391.545 174.566 391.589 174.566 391.622C174.566 391.688 174.511 391.732 174.456 391.754ZM125.463 385.619L174.269 391.436L162.787 362.364L125.463 385.619Z" fill="#FFBF19"/>
<path d="M51.6059 421.978L48.1809 403.497L124.157 386.069L60.8599 421.978H61.4088L125.101 385.849C125.155 385.816 125.177 385.751 125.166 385.674C125.155 385.608 125.101 385.564 125.046 385.575L48.0382 403.233C48.0052 403.244 47.9833 403.266 47.9723 403.299C47.9503 403.332 47.9503 403.376 47.9613 403.409L51.3973 421.978H51.6059V421.978Z" fill="#FFBF19"/>
<path d="M48.0486 403.519C48.0157 403.519 47.9718 403.497 47.9608 403.453C47.9388 403.409 47.9388 403.343 47.9608 403.288L95.9108 314.997C95.9327 314.953 95.9657 314.931 95.9986 314.942C96.0315 314.942 96.0645 314.975 96.0864 315.019L125.144 385.663C125.155 385.707 125.166 385.751 125.144 385.795C125.133 385.838 125.1 385.871 125.067 385.871L48.0596 403.53C48.0596 403.519 48.0596 403.519 48.0486 403.519ZM95.9876 315.348L48.3011 403.179L124.903 385.608L95.9876 315.348Z" fill="#FFBF19"/>
<path d="M61.4085 421.978L124.969 385.926L127.285 421.978H127.504L125.166 385.707C125.166 385.663 125.144 385.619 125.111 385.597C125.078 385.575 125.045 385.564 125.012 385.586L60.8486 421.978H61.4085Z" fill="#FFBF19"/>
<path d="M125.056 385.86C125.013 385.86 124.98 385.827 124.958 385.783L95.9001 315.15C95.8781 315.095 95.8781 315.029 95.911 314.985C95.944 314.941 95.9879 314.92 96.0318 314.941L139.624 336.529C139.646 336.54 139.668 336.573 139.69 336.606C139.701 336.638 139.701 336.682 139.69 336.715L125.155 385.772C125.144 385.827 125.1 385.86 125.056 385.86C125.056 385.86 125.067 385.86 125.056 385.86ZM96.2294 315.348L125.035 385.377L139.437 336.748L96.2294 315.348Z" fill="#FFBF19"/>
<path d="M127.505 421.978L125.178 385.882L174.127 391.71L138.263 421.978H138.669L174.511 391.732C174.555 391.699 174.566 391.633 174.555 391.578C174.544 391.523 174.511 391.468 174.456 391.468L125.057 385.586C125.024 385.586 124.991 385.597 124.969 385.63C124.948 385.663 124.937 385.707 124.937 385.751L127.275 422H127.505V421.978Z" fill="#FFBF19"/>
<path d="M279.071 291.675C279.049 291.675 279.027 291.664 279.005 291.642C278.961 291.598 278.95 291.521 278.972 291.456L299.313 240.434C299.324 240.401 299.346 240.368 299.379 240.368C299.412 240.357 299.434 240.368 299.467 240.379L311.092 250.191C311.125 250.213 311.136 250.257 311.147 250.3C311.147 250.344 311.136 250.388 311.114 250.421L279.148 291.631C279.126 291.664 279.093 291.675 279.071 291.675ZM299.456 240.719L279.488 290.797L310.862 250.355L299.456 240.719Z" fill="#FFBF19"/>
<path d="M303.77 317.191C303.748 317.191 303.726 317.18 303.704 317.159L279.005 291.653C278.983 291.631 278.961 291.587 278.961 291.544C278.961 291.5 278.972 291.456 278.994 291.434L310.961 250.224C310.993 250.18 311.048 250.169 311.081 250.202C311.125 250.235 311.147 250.29 311.136 250.355L303.869 317.071C303.858 317.126 303.836 317.17 303.803 317.181C303.792 317.181 303.781 317.191 303.77 317.191ZM279.235 291.522L303.693 316.774L310.884 250.718L279.235 291.522Z" fill="#FFBF19"/>
<path d="M315.989 250.18H311.071L300.313 241.093L315.989 248.655V248.347L299.446 240.369C299.402 240.347 299.336 240.38 299.314 240.445C299.292 240.511 299.303 240.599 299.358 240.632L310.983 250.443C310.994 250.454 311.016 250.465 311.038 250.465H315.989V250.18V250.18Z" fill="#FFBF19"/>
<path d="M315.989 265.588L304.067 315.348L311.137 250.476H315.989V250.191H311.038C310.983 250.191 310.939 250.246 310.928 250.311L303.661 317.027C303.65 317.104 303.683 317.169 303.738 317.191C303.749 317.191 303.749 317.191 303.76 317.191C303.804 317.191 303.848 317.147 303.859 317.093L315.967 266.532V265.588H315.989Z" fill="#FFBF19"/>
<path d="M315.989 248.358L299.621 240.467L315.989 220.208V219.813L299.347 240.413C299.314 240.445 299.303 240.5 299.314 240.555C299.325 240.599 299.347 240.643 299.38 240.665L315.989 248.676V248.358Z" fill="#FFBF19"/>
<path d="M209.33 325.039C209.308 325.039 209.275 325.028 209.253 324.995L159.854 264.173C159.821 264.14 159.811 264.085 159.821 264.041C159.832 263.986 159.854 263.953 159.887 263.931L204.928 242.344C204.961 242.322 204.994 242.333 205.027 242.355C205.06 242.377 205.071 242.421 205.071 242.465L209.429 324.83C209.429 324.852 209.44 324.863 209.44 324.885C209.44 324.973 209.396 325.039 209.33 325.039ZM160.129 264.118L209.199 324.534L204.873 242.673L160.129 264.118Z" fill="#FFBF19"/>
<path d="M174.455 391.754C174.411 391.754 174.378 391.721 174.357 391.677L162.731 362.243C162.709 362.177 162.72 362.089 162.775 362.056L209.265 324.775C209.309 324.742 209.364 324.753 209.397 324.797C209.43 324.852 209.441 324.918 209.408 324.984L174.532 391.699C174.521 391.721 174.488 391.754 174.455 391.754ZM162.973 362.221L174.466 391.326L208.947 325.357L162.973 362.221Z" fill="#FFBF19"/>
<path d="M287.788 407.447H287.777L174.445 391.754C174.412 391.754 174.368 391.71 174.357 391.666C174.346 391.622 174.346 391.567 174.368 391.523L209.243 324.808C209.254 324.775 209.287 324.753 209.309 324.753C209.342 324.753 209.364 324.753 209.386 324.786L287.843 407.195C287.887 407.239 287.898 407.305 287.876 407.36C287.876 407.415 287.832 407.447 287.788 407.447ZM174.653 391.479L287.426 407.096L209.353 325.082L174.653 391.479Z" fill="#FFBF19"/>
<path d="M209.331 325.038C209.309 325.038 209.287 325.027 209.276 325.016C209.254 324.995 209.232 324.951 209.232 324.907L204.874 242.498C204.874 242.443 204.885 242.399 204.918 242.366C204.951 242.333 204.995 242.333 205.028 242.355L279.126 291.412C279.17 291.434 279.192 291.489 279.192 291.555C279.192 291.609 279.159 291.664 279.115 291.686L209.364 325.027C209.353 325.027 209.342 325.038 209.331 325.038ZM205.094 242.717L209.43 324.687L278.797 291.511L205.094 242.717Z" fill="#FFBF19"/>
<path d="M287.787 407.447C287.765 407.447 287.743 407.437 287.721 407.415L209.265 325.005C209.232 324.972 209.221 324.918 209.221 324.863C209.232 324.808 209.254 324.764 209.287 324.753L279.027 291.401C279.06 291.39 279.093 291.39 279.115 291.412C279.137 291.434 279.159 291.478 279.159 291.521L287.875 407.25C287.875 407.272 287.886 407.283 287.886 407.305C287.897 407.382 287.853 407.447 287.787 407.447ZM209.55 324.94L287.655 406.976L278.983 291.73L209.55 324.94Z" fill="#FFBF19"/>
<path d="M178.375 178.306C178.353 178.306 178.342 178.306 178.32 178.285C178.276 178.252 178.254 178.175 178.276 178.109L238.28 109.001C238.29 108.957 238.323 108.924 238.356 108.913C238.389 108.902 238.422 108.913 238.455 108.946L255.888 130.533C255.931 130.588 255.931 130.665 255.898 130.731L178.452 178.263C178.441 178.285 178.408 178.306 178.375 178.306ZM238.433 109.297L178.781 177.231L255.679 130.643L238.433 109.297Z" fill="#FFBF19"/>
<path d="M299.412 240.665C299.412 240.665 299.401 240.665 299.39 240.665L178.352 178.306C178.319 178.296 178.286 178.263 178.275 178.219C178.264 178.175 178.264 178.12 178.286 178.076L255.732 130.555C255.754 130.512 255.787 130.49 255.82 130.501C255.853 130.501 255.886 130.534 255.908 130.577L299.5 240.456C299.522 240.511 299.522 240.566 299.489 240.61C299.478 240.643 299.445 240.665 299.412 240.665ZM178.571 178.065L299.215 240.325L255.809 130.896L178.571 178.065Z" fill="#FFBF19"/>
<path d="M139.591 336.803C139.558 336.803 139.525 336.781 139.503 336.748C139.481 336.704 139.47 336.66 139.492 336.606L159.834 264.008C159.856 263.942 159.889 263.898 159.944 263.92C159.988 263.92 160.031 263.975 160.042 264.041L168.759 332.721C168.759 332.764 168.759 332.797 168.737 332.83C168.715 332.863 168.693 332.885 168.66 332.885L139.602 336.814C139.591 336.803 139.591 336.803 139.591 336.803ZM159.889 264.611L139.745 336.496L168.517 332.611L159.889 264.611Z" fill="#FFBF19"/>
<path d="M164.291 336.803H139.591C139.536 336.803 139.492 336.748 139.481 336.672C139.481 336.595 139.525 336.529 139.58 336.518L168.638 332.589C168.693 332.589 168.737 332.622 168.748 332.688C168.77 332.754 168.748 332.82 168.704 332.852L164.346 336.77C164.324 336.803 164.313 336.803 164.291 336.803ZM141.743 336.518H164.258L168.232 332.94L141.743 336.518Z" fill="#FFBF19"/>
<path d="M168.648 332.885C168.593 332.885 168.549 332.841 168.538 332.765L159.822 264.085C159.811 264.03 159.833 263.964 159.877 263.931C159.921 263.909 159.965 263.909 159.998 263.953L209.397 324.775C209.43 324.819 209.441 324.874 209.43 324.929C209.419 324.984 209.386 325.016 209.342 325.027L168.659 332.874C168.659 332.885 168.648 332.885 168.648 332.885ZM160.086 264.458L168.725 332.578L209.078 324.797L160.086 264.458Z" fill="#FFBF19"/>
<path d="M162.83 362.319C162.819 362.319 162.82 362.319 162.809 362.319C162.754 362.308 162.721 362.242 162.721 362.166L164.17 336.66C164.17 336.616 164.192 336.573 164.214 336.551L168.572 332.633C168.605 332.6 168.66 332.6 168.692 332.633C168.725 332.666 168.747 332.731 168.736 332.786L162.918 362.22C162.929 362.275 162.885 362.319 162.83 362.319ZM164.389 336.748L163.028 360.618L168.462 333.072L164.389 336.748Z" fill="#FFBF19"/>
<path d="M162.83 362.319C162.808 362.319 162.786 362.308 162.765 362.286C162.732 362.254 162.71 362.188 162.721 362.133L168.528 332.699C168.539 332.644 168.572 332.6 168.616 332.589L209.298 324.742C209.342 324.731 209.397 324.775 209.419 324.841C209.43 324.907 209.419 324.972 209.375 325.016L162.885 362.297C162.874 362.308 162.852 362.319 162.83 362.319ZM168.736 332.874L163.006 361.869L208.815 325.137L168.736 332.874Z" fill="#FFBF19"/>
<path d="M315.989 30.7292L254.13 9.2517L315.989 15.5951V15.3097L252.922 8.84564C252.868 8.83466 252.824 8.88954 252.813 8.96636C252.802 9.04318 252.835 9.10903 252.89 9.13098L315.989 31.0365V30.7292Z" fill="#FFBF19"/>
<path d="M315.989 15.3099L254.153 8.96651L315.989 0.680595V0.384277L252.912 8.83481C252.857 8.84579 252.813 8.90066 252.813 8.97749C252.813 9.05431 252.857 9.10918 252.912 9.12016L315.989 15.5952V15.3099Z" fill="#FFBF19"/>
<path d="M315.989 0.384115L300.522 2.45834L315.989 0.296317V0L252.912 8.83465C252.857 8.84563 252.813 8.91147 252.813 8.9883C252.813 9.06512 252.868 9.11999 252.923 9.11999H252.934L315.989 0.669458V0.384115V0.384115Z" fill="#FFBF19"/>
<path d="M315.989 93.691L238.52 108.88L252.988 9.25147L315.989 77.9642V77.5911L252.988 8.86735C252.956 8.83443 252.923 8.82345 252.879 8.8454C252.846 8.86735 252.813 8.90028 252.813 8.95515L238.279 109.023C238.268 109.067 238.279 109.121 238.311 109.154C238.333 109.187 238.355 109.198 238.388 109.198H238.399L315.978 93.9873V93.691H315.989Z" fill="#FFBF19"/>
<path d="M315.989 97.9825L255.854 130.468L238.631 109.155L315.989 93.9877V93.6914L238.378 108.902C238.334 108.913 238.301 108.946 238.29 109.001C238.279 109.056 238.29 109.111 238.323 109.155L255.756 130.742C255.778 130.764 255.799 130.786 255.832 130.786C255.843 130.786 255.854 130.786 255.876 130.775L316 98.3008V97.9825H315.989Z" fill="#FFBF19"/>
<path d="M315.989 77.5913L253.373 9.28463L315.989 31.0256V30.7292L252.945 8.84564C252.901 8.82369 252.846 8.85661 252.824 8.92246C252.802 8.98831 252.813 9.05416 252.857 9.09806L315.989 77.9644V77.5913Z" fill="#FFBF19"/>
<path d="M315.989 154.897L299.38 240.127L255.975 130.709L315.989 98.2897V97.9824L255.788 130.501C255.766 130.522 255.733 130.544 255.722 130.588C255.711 130.632 255.711 130.665 255.733 130.709L299.325 240.588C299.347 240.632 299.38 240.665 299.413 240.665H299.424C299.468 240.665 299.501 240.621 299.512 240.555L315.978 156.039V154.897H315.989Z" fill="#FFBF19"/>
<path d="M315.988 219.802L299.61 240.072L315.988 156.028V154.886L299.313 240.467C299.302 240.533 299.324 240.588 299.368 240.632C299.379 240.643 299.401 240.654 299.423 240.654C299.456 240.654 299.478 240.643 299.5 240.621L315.999 220.197V219.802H315.988Z" fill="#FFBF19"/>
<path d="M13.4472 421.978L13.3045 400.16L15.2036 421.978H15.4232L13.2935 397.472C13.2935 397.395 13.2496 397.34 13.1838 397.34C13.1289 397.351 13.085 397.406 13.085 397.482L13.2386 421.967H13.4472V421.978Z" fill="#FFBF19"/>
<path d="M0 370.034L3.00785 421.978H3.21642L0.241507 370.583" fill="#FFBF19"/>
<path d="M0.241176 370.584L13.0739 397.537L13.2276 421.978H13.4472L13.2935 397.494C13.2935 397.472 13.2825 397.439 13.2715 397.417L0.197266 369.947" fill="#FFBF19"/>
<path d="M309.693 412.616L287.921 407.184L303.794 317.564L315.99 366.984V366.073L303.882 317.005C303.871 316.939 303.816 316.906 303.772 316.906C303.728 316.906 303.684 316.95 303.673 317.016L287.69 407.272C287.679 407.316 287.69 407.349 287.701 407.382C287.712 407.415 287.745 407.436 287.767 407.447L309.092 412.916L309.693 412.616Z" fill="#FFBF19"/>
<path d="M315.989 366.073L303.979 317.433L315.989 329.373V329.011L303.837 316.917C303.804 316.884 303.749 316.884 303.705 316.917C303.672 316.961 303.65 317.016 303.661 317.081L315.978 366.983V366.073H315.989Z" fill="#FFBF19"/>
<path d="M281.707 421.978L287.822 407.535L298.278 420.724H298.578L287.866 407.195C287.844 407.162 287.811 407.151 287.778 407.151C287.745 407.162 287.712 407.184 287.701 407.228L281.466 421.978H281.707Z" fill="#FFBF19"/>
<path d="M294.373 421.925H294.673L282.033 405.981L309.894 412.697V412.401L281.715 405.608C281.671 405.597 281.616 405.63 281.605 405.685C281.583 405.74 281.594 405.805 281.627 405.849L294.373 421.925Z" fill="#FFBF19"/>
<path d="M105.755 177.091L154.822 203.819L105.755 230.761L78.9131 279.708L52.071 230.761L3.0038 203.819L52.0711 177.091L78.9131 127.929L105.755 177.091Z" fill="url(#paint0_linear_925_783)"/>
<path d="M189.068 83.3683L216.527 98.3257L189.068 113.403L174.047 140.795L159.026 113.403L131.567 98.3257L159.026 83.3683L174.047 55.8564L189.068 83.3683Z" fill="url(#paint1_linear_925_783)"/>
<defs>
<linearGradient id="paint0_linear_925_783" x1="116.868" y1="165.874" x2="40.978" y2="241.783" gradientUnits="userSpaceOnUse">
<stop stop-color="#30235B"/>
<stop offset="1" stop-color="#664AC1"/>
</linearGradient>
<linearGradient id="paint1_linear_925_783" x1="195.287" y1="77.0911" x2="152.818" y2="119.571" gradientUnits="userSpaceOnUse">
<stop stop-color="#99730F"/>
<stop offset="1" stop-color="#FFBF19"/>
</linearGradient>
</defs>
</svg>
