<svg width="452" height="603" viewBox="0 0 452 603" fill="none" xmlns="http://www.w3.org/2000/svg">
<path d="M232.909 517.722C232.878 517.722 232.847 517.706 232.815 517.675L199.558 481.23C199.511 481.167 199.496 481.073 199.511 480.995C199.527 480.916 199.59 480.854 199.653 480.854H234.982C235.029 480.854 235.061 480.885 235.092 480.916C235.123 480.963 235.139 481.01 235.139 481.073L233.067 517.518C233.067 517.596 233.019 517.659 232.972 517.69C232.957 517.722 232.941 517.722 232.909 517.722ZM200.092 481.261L232.784 517.094L234.825 481.261H200.092Z" fill="#30235B"/>
<path d="M199.667 481.262C199.635 481.262 199.604 481.246 199.588 481.23L128.552 389.225C128.505 389.177 128.474 389.099 128.489 389.021C128.489 388.942 128.536 388.88 128.599 388.848L228.731 377.118C228.794 377.087 228.857 377.118 228.888 377.181C228.935 377.244 228.951 377.322 228.92 377.4L199.824 481.136C199.808 481.199 199.777 481.246 199.73 481.262C199.698 481.262 199.682 481.262 199.667 481.262ZM128.976 389.115L199.588 480.744L228.511 377.651L128.976 389.115Z" fill="#30235B"/>
<path d="M228.764 377.526C228.716 377.526 228.654 377.479 228.622 377.416C228.591 377.322 228.607 377.212 228.669 377.149L255.065 254.407C255.112 254.36 255.174 254.36 255.222 254.392C255.269 254.423 255.3 254.501 255.3 254.58L293.33 346.491C293.33 346.585 293.283 346.664 293.236 346.68L228.811 377.526C228.795 377.526 228.779 377.526 228.764 377.526ZM255.002 254.987L229.674 376.663L293.032 346.334L255.002 254.987Z" fill="#30235B"/>
<path d="M411.645 582.206C411.566 582.206 411.504 582.128 411.488 582.018L399.021 416.59C399.021 416.511 399.036 416.433 399.099 416.386C399.146 416.339 399.225 416.355 399.272 416.402L434.601 452.846C434.649 452.893 434.664 452.988 434.664 453.066L411.802 582.049C411.786 582.144 411.724 582.206 411.645 582.206ZM399.366 417.029L411.708 580.764L434.334 453.113L399.366 417.029Z" fill="#30235B"/>
<path d="M293.19 346.679C293.143 346.679 293.111 346.664 293.08 346.617C293.048 346.585 293.033 346.523 293.033 346.476L255.002 254.564C255.002 254.501 255.017 254.439 255.065 254.407C255.096 254.376 255.144 254.344 255.191 254.36L428.322 343.465C428.4 343.48 428.447 343.574 428.447 343.684C428.447 343.794 428.384 343.872 428.29 343.872L293.19 346.679ZM255.301 254.815L293.331 346.272L426.594 343.496L255.301 254.815Z" fill="#30235B"/>
<path d="M399.179 416.778C399.148 416.778 399.132 416.762 399.116 416.762L293.127 346.664C293.065 346.617 293.033 346.523 293.049 346.429C293.065 346.335 293.127 346.272 293.19 346.272L428.275 343.465C428.338 343.465 428.385 343.496 428.401 343.559C428.432 343.622 428.432 343.7 428.401 343.763L399.305 416.668C399.289 416.746 399.226 416.778 399.179 416.778ZM293.834 346.68L399.116 416.307L428.024 343.904L293.834 346.68Z" fill="#30235B"/>
<path d="M304.636 602.969H305.249L250.229 559.875L411.395 582.175L402.586 602.969H402.947L411.787 582.096C411.819 582.034 411.819 581.955 411.787 581.892C411.772 581.83 411.724 581.798 411.662 581.783L249.554 559.357C249.475 559.326 249.412 559.404 249.397 559.499C249.365 559.593 249.397 559.703 249.459 559.75L304.636 602.969Z" fill="#30235B"/>
<path d="M451.984 441.006L434.774 452.611L451.984 380.835V379.486L434.366 452.956C434.351 453.034 434.366 453.128 434.413 453.175C434.445 453.206 434.476 453.222 434.508 453.222C434.523 453.222 434.555 453.222 434.57 453.206L451.968 441.476V441.006H451.984Z" fill="#30235B"/>
<path d="M451.984 470.127L434.806 453.05L451.984 441.461V440.99L434.445 452.815C434.397 452.846 434.366 452.909 434.366 452.987C434.366 453.05 434.382 453.128 434.429 453.175L451.984 470.629V470.127Z" fill="#30235B"/>
<path d="M22.0617 602.969L19.0469 568.359L65.2267 602.969H65.8548L18.937 567.794C18.8899 567.747 18.8271 567.763 18.78 567.81C18.7328 567.857 18.7014 567.92 18.7171 568.014L21.7633 602.985H22.0617V602.969Z" fill="#30235B"/>
<path d="M65.2254 602.969H65.8534L19.6266 568.312L68.617 576.576L73.5004 602.969H73.8144L68.8839 576.341C68.8682 576.262 68.8211 576.2 68.7583 576.184L18.8729 567.778C18.7943 567.747 18.7315 567.826 18.7158 567.92C18.7001 568.014 18.7158 568.123 18.7786 568.171L65.2254 602.969Z" fill="#30235B"/>
<path d="M199.667 481.262C199.651 481.262 199.636 481.262 199.62 481.246L137.267 450.4C137.22 450.384 137.189 450.321 137.173 450.258L128.49 389.083C128.474 389.005 128.49 388.911 128.553 388.864C128.6 388.817 128.678 388.817 128.725 388.864L199.746 480.854C199.809 480.885 199.84 480.948 199.84 481.042C199.824 481.167 199.761 481.262 199.667 481.262ZM137.44 450.055L198.505 480.258L128.883 389.522L137.44 450.055Z" fill="#30235B"/>
<path d="M68.7286 576.592H68.7129L18.8274 568.186C18.7803 568.186 18.7332 568.139 18.7175 568.092C18.7018 568.045 18.6861 567.967 18.7018 567.92L49.8704 447.357C49.8861 447.263 49.9646 447.2 50.0275 447.216C50.0903 447.216 50.1531 447.295 50.1688 447.389L68.8699 576.357C68.8856 576.419 68.8699 576.482 68.8385 576.529C68.8071 576.576 68.7757 576.592 68.7286 576.592ZM19.063 567.81L68.5402 576.153L49.9804 448.204L19.063 567.81Z" fill="#30235B"/>
<path d="M68.7273 576.591C68.7116 576.591 68.7116 576.591 68.6959 576.591C68.6331 576.576 68.586 576.513 68.5703 576.435L49.8691 447.451C49.8691 447.388 49.8691 447.326 49.9005 447.279C49.9319 447.232 49.979 447.2 50.0261 447.2L137.314 450.007C137.377 450.007 137.424 450.054 137.44 450.117C137.471 450.18 137.455 450.274 137.424 450.337L68.8372 576.513C68.8215 576.56 68.7744 576.591 68.7273 576.591ZM50.2146 447.624L68.8215 575.886L137.016 450.415L50.2146 447.624Z" fill="#30235B"/>
<path d="M137.314 450.431L50.0104 447.624C49.9319 447.624 49.8691 447.545 49.8691 447.436C49.8691 447.341 49.9162 447.232 49.979 447.216L128.568 388.848C128.646 388.817 128.741 388.879 128.756 388.989L137.44 450.101C137.455 450.133 137.471 450.18 137.471 450.211C137.471 450.337 137.408 450.431 137.314 450.431ZM51.141 447.247L137.11 450.007L128.521 389.303L51.141 447.247Z" fill="#30235B"/>
<path d="M238.986 602.969L249.632 559.875L304.652 602.969H305.265L249.632 559.389C249.585 559.358 249.554 559.358 249.507 559.373C249.46 559.405 249.428 559.436 249.412 559.499L238.672 602.969H238.986Z" fill="#30235B"/>
<path d="M198.365 602.969L249.271 560.048L238.672 602.969L239.002 602.969L249.71 559.64C249.726 559.562 249.71 559.467 249.663 559.405C249.616 559.358 249.538 559.342 249.491 559.389L197.799 602.969H198.365Z" fill="#30235B"/>
<path d="M178.877 551.36C178.846 551.36 178.799 551.344 178.768 551.297C178.72 551.234 178.705 551.14 178.736 551.062L199.526 480.964C199.541 480.901 199.589 480.854 199.636 480.838C199.683 480.823 199.73 480.838 199.777 480.885L233.034 517.33C233.081 517.377 233.097 517.44 233.097 517.518C233.097 517.581 233.05 517.644 233.003 517.675L178.972 551.328C178.925 551.36 178.893 551.36 178.877 551.36ZM199.73 481.403L179.16 550.764L232.626 517.471L199.73 481.403Z" fill="#30235B"/>
<path d="M249.538 559.781L178.863 551.376C178.8 551.36 178.737 551.297 178.721 551.203C178.706 551.109 178.737 551.015 178.8 550.983L232.831 517.346C232.909 517.299 232.988 517.346 233.035 517.44L249.648 559.452C249.679 559.483 249.695 559.546 249.695 559.593C249.695 559.687 249.616 559.75 249.538 559.781ZM179.459 551.015L249.271 559.326L232.846 517.785L179.459 551.015Z" fill="#30235B"/>
<path d="M73.8153 602.969L68.9162 576.561L177.59 551.658L87.0521 602.969H87.8372L178.941 551.344C179.019 551.297 179.051 551.203 179.035 551.093C179.019 550.999 178.941 550.936 178.862 550.952L68.7121 576.184C68.665 576.2 68.6336 576.231 68.6179 576.278C68.5865 576.325 68.5865 576.388 68.6022 576.435L73.5169 602.969H73.8153Z" fill="#30235B"/>
<path d="M68.7286 576.592C68.6815 576.592 68.6182 576.561 68.6025 576.498C68.5711 576.435 68.5711 576.341 68.6025 576.263L137.189 450.102C137.221 450.039 137.268 450.008 137.315 450.023C137.362 450.023 137.409 450.07 137.44 450.133L179.004 551.078C179.019 551.14 179.035 551.203 179.004 551.266C178.988 551.328 178.941 551.375 178.894 551.375L68.7438 576.608C68.7438 576.592 68.7443 576.592 68.7286 576.592ZM137.299 450.604L69.0892 576.106L178.658 550.999L137.299 450.604Z" fill="#30235B"/>
<path d="M87.8372 602.969L178.752 551.454L182.065 602.969H182.379L179.034 551.14C179.034 551.077 179.003 551.015 178.956 550.983C178.909 550.952 178.862 550.936 178.815 550.968L87.036 602.969L87.8372 602.969Z" fill="#30235B"/>
<path d="M178.877 551.36C178.815 551.36 178.768 551.312 178.737 551.25L137.173 450.321C137.142 450.243 137.142 450.149 137.189 450.086C137.236 450.023 137.299 449.992 137.362 450.023L199.714 480.869C199.746 480.885 199.777 480.932 199.809 480.979C199.824 481.026 199.824 481.089 199.809 481.136L179.019 551.234C179.003 551.312 178.94 551.36 178.877 551.36ZM137.644 450.603L178.846 550.669L199.448 481.183L137.644 450.603Z" fill="#30235B"/>
<path d="M182.38 602.969L179.051 551.391L249.067 559.718L197.768 602.969H198.349L249.616 559.749C249.679 559.702 249.695 559.608 249.679 559.53C249.664 559.451 249.616 559.373 249.538 559.373L178.879 550.968C178.832 550.968 178.784 550.983 178.753 551.03C178.722 551.077 178.706 551.14 178.706 551.203L182.05 603H182.38V602.969Z" fill="#30235B"/>
<path d="M399.178 416.777C399.146 416.777 399.115 416.762 399.083 416.73C399.021 416.668 399.005 416.558 399.036 416.464L428.132 343.559C428.148 343.512 428.179 343.465 428.226 343.465C428.273 343.449 428.305 343.465 428.352 343.48L444.98 357.5C445.028 357.531 445.043 357.594 445.059 357.657C445.059 357.72 445.043 357.782 445.012 357.829L399.287 416.715C399.256 416.762 399.209 416.777 399.178 416.777ZM428.336 343.966L399.774 415.523L444.651 357.735L428.336 343.966Z" fill="#30235B"/>
<path d="M434.507 453.238C434.476 453.238 434.444 453.222 434.413 453.191L399.083 416.746C399.052 416.715 399.021 416.653 399.021 416.59C399.021 416.527 399.036 416.464 399.068 416.433L444.792 357.547C444.839 357.484 444.918 357.469 444.965 357.516C445.028 357.563 445.059 357.641 445.043 357.735L434.649 453.066C434.633 453.144 434.601 453.207 434.554 453.222C434.539 453.222 434.523 453.238 434.507 453.238ZM399.413 416.558L434.397 452.642L444.682 358.253L399.413 416.558Z" fill="#30235B"/>
<path d="M451.984 357.485H444.95L429.562 344.5L451.984 355.305V354.866L428.322 343.465C428.259 343.433 428.164 343.481 428.133 343.575C428.101 343.669 428.117 343.794 428.195 343.841L444.824 357.861C444.84 357.877 444.871 357.892 444.903 357.892H451.984V357.485Z" fill="#30235B"/>
<path d="M451.984 379.502L434.932 450.603L445.044 357.908H451.984V357.5H444.903C444.824 357.5 444.761 357.579 444.746 357.673L434.351 453.003C434.335 453.113 434.382 453.207 434.461 453.238C434.476 453.238 434.476 453.238 434.492 453.238C434.555 453.238 434.618 453.175 434.633 453.097L451.953 380.85V379.502H451.984Z" fill="#30235B"/>
<path d="M451.984 354.881L428.572 343.606L451.984 314.657V314.093L428.18 343.528C428.133 343.575 428.117 343.653 428.133 343.732C428.148 343.794 428.18 343.857 428.227 343.888L451.984 355.336V354.881Z" fill="#30235B"/>
<path d="M299.422 464.451C299.39 464.451 299.343 464.435 299.312 464.388L228.653 377.479C228.605 377.432 228.59 377.353 228.605 377.291C228.621 377.212 228.653 377.165 228.7 377.134L293.125 346.288C293.172 346.256 293.219 346.272 293.267 346.303C293.314 346.335 293.329 346.397 293.329 346.46L299.563 464.153C299.563 464.184 299.579 464.2 299.579 464.231C299.579 464.357 299.516 464.451 299.422 464.451ZM229.045 377.4L299.233 463.729L293.047 346.758L229.045 377.4Z" fill="#30235B"/>
<path d="M249.538 559.781C249.475 559.781 249.428 559.734 249.396 559.671L232.768 517.612C232.737 517.518 232.752 517.393 232.831 517.346L299.329 464.074C299.392 464.027 299.47 464.043 299.518 464.106C299.565 464.184 299.58 464.278 299.533 464.372L249.648 559.702C249.632 559.734 249.585 559.781 249.538 559.781ZM233.113 517.581L249.554 559.169L298.874 464.905L233.113 517.581Z" fill="#30235B"/>
<path d="M411.645 582.206L411.63 582.206L249.522 559.781C249.475 559.781 249.412 559.718 249.396 559.655C249.38 559.593 249.38 559.514 249.412 559.451L299.297 464.121C299.313 464.074 299.36 464.043 299.391 464.043C299.439 464.043 299.47 464.043 299.501 464.09L411.724 581.845C411.787 581.908 411.803 582.002 411.771 582.08C411.771 582.159 411.708 582.206 411.645 582.206ZM249.82 559.389L411.127 581.704L299.454 464.513L249.82 559.389Z" fill="#30235B"/>
<path d="M299.422 464.451C299.39 464.451 299.36 464.435 299.344 464.419C299.312 464.388 299.281 464.325 299.281 464.263L293.047 346.507C293.047 346.429 293.063 346.366 293.11 346.319C293.157 346.272 293.219 346.272 293.267 346.303L399.256 416.401C399.319 416.433 399.35 416.511 399.35 416.605C399.35 416.684 399.303 416.762 399.24 416.793L299.469 464.435C299.454 464.435 299.438 464.451 299.422 464.451ZM293.361 346.821L299.564 463.949L398.785 416.543L293.361 346.821Z" fill="#30235B"/>
<path d="M411.645 582.206C411.614 582.206 411.582 582.19 411.551 582.159L299.328 464.403C299.281 464.356 299.266 464.278 299.266 464.2C299.281 464.121 299.313 464.058 299.36 464.043L399.115 416.385C399.162 416.37 399.209 416.37 399.241 416.401C399.272 416.433 399.303 416.495 399.303 416.558L411.771 581.924C411.771 581.955 411.787 581.971 411.787 582.002C411.802 582.112 411.739 582.206 411.645 582.206ZM299.737 464.309L411.457 581.531L399.052 416.856L299.737 464.309Z" fill="#30235B"/>
<path d="M255.144 254.784C255.112 254.784 255.097 254.784 255.065 254.753C255.002 254.705 254.971 254.596 255.002 254.502L340.83 155.753C340.846 155.69 340.893 155.643 340.94 155.627C340.987 155.612 341.034 155.627 341.081 155.674L366.016 186.521C366.079 186.599 366.079 186.709 366.032 186.803L255.254 254.721C255.238 254.753 255.191 254.784 255.144 254.784ZM341.05 156.176L255.725 253.247L365.718 186.677L341.05 156.176Z" fill="#30235B"/>
<path d="M428.274 343.888C428.274 343.888 428.258 343.888 428.242 343.888L255.111 254.784C255.064 254.768 255.017 254.721 255.001 254.658C254.985 254.596 254.985 254.517 255.017 254.455L365.795 186.552C365.826 186.489 365.874 186.458 365.921 186.474C365.968 186.474 366.015 186.521 366.046 186.583L428.399 343.59C428.431 343.669 428.431 343.747 428.383 343.81C428.368 343.857 428.321 343.888 428.274 343.888ZM255.425 254.439L427.991 343.402L365.905 187.038L255.425 254.439Z" fill="#30235B"/>
<path d="M199.668 481.261C199.621 481.261 199.574 481.23 199.543 481.183C199.511 481.12 199.495 481.058 199.527 480.979L228.623 377.243C228.654 377.149 228.701 377.087 228.78 377.118C228.843 377.118 228.905 377.196 228.921 377.291L241.389 475.428C241.389 475.491 241.389 475.538 241.357 475.585C241.326 475.632 241.294 475.663 241.247 475.663L199.684 481.277C199.668 481.261 199.668 481.261 199.668 481.261ZM228.701 378.106L199.888 480.822L241.043 475.271L228.701 378.106Z" fill="#30235B"/>
<path d="M234.997 481.262L199.668 481.261C199.59 481.261 199.526 481.183 199.511 481.074C199.511 480.964 199.574 480.869 199.653 480.854L241.215 475.24C241.294 475.24 241.357 475.287 241.372 475.381C241.404 475.475 241.372 475.569 241.31 475.616L235.076 481.215C235.044 481.262 235.029 481.262 234.997 481.262ZM202.745 480.854H234.95L240.634 475.742L202.745 480.854Z" fill="#30235B"/>
<path d="M241.231 475.663C241.152 475.663 241.09 475.601 241.074 475.491L228.607 377.354C228.591 377.275 228.622 377.181 228.685 377.134C228.748 377.103 228.811 377.103 228.858 377.165L299.517 464.074C299.564 464.137 299.58 464.216 299.564 464.294C299.548 464.372 299.501 464.419 299.439 464.435L241.247 475.648C241.247 475.663 241.231 475.663 241.231 475.663ZM228.983 377.887L241.341 475.224L299.062 464.106L228.983 377.887Z" fill="#30235B"/>
<path d="M232.909 517.722C232.894 517.722 232.894 517.722 232.878 517.722C232.8 517.706 232.753 517.612 232.753 517.502L234.826 481.058C234.826 480.995 234.857 480.932 234.888 480.901L241.122 475.302C241.169 475.255 241.248 475.255 241.295 475.302C241.342 475.349 241.373 475.443 241.358 475.522L233.035 517.581C233.051 517.659 232.988 517.722 232.909 517.722ZM235.14 481.183L233.192 515.291L240.965 475.93L235.14 481.183Z" fill="#30235B"/>
<path d="M232.909 517.722C232.878 517.722 232.847 517.706 232.815 517.675C232.768 517.628 232.736 517.534 232.752 517.455L241.058 475.396C241.074 475.318 241.121 475.255 241.184 475.24L299.376 464.027C299.439 464.011 299.517 464.074 299.548 464.168C299.564 464.262 299.548 464.356 299.486 464.419L232.987 517.69C232.972 517.706 232.941 517.722 232.909 517.722ZM241.357 475.647L233.16 517.079L298.685 464.592L241.357 475.647Z" fill="#30235B"/>
<path d="M451.983 43.9095L363.502 13.22L451.983 22.2842V21.8764L361.775 12.6398C361.696 12.6241 361.634 12.7025 361.618 12.8123C361.602 12.9221 361.649 13.0162 361.728 13.0475L451.983 44.3486V43.9095Z" fill="#30235B"/>
<path d="M451.983 21.8764L363.534 12.8123L451.984 0.972437V0.549026L361.76 12.6241C361.681 12.6398 361.618 12.7182 361.618 12.8279C361.618 12.9377 361.681 13.0161 361.76 13.0318L451.983 22.2842V21.8764Z" fill="#30235B"/>
<path d="M451.984 0.549026L429.86 3.51274L451.984 0.42341V0L361.76 12.6241C361.681 12.6398 361.618 12.7337 361.618 12.8435C361.618 12.9532 361.697 13.0317 361.775 13.0317H361.791L451.984 0.956595V0.549026Z" fill="#30235B"/>
<path d="M451.984 133.876L341.175 155.58L361.87 13.2197L451.984 111.404V110.871L361.87 12.6708C361.823 12.6238 361.776 12.6081 361.713 12.6394C361.666 12.6708 361.619 12.7179 361.619 12.7963L340.829 155.784C340.814 155.846 340.829 155.925 340.876 155.972C340.908 156.019 340.939 156.035 340.986 156.035H341.002L451.969 134.3V133.876H451.984Z" fill="#30235B"/>
<path d="M451.984 140.008L365.968 186.427L341.332 155.972L451.984 134.3L451.984 133.876L340.971 155.612C340.908 155.627 340.861 155.674 340.845 155.753C340.829 155.831 340.845 155.91 340.892 155.972L365.827 186.819C365.858 186.85 365.89 186.881 365.937 186.881C365.953 186.881 365.968 186.881 366 186.866L452 140.463V140.008H451.984Z" fill="#30235B"/>
<path d="M451.984 110.871L362.419 13.2668L451.984 44.3326L451.983 43.9095L361.807 12.6395C361.744 12.6081 361.666 12.6552 361.634 12.7493C361.603 12.8433 361.618 12.9374 361.681 13.0002L451.984 111.404V110.871Z" fill="#30235B"/>
<path d="M451.983 221.334L428.226 343.12L366.14 186.771L451.983 140.447L451.984 140.008L365.873 186.474C365.842 186.505 365.795 186.536 365.779 186.599C365.763 186.662 365.763 186.709 365.795 186.771L428.148 343.779C428.179 343.841 428.226 343.888 428.274 343.888L428.289 343.888C428.352 343.888 428.399 343.826 428.415 343.732L451.968 222.965V221.334H451.983Z" fill="#30235B"/>
<path d="M451.983 314.077L428.556 343.041L451.983 222.949V221.318L428.132 343.606C428.116 343.7 428.148 343.778 428.21 343.841C428.226 343.857 428.258 343.872 428.289 343.872C428.336 343.872 428.367 343.857 428.399 343.825L451.999 314.641V314.077H451.983Z" fill="#30235B"/>
<path d="M19.2353 602.969L19.0312 571.793L21.7476 602.969L22.0617 602.969L19.0155 567.951C19.0155 567.841 18.9527 567.763 18.8584 567.763C18.7799 567.779 18.7171 567.857 18.7171 567.967L18.9369 602.953H19.2353V602.969Z" fill="#30235B"/>
<path d="M0 528.746L4.30237 602.968H4.60071L0.345446 529.53" fill="#30235B"/>
<path d="M0.345446 529.53L18.7007 568.045L18.9205 602.969L19.2353 602.969L19.0148 567.982C19.0148 567.951 18.9991 567.904 18.9833 567.873L0.282187 528.621" fill="#30235B"/>
<path d="M442.977 589.591L411.835 581.829L434.54 453.771L451.985 524.387V523.085L434.666 452.971C434.65 452.877 434.572 452.83 434.509 452.83C434.446 452.83 434.383 452.893 434.368 452.987L411.505 581.955C411.49 582.018 411.505 582.065 411.521 582.112C411.537 582.159 411.584 582.19 411.615 582.206L442.118 590.02L442.977 589.591Z" fill="#30235B"/>
<path d="M451.983 523.085L434.805 453.583L451.983 470.645L451.984 470.127L434.601 452.846C434.554 452.799 434.475 452.799 434.413 452.846C434.365 452.908 434.334 452.987 434.35 453.081L451.967 524.387V523.085H451.983Z" fill="#30235B"/>
<path d="M402.947 602.969L411.694 582.332L426.65 601.177H427.079L411.757 581.846C411.725 581.798 411.678 581.783 411.631 581.783C411.584 581.798 411.537 581.83 411.521 581.893L402.602 602.969L402.947 602.969Z" fill="#30235B"/>
<path d="M421.064 602.893H421.494L403.414 580.11L443.266 589.707V589.284L402.959 579.577C402.896 579.561 402.817 579.608 402.802 579.687C402.77 579.765 402.786 579.859 402.833 579.922L421.064 602.893Z" fill="#30235B"/>
</svg>
