<svg width="140" height="100" viewBox="0 0 140 100" fill="none" xmlns="http://www.w3.org/2000/svg">
<path d="M114.021 13.4259C114.07 12.5142 113.838 11.6094 113.359 10.8309C112.879 10.0525 112.172 9.43694 111.333 9.06564C108.805 7.75991 94.1466 5.22461 93.3154 5.07668C92.1106 4.86284 67.3577 0.518706 65.7638 0.500398C60.4884 0.44108 61.167 7.03344 60.9953 10.0938C60.509 19.0911 60.4596 27.6256 60.4184 36.6376C60.4185 36.6758 60.4272 36.7136 60.4439 36.7481C60.4606 36.7825 60.4849 36.8128 60.5149 36.8368C60.1354 41.807 61.8929 44.4375 65.8139 46.201C68.4564 47.3866 80.6807 51.0343 83.668 51.8882C84.1057 52.9281 84.4535 53.8977 84.9458 54.9749C82.3232 55.6882 80.534 56.3664 78.0809 57.087C77.8635 57.1511 77.6702 57.2781 77.5257 57.4518C77.3811 57.6255 77.2918 57.8379 77.2691 58.0622C77.2465 58.2865 77.2914 58.5123 77.3983 58.7111C77.5052 58.9099 77.6692 59.0726 77.8694 59.1785C81.7993 61.2041 86.1653 62.8049 90.2492 64.4746C91.5787 65.0272 93.0734 65.0385 94.4111 64.5061C100.756 61.9547 100.62 62.2301 101.227 61.6442C101.61 61.2767 101.864 60.797 101.953 60.2754C102.042 59.7538 101.961 59.2175 101.722 58.7449C101.459 58.2323 100.617 56.6329 100.464 56.3502C103.392 57.0789 105.276 57.6684 107.026 57.7124C109.377 57.7783 111.097 56.8585 111.889 54.6652C112.224 53.5925 112.427 52.4835 112.494 51.3624C112.575 51.2854 112.623 51.1806 112.629 51.0695C114.523 19.4156 113.907 24.9292 114.021 13.4259ZM74.9005 16.9484C76.9527 16.9901 78.0831 17.4698 79.8465 17.8645C83.4904 18.7235 83.9864 18.6547 87.1616 19.6279C87.2302 19.6517 87.2875 19.6997 87.3226 19.7629C87.3577 19.826 87.3681 19.8998 87.3518 19.9701C87.3356 20.0404 87.2938 20.1023 87.2345 20.1438C87.1752 20.1854 87.1025 20.2038 87.0305 20.1955C86.508 20.1157 85.987 20.049 85.4653 19.9648C81.058 19.2544 75.7884 17.6778 74.8393 17.4749C74.7748 17.4604 74.718 17.4227 74.6797 17.3691C74.6415 17.3154 74.6245 17.2496 74.6321 17.1844C74.6397 17.1191 74.6713 17.0588 74.7208 17.0153C74.7704 16.9717 74.8344 16.9479 74.9005 16.9484ZM73.3434 21.7509C73.6669 21.8542 73.9934 21.9267 74.3228 22.0021C81.7027 23.6909 81.181 23.1636 84.8515 24.1874C84.9221 24.2082 84.9822 24.2545 85.0202 24.3173C85.0581 24.38 85.071 24.4545 85.0564 24.5262C85.0418 24.598 85.0007 24.6617 84.9413 24.7048C84.8818 24.7479 84.8082 24.7674 84.735 24.7593C84.1787 24.6897 83.6297 24.648 83.0726 24.5755C80.1555 24.1932 77.2686 23.6106 74.4326 22.8318C73.9841 22.6676 73.5488 22.4698 73.1305 22.2401C73.0667 22.2111 73.0169 22.1584 72.9918 22.0933C72.9666 22.0282 72.9682 21.9559 72.996 21.8919C73.0239 21.8279 73.0758 21.7774 73.1408 21.751C73.2057 21.7246 73.2785 21.7246 73.3434 21.7509ZM68.2103 26.7681C81.4485 30.6992 75.291 28.9965 85.1389 31.5501C86.1432 31.8116 87.1329 32.1199 88.141 32.3674C88.2104 32.3902 88.2688 32.4378 88.3049 32.5009C88.341 32.5641 88.3522 32.6383 88.3363 32.7092C88.3204 32.7801 88.2786 32.8427 88.2189 32.8846C88.1593 32.9266 88.086 32.9451 88.0135 32.9364C84.5896 32.3701 81.2056 31.5874 77.882 30.593C74.5133 29.7481 71.218 28.6371 68.0275 27.2704C67.9605 27.2464 67.9058 27.1968 67.8755 27.1327C67.8453 27.0685 67.8419 26.9951 67.8661 26.9284C67.8904 26.8618 67.9402 26.8075 68.0048 26.7774C68.0693 26.7474 68.1432 26.744 68.2103 26.7681ZM67.9354 32.4853C68.1388 32.4912 68.3363 32.4956 68.5396 32.5095C70.624 32.8613 72.6786 33.369 74.6861 34.0283C75.0022 34.1389 75.3028 34.27 75.6145 34.3879C75.6824 34.4131 75.7386 34.4624 75.7723 34.5262C75.8059 34.59 75.8148 34.6639 75.7971 34.7337C75.7794 34.8036 75.7364 34.8645 75.6764 34.9049C75.6163 34.9453 75.5434 34.9622 75.4716 34.9525C74.1075 34.7805 72.7639 34.4743 71.4607 34.0386C70.2358 33.7624 69.027 33.4201 67.8396 33.0133C67.7691 33.0007 67.7066 32.9608 67.6658 32.9023C67.6249 32.8439 67.6091 32.7717 67.6218 32.7017C67.6345 32.6317 67.6747 32.5696 67.7335 32.529C67.7923 32.4884 67.8649 32.4727 67.9354 32.4853ZM101.049 59.0686C101.15 59.2861 101.203 59.5222 101.206 59.7615C101.209 60.0009 101.162 60.2382 101.067 60.4581C100.972 60.6781 100.831 60.8757 100.654 61.0382C100.477 61.2008 100.268 61.3247 100.04 61.4018C97.8524 62.17 96.2335 62.8262 94.0714 63.6852C92.9504 64.1281 91.6994 64.1168 90.5867 63.6537C86.5338 61.9928 82.1264 60.3663 78.2806 58.3956C78.2372 58.3717 78.2018 58.3356 78.1789 58.2918C78.1561 58.248 78.1467 58.1985 78.1521 58.1495C78.1574 58.1004 78.1773 58.0541 78.209 58.0162C78.2408 57.9783 78.2831 57.9505 78.3307 57.9364C79.0676 57.7168 84.7306 55.8376 85.5744 55.5776C85.6272 55.562 85.6759 55.5351 85.7171 55.4988C85.7584 55.4625 85.7911 55.4177 85.8131 55.3675C85.9133 55.1324 85.8131 55.1258 85.2641 53.9907C84.9598 53.3609 84.6746 52.7252 84.3725 52.094C89.5057 53.5586 94.5217 54.8702 99.6667 56.1569C99.8428 56.4952 100.764 58.4359 101.052 59.065L101.049 59.0686ZM111.228 54.4257C109.763 58.1342 105.782 56.7845 102.16 55.875C97.1524 54.631 92.1577 53.3218 87.1764 51.9475C82.7668 50.7223 69.0488 46.6748 66.1646 45.4152C62.5635 43.8436 60.9091 41.5976 61.0572 37.0235C62.4787 37.4329 110.314 50.9882 111.881 51.4261C111.785 52.4468 111.567 53.4526 111.231 54.422L111.228 54.4257Z" fill="#30235B"/>
<path d="M33.4879 50.8146C33.5313 49.8517 33.4697 48.887 33.3045 47.9373C33.1112 47.1828 32.664 46.5169 32.037 46.0501C31.3744 45.5291 30.6764 45.0541 29.9479 44.6287C28.4264 43.7599 26.8444 43 25.2141 42.3548C24.8887 42.2251 24.5294 42.205 24.1913 42.2976C23.8533 42.3902 23.5551 42.5904 23.3424 42.8674C22.7713 43.7462 23.0536 45.6876 23.0646 47.1559C23.0933 50.7267 23.3373 50.8263 29.4174 53.7673C30.4276 54.2565 31.6914 55.1353 32.4607 55.1353C32.7055 55.1345 32.9427 55.0511 33.1335 54.8988C33.3243 54.7464 33.4573 54.5342 33.5108 54.2968C33.7046 53.6238 33.5071 51.8692 33.4879 50.8146ZM27.5803 49.481C27.3732 49.9453 26.3534 49.4239 26.0151 49.2613C25.7528 49.1429 25.5002 49.0041 25.2598 48.8461C25.1861 48.7817 24.7779 48.3994 24.9017 48.1753C25.0255 47.9512 25.5781 48.0838 25.6526 48.1057C25.7663 48.143 25.8765 48.1901 25.982 48.2464C26.4757 48.477 27.7896 49.0028 27.5803 49.4781V49.481ZM30.3517 48.6755C30.0909 48.5752 29.8293 48.5107 29.5691 48.4111C28.8831 48.1519 26.8625 47.1479 26.1979 46.7766C25.8904 46.5955 25.5968 46.3921 25.3195 46.168C25.2551 46.1378 25.2054 46.0834 25.1814 46.0168C25.1573 45.9502 25.1609 45.8768 25.1913 45.8128C25.2217 45.7488 25.2764 45.6995 25.3434 45.6756C25.4104 45.6517 25.4843 45.6552 25.5487 45.6854C26.9134 46.0267 26.8751 46.1688 28.8094 47.0944C29.475 47.3547 30.0955 47.7167 30.6487 48.1673C30.7068 48.2102 30.747 48.273 30.7615 48.3435C30.7761 48.4141 30.764 48.4875 30.7275 48.5497C30.6911 48.6119 30.6328 48.6586 30.5639 48.6809C30.495 48.7031 30.4202 48.6994 30.3539 48.6704L30.3517 48.6755Z" fill="#FFF8E7"/>
<path d="M29.2287 55.0225C29.1174 57.366 32.4917 58.4132 34.7141 59.79C35.6809 60.389 36.7037 61.1587 37.7943 60.6643C38.9063 60.1583 38.826 58.6768 38.8319 57.5307C38.8378 56.4747 39.2386 54.805 38.5437 53.7768C37.7332 52.5751 36.0715 52.2053 35.014 51.7791C34.9448 51.7585 34.8703 51.7639 34.8048 51.7943C34.7393 51.8247 34.6874 51.878 34.6588 51.944C34.6302 52.01 34.6271 52.0841 34.6499 52.1523C34.6727 52.2204 34.72 52.2779 34.7827 52.3137C35.7915 52.7736 37.2719 53.3902 37.8142 54.247C38.2969 55.0094 37.9424 56.578 37.9329 57.5234C37.9284 58.1774 38.0301 59.5673 37.417 59.8449C36.7457 60.151 35.8069 59.4099 35.1879 59.0305C32.6626 57.4831 29.8882 56.7332 29.7644 55.0152C29.76 54.947 29.7294 54.8831 29.6789 54.8366C29.6284 54.7902 29.5618 54.7649 29.4931 54.7658C29.4243 54.7667 29.3585 54.7939 29.3093 54.8417C29.2601 54.8895 29.2312 54.9542 29.2287 55.0225Z" fill="#30235B"/>
<path d="M39.9763 8.13193C39.3834 7.96679 38.7539 7.98592 38.1724 8.18674C37.5908 8.38755 37.085 8.76044 36.7229 9.25531C36.3141 9.84815 36.0737 10.5395 36.0267 11.2566C35.9798 11.9738 36.1281 12.6902 36.4561 13.3307C37.0795 14.5295 38.2984 15.4544 39.6358 15.1996C42.5959 14.6254 43.0609 9.30218 39.9763 8.13193ZM39.1436 12.4468C39.0814 12.5133 39.0004 12.5595 38.9112 12.5793C38.822 12.5991 38.7289 12.5916 38.6441 12.5577C38.5594 12.5238 38.4869 12.4652 38.4364 12.3896C38.3858 12.314 38.3595 12.2249 38.361 12.1341C38.3139 11.0806 38.3786 10.0251 38.5541 8.98508C38.6675 8.49955 38.7258 8.16781 39.0073 8.20223C39.2541 8.23225 39.2416 8.40582 39.2806 9.04733C39.3164 9.72744 39.3164 10.4089 39.2806 11.089C39.5363 10.8752 39.9505 10.5566 40.1892 10.4007C40.9666 9.88804 41.2032 9.73352 41.3896 9.95175C41.7956 10.4212 40.092 11.4157 39.1436 12.4468Z" fill="#FFF8E7"/>
<path d="M44.4603 11.8375C44.6902 11.8924 44.9319 11.9202 45.1713 11.9649C45.5494 12.0381 46.4624 12.3142 46.6134 11.9173C46.8345 11.3446 45.329 11.0385 44.7049 10.9873C44.3637 10.9587 43.8103 11.0868 43.7845 11.3249C43.7558 11.5914 44.2583 11.7884 44.4603 11.8375Z" fill="#FFF8E7"/>
<path d="M43.9253 14.7909C44.4269 14.9323 44.9378 15.039 45.4543 15.1102C45.6496 15.1278 46.1912 15.1102 46.2443 14.8298C46.3533 14.3076 44.8611 14.0718 44.321 13.9898C43.9827 13.9378 43.4301 14.003 43.38 14.2439C43.3299 14.4848 43.8486 14.7602 43.9253 14.7909Z" fill="#FFF8E7"/>
<path d="M36.6728 17.3863C37.2128 17.6287 37.7708 17.8295 38.3418 17.9868C38.4258 18.0102 43.7057 19.3548 43.7889 19.3782C44.1655 19.469 44.912 19.606 45.1655 19.658C45.2366 19.6728 45.3107 19.6611 45.3736 19.625C45.4365 19.5889 45.4838 19.5309 45.5064 19.4623C45.529 19.3936 45.5252 19.3191 45.4959 19.2531C45.4666 19.187 45.4137 19.134 45.3475 19.1043C44.9879 18.9432 44.4691 18.7118 44.0277 18.5617C42.9533 18.1955 39.6108 17.3672 38.3824 17.108C37.7494 16.9747 37.2689 16.9366 36.8113 16.8744C36.7459 16.8642 36.6791 16.8784 36.6236 16.9142C36.5681 16.95 36.5279 17.005 36.5107 17.0685C36.4935 17.132 36.5005 17.1996 36.5305 17.2583C36.5604 17.3169 36.6111 17.3625 36.6728 17.3863Z" fill="#FFF8E7"/>
<path d="M37.3006 21.0757C38.0381 21.3491 38.7922 21.5759 39.5584 21.7546C40.6277 21.9069 40.8605 21.3152 39.6041 20.8758C39.0647 20.6861 37.7936 20.3097 37.5453 20.2738C36.5387 20.1259 36.3434 20.6151 37.3006 21.0757Z" fill="#FFF8E7"/>
<path d="M38.123 25.5326C38.1967 25.5532 42.8479 26.749 43.038 26.7937C44.1729 27.0661 44.8847 27.2016 44.9753 26.8479C45.0704 26.4817 44.2384 26.2467 43.4168 25.9991C42.2768 25.6571 39.2976 24.8692 38.3094 24.7051C37.8135 24.6253 36.7767 24.4547 36.7067 24.8062C36.6566 25.0625 36.8231 25.1621 38.123 25.5326Z" fill="#FFF8E7"/>
<path d="M37.3809 28.2869C38.152 28.5872 38.9425 28.8355 39.7471 29.0302C40.1789 29.091 40.4759 29.1254 40.5628 28.8757C40.6601 28.5872 40.0308 28.2686 39.9306 28.2203C39.1819 27.9335 38.4175 27.689 37.6411 27.4879C36.4841 27.3071 36.5438 27.8841 37.3809 28.2869Z" fill="#FFF8E7"/>
<path d="M49.5868 7.17771C49.2698 6.7589 48.8236 6.45465 48.3164 6.31138C35.6021 2.74863 36.2093 2.88557 36.1864 2.95953C35.8453 2.85861 35.4853 2.83787 35.1347 2.89895C34.7842 2.96003 34.4527 3.10125 34.1665 3.31148C33.8803 3.5217 33.6472 3.79516 33.4855 4.11027C33.3239 4.42539 33.2382 4.77353 33.2352 5.12721C33.2094 7.73501 33.1048 30.4553 33.1003 33.3385C33.1004 33.8063 33.2359 34.2642 33.4907 34.6575C33.7455 35.0508 34.1088 35.363 34.5373 35.5567L46.3894 40.9187C46.9524 41.1736 47.5914 41.208 48.1788 41.0151C48.7662 40.8222 49.2588 40.4162 49.5581 39.8781C49.7885 39.5297 49.9301 39.1308 49.9707 38.7159V8.63284C50.0084 8.11893 49.8734 7.60712 49.5868 7.17771ZM34.0384 4.37218C34.2136 4.01302 34.5099 3.72623 34.8758 3.56167C35.2417 3.39711 35.6541 3.36518 36.0413 3.47143C36.0192 3.54466 35.4518 3.34108 48.0924 7.09643C48.4233 7.19442 48.7131 7.39704 48.9176 7.67354C49.1221 7.95003 49.2303 8.2853 49.2257 8.62844L48.9803 36.256C45.5044 34.5907 36.3493 30.9555 34.0008 30.2071C34.0104 4.36047 33.6508 5.16236 34.0384 4.37218ZM48.7681 39.4431C48.6428 39.6676 48.4631 39.8575 48.2452 39.9955C48.0274 40.1335 47.7783 40.2152 47.5206 40.2333C46.9642 40.2736 47.8352 40.5753 34.9153 34.7409C34.6436 34.6184 34.4132 34.4207 34.2517 34.1715C34.0902 33.9222 34.0043 33.632 34.0045 33.3355V30.8383C36.8275 32.2297 46.4454 36.0913 48.9774 36.9312C48.9575 38.7818 49.0164 38.9905 48.7652 39.4431H48.7681Z" fill="#30235B"/>
<path d="M38.2438 2.82918C40.0632 2.90241 40.6829 3.55125 48.2184 5.45456C49.2176 5.70648 50.6862 6.11365 51.2013 6.99976C52.0569 8.46953 51.5064 11.0868 51.4334 12.7675C51.2522 16.9242 50.9994 21.272 50.9729 25.5693C50.95 29.2404 50.7231 32.374 50.7651 36.1638C50.7865 38.0751 51.1954 39.7316 49.3363 40.5079C49.2728 40.5425 49.2243 40.599 49.2001 40.6668C49.1759 40.7345 49.1776 40.8088 49.2049 40.8754C49.2322 40.942 49.2832 40.9962 49.3482 41.0279C49.4132 41.0595 49.4876 41.0663 49.5573 41.0469C51.8048 40.1593 51.5167 38.3373 51.5572 36.1667C51.5757 35.1817 52.2256 15.3621 52.3354 12.8056C52.457 10.0111 53.3361 6.82034 50.6862 5.39231C49.9697 5.04157 49.2131 4.77846 48.4328 4.60873C39.7066 2.42421 39.5164 2.31729 38.2637 2.29532C38.1925 2.2927 38.1231 2.3183 38.0709 2.36651C38.0187 2.41472 37.9878 2.48157 37.9852 2.55236C37.9825 2.62316 38.0083 2.69209 38.0568 2.74401C38.1053 2.79592 38.1726 2.82656 38.2438 2.82918Z" fill="#30235B"/>
<path d="M121.572 33.5992C121.771 33.7794 121.982 33.9444 122.206 34.0928C122.746 34.3893 123.302 34.6561 123.871 34.8917C124.656 35.299 125.504 35.5714 126.38 35.6973C126.451 35.714 126.526 35.704 126.59 35.6694C126.653 35.6348 126.702 35.578 126.726 35.5098C126.751 35.4417 126.749 35.367 126.721 35.3002C126.693 35.2335 126.641 35.1792 126.576 35.148C126.328 35.0148 126.1 34.8639 125.844 34.7416C125.351 34.5058 124.83 34.3249 124.323 34.1074C121.849 33.0485 122.986 33.46 121.823 33.1305C121.761 33.1051 121.692 33.1034 121.629 33.1258C121.567 33.1482 121.514 33.1931 121.483 33.2517C121.452 33.3102 121.444 33.3783 121.46 33.4425C121.477 33.5068 121.517 33.5626 121.572 33.5992Z" fill="#FFF8E7"/>
<path d="M121.655 37.7683C127.053 39.974 122.858 38.2077 127.173 39.9294C131.758 41.7558 130.977 41.5031 133.222 42.1842C133.293 42.2026 133.367 42.1948 133.432 42.1621C133.496 42.1294 133.546 42.0743 133.573 42.0071C133.599 41.94 133.599 41.8656 133.574 41.7982C133.548 41.7307 133.499 41.675 133.435 41.6415C132.962 41.4218 132.502 41.1831 132.025 40.9641C130.695 40.3512 125.064 37.9924 122.731 37.449C122.423 37.3758 122.118 37.3164 121.81 37.2557C121.741 37.2353 121.667 37.2427 121.604 37.2764C121.542 37.31 121.495 37.3671 121.474 37.4351C121.454 37.5031 121.461 37.5764 121.495 37.6388C121.529 37.7013 121.586 37.7479 121.655 37.7683Z" fill="#FFF8E7"/>
<path d="M121.46 42.2926C121.626 42.4375 121.803 42.5688 121.99 42.6851C122.812 43.0632 123.653 43.4 124.509 43.6942C124.791 43.7929 125.083 43.8592 125.379 43.892C125.448 43.9113 125.522 43.905 125.586 43.8743C125.651 43.8435 125.702 43.7904 125.73 43.7249C125.758 43.6593 125.761 43.5859 125.739 43.5182C125.716 43.4506 125.67 43.3934 125.608 43.3574C125.155 43.0041 124.639 42.7406 124.086 42.5811C122.001 41.7587 122.409 41.9286 121.679 41.8048C121.615 41.7798 121.543 41.7803 121.479 41.8064C121.415 41.8325 121.364 41.8821 121.335 41.9449C121.307 42.0077 121.304 42.0788 121.328 42.1436C121.351 42.2083 121.398 42.2617 121.46 42.2926Z" fill="#FFF8E7"/>
<path d="M123.479 59.0093C124.352 56.9913 125.371 55.0382 126.526 53.1654C126.57 53.0901 126.634 53.0288 126.711 52.9888C126.788 52.9488 126.876 52.9319 126.963 52.94C127.049 52.9481 127.132 52.981 127.2 53.0346C127.269 53.0882 127.32 53.1603 127.349 53.2423C128.233 55.7995 129.209 58.0441 130.09 60.6644C130.827 58.5099 131.854 56.0222 132.31 54.2858C132.335 54.2177 132.384 54.1611 132.448 54.1268C132.512 54.0925 132.587 54.083 132.657 54.1001C132.728 54.1172 132.79 54.1597 132.831 54.2194C132.872 54.2791 132.889 54.3518 132.88 54.4235C132.143 57.6999 131.323 59.5498 130.508 62.2337C130.48 62.3241 130.424 62.4033 130.348 62.4597C130.272 62.516 130.179 62.5464 130.084 62.5464C129.989 62.5464 129.897 62.516 129.821 62.4597C129.744 62.4033 129.688 62.3241 129.661 62.2337C128.893 59.6845 127.741 57.0042 126.821 54.4652C125.704 56.2612 124.765 58.1608 124.016 60.1371C123.991 60.2175 123.943 60.2889 123.878 60.3429C123.813 60.3969 123.734 60.4312 123.65 60.4417C123.566 60.4522 123.48 60.4384 123.404 60.4021C123.327 60.3657 123.263 60.3083 123.218 60.2367C122.32 58.9628 121.548 57.6056 120.912 56.184L120.069 58.3129C120.043 58.3769 119.993 58.4285 119.93 58.4568C119.867 58.4852 119.795 58.488 119.73 58.4648C119.664 58.4416 119.611 58.3941 119.58 58.3323C119.549 58.2705 119.543 58.1992 119.564 58.1334L120.59 54.9339C120.617 54.8581 120.668 54.7928 120.734 54.7475C120.801 54.7022 120.881 54.6794 120.962 54.6822C121.043 54.6851 121.121 54.7135 121.184 54.7634C121.248 54.8133 121.294 54.882 121.315 54.9596C121.856 56.3972 122.583 57.7586 123.479 59.0093Z" fill="#FFF8E7"/>
<path d="M126.68 49.834C126.262 49.1105 125.607 48.5517 124.823 48.2515C124.036 47.8714 123.195 47.6128 122.33 47.4847C121.951 47.4847 121.417 47.6129 121.372 48.0054C121.192 48.6751 121.238 49.3849 121.504 50.0259C121.97 50.7165 122.883 50.9603 123.587 51.2657C124.199 51.5286 124.981 52.0273 125.6 51.9636C126.48 51.8779 126.685 51.0182 126.621 50.1453C126.664 50.1066 126.692 50.0554 126.703 49.9993C126.713 49.9432 126.705 49.8852 126.68 49.834Z" fill="#FFF8E7"/>
<path d="M132.538 65.5607C132.587 64.5273 132.606 61.5072 133.079 57.2173C133.252 55.6289 133.455 54.2368 133.541 53.8391C133.563 53.7705 133.609 53.7123 133.671 53.6756C133.734 53.639 133.807 53.6263 133.879 53.6402C133.95 53.654 134.013 53.6934 134.057 53.7507C134.1 53.8081 134.121 53.8794 134.116 53.9511C134.093 54.0976 134.07 54.3832 134.042 54.7655C133.167 66.8217 133.648 66.4277 133.158 66.6855C132.826 66.862 132.789 66.6401 131.321 65.9803C130.584 65.6485 129.831 65.3454 129.11 65.0231C128.373 64.6958 122.291 61.7504 121.594 61.3915C121.121 61.1477 120.664 60.8789 120.213 60.608C120.152 60.5729 120.107 60.5149 120.088 60.4468C120.069 60.3787 120.079 60.306 120.114 60.2447C120.149 60.1834 120.208 60.1386 120.276 60.1201C120.345 60.1015 120.418 60.1108 120.479 60.1459C121.315 60.5933 123.066 61.2399 124.052 61.6779C125.33 62.2447 128.931 63.9642 129.476 64.2073C130.452 64.6394 131.579 65.0759 132.538 65.5607Z" fill="#30235B"/>
<path d="M69.0407 16.2321C69.8421 16.4406 70.6567 16.5948 71.4791 16.6935C71.9433 16.7155 72.2049 16.7221 72.2713 16.4826C72.4525 15.8506 70.082 15.5416 69.4261 15.442C68.0931 15.2406 68.0894 15.8711 69.0407 16.2321Z" fill="#FFF8E7"/>
<path d="M68.746 21.2412C69.4277 21.4834 70.1312 21.6602 70.8468 21.7692C70.9331 21.7744 71.611 21.7993 71.6707 21.5129C71.7797 20.99 70.2441 20.7367 69.4246 20.5345C69.2794 20.4933 69.1317 20.4608 68.9825 20.4371C68.8499 20.421 68.2515 20.3756 68.1719 20.6261C68.0923 20.8765 68.6723 21.2046 68.746 21.2412Z" fill="#FFF8E7"/>
<path d="M69.8425 10.0169C70.6199 10.0902 72.2926 10.4461 72.807 10.5479C75.417 11.0605 76.5563 11.0912 79.047 11.4266C82.3158 11.866 86.4579 12.8664 90.2006 13.5504C91.8424 13.8499 92.9705 13.9612 94.2711 14.1362C94.3433 14.139 94.414 14.1154 94.4698 14.0698C94.5256 14.0242 94.5626 13.9598 94.5738 13.8889C94.585 13.818 94.5696 13.7454 94.5305 13.685C94.4914 13.6247 94.4314 13.5807 94.3618 13.5614C94.3618 13.5614 83.8758 11.3256 80.9894 10.8144C79.0153 10.4673 76.9977 10.3018 74.9351 10.036C73.2624 9.75759 71.5752 9.573 69.8815 9.48306C69.8103 9.47792 69.7399 9.5011 69.6859 9.54752C69.6318 9.59394 69.5986 9.6598 69.5934 9.73059C69.5882 9.80138 69.6116 9.87133 69.6583 9.92502C69.705 9.97872 69.7712 10.0118 69.8425 10.0169Z" fill="#FFF8E7"/>
<path d="M99.2754 28.0936C105.714 29.5238 102.685 28.771 105.571 29.5165C106.033 27.3122 105.845 24.5645 104.524 22.7432C102.413 24.9783 100.948 26.656 99.2754 28.0936Z" fill="#FFF8E7"/>
<path d="M98.6763 27.422C100.617 25.7538 101.059 24.9263 104.142 22.2723C103.304 21.4359 102.295 20.7888 101.183 20.3752C100.071 19.9617 98.8827 19.7915 97.6984 19.8762C97.7279 20.164 98.3756 25.7392 98.6763 27.422Z" fill="#FFF8E7"/>
<path d="M104.093 30.0167C102.113 29.6704 100.153 29.2239 98.2187 28.6787C98.1457 28.652 98.0808 28.6072 98.0302 28.5484C97.9796 28.4897 97.9451 28.4191 97.9298 28.3433C97.6667 27.0119 97.4788 25.6652 97.3359 24.3119C97.1734 22.8491 97.1032 21.3777 97.1259 19.9062C92.7981 20.268 90.7768 24.128 91.0708 28.4524C91.1795 29.5977 91.5397 30.7053 92.126 31.6972C92.7123 32.689 93.5104 33.541 94.4641 34.1929C95.4178 34.8449 96.5038 35.281 97.6455 35.4704C98.7872 35.6599 99.9568 35.5981 101.072 35.2894C103.373 34.5907 104.791 32.4333 105.42 30.1499C105.343 30.1441 104.299 30.0467 104.093 30.0167Z" fill="#FFF8E7"/>
<path d="M86.5367 55.861C88.4224 56.8314 88.8859 56.9398 94.5688 58.7171C95.8105 59.1052 95.8673 59.0833 96.7434 59.3183C96.8137 59.3352 96.8878 59.3258 96.9516 59.292C97.0154 59.2581 97.0644 59.2021 97.0893 59.1346C97.1143 59.0671 97.1134 58.9929 97.0868 58.926C97.0603 58.8592 97.0099 58.8044 96.9453 58.772C95.9741 58.2903 94.9634 57.8917 93.9241 57.5805C92.2557 57.0291 88.3355 55.779 88.0459 55.6985C87.6082 55.5762 87.1705 55.4788 86.7313 55.3616C86.6646 55.336 86.5905 55.3377 86.5251 55.3664C86.4597 55.3951 86.4085 55.4484 86.3827 55.5147C86.3569 55.5809 86.3587 55.6546 86.3875 55.7195C86.4164 55.7845 86.4701 55.8354 86.5367 55.861Z" fill="#30235B"/>
<path d="M94.6617 85.3649C94.9321 85.2372 95.1627 85.0392 95.329 84.7918C95.4953 84.5444 95.5911 84.2568 95.6062 83.9597C95.6213 83.6626 95.5552 83.3669 95.4148 83.1041C95.2745 82.8413 95.0652 82.6212 94.8091 82.4671C92.6227 81.1284 84.3452 75.9406 83.4249 75.4543C82.9703 75.2292 82.4643 75.1266 81.9574 75.1568C81.4505 75.187 80.9604 75.3489 80.5362 75.6264C79.0426 76.5785 72.2831 80.8494 72.2831 80.8494C72.0727 80.9999 71.9008 81.1972 71.7809 81.4255C71.661 81.6538 71.5965 81.9068 71.5926 82.1644C71.5886 82.4219 71.6453 82.6768 71.7582 82.9086C71.8711 83.1404 72.0369 83.3428 72.2425 83.4996C73.4886 84.4385 80.5104 89.5237 81.6475 90.33C82.064 90.6275 82.5548 90.8054 83.0663 90.8441C83.5777 90.8829 84.09 90.781 84.5471 90.5497C84.5493 90.7013 93.3581 85.9763 94.6617 85.3649ZM82.996 76.2482C82.6822 76.1037 82.3369 76.0403 81.9919 76.0639C81.6469 76.0874 81.3135 76.1972 81.0226 76.3829C72.2536 81.9486 72.7326 81.5348 72.5726 81.8358C72.5165 81.9416 72.4862 82.0591 72.4843 82.1787C72.4824 82.2983 72.5089 82.4166 72.5616 82.5242C72.7259 82.8647 72.5152 82.4963 82.0387 89.8071C82.3556 90.0532 82.7346 90.2077 83.134 90.2539C83.5335 90.3 83.938 90.2359 84.3032 90.0686V90.0473C87.6251 88.341 90.9566 86.1755 94.2874 84.5813C94.4148 84.5209 94.5233 84.4273 94.6013 84.3103C94.6792 84.1933 94.7236 84.0575 94.7298 83.9173C94.7359 83.7772 94.7035 83.638 94.6361 83.5147C94.5687 83.3915 94.4688 83.2888 94.347 83.2177C92.1482 81.8827 83.8942 76.7498 82.996 76.2482Z" fill="#30235B"/>
<path d="M95.4347 85.4535C95.1408 85.9552 94.7902 86.4221 94.3898 86.8449C93.5239 87.6299 92.1054 87.865 90.9632 88.2883C88.4888 89.2073 88.1874 89.099 85.2575 90.3886C85.194 90.421 85.1445 90.4753 85.1182 90.5413C85.0919 90.6073 85.0907 90.6805 85.1146 90.7474C85.1386 90.8142 85.1861 90.8701 85.2485 90.9048C85.3108 90.9394 85.3837 90.9504 85.4535 90.9356C87.4278 90.4479 89.3717 89.8454 91.2749 89.1312C92.7937 88.571 94.6646 88.33 95.4575 86.7482C95.6292 86.4055 95.7523 86.0371 95.8997 85.7061C95.9212 85.6463 95.9206 85.5808 95.8979 85.5215C95.8752 85.4621 95.8319 85.4127 95.7759 85.3822C95.7198 85.3518 95.6546 85.3422 95.592 85.3553C95.5295 85.3683 95.4737 85.4031 95.4347 85.4535Z" fill="#30235B"/>
<path d="M113.904 9.93784C116.041 11.1557 116.125 13.9715 115.937 16.4079C113.781 44.6236 116.064 11.8031 114.376 39.0975C114.213 41.7338 114.024 44.365 113.786 46.9941C113.607 48.9801 113.606 51.388 113.083 53.3939C112.178 56.8621 110.517 56.723 110.953 57.2971C111 57.3584 111.069 57.3988 111.146 57.4095C111.223 57.4202 111.301 57.4003 111.363 57.3543C114.435 55.0921 114.322 50.6264 114.662 47.0754C114.914 44.439 115.104 41.7961 115.273 39.1524C117.188 8.62918 116.61 19.554 116.782 16.4636C116.935 13.7166 116.605 10.791 114.165 9.47208C114.103 9.4392 114.03 9.43185 113.963 9.45159C113.896 9.47134 113.839 9.5166 113.804 9.57765C113.77 9.6387 113.762 9.71064 113.78 9.77801C113.799 9.84537 113.843 9.90276 113.904 9.93784Z" fill="#30235B"/>
<path d="M135.667 72.5382C135.594 72.5382 136.545 62.594 136.961 56.9588C137.16 54.2639 138.341 37.9536 137.778 35.2886C137.233 32.7057 135.321 32.1016 132.961 31.2499C130.54 30.377 128.036 29.5267 125.558 28.7959C124.167 28.3858 122.702 27.5663 121.157 27.9515C120.604 28.0985 120.097 28.3803 119.681 28.7714C119.266 29.1624 118.955 29.6503 118.776 30.1909C117.925 32.3147 118.239 35.5069 118.254 37.2212C118.32 44.5445 117.959 51.8677 118.107 59.199C118.163 61.9503 117.416 65.7166 119.507 68.0813C120.437 68.9837 121.507 69.7321 122.675 70.298C126.53 72.5426 135.378 76.9973 135.667 72.5382ZM135.109 72.4958H135.084C134.789 76.0761 126.18 71.4566 123.087 69.6023C122.006 69.0626 121.015 68.3625 120.146 67.5262C118.328 65.4362 119.04 61.8947 118.986 59.1829C118.959 57.7182 119.204 43.0718 119.155 37.2132C119.144 35.8042 118.902 33.3546 119.349 31.4007C120.307 27.2097 123.554 29.1401 125.301 29.6549C127.787 30.3872 130.215 31.2111 132.653 32.0906C134.754 32.8478 136.438 33.2916 136.9 35.4703C137.645 39.0125 135.029 72.4958 135.109 72.4958Z" fill="#30235B"/>
<path d="M125.969 27.8321C128.316 28.4949 136.286 30.8449 137.816 32.7131C139.474 34.7401 139.116 38.1235 138.972 40.7327C138.877 42.4544 136.846 68.3347 136.732 69.4881C136.598 70.8334 136.741 72.908 135.87 73.9802C135.834 74.0406 135.82 74.112 135.833 74.1814C135.845 74.2508 135.882 74.3135 135.937 74.358C135.992 74.4025 136.061 74.4258 136.132 74.4237C136.203 74.4215 136.27 74.3941 136.323 74.3463C137.387 73.0736 137.292 71.0362 137.481 69.5716C138.156 64.3545 139.827 41.5895 139.871 40.7789C140.028 37.8715 140.364 34.4128 138.502 32.1565C136.576 29.8241 128.713 27.9881 126.111 27.3151C126.042 27.2965 125.968 27.3058 125.906 27.3411C125.844 27.3764 125.799 27.4348 125.78 27.5033C125.761 27.5719 125.771 27.645 125.806 27.7067C125.842 27.7684 125.9 27.8135 125.969 27.8321Z" fill="#30235B"/>
<path d="M34.0016 60.3546C32.9611 61.5263 33.7282 62.9389 34.9256 63.929C37.3706 65.9502 48.1897 73.4258 52.4894 76.0124C54.115 76.9907 55.941 78.0394 57.8289 77.7868C61.3889 77.3078 65.472 74.588 68.5875 73.0523C76.1399 69.3328 79.4081 68.1663 78.2408 65.9986C76.8805 63.4267 52.4843 52.2968 49.3105 52.5121C48.7898 52.5571 48.2798 52.6857 47.8006 52.8929C45.6695 53.7717 41.0477 56.9559 40.0875 57.5835C40.0296 57.6284 39.9907 57.6933 39.9784 57.7653C39.9661 57.8374 39.9813 57.9114 40.0211 57.9728C40.0609 58.0342 40.1223 58.0787 40.1933 58.0974C40.2644 58.1162 40.3399 58.1079 40.4051 58.0741C48.396 53.0277 48.7187 53.0035 50.6295 53.5337C56.5143 55.1719 76.3993 64.4563 77.4457 66.4226C78.0802 67.598 75.8187 68.4848 68.1845 72.2511C65.1212 73.7612 61.0735 76.4466 57.7029 76.9051C56.0648 77.1248 54.3508 76.0995 52.9426 75.2595C50.2448 73.6484 37.5136 65.1718 35.3206 63.4428C34.3744 62.6973 33.6169 61.6178 34.4032 60.7024C34.4402 60.6485 34.456 60.583 34.4477 60.5182C34.4393 60.4535 34.4074 60.3941 34.3579 60.3512C34.3083 60.3083 34.2447 60.285 34.1791 60.2856C34.1134 60.2862 34.0502 60.3108 34.0016 60.3546Z" fill="#30235B"/>
<path d="M78.6144 68.7961C78.2998 71.9026 75.0773 72.0732 72.3022 72.9066C69.5189 73.7812 66.7893 74.8163 64.1271 76.0065C64.0627 76.0387 64.0125 76.0933 63.9858 76.1598C63.9591 76.2264 63.958 76.3004 63.9825 76.3677C64.007 76.4351 64.0555 76.4912 64.1188 76.5255C64.1821 76.5597 64.2559 76.5697 64.3261 76.5535C68.4984 75.2866 69.8093 74.5865 72.5623 73.7707C75.4576 72.9095 79.2607 72.629 79.1501 68.818C79.1508 68.7488 79.1243 68.6821 79.0763 68.6319C79.0283 68.5818 78.9626 68.5522 78.893 68.5493C78.8234 68.5465 78.7554 68.5706 78.7035 68.6167C78.6515 68.6627 78.6195 68.727 78.6144 68.7961Z" fill="#30235B"/>
<path d="M55.7096 61.9225C54.8991 61.4714 54.0885 61.01 53.2676 60.5494C52.4231 61.1133 52.0149 61.3732 51.1895 61.9547C51.8756 62.3384 53.4975 63.226 53.6213 63.2912C54.2145 62.8804 55.1363 62.2777 55.7096 61.9225Z" fill="#FFF8E7"/>
<path d="M59.1376 63.7416C58.302 63.3022 57.4634 62.8664 56.6322 62.4234C55.6286 63.0481 55.3412 63.2202 54.5196 63.7738C55.1783 64.1231 56.8474 65.0239 57.025 65.1227C57.2453 64.9719 58.6506 64.0462 59.1376 63.7416Z" fill="#FFF8E7"/>
<path d="M52.3789 60.0507C52.0745 59.8808 50.1682 58.8277 49.8816 58.6732C49.1189 59.1082 48.3496 59.5454 47.5972 60.0053C48.4373 60.4176 49.3878 60.9463 50.3178 61.4655C50.7386 61.166 51.7835 60.4366 52.3789 60.0507Z" fill="#FFF8E7"/>
<path d="M60.0624 64.2337C59.1119 64.8327 58.736 65.0612 57.8975 65.6251C58.9203 66.2285 59.7898 66.7734 60.6748 67.3563C61.4036 66.8876 62.1338 66.4365 63.013 65.9246C61.7779 65.1916 61.436 64.9733 60.0624 64.2337Z" fill="#FFF8E7"/>
<path d="M70.5027 65.0832C67.0747 63.0905 63.727 61.7196 60.3955 60.1034C57.12 58.5509 54.1629 56.649 50.631 55.5915C48.0519 54.8226 45.3128 57.2239 43.2657 58.7237C42.2709 59.456 41.0005 60.3143 41.4758 61.5292C41.8245 62.194 42.3474 62.7527 42.9894 63.1462C45.8677 65.3204 47.2634 65.9217 52.3818 68.7924C54.9153 70.2124 57.9041 72.2826 60.7824 71.7539C62.6246 71.4178 67.4188 69.3468 69.6818 68.2248C70.3287 67.9675 70.907 67.5649 71.3715 67.0487C71.7591 66.4658 71.6994 65.754 70.5027 65.0832ZM66.1263 67.5218C65.0026 67.0158 64.5641 66.7895 63.9157 66.4358C62.9371 67.0216 62.2871 67.3915 61.4913 67.9004C61.9592 68.2131 62.4212 68.5361 62.9068 68.8202C62.9654 68.8624 63.0064 68.9244 63.0219 68.9946C63.0374 69.0648 63.0265 69.1382 62.9911 69.2009C62.9557 69.2636 62.8983 69.3111 62.8299 69.3345C62.7616 69.3579 62.6869 69.3555 62.6202 69.3277C62.0078 69.0048 61.3866 68.6987 60.778 68.3611C58.1988 70.0608 58.6867 69.7115 58.2232 70.0146C58.1688 70.0603 58.0985 70.0826 58.0276 70.0767C57.9567 70.0708 57.8911 70.0371 57.8451 69.9831C57.7992 69.9292 57.7768 69.8592 57.7827 69.7888C57.7886 69.7183 57.8225 69.6531 57.8768 69.6075C58.4699 68.9378 59.151 68.3506 59.9018 67.8616C58.9181 67.2845 58.319 66.8876 57.0751 66.1773C56.1229 66.883 55.1293 67.5317 54.0995 68.1201C54.0435 68.1629 53.9727 68.1819 53.9026 68.1731C53.8325 68.1643 53.7687 68.1283 53.7251 68.0731C53.6815 68.0178 53.6616 67.9476 53.6698 67.8779C53.6779 67.8081 53.7135 67.7444 53.7687 67.7005C54.5002 66.9408 55.316 66.266 56.2004 65.6888C56.1525 65.6624 54.4753 64.7661 53.6832 64.3457C53.4172 64.531 52.3568 65.2978 52.0878 65.4882C51.7113 65.7503 51.1136 66.1194 50.8918 66.2644C50.8374 66.3088 50.7676 66.3303 50.6974 66.3241C50.6273 66.3179 50.5624 66.2847 50.5166 66.2314C50.4709 66.1782 50.448 66.1093 50.4528 66.0394C50.4577 65.9696 50.4899 65.9044 50.5425 65.858C51.2077 65.1038 51.9664 64.4365 52.8004 63.8719C51.9913 63.4291 51.1851 62.9817 50.3819 62.5296C49.513 63.2114 48.587 63.8183 47.6141 64.3435C47.5574 64.3845 47.4869 64.4018 47.4175 64.3917C47.3481 64.3816 47.2855 64.3449 47.243 64.2895C47.2005 64.234 47.1816 64.1643 47.1902 64.0951C47.1988 64.026 47.2344 63.963 47.2892 63.9195C47.9647 63.2181 48.7117 62.5883 49.5183 62.0404C48.9907 61.7394 47.676 60.9792 46.8492 60.4695C45.8397 61.1176 45.6975 61.2612 44.6106 61.9174C44.3947 62.0484 44.1802 62.1678 43.9658 62.3004C43.9099 62.3407 43.8404 62.3581 43.7719 62.349C43.7034 62.3398 43.6411 62.3048 43.5979 62.2512C43.5546 62.1976 43.5338 62.1295 43.5398 62.0611C43.5457 61.9927 43.5779 61.9291 43.6298 61.8837C44.3307 61.1352 45.1298 60.484 46.0055 59.9474C45.7704 59.8009 45.5354 59.6581 45.2974 59.5161C45.2376 59.4814 45.1936 59.4251 45.1747 59.359C45.1557 59.2929 45.1631 59.222 45.1955 59.1613C45.2278 59.1005 45.2825 59.0545 45.3482 59.0328C45.4139 59.0112 45.4854 59.0156 45.5479 59.0452C45.9104 59.2107 46.2715 59.3762 46.6304 59.5446C47.3857 59.0642 48.1572 58.5999 48.9398 58.1679C48.6539 58.017 48.3665 57.8698 48.0754 57.7285C48.0131 57.6988 47.9647 57.6465 47.9401 57.5822C47.9156 57.518 47.9169 57.4469 47.9437 57.3836C47.9705 57.3204 48.0208 57.2697 48.0842 57.2423C48.1475 57.2149 48.2191 57.2128 48.284 57.2363C48.8204 57.4377 49.124 57.5344 49.6841 57.7665C50.3148 57.4326 50.9686 57.1436 51.6405 56.9017C51.7084 56.8753 51.7837 56.8749 51.8518 56.9005C51.92 56.926 51.9762 56.9758 52.0097 57.0401C52.0431 57.1045 52.0513 57.1789 52.0328 57.2489C52.0144 57.3189 51.9704 57.3797 51.9095 57.4194C51.4769 57.6984 51.124 57.9474 50.6899 58.2059C51.5646 58.6073 52.3988 59.0488 53.2455 59.5161C53.7248 59.2457 54.2193 59.0029 54.7266 58.7889C54.7926 58.7613 54.8664 58.7585 54.9342 58.781C55.0021 58.8035 55.0594 58.8497 55.0955 58.9111C55.1316 58.9725 55.144 59.0449 55.1303 59.1147C55.1167 59.1845 55.078 59.247 55.0214 59.2905C54.8283 59.4326 54.2108 59.8991 54.087 59.9862C54.7915 60.3824 56.4664 61.3146 56.6035 61.3893C57.2085 61.0492 57.8346 60.7476 58.4781 60.4864C58.5448 60.4586 58.6195 60.4562 58.6879 60.4796C58.7562 60.503 58.8136 60.5505 58.849 60.6132C58.8844 60.6759 58.8954 60.7493 58.8798 60.8195C58.8643 60.8897 58.8234 60.9518 58.7648 60.9939C58.372 61.2612 57.9947 61.549 57.5909 61.8119C57.4391 61.9108 57.2313 61.7079 60.0227 63.2033C60.6546 62.8366 61.3082 62.5079 61.9798 62.2191C62.013 62.1936 62.0513 62.1754 62.0921 62.1657C62.1329 62.1561 62.1753 62.1552 62.2164 62.1632C62.2576 62.1711 62.2966 62.1877 62.3308 62.2118C62.365 62.2359 62.3936 62.267 62.4148 62.303C62.4359 62.339 62.4491 62.3791 62.4534 62.4205C62.4578 62.462 62.4531 62.5039 62.4399 62.5434C62.4266 62.5829 62.405 62.6192 62.3765 62.6498C62.348 62.6804 62.3132 62.7045 62.2746 62.7207C62.1817 62.7881 61.383 63.3798 60.9917 63.6354C60.806 63.7577 60.8369 63.5109 63.8493 65.4413C64.5129 65.0629 65.1954 64.7182 65.8942 64.4087C65.9269 64.3836 65.9646 64.3656 66.0048 64.356C66.045 64.3463 66.0868 64.3451 66.1275 64.3525C66.1682 64.36 66.2068 64.3758 66.2409 64.3991C66.275 64.4223 66.3038 64.4524 66.3255 64.4875C66.3471 64.5225 66.3611 64.5616 66.3665 64.6024C66.3719 64.6431 66.3686 64.6846 66.3568 64.724C66.3451 64.7634 66.3251 64.7999 66.2982 64.8311C66.2713 64.8623 66.2381 64.8876 66.2008 64.9052C65.7131 65.2907 65.2036 65.6479 64.6747 65.9752C65.2332 66.3354 65.7969 66.6833 66.3761 67.0004C66.433 67.0402 66.4739 67.0987 66.4915 67.1656C66.5092 67.2325 66.5025 67.3034 66.4726 67.3658C66.4426 67.4283 66.3915 67.4782 66.3281 67.5067C66.2648 67.5352 66.1933 67.5406 66.1263 67.5218Z" fill="#FFF8E7"/>
<path d="M31.4504 70.6247C32.6029 71.7048 32.1004 71.1863 35.5122 73.6162C36.4996 74.3192 36.776 74.3536 37.266 74.6869C37.325 74.7282 37.3973 74.7466 37.4691 74.7384C37.5409 74.7303 37.6072 74.6963 37.6554 74.6428C37.7035 74.5893 37.7303 74.5201 37.7305 74.4483C37.7307 74.3765 37.7044 74.3071 37.6565 74.2533C37.1804 73.7314 36.635 73.2764 36.0354 72.9007C35.1555 72.2548 33.342 70.9696 32.5816 70.5675C32.3067 70.4211 32.0259 70.3105 31.7445 70.1794C31.6851 70.1445 31.6144 70.1336 31.5472 70.1491C31.48 70.1645 31.4214 70.2052 31.3835 70.2625C31.3456 70.3198 31.3315 70.3895 31.3439 70.4569C31.3564 70.5244 31.3945 70.5844 31.4504 70.6247Z" fill="#FFF8E7"/>
<path d="M29.6561 71.8901C30.3119 72.5712 30.2228 72.5931 34.1172 75.2354C34.5246 75.5125 34.9484 75.7651 35.3862 75.9919C35.4159 76.0211 35.4515 76.0438 35.4907 76.0584C35.5299 76.0729 35.5717 76.079 35.6135 76.0763C35.6552 76.0735 35.6959 76.0619 35.7328 76.0423C35.7697 76.0227 35.8019 75.9956 35.8274 75.9626C35.853 75.9297 35.8711 75.8917 35.8807 75.8512C35.8903 75.8108 35.8912 75.7687 35.8832 75.7279C35.8752 75.6871 35.8585 75.6485 35.8343 75.6146C35.8101 75.5806 35.7789 75.5522 35.7428 75.5312C35.479 75.2639 35.2019 74.9864 34.9116 74.7447C34.3258 74.2672 31.7754 72.5053 31.0967 72.0688C30.7347 71.8468 30.3608 71.6447 29.9767 71.4632C29.9195 71.4243 29.8494 71.4089 29.7811 71.4201C29.7128 71.4314 29.6515 71.4685 29.6101 71.5237C29.5687 71.5789 29.5503 71.6478 29.5589 71.7161C29.5675 71.7844 29.6023 71.8468 29.6561 71.8901Z" fill="#FFF8E7"/>
<path d="M21.9858 71.5811C22.6367 71.5075 23.2954 71.617 23.8868 71.897C24.4782 72.177 24.9787 72.6164 25.3313 73.1651C25.982 74.1955 26.2156 75.9794 28.8779 77.1929C30.6177 77.9794 32.7709 77.313 34.0885 78.4466C34.9661 79.2024 34.3928 81.1123 35.7929 81.9757C36.5533 82.3557 37.4108 82.5008 38.2549 82.3924C39.2592 82.3093 40.26 82.5891 41.0735 83.1803C41.1304 83.2262 41.2024 83.2493 41.2755 83.2452C41.3486 83.2412 41.4176 83.2102 41.469 83.1584C41.5204 83.1066 41.5505 83.0376 41.5536 82.9649C41.5566 82.8922 41.5323 82.821 41.4854 82.7651C40.6056 81.9754 39.4556 81.5493 38.2704 81.5736C37.5829 81.6306 36.8922 81.5147 36.2616 81.2367C34.9779 80.4268 36.4001 77.7216 32.9913 76.9651C31.7643 76.6934 30.292 76.8479 29.253 76.3793C26.8589 75.2969 26.8029 73.7964 26.0549 72.7001C25.6051 72.0454 24.9687 71.5394 24.2273 71.247C23.4859 70.9545 22.6735 70.889 21.8944 71.0589C21.8309 71.0771 21.7764 71.118 21.7414 71.1737C21.7063 71.2294 21.6932 71.296 21.7045 71.3607C21.7159 71.4254 21.7508 71.4837 21.8027 71.5244C21.8546 71.5651 21.9198 71.5853 21.9858 71.5811Z" fill="#FFF8E7"/>
<path d="M37.7295 86.177C38.9535 85.764 40.1524 84.9797 46.5449 82.7871C46.6155 82.7701 46.6899 82.7796 46.7538 82.8138C46.8178 82.848 46.8668 82.9045 46.8914 82.9724C46.9161 83.0402 46.9147 83.1148 46.8874 83.1817C46.8602 83.2486 46.8091 83.3031 46.7439 83.3349C45.0756 83.9573 38.8768 86.7489 37.7796 87.0895C37.7125 87.1105 37.6413 87.1152 37.572 87.1034C37.5026 87.0915 37.4371 87.0634 37.3809 87.0214C27.3401 79.5326 29.7563 81.1774 22.2607 74.8106C20.3116 73.1548 19.9623 73.053 17.7922 71.1036C17.7386 71.057 17.7059 70.9911 17.7012 70.9206C17.6965 70.85 17.7202 70.7804 17.7671 70.7272C17.814 70.674 17.8803 70.6414 17.9513 70.6368C18.0223 70.6321 18.0923 70.6557 18.1459 70.7023C19.3249 71.6953 20.641 72.5185 21.8826 73.4368C23.5841 74.6971 29.239 79.6483 30.5463 80.7014C32.8594 82.5667 35.1032 84.2085 37.7295 86.177Z" fill="#30235B"/>
<path d="M15.3214 73.2969C15.5071 73.5027 16.6249 74.4305 16.9366 74.6759C17.9683 75.5012 18.3529 74.9937 17.661 74.1698C17.1831 73.7018 16.6766 73.2635 16.1445 72.8575C15.846 72.6298 15.1865 72.2621 14.9979 72.4833C14.8092 72.7045 15.2432 73.209 15.3214 73.2969Z" fill="#FFF8E7"/>
<path d="M14.1954 74.8289C14.3634 74.9944 15.1961 75.975 15.5594 75.6762C16.0686 75.2573 14.4334 73.7341 14.0672 73.5276C13.9935 73.488 13.4327 73.2347 13.2757 73.428C12.9906 73.7868 13.9448 74.5792 14.1954 74.8289Z" fill="#30235B"/>
<path d="M11.8963 74.714C12.2721 75.1094 12.6691 75.4844 13.0856 75.8373C13.3126 76.027 13.7533 76.3265 13.9699 76.1259C14.3509 75.7744 13.4342 74.9439 13.1549 74.6839C12.938 74.4757 12.7092 74.2801 12.4696 74.0981C12.3959 74.0541 11.872 73.7861 11.7069 73.9575C11.5308 74.1413 11.841 74.6385 11.8963 74.714Z" fill="#30235B"/>
<path d="M21.2349 78.9358C21.6738 79.5151 22.16 80.0574 22.6888 80.5572C23.4935 81.1855 23.9924 80.7981 23.1921 79.8388C22.9253 79.5158 22.0359 78.5272 21.8775 78.3932C21.8038 78.3294 21.2939 77.9332 21.0846 78.1068C20.8753 78.2804 21.1841 78.8508 21.2349 78.9358Z" fill="#FFF8E7"/>
<path d="M20.0927 80.0204C20.2733 80.2108 20.4752 80.377 20.6668 80.5535C20.8259 80.7 21.6608 81.6132 22.0175 81.2924C22.4596 80.8977 21.2128 79.7948 20.7758 79.4513C20.5032 79.236 19.9652 78.9907 19.7913 79.1972C19.6174 79.4037 19.9129 79.83 20.0927 80.0204Z" fill="#30235B"/>
<path d="M18.7685 81.5956C18.9903 81.8321 19.2253 82.056 19.4723 82.2664C20.344 82.9365 20.7419 82.4802 20.05 81.6285C19.5938 81.1063 19.0884 80.6287 18.5408 80.202C18.3876 80.1024 17.8467 79.827 17.6735 80.0416C17.3847 80.4004 18.4325 81.2748 18.7685 81.5956Z" fill="#30235B"/>
<path d="M31.533 87.1283C31.4114 85.9375 29.8263 84.6333 29.2 84.2722C28.3941 83.8242 27.4537 83.6772 26.5484 83.8577C25.6431 84.0382 24.8324 84.5343 24.2628 85.2565C23.2702 86.7943 24.3542 89.2366 27.2936 89.6043C29.256 89.8474 31.7378 89.1004 31.533 87.1283ZM25.2834 87.6753C23.579 85.4894 26.8213 83.8226 29.1152 85.1041C28.4621 85.2869 27.8284 85.5322 27.2229 85.8365C27.1577 85.8695 27.1016 85.9177 27.0593 85.9771C27.0171 86.0364 26.99 86.1051 26.9804 86.1772C26.9709 86.2493 26.9791 86.3226 27.0044 86.3908C27.0297 86.459 27.0713 86.5201 27.1256 86.5688C27.8975 87.274 28.7177 87.9251 29.5802 88.5175C28.2376 88.9862 26.1603 88.8017 25.2849 87.6753H25.2834ZM30.3134 88.1338C29.6543 87.505 28.9632 86.9103 28.2427 86.352C28.7894 86.158 29.3127 85.904 29.8027 85.5948C30.0167 85.7837 30.211 85.9934 30.3827 86.2209C30.4097 86.2615 30.4475 86.2939 30.4917 86.3147C30.69 86.5874 30.7814 86.9225 30.7489 87.2574C30.7163 87.5923 30.562 87.9038 30.3149 88.1338H30.3134Z" fill="#FFF8E7"/>
<path d="M110.937 70.2629C108.121 67.2721 108.638 62.6467 108.72 58.5911C108.722 58.5204 108.696 58.4518 108.648 58.4002C108.599 58.3486 108.531 58.3184 108.46 58.3162C108.389 58.3139 108.32 58.3399 108.268 58.3883C108.216 58.4367 108.186 58.5036 108.184 58.5743C107.994 62.9104 107.369 67.5313 110.34 70.8041C112.71 73.4024 122.277 76.3434 117.414 80.3646C115.847 81.66 111.631 83.8555 109.122 84.9782C99.3034 89.3838 92.6095 90.7291 85.917 92.9759C72.6633 97.4394 61.0926 101.789 48.5817 95.5507C49.7533 94.7649 49.7769 93.6833 47.9443 92.7679C48.6701 92.4318 49.3517 92.1191 49.9759 91.8488C52.67 90.6771 59.162 89.1393 55.9764 84.7665C55.5202 84.1887 54.9976 83.6656 54.4193 83.2082C54.3609 83.1575 54.2847 83.1319 54.2073 83.1367C54.13 83.1415 54.0576 83.1764 54.0059 83.2338C52.9802 82.4531 51.9426 81.6959 50.8911 80.9445C36.2071 70.4423 32.9375 67.9268 28.4085 65.2538C26.1456 63.9188 23.1906 64.7229 20.641 65.3717C19.2645 65.7232 10.018 67.8733 6.78742 68.6408C5.22546 68.9173 3.71733 69.4376 2.31891 70.1823C-0.407584 71.9399 0.938716 74.3287 3.20318 76.6641C6.48309 80.0518 11.8734 83.6519 13.0871 84.5542C16.7325 87.2557 22.551 92.918 28.6635 96.4273C32.5373 98.6536 38.109 96.9568 42.2547 95.2952C43.5354 96.7378 45.217 97.2336 47.9671 95.8993C60.8686 102.82 72.4238 98.4346 86.2051 93.8261C91.3715 92.0942 105.557 88.5534 114.995 82.9746C116.603 82.0225 118.912 80.8223 119.525 79.0317C120.905 74.9856 112.873 72.3339 110.937 70.2629ZM29.1012 95.6679C24.0845 92.7767 19.4958 88.5871 14.9529 84.8676C12.6759 83.0141 10.4903 81.7223 8.28626 79.9281C6.57151 78.5367 2.28059 75.168 1.76477 73.004C1.24084 70.807 4.79192 70.0337 6.9967 69.5101C10.2258 68.7426 19.4818 66.5852 20.862 66.2315C23.1029 65.6595 25.9628 64.84 27.9576 66.0118C32.8026 68.8583 37.5025 72.4686 42.2636 75.8198C44.9974 77.7297 52.8748 83.0756 54.0192 83.9229C54.0658 83.9578 54.1226 83.9766 54.181 83.9766C54.2393 83.9766 54.2961 83.9578 54.3427 83.9229C54.552 84.1111 54.759 84.303 54.9543 84.5044C55.6418 85.214 56.3227 86.2912 56.1333 87.263C55.7317 89.3282 51.5978 90.3388 49.6708 91.1443C44.111 93.4797 34.5218 98.7876 29.1012 95.6679ZM46.945 93.9521C46.6834 94.0597 46.4056 94.1366 46.1345 94.2252C45.766 94.3461 44.7137 94.8038 44.5192 94.3929C44.2532 93.8312 45.9362 93.3201 46.5398 93.1597C46.8905 93.0689 47.4977 93.0359 47.5854 93.2937C47.6731 93.5515 47.2037 93.8459 46.948 93.9521H46.945Z" fill="#30235B"/>
<path d="M0.00581151 74.6707C0.572481 76.648 1.91068 77.9098 3.32772 79.3906C9.22285 85.5509 22.4611 95.766 25.6283 97.4321C29.9634 99.7118 32.4725 99.1406 36.7494 98.6038C38.6077 98.3549 40.4176 97.8286 42.1177 97.0425C42.1798 97.0065 42.2265 96.9492 42.2491 96.8814C42.2717 96.8136 42.2685 96.7399 42.2403 96.6743C42.212 96.6086 42.1606 96.5554 42.0957 96.5248C42.0308 96.4941 41.9568 96.4881 41.8878 96.5079C40.2193 97.1962 38.4592 97.6402 36.6625 97.826C27.8087 98.7048 27.9826 99.1069 11.4483 85.6014C9.05631 83.6468 7.20229 81.9925 5.35196 80.2467C4.01573 79.0427 2.74849 77.7653 1.55623 76.4203C1.09916 75.8543 0.747998 75.2114 0.519425 74.5221C0.495697 74.4591 0.448895 74.4074 0.388401 74.3773C0.327907 74.3471 0.258191 74.3408 0.193225 74.3596C0.128259 74.3784 0.0728446 74.421 0.0380887 74.4786C0.00333274 74.5363 -0.00819661 74.605 0.00581151 74.6707Z" fill="#30235B"/>
<path d="M56.8002 88.8558C56.5652 89.066 56.011 89.501 55.8629 89.6233C53.6611 91.4541 52.9647 91.3304 50.3288 92.8001C50.2669 92.8354 50.22 92.8919 50.1968 92.959C50.1736 93.0261 50.1757 93.0993 50.2027 93.165C50.2297 93.2307 50.2798 93.2844 50.3437 93.3162C50.4075 93.3479 50.4808 93.3555 50.5499 93.3376C50.9965 93.2124 51.4791 93.0952 51.9065 92.929C53.5833 92.3413 55.1255 91.4274 56.4428 90.2406C56.7392 89.9223 56.9971 89.5706 57.2114 89.1927C57.2471 89.1378 57.2613 89.0718 57.2513 89.0071C57.2412 88.9425 57.2076 88.8839 57.1568 88.8423C57.106 88.8007 57.0417 88.7791 56.9759 88.7816C56.9102 88.7841 56.8476 88.8105 56.8002 88.8558Z" fill="#30235B"/>
</svg>
