<svg width="150" height="150" viewBox="0 0 150 150" fill="none" xmlns="http://www.w3.org/2000/svg">
<path d="M100.557 135.054C99.7774 134.984 100.49 135.097 85.422 131.658C83.1753 131.145 86.9889 129.639 88.6255 128.361C89.6576 127.555 90.7209 127.36 92.0132 127.652C105.27 130.644 109.76 130.794 107.505 131.881C104.263 133.443 100.574 135.27 100.557 135.054L100.557 135.054Z" fill="#30235B"/>
<path d="M80.7044 138.048C65.1311 134.135 62.9989 134.202 65.0742 132.848C68.5308 130.592 68.9039 130.136 70.3459 130.505C83.9632 133.979 87.4854 134.072 85.0865 135.536C80.236 138.498 80.6876 138.048 80.7044 138.048Z" fill="#30235B"/>
<path d="M86.9001 123.175C92.227 119.764 89.6896 120.267 105.71 123.075C106.583 123.228 106.789 123.526 105.873 124.088C101.531 126.752 101.183 126.994 100.508 127.164C87.1707 124.515 84.5172 124.699 86.9001 123.175Z" fill="#30235B"/>
<path d="M81.377 130.697C63.4865 126.91 65.5755 128.061 72.073 123.981C72.8137 123.516 72.1707 123.584 86.5494 126.573C87.2868 126.725 87.2372 127.081 86.7647 127.404C82.5644 130.285 82.3794 130.59 81.377 130.697Z" fill="#30235B"/>
<path d="M33.7876 126.205C32.8908 126.129 33.7668 126.285 18.5778 122.469C17.6098 122.225 17.4416 121.606 18.5658 121.247C23.7718 119.587 23.9136 119.246 25.6775 119.676C38.7206 122.862 40.2691 122.786 38.3579 123.877C34.6867 125.971 34.3529 126.163 33.7884 126.204L33.7876 126.205Z" fill="#30235B"/>
<path d="M82.3562 144.454C77.3992 143.169 11.2403 125.425 6.86221 124.005C6.34097 123.837 7.02555 123.231 7.23373 123.28C12.4174 124.507 78.0005 141.991 82.8806 143.532C83.4763 143.721 83.2033 144.674 82.3562 144.454Z" fill="#30235B"/>
<path d="M53.4491 118.172C44.1796 116.365 36.0807 115.383 38.8911 114.418C45.1212 112.278 44.7705 112.337 45.4119 112.45C58.4758 114.757 58.2853 114.549 58.4326 115.088C58.64 115.847 53.8054 118.145 53.4491 118.172Z" fill="#30235B"/>
<path d="M43.3782 121.932C40.3308 121.317 32.7851 119.374 29.2629 118.485C28.4102 118.269 28.5935 117.851 29.2285 117.644C32.2527 116.653 34.2888 115.134 36.8678 116.32C37.3386 116.537 48.3952 118.364 48.4705 118.877C48.5642 119.51 43.2773 121.846 43.3782 121.932Z" fill="#30235B"/>
<path d="M75.1252 118.425C76.2302 117.668 76.2037 117.871 86.9449 119.773C87.2003 119.819 87.5134 119.821 87.5718 120.142C87.6303 120.463 87.3268 120.569 87.1098 120.707C81.2713 124.438 83.9103 124.068 72.1691 121.79C70.3363 121.434 72.7088 120.08 75.1252 118.425Z" fill="#30235B"/>
<path d="M47.0669 129.606C37.5724 127.106 35.8117 127.223 37.2329 126.368C40.9521 124.13 41.8392 123.473 43.4134 124.025C44.9875 124.578 52.7878 125.707 52.9767 126.567C53.0856 127.064 52.574 127.149 52.3082 127.333C52.2841 127.008 49.3192 130.2 47.0677 129.607L47.0669 129.606Z" fill="#30235B"/>
<path d="M68.0992 120.97C67.8174 120.952 57.222 119.118 57.1603 118.715C57.1267 118.497 56.9745 118.458 61.1613 115.781C62.159 115.144 61.2366 115.229 72.5855 117.23C75.4191 117.73 68.0976 120.952 68.0992 120.97Z" fill="#30235B"/>
<path d="M60.9683 133.077C60.5424 133.003 51.003 130.802 50.971 130.35C50.939 129.899 51.1384 129.812 54.7046 127.239C55.4725 126.685 54.8503 126.708 65.0895 129.208C65.7757 129.375 65.8901 129.79 65.3185 130.207C64.7612 130.613 61.6561 133.026 60.9675 133.078L60.9683 133.077Z" fill="#30235B"/>
<path d="M110.742 123.969C110.723 123.969 110.258 123.85 118.557 125.373C119.096 125.471 119.393 126.108 118.667 126.465C112.8 129.357 112.87 129.464 112.105 129.349C112.082 129.345 105.546 128.178 105.118 128.084C104.805 128.015 104.546 127.839 104.447 127.487C104.33 127.068 104.693 126.985 104.907 126.854C104.925 126.844 110.695 123.318 110.742 123.969Z" fill="#30235B"/>
<path d="M46.6377 121.894C51.8214 118.697 49.2191 118.751 59.2693 120.954C60.3166 121.184 59.5327 121.681 57.4766 123.007C54.3451 125.026 56.539 125.029 46.8363 122.741C46.2974 122.614 46.1301 122.207 46.6377 121.894Z" fill="#30235B"/>
<path d="M88.7192 135.122C89.6072 135.203 93.8068 136.313 94.3832 136.468C97.3594 137.266 93.9597 138.629 91.2486 139.885C90.2325 140.355 91.1373 140.707 84.4043 138.967C84.0536 138.877 83.8959 138.602 83.8399 138.283C83.7798 137.944 84.0881 137.866 84.3074 137.73C88.6704 135.041 88.712 135.139 88.7192 135.122Z" fill="#30235B"/>
<path d="M64.0093 126.713C55.9128 124.875 56.792 125.753 61.8251 122.087C62.7603 121.405 62.9645 121.654 68.9832 122.906C69.6918 123.054 69.8311 123.352 69.1481 123.825C64.5538 127.006 63.8076 126.726 64.0093 126.713Z" fill="#30235B"/>
<path d="M104.132 136.909C104.78 136.651 105.072 137.811 104.456 138.115C103.543 138.565 95.32 142.474 93.0837 143.526C90.4439 144.768 90.174 144.775 89.9298 144.316C89.4134 143.344 104.148 137.133 104.132 136.909H104.132Z" fill="#30235B"/>
<path d="M113.178 132.583C120.124 129.31 120.02 129.247 120.285 129.675C120.83 130.553 117.954 131.69 113.328 133.865C112.238 133.924 112.293 133 113.177 132.583H113.178Z" fill="#30235B"/>
<path d="M53.9199 81.5175L50.1095 99.9221C50.0398 100.247 50.5162 100.428 50.6427 100.121C51.4674 98.1235 53.0944 90.6405 54.699 82.6597C54.4068 82.3259 54.1449 81.9457 53.9199 81.5175Z" fill="#30235B"/>
<path d="M123.69 51.1183L124.703 52.6112L135.53 53.0851C143.431 53.4285 145.922 52.8177 145.776 58.5243C145.644 63.7011 143.384 74.1185 140.218 94.362C135.799 122.609 135.573 124.654 134.831 124.833C133.895 125.06 134.769 123.142 130.38 122.566C126.404 122.045 93.3448 116.412 50.0687 109.155C45.4191 108.375 43.3029 108.772 44.0171 105.863C45.8435 98.4204 56.6767 54.7677 58.5839 50.1257C58.9843 49.8463 59.2909 49.723 62.6057 49.8135C62.8147 49.3004 63.0894 48.724 63.4433 48.1373C60.8475 48.1013 58.459 48.2326 57.6423 48.8017C57.0882 49.1875 55.7863 50.0969 51.3073 69.2156C43.399 102.974 42.053 107.068 42.2916 107.636C42.8889 109.054 42.9057 108.724 29.6392 112.442C27.5599 113.024 8.70619 118.563 2.56335 121.597C0.290194 122.719 -1.11981 124.659 1.15813 126.013C4.24558 127.848 14.114 130.14 38.8335 136.876C46.761 139.037 81.4226 148.845 88.0546 149.487C90.9579 149.768 98.6797 145.355 102.01 143.698C106.616 141.406 102.189 143.961 133.871 128.057C137.352 126.311 137.196 123.965 139.798 108.441C139.801 108.42 147.067 64.3222 147.568 57.7263C147.995 52.1005 147.459 52.0396 123.69 51.1183ZM131.059 127.559C129.399 128.479 94.8044 145.361 93.4352 146.019C87.27 148.977 87.1339 148.474 69.1489 143.342C59.7113 140.649 2.47687 124.947 2.49449 124.96C0.336633 123.456 3.8012 122.156 26.3188 115.078C43.9162 109.547 41.1483 110.517 44.0147 109.875C45.1717 109.615 44.0459 109.886 61.0124 112.692C130.729 124.224 138.012 123.703 131.059 127.559Z" fill="#30235B"/>
<path d="M139.691 59.0911C137.074 58.8565 132.398 58.5524 126.574 58.2162L127.045 59.5177C132.121 59.7571 136.131 59.9356 138.336 60.014C139.298 60.0485 138.79 60.215 138.119 64.0669C138.067 64.3639 133.968 64.235 127.713 63.8748L127.723 64.6073C132.892 64.9483 134.66 65.0387 137.133 65.1076C138.348 65.1412 137.94 64.885 136.367 74.4251C129.356 116.935 129.979 117.032 128.608 116.799C87.9698 109.879 48.8612 103.971 48.814 103.929C48.6194 105.236 49.0222 105.077 60.6809 106.978C121.475 116.888 128.055 117.971 129.48 117.958C130.585 118.041 130.234 118.109 132.461 105.121C132.509 104.84 134.009 96.5385 134.381 92.6858C137.88 72.3991 140.396 59.1567 139.691 59.0935V59.0911Z" fill="#30235B"/>
<path d="M118.639 80.4C118.067 82.5909 117.093 83.9525 115.97 85.5087C114.826 87.0944 112.998 90.6269 106.675 94.31C97.8358 99.4587 79.9445 99.8421 70.6382 89.9906C68.6173 87.8509 66.8942 85.2653 65.3393 82.0282C64.2712 83.0656 62.9452 83.8229 61.5625 84.2343C62.4504 97.2798 63.2455 106.039 64.1214 106.249C65.9822 106.697 109.8 113.625 109.823 113.629C110.386 113.712 117.041 98.2563 124.565 80.384C124.674 80.1254 124.364 79.8917 124.145 80.0662C122.75 81.1829 120.922 81.4254 118.64 80.4008L118.639 80.4ZM73.1644 104.352C72.9802 104.922 72.2083 104.984 71.8769 104.474C71.0137 103.145 70.4692 92.1487 70.8904 92.1078C71.4917 92.0494 73.5151 103.268 73.1644 104.352ZM96.0214 99.7524C94.8661 108.817 93.0045 105.755 93.2567 104.5C93.5962 102.81 96.5099 95.9189 96.0214 99.7524Z" fill="#FFF8E7"/>
<path d="M149.786 18.6443C143.773 12.3141 130.463 6.52103 124.112 4.56546C114.621 1.64289 100.25 0.0211113 87.7808 0.625475C78.183 1.09136 68.1521 3.98831 62.3848 6.57467C59.0403 8.07397 56.2691 9.56687 56.4925 13.0249C56.7736 17.3708 57.9994 28.4767 59.8626 57.6486C60.2974 57.3925 60.7506 57.286 61.2198 57.3676C63.1102 45.1283 70.3812 43.6154 79.1855 42.4811C74.4494 41.9287 71.2699 41.4461 68.8126 40.1845C61.934 36.6536 62.2358 26.5739 64.4393 19.729C66.9999 11.7738 71.9569 9.57967 77.2446 7.87064C84.6742 5.4684 97.2137 4.51583 105.897 7.01253C114.583 9.51003 115.33 13.7958 116.338 14.2161C123.744 17.3027 123.211 26.5315 118.072 30.2561C119.667 33.358 116.404 38.1457 113.065 40.2061C111.318 41.2836 108.877 42.092 105.764 42.6292C108.398 43.0478 115.901 44.5031 116.844 46.9982C124.011 48.6784 127.821 60.4207 127.602 69.6526C127.584 70.4219 128.649 70.6492 128.947 69.9392C136.678 51.4705 144.276 33.101 146.39 28.2885C150.253 19.4936 150.262 19.1454 149.786 18.6443ZM126.468 49.0266C125.945 49.8591 123.817 50.1153 127.56 41.3092C129.388 37.0066 136.409 21.7222 137.468 20.5375C138.029 23.2175 127.45 47.4633 126.468 49.0266Z" fill="#FFF8E7"/>
<path d="M97.819 76.9691C97.7941 81.8761 97.9911 87.9277 100.524 92.1319C100.704 92.4288 100.888 92.448 101.169 92.3384C104.206 91.1577 107.61 90.0898 113.189 82.8719C113.569 82.3804 115.574 79.457 115.645 79.1841C115.862 78.362 117.15 78.7758 116.961 79.6043C116.253 82.707 112.523 88.7914 105.758 92.7346C101.192 95.3954 91.765 97.2197 83.6205 95.2569C73.515 92.8211 68.7381 86.2627 65.3456 77.4126C61.576 67.577 60.5503 50.0544 70.6381 46.2065C79.1623 42.955 104.894 41.9848 114.527 47.0807C115.801 47.7547 115.074 48.6368 113.371 47.9652C108.44 46.0184 108.009 46.1585 106.509 47.1503C99.0208 52.0973 97.8646 68.0413 97.8198 76.9699L97.819 76.9691ZM105.464 46.0688C105.356 45.5982 81.8638 44.343 71.9008 47.625C67.5899 49.045 65.5826 52.5351 64.9669 56.9202C63.5553 66.9622 66.3729 79.8717 73.4317 87.4154C79.3344 93.724 90.2813 95.3666 98.2217 93.2013C99.5925 92.8275 97.1808 92.7826 96.2048 86.2619C94.6202 75.6851 95.979 51.0102 105.464 46.0688Z" fill="#30235B"/>
<path d="M74.7713 40.0381C70.9609 39.4177 67.8038 38.4139 66.1151 34.9814C64.1391 30.9654 64.9173 24.2062 66.1776 20.291C68.4507 13.2275 72.6687 11.2704 77.8083 9.60857C86.595 6.76686 107.081 5.26836 113.62 13.7238C113.974 14.1825 114.546 15.4489 115.639 15.9036C124.065 19.4145 119.429 32.3823 111.026 29.6054C106.757 28.195 104.598 22.7741 107.294 18.4987C110.078 14.0849 113.881 16.4071 112.388 14.5644C106.189 6.90935 83.3226 8.31979 74.3309 12.7929C67.4579 16.2117 66.0311 25.5165 66.9174 31.8844C67.4531 35.7339 69.972 37.2692 73.692 37.9296C81.4658 39.3088 105.037 41.6182 111.612 36.5576C113.537 35.0759 114.027 33.856 115.174 31.5234C115.44 30.983 116.315 30.3683 116.54 31.3497C117.107 33.8239 114.536 37.162 112.11 38.6573C104.633 43.2648 83.3682 41.4365 74.7729 40.0381H74.7713ZM107.519 22.5179C107.234 29.8864 118.356 31.1856 118.782 23.1551C118.955 19.8724 116.422 16.9162 113.48 16.7297C110.113 16.5167 107.462 19.1031 107.519 22.5179Z" fill="#30235B"/>
<path d="M123.25 78.4748C118.212 82.7854 107.016 66.8038 107.121 57.3317C107.194 50.771 114.652 45.2869 120.136 51.0103C126.704 57.8632 127.218 75.0792 123.25 78.4748ZM123.662 68.6033C123.648 66.731 123.677 63.8644 122.922 61.4262C122.104 58.7846 120.678 52.7177 116.513 51.0423C111.379 48.9763 103.794 55.2384 114.142 70.7158C115.07 72.1038 118.136 75.778 119.835 76.7122C121.313 77.5255 122.581 77.0524 123.024 74.3131C123.358 72.2567 123.81 70.2099 123.662 68.6033Z" fill="#30235B"/>
<path d="M87.5846 30.6301C80.2768 30.6093 77.938 30.2627 72.6631 29.9561C68.6301 29.7224 69.6245 21.9657 72.7968 18.5492C76.3343 14.7397 96.0046 16.1158 100.504 19.7844C101.657 20.7249 102.244 21.9369 102.306 23.3905C102.661 31.7196 101.967 30.6709 87.5846 30.6301ZM93.9052 28.9803C95.7332 29.0427 97.5508 28.8306 99.3699 28.6921C100.173 28.6313 100.48 28.1902 100.546 27.4658C100.965 22.9183 100.631 21.5214 98.7045 20.6337C94.3224 18.6149 83.8302 16.9619 76.0252 18.8102C72.2756 19.6979 71.2499 23.7035 71.7039 27.1808C71.9994 29.4422 81.2865 28.5489 93.9052 28.9803Z" fill="#30235B"/>
<path d="M55.4124 73.0604C59.7433 55.7283 62.0773 58.2611 60.9668 61.4694C60.2774 63.4618 57.2764 71.8725 56.8961 76.6874C56.6022 80.4064 59.0211 81.0852 60.588 80.3383C63.1054 79.1392 63.3592 78.2875 64.3392 78.125C65.0374 78.0089 65.5138 78.49 65.1423 79.2681C63.0285 83.6868 52.1785 86.005 55.4124 73.0604Z" fill="#30235B"/>
<path d="M93.4785 22.8726C93.9252 22.1586 94.5706 22.0321 95.1415 22.6277C95.746 23.2585 95.6804 25.0003 95.0286 25.5807C93.4921 26.9495 92.6369 24.2174 93.4785 22.8726Z" fill="#30235B"/>
<path d="M77.1477 25.462C75.5888 25.6397 75.4583 23.1358 76.1261 22.3089C76.6745 21.6293 77.4408 21.727 77.7875 22.5227C78.1726 23.4072 78.0845 25.3548 77.1477 25.462Z" fill="#30235B"/>
</svg>
