<svg width="144" height="124" viewBox="0 0 144 124" fill="none" xmlns="http://www.w3.org/2000/svg">
<path d="M114.26 39.5421C111.645 38.9888 108.976 38.7292 106.302 38.7681C106.157 38.8944 106.033 39.0433 105.936 39.2089C106.103 39.3353 106.271 39.5692 106.448 39.5782C108.101 39.5502 109.753 39.7099 111.37 40.0544C113.81 40.7403 114.098 40.4305 113.858 40.9412C112.707 43.4286 109.993 44.9367 107.463 46.056C105.907 46.6933 104.268 47.1096 102.596 47.2925C102.246 47.3422 102.088 47.261 102.196 46.8608C103.698 41.324 103.606 39.4647 103.606 34.4424C103.697 34.5725 104.762 36.3401 105.265 37.1457C105.36 37.2961 105.563 37.5218 105.691 37.5007C109.987 36.9652 109.975 36.6733 113.549 35.8587C114.188 35.7083 114.284 35.679 114.039 35.0539C113.42 33.8762 112.654 32.7804 111.759 31.7925C110.93 31.0869 109.86 30.6191 109.303 29.6563C108.621 28.4776 107.581 27.4163 108.65 25.7743C109.03 25.1699 109.228 24.4706 109.222 23.7585C109.215 23.0464 109.004 22.3508 108.614 21.7532C108.532 21.6095 108.85 18.6091 108.714 17.2777C108.6 15.7309 108.134 14.2299 107.35 12.8881C105.853 10.3937 103.432 8.57978 100.605 7.83418C99.1928 7.41692 97.6841 7.45458 96.2952 7.94174C95.9494 8.00438 95.5956 8.01047 95.2478 7.9598C94.1499 7.94271 93.0622 8.17019 92.0646 8.62547C91.7433 8.78719 91.3666 8.17417 91.0953 7.9282C87.6599 4.6777 83.4906 2.29026 78.9357 0.965317C61.0971 -4.01333 47.0731 10.9467 47.8772 30.1934C47.931 31.4976 47.9356 31.4796 49.2088 31.4164C49.54 31.3983 49.5719 31.2908 49.5673 31.0027C49.5264 28.7401 49.4915 26.4731 49.4915 24.2105C49.4897 23.76 49.5667 23.3126 49.7189 22.8882C49.8144 22.6362 50.4215 22.5061 50.4397 22.9875C50.4942 23.1718 50.5261 28.1467 50.6163 30.4273C50.6572 31.4209 50.7163 31.3938 51.7448 31.4051C52.1843 31.4141 52.2344 31.2705 52.2071 30.8786C51.7387 24.4633 53.1507 17.2401 57.1743 12.0366C61.4663 6.4908 67.0951 3.96725 74.1473 5.08724C78.8212 5.83415 82.6865 8.21027 86.097 11.3942C86.3956 11.6725 86.1607 11.7538 85.9879 11.911C84.5693 13.125 83.4757 14.6688 82.8047 16.4045C81.7403 19.4072 81.0922 22.5396 80.8782 25.7156C80.7016 28.1715 80.1203 30.519 78.2945 32.3634C79.9262 32.3679 81.5534 32.3634 83.1829 32.3747C85.637 32.3897 84.9261 33.7165 85.0428 37.5963C85.0488 37.7903 85.0701 37.9836 85.0746 38.1814C85.0928 39.2385 85.1095 40.2948 85.1246 41.3504C88.4594 40.9961 86.8678 41.3338 95.7207 39.7355C96.5127 39.594 96.136 40.2341 96.111 41.0803C96.0966 41.4564 95.9655 41.5662 95.5623 41.5888C94.4884 41.6422 93.4137 41.7821 92.3398 41.8897C92.2386 42.215 92.2033 42.5569 92.2359 42.8958C92.2686 43.2347 92.3685 43.5638 92.53 43.8641C92.8689 44.8766 93.4914 45.7723 94.3247 46.4464C94.5331 46.6216 94.6741 46.7698 94.552 47.0759C93.0809 51.164 90.3643 54.6963 86.7791 57.1829C86.6745 57.2506 86.557 57.2995 86.4479 57.3582C86.4161 57.7049 86.3805 58.0509 86.3532 58.4014C86.3259 58.7519 86.3759 58.8828 86.7791 58.6624C88.6631 57.5781 90.3399 56.1729 91.7327 54.5112C94.2768 51.6158 96.0897 48.1608 97.0213 44.432C97.424 42.9207 97.7278 41.385 97.9307 39.8347C98.4683 35.3033 98.0689 30.7107 96.7568 26.3377C94.618 19.0416 90.7429 12.8662 84.5979 8.22456C81.1237 5.50048 76.9571 3.78477 72.5603 3.26773C67.6969 2.7412 58.8371 6.75782 58.6696 6.83454C60.0844 4.97943 62.0651 3.62738 64.3167 2.97964C77.5487 -1.40328 95.2531 9.88236 98.7152 30.1114C99.8794 36.2873 99.2006 42.6662 96.7621 48.4644C94.9104 53.0999 91.5719 57.0011 87.2626 59.565C86.9716 59.682 86.7284 59.8924 86.5721 60.1627C86.4157 60.4329 86.3552 60.7474 86.4002 61.0559C86.4903 62.1443 86.4365 63.2417 86.4449 64.3346C87.2475 64.0104 88.063 63.714 88.8474 63.3568C89.2006 63.195 89.359 63.2815 89.5295 63.5771C90.4716 65.1876 91.4326 66.7889 92.3799 68.3948C92.5929 68.7589 92.8013 69.1102 93.2894 68.7408C93.2347 68.4842 93.1526 68.2341 93.0446 67.9947C92.2495 66.5856 91.4367 65.1865 90.6065 63.7975C90.3753 63.4109 90.4882 63.2898 90.8558 63.1093C92.3256 62.3775 93.7849 61.6252 95.2334 60.8528C95.5282 60.7023 95.6821 60.7084 95.895 60.9829C96.7522 62.0984 97.645 63.1823 98.506 64.2925C98.769 64.6302 99.032 64.819 99.4443 64.567C99.7838 64.2338 99.5754 63.96 99.3442 63.6855C98.0846 62.1811 96.8333 60.6625 95.5646 59.1649C95.3653 58.9264 95.3289 58.7888 95.5691 58.5489C98.2349 55.7695 100.279 52.4631 101.569 48.8458C101.598 48.7197 101.674 48.6092 101.782 48.5366C101.89 48.464 102.021 48.4347 102.15 48.4547C105.72 48.3339 109.164 47.1124 112.003 44.9601C113.353 44.0997 114.4 42.8437 114.998 41.3662C115.11 40.9397 115.184 40.5046 115.221 40.0657C114.92 39.8576 114.598 39.6821 114.26 39.5421ZM50.2487 21.5411C50.0851 21.4619 49.9549 21.3279 49.8811 21.1628C49.8074 20.9976 49.7947 20.8119 49.8455 20.6385C49.9311 20.2451 50.3245 19.869 50.5617 19.869C51.0278 19.9766 51.0096 20.4083 51.0278 20.7866C51.0281 20.8874 51.0081 20.9872 50.9688 21.0801C50.9295 21.1731 50.8718 21.2572 50.7992 21.3276C50.7265 21.3979 50.6403 21.4531 50.5458 21.4898C50.4512 21.5265 50.3502 21.5439 50.2487 21.5411ZM95.0985 45.4475L94.9174 45.5152C94.5589 44.9082 94.1693 44.323 93.8518 43.7024C93.4175 42.8299 93.4395 42.8164 94.4323 42.7133C96.0936 42.5358 95.9223 42.4515 95.0985 45.4475ZM87.4612 19.9668C88.6199 19.4344 89.7106 18.767 90.7103 17.9788C91.046 17.7584 91.1954 17.7313 91.4174 18.1142C94.9195 24.0219 96.6521 30.798 96.4119 37.6482C96.4074 37.837 96.3892 38.0242 96.3755 38.2108C96.3354 38.2198 96.2899 38.2243 96.249 38.2334C95.9132 37.5 95.5669 36.7756 95.2379 36.0287C95.2107 35.9618 95.3334 35.764 95.4289 35.7279C95.6866 35.6286 95.8958 35.5616 95.7912 35.2013C95.6821 34.8252 95.4555 34.7967 95.1296 34.8779C94.3011 35.1471 93.419 35.2119 92.5595 35.0667C90.7996 34.5808 89.2705 33.4906 88.2449 31.9903C86.1288 29.2554 85.6074 26.1068 85.8249 22.7694C85.9227 21.3545 86.1258 20.4497 87.4612 19.9668ZM102.771 10.7865C104.132 11.5607 105.279 12.6585 106.107 13.9812C106.935 15.304 107.42 16.8102 107.517 18.3646C107.526 18.5265 107.525 18.6889 107.512 18.8505C107.494 19.1792 107.398 19.4982 107.004 19.4801C106.46 19.456 106.576 18.9243 106.601 18.3827C106.426 16.2819 105.485 14.3165 103.954 12.855C103.456 12.3329 102.848 11.92 102.345 11.407C102.068 11.1204 102.316 10.5082 102.771 10.7865ZM101.121 9.68453C101.259 9.68865 101.392 9.74092 101.495 9.83221C101.599 9.92349 101.667 10.048 101.688 10.184C101.629 10.7504 101.411 10.8542 101.035 10.8406C100.962 10.8439 100.889 10.831 100.821 10.8029C100.753 10.7747 100.693 10.732 100.644 10.6778C100.595 10.6236 100.558 10.5593 100.538 10.4895C100.517 10.4197 100.512 10.3462 100.523 10.2742C100.517 10.1948 100.528 10.115 100.556 10.0404C100.584 9.96572 100.628 9.89799 100.685 9.84188C100.742 9.78578 100.81 9.74265 100.886 9.71548C100.961 9.68831 101.041 9.67775 101.121 9.68453ZM100.514 21.2492C101.267 21.6043 102.082 22.0014 102.903 22.3602C103.13 22.4625 104.115 21.8457 105.214 21.4471C105.512 21.3407 105.829 21.3006 106.144 21.3296C106.459 21.3585 106.764 21.4557 107.037 21.6144C107.31 21.7732 107.545 21.9895 107.724 22.248C107.904 22.5066 108.024 22.8012 108.076 23.1109C108.711 25.5306 106.232 27.4472 104.115 27.2132C103.399 27.138 103.385 27.0628 103.168 27.6811C103.033 27.8307 102.886 27.9691 102.728 28.0948C101.987 25.7961 101.244 23.4937 100.519 21.2492H100.514Z" fill="#FFF8E7"/>
<path d="M99.4406 64.5481C99.7847 64.2111 99.571 63.9411 99.3406 63.6666C98.0779 62.1622 96.8319 60.6421 95.5609 59.146C95.3616 58.9121 95.3252 58.7767 95.5655 58.53C98.235 55.7536 100.28 52.4463 101.566 48.8269C101.595 48.7008 101.67 48.5903 101.778 48.5177C101.886 48.4451 102.018 48.4158 102.146 48.4358C105.716 48.3105 109.158 47.0895 111.999 44.9412C113.35 44.0813 114.397 42.8251 114.995 41.3473C115.108 40.9215 115.182 40.4865 115.217 40.0475C125.916 43.7271 131.98 48.9721 137.796 56.1636C137.999 56.4156 138.108 56.6488 137.605 56.6668C136.061 56.8122 134.549 57.1946 133.123 57.8004C131.247 58.551 129.596 59.7667 128.328 61.3311C126.865 62.9693 125.516 64.7158 124.209 66.4767C123.713 67.2461 123.297 68.0631 122.966 68.9152C122.8 69.2755 122.65 69.2913 122.341 69.0815C119.889 67.4335 119.616 67.2913 118.715 66.931C118.602 66.8859 118.443 66.9536 118.308 66.9671C118.367 67.3612 118.181 67.3093 118.914 67.8577C119.975 68.6572 121.066 69.4192 122.097 70.2646C122.487 70.5843 122.756 70.3399 123.082 70.2895C122.974 70.498 122.943 70.7374 122.993 70.9665C123.044 71.1957 123.173 71.4002 123.359 71.5449C125.405 73.6509 126.308 75.8165 125.697 79.9647C125.318 82.5552 124.08 84.8584 122.797 87.1209C121.945 88.8049 120.502 90.1216 118.74 90.8231C118.646 90.8392 118.549 90.832 118.458 90.8021C118.367 90.7721 118.285 90.7205 118.219 90.6516C115.525 86.7358 104.066 70.0947 101.036 65.6839C100.714 65.216 100.354 64.8881 99.7392 65.0904C99.6336 64.913 99.534 64.7321 99.4406 64.5481ZM114.573 75.7751C115.034 75.816 115.497 75.8069 115.955 75.748C116.292 75.6886 116.368 75.4283 115.96 75.3719C115.697 75.3132 115.425 75.2967 115.158 75.241C114.149 75.1571 113.151 74.9718 112.18 74.6882C111.278 74.4016 109.755 73.5727 108.885 73.1838C108.518 72.995 108.382 73.4629 108.554 73.8096C108.985 74.1068 109.436 74.3728 109.905 74.6055C111.348 75.351 112.947 75.7522 114.573 75.7773V75.7751Z" fill="#FFBF19"/>
<path d="M44.8464 90.6382C45.3496 90.6382 45.4724 90.7781 45.4716 91.2686C45.4625 96.1622 45.4421 101.051 45.4716 105.945C45.4716 106.481 45.3087 106.589 44.8009 106.588C36.9244 106.582 29.0461 106.585 21.166 106.597C20.9134 106.58 20.664 106.662 20.4725 106.827C20.1497 107.271 20.4543 107.725 21.0432 107.729C23.5951 107.734 39.46 107.738 44.8411 107.729C45.3534 107.729 45.4944 107.873 45.4572 108.359C45.4125 108.948 45.4368 109.546 45.4254 110.14C45.415 110.278 45.4345 110.417 45.4825 110.547C45.5306 110.677 45.6061 110.795 45.7039 110.894C45.8018 110.993 45.9198 111.07 46.0501 111.12C46.1803 111.169 46.3198 111.191 46.4592 111.183C50.4245 111.233 54.3908 111.275 58.3581 111.309C58.8659 111.309 59.0561 111.425 59.0402 111.965C58.9091 115.791 59.5078 116.693 57.7843 116.693C43.0418 116.693 21.3767 116.683 7.37387 116.675C6.95163 116.66 6.53363 116.586 6.13245 116.454C5.8396 116.353 5.59177 116.153 5.432 115.889C5.27223 115.625 5.21061 115.314 5.25784 115.01C5.24874 110.121 5.27375 94.2569 5.24874 91.2212C5.2442 90.7172 5.35257 90.557 5.89674 90.56C12.3964 90.5916 38.3656 90.6488 44.8464 90.6382ZM43.7633 96.454C44.1029 96.4947 44.2567 95.7395 43.4412 95.6357C35.4197 95.6357 27.3929 95.6575 19.3713 95.6402C18.433 95.6402 17.8351 96.4608 19.8564 96.4721C19.9329 96.4729 43.1919 96.5323 43.7633 96.454ZM25.5262 103.615V103.633H33.6205C34.0327 103.516 34.1411 103.43 34.1229 102.976C34.094 102.816 34.0038 102.674 33.8713 102.578C33.7388 102.483 33.5742 102.442 33.412 102.464C31.9069 102.481 21.2251 102.531 17.3864 102.539C16.9824 102.539 16.6156 102.629 16.6247 103.097C16.6353 103.606 17.1378 103.619 17.6494 103.619L25.5262 103.615ZM36.6672 100.147C36.7786 100.121 36.8815 100.067 36.9663 99.9911C37.0511 99.9148 37.1151 99.8184 37.1522 99.711C37.1651 99.6498 37.1657 99.5868 37.154 99.5254C37.1423 99.464 37.1185 99.4055 37.084 99.3533C37.0496 99.301 37.005 99.256 36.953 99.2209C36.901 99.1857 36.8425 99.1611 36.7809 99.1483C36.4724 99.0603 36.9044 99.101 25.3011 99.1085C25.141 99.1101 24.9815 99.128 24.8251 99.1619C24.7079 99.1825 24.6021 99.2444 24.5271 99.3361C24.4521 99.4279 24.413 99.5434 24.4168 99.6615C24.4207 99.7796 24.4673 99.8923 24.5482 99.979C24.629 100.066 24.7386 100.121 24.8569 100.134C25.201 100.186 36.2056 100.193 36.6702 100.147H36.6672ZM41.7928 103.624C42.2104 103.624 42.5954 103.549 42.6045 103.048C42.6136 102.548 42.1877 102.49 41.8292 102.486C39.8761 102.465 37.9185 102.47 35.9646 102.472C35.5978 102.472 35.3159 102.623 35.353 103.044C35.3512 103.129 35.3684 103.214 35.4034 103.293C35.4383 103.371 35.4902 103.441 35.5552 103.497C35.6203 103.553 35.697 103.594 35.7799 103.618C35.8628 103.641 35.95 103.646 36.0351 103.633C36.2663 103.629 41.7201 103.624 41.7958 103.624H41.7928ZM12.9929 106.772C12.2585 106.799 12.6139 107.64 12.9838 107.587C13.4234 107.662 17.516 107.691 19.1068 107.713C19.4471 107.717 19.701 107.555 19.6237 107.276C19.5108 106.872 19.3334 106.719 18.8529 106.741C18.1337 106.714 14.132 106.624 12.9944 106.772H12.9929Z" fill="#FFBF19"/>
<path d="M144 72.5388C143.95 76.5425 143.046 80.4903 141.347 84.1223C140.416 86.2501 139.232 88.2598 137.821 90.1088C136.681 91.6438 135.37 93.0468 133.915 94.2917C133.638 94.5173 133.561 94.6963 133.787 95.0386C134.992 96.9098 135.756 99.0269 136.022 101.232C136.311 103.263 135.303 110.43 134.998 112.014C134.959 112.194 134.852 112.352 134.698 112.454C134.623 112.495 134.382 112.337 134.291 112.211C131.811 108.8 129.339 105.384 126.876 101.961C126.673 101.677 126.439 101.693 126.251 101.886C126.205 101.962 126.18 102.049 126.177 102.138C126.174 102.226 126.193 102.315 126.233 102.394C127.071 103.605 134.976 115.19 136.566 117.52C136.992 118.145 136.974 118.358 136.421 118.901C134.792 120.5 129.542 123.58 128.847 123.926C128.431 124.133 128.189 123.872 127.982 123.566C127.072 122.212 119.247 110.605 116.348 106.091C116.125 105.646 115.795 105.262 115.387 104.973C114.979 104.685 114.506 104.5 114.009 104.436C113.336 104.25 112.699 103.954 112.124 103.559C112.006 103.496 111.961 103.303 111.879 103.167C112.05 103.091 112.232 103.044 112.419 103.028C113.038 103.09 113.654 103.186 114.263 103.316C115.947 103.655 117.685 103.638 119.362 103.267C120.422 103.091 121.469 102.847 122.498 102.538C124.239 102.039 125.767 100.985 126.844 99.5381C127.64 98.3939 128.535 97.3208 129.518 96.3308C131.738 94.7904 133.751 92.9767 135.51 90.9332C138.057 87.8252 139.148 86.5924 140.876 82.041C142.712 77.203 142.913 73.9483 142.58 71.2593C142.03 66.8177 141.904 66.3055 139.425 60.9229C139.046 60.1045 138.516 59.3576 138.198 58.5159C138.057 58.1466 138.47 57.7149 138.918 57.8006C139.154 57.8458 139.584 58.4776 139.638 58.5791C141.381 61.7292 143.038 64.9237 143.65 68.5146C143.872 69.84 143.887 71.1984 144 72.5388Z" fill="#FFF8E7"/>
<path d="M99.7296 65.0883C100.347 64.8897 100.705 65.2177 101.026 65.6818C104.068 70.0828 115.482 86.7562 118.209 90.6495C118.276 90.7181 118.358 90.7696 118.449 90.7995C118.539 90.8294 118.636 90.8367 118.731 90.821C120.495 90.1233 121.939 88.8055 122.787 87.1188C124.075 84.8562 125.306 82.5531 125.687 79.9626C126.309 75.7384 125.365 73.6443 123.349 71.5427C123.164 71.3972 123.036 71.1928 122.985 70.964C122.935 70.7352 122.966 70.4962 123.073 70.2873C123.402 70.2342 123.739 70.2718 124.048 70.3959C124.357 70.5201 124.625 70.7261 124.824 70.9914C126.079 72.4412 126.831 74.2532 126.968 76.1596C127.297 79.1046 126.744 82.0806 125.377 84.7148C124.423 86.7021 123.513 88.7081 121.796 90.2019C120.911 91.0415 119.835 91.6571 118.659 91.9966C118.411 92.0872 118.196 92.2504 118.043 92.4645C117.246 93.4856 116.117 94.2009 114.848 94.4886C113.785 94.7952 112.687 94.9646 111.581 94.9925C110.649 94.985 108.827 95.4875 108.268 94.0899C108.185 93.9385 108.083 93.798 107.965 93.6717C107.875 93.4619 107.772 93.2577 107.656 93.0602C104.979 89.0639 95.3588 74.8192 93.2716 71.6631C92.5069 70.507 92.5705 70.2701 93.43 69.4186C93.9249 68.9259 92.3272 70.0985 99.7296 65.0883Z" fill="#FFF8E7"/>
<path d="M100.497 91.9787C100.659 92.2077 100.846 92.4176 101.055 92.6045C102.861 94.0222 105.076 94.8319 107.377 94.916C107.57 94.8993 107.763 94.9566 107.916 95.0761C108.068 95.1956 108.169 95.3683 108.197 95.5591C108.327 95.9976 108.592 96.3846 108.955 96.6655C109.181 96.7803 109.358 96.9709 109.455 97.2033C109.553 97.4357 109.563 97.6949 109.486 97.9344C109.225 99.0409 109.876 99.8991 110.515 100.736C110.666 100.936 110.744 101.18 110.737 101.429C110.343 105.258 114.381 104.61 115.083 105.779C116.348 107.885 117.579 110.005 118.822 112.12C118.967 112.368 118.963 112.454 118.645 112.454C108.154 112.446 108.803 112.493 108.584 112.327C106.754 110.946 105.699 110.008 104.954 109.534C104.956 109.664 104.978 109.793 105.017 109.917C105.533 110.946 106.325 111.815 107.306 112.427C106.605 112.467 108.011 112.436 96.4744 112.458C96.0849 112.458 95.9128 112.413 96.0121 111.968C97.0406 107.337 99.1952 96.3692 100.35 91.9599C100.397 91.9761 100.447 91.9824 100.497 91.9787Z" fill="#FFF8E7"/>
<path d="M90.7749 75.7369C92.3794 75.7504 93.3889 76.1822 93.3859 78.3635C93.3707 88.057 93.3722 97.7516 93.3904 107.447C93.4438 107.964 93.3461 108.484 93.1088 108.947C92.8716 109.41 92.5049 109.795 92.0527 110.056C91.8317 110.17 91.5862 110.228 91.3373 110.227C78.1166 110.227 49.3652 110.199 48.2132 110.214C46.8126 110.231 45.9842 109.395 45.9698 107.865C45.9441 105.1 45.9948 85.4302 46.0108 78.3635C45.984 77.9879 46.002 77.6104 46.0646 77.239C46.1616 76.8221 46.3982 76.4501 46.7357 76.1838C47.0732 75.9176 47.4918 75.7727 47.9229 75.773C48.7036 75.7301 90.7204 75.7361 90.7749 75.7369ZM47.3894 80.8374C46.9854 80.8374 46.8679 80.9277 46.877 81.3368C46.9089 82.7765 46.8899 84.2154 46.8952 85.6551C46.9202 93.1889 46.971 100.727 46.9991 108.262C47.0174 108.415 47.0701 108.562 47.1533 108.692C47.2364 108.822 47.3479 108.932 47.4796 109.014C48.336 109.465 49.4054 109.235 51.604 109.234C64.7408 109.234 77.8733 109.236 91.0015 109.239C91.264 109.265 91.5275 109.199 91.745 109.05C91.9625 108.902 92.1199 108.682 92.1892 108.429C92.4969 107.504 92.3839 109.7 92.4067 81.5316C92.4067 81.0322 92.2748 80.9171 91.786 80.9201C84.4117 80.9592 54.8129 80.8442 47.3894 80.8374ZM91.8019 79.7445C91.9103 79.7445 92.6083 79.6166 92.3324 77.8332C92.1967 76.9389 91.789 76.902 90.878 76.8208C90.6605 76.8433 62.1895 76.7892 48.167 76.7802C48.0218 76.7611 47.8742 76.7728 47.7339 76.8145C47.5936 76.8562 47.4637 76.9269 47.353 77.022C47.2422 77.1171 47.153 77.2344 47.0912 77.3662C47.0294 77.4979 46.9965 77.6412 46.9945 77.7866C46.9225 78.2996 46.9672 79.8107 47.353 79.8107C54.7811 79.8009 84.4117 79.7422 91.8042 79.7422L91.8019 79.7445Z" fill="#FFF8E7"/>
<path d="M100.345 91.9696C99.8906 91.2596 96.0951 85.4024 94.6612 83.1902C94.0761 82.2876 94.3641 82.1319 93.9268 76.0295C93.8593 75.0893 93.5009 74.8193 92.5671 74.7967C90.6868 74.7516 88.8103 74.6786 86.9292 74.635C86.5351 74.6259 86.4252 74.4733 86.4259 74.0814C86.435 70.83 86.4411 67.5766 86.4441 64.3211C87.2467 63.997 88.0622 63.6998 88.8466 63.3433C89.1998 63.1816 89.3575 63.2681 89.5287 63.5637C90.4708 65.1771 91.4348 66.774 92.3792 68.3814C92.5929 68.7454 92.8006 69.0922 93.2887 68.7274C93.4061 68.8778 93.516 69.0283 93.635 69.1787C93.5703 69.2636 93.5007 69.3447 93.4266 69.4216C92.5542 70.2603 92.5057 70.5108 93.2682 71.6661C95.3501 74.8253 104.974 89.0632 107.653 93.0633C107.769 93.2603 107.872 93.4645 107.961 93.6748C105.466 93.8226 102.98 93.2558 100.8 92.0418C100.653 91.9964 100.5 91.9721 100.345 91.9696Z" fill="#FFBF19"/>
<path d="M1.99035 84.6922C1.483 84.6686 1.00205 84.4609 0.638806 84.1085C0.27556 83.7562 0.0552982 83.2838 0.0198302 82.7809C-0.0104856 82.1912 0.00618799 81.5932 0.00618799 81.0035C0.00618799 47.6822 -0.0415591 49.337 0.128209 48.7179C0.264566 48.2108 0.578008 47.7682 1.01263 47.4691C1.44726 47.17 1.9748 47.0339 2.50117 47.0849C2.94302 47.0737 30.3234 47.0157 30.641 47.1165C30.8683 47.188 30.8759 48.0192 30.6637 48.0944C30.425 48.1809 32.3159 48.1372 2.47389 48.1297C2.12573 48.1352 1.79081 48.263 1.52857 48.4903C1.26633 48.7177 1.09375 49.0299 1.04147 49.3716C0.895954 51.2159 1.83953 50.9368 2.2541 50.9368C31.4822 50.9504 30.9146 50.9022 30.9381 51.0444C30.977 51.3441 30.9754 51.6477 30.9335 51.947C30.9214 52.0493 31.8771 52.0516 1.58336 52.0222C1.09376 52.0222 0.995996 52.1478 0.998269 52.6112C1.05056 61.9269 1.00509 71.2463 1.00282 80.5613C1.00282 81.169 0.927028 81.7805 0.930817 82.3876C0.931259 82.5716 0.968773 82.7536 1.04115 82.9231C1.11353 83.0925 1.21932 83.2458 1.35229 83.3741C1.48525 83.5023 1.64272 83.6029 1.81542 83.6699C1.98812 83.7368 2.17258 83.7689 2.35793 83.764C11.2139 83.737 38.7785 83.7595 43.7048 83.7595C44.1989 83.7595 44.4831 83.4534 44.4884 82.8689C44.5498 76.7222 44.4195 76.3807 44.5703 76.1355C44.6612 75.985 45.3456 75.8925 45.4312 76.158C45.48 76.2745 45.4957 76.4019 45.4767 76.5266C45.4767 78.6861 45.4957 80.8448 45.4858 82.9998C45.4806 83.4597 45.2932 83.899 44.9642 84.2227C44.6351 84.5465 44.1909 84.7287 43.7275 84.7298C36.8648 84.7396 3.14614 84.7464 1.99035 84.6922Z" fill="#FFF8E7"/>
<path d="M7.88289 89.5046C7.15304 89.5046 5.37199 89.7031 5.37199 89.0533C5.31824 88.3333 5.31217 87.6107 5.3538 86.89C5.40307 86.535 5.67136 85.6865 7.62748 85.694C18.2918 85.7166 42.8104 85.685 44.4012 85.694C45.604 85.7008 45.3107 85.8167 45.4569 89.0405C45.4721 89.3594 45.3811 89.5023 45.0355 89.4767C44.8476 89.4587 21.3067 89.4948 7.88289 89.5046ZM10.1126 88.0386C10.5673 88.007 10.5219 87.7054 10.5067 87.5572C10.5032 87.4567 10.4607 87.3615 10.3881 87.2914C10.3155 87.2213 10.2184 87.1818 10.1172 87.1811C9.96558 87.2172 9.75261 87.2563 9.72305 87.5722C9.70183 87.8317 9.79051 87.9844 10.1126 88.0386ZM8.61274 87.6068C8.60712 87.5097 8.5666 87.4177 8.49853 87.3477C8.43046 87.2776 8.33935 87.2341 8.24173 87.225C8.1441 87.2159 8.04643 87.2419 7.96641 87.2981C7.88639 87.3543 7.82934 87.4372 7.80559 87.5316C7.80559 87.9145 8.01855 87.931 8.13679 87.9408C8.28154 87.9566 8.5127 87.9754 8.61274 87.6068ZM12.6144 87.5617C12.4575 86.9788 11.8345 87.0878 11.8391 87.6249C11.8548 87.7121 11.8979 87.7921 11.9623 87.8535C12.0268 87.9149 12.1091 87.9544 12.1976 87.9664C12.4014 87.9664 12.5871 87.9084 12.6144 87.5647V87.5617Z" fill="#FFBF19"/>
<path d="M92.3289 41.8806C92.228 42.206 92.1928 42.5481 92.2254 42.887C92.2581 43.226 92.3579 43.5552 92.5191 43.8558C92.8611 44.8665 93.4831 45.7612 94.3138 46.4373C94.523 46.6125 94.6594 46.7614 94.5412 47.0668C92.939 51.1797 90.5243 54.6999 86.7735 57.1738C86.6697 57.2423 86.5515 57.2904 86.4423 57.3491C86.4135 45.6723 86.4476 46.2552 86.3158 44.6516C86.2824 44.4833 86.3096 44.3087 86.3927 44.1583C86.4758 44.0079 86.6096 43.8912 86.7705 43.8287C87.8907 43.3398 88.9957 42.8125 90.1424 42.3891C90.8595 42.1733 91.5898 42.0034 92.3289 41.8806Z" fill="#FFBF19"/>
<path d="M5.67528 61.074C5.67528 60.0661 6.0421 59.6953 7.03494 59.693C9.20554 59.6878 11.3807 59.693 13.5528 59.693C14.5313 59.693 14.9125 60.0691 14.9125 61.0199V72.1881C14.9125 73.1193 14.5222 73.5105 13.6066 73.5105H6.98037C6.06483 73.5105 5.67528 73.1193 5.67528 72.1881V61.074ZM14.1637 61.0868C14.1682 60.6415 14.0545 60.4392 13.5574 60.4437C11.3847 60.4647 9.21211 60.4647 7.03948 60.4437C6.59536 60.4437 6.43317 60.5791 6.43317 61.0334C6.43974 64.7391 6.43974 68.4438 6.43317 72.1475C6.43317 72.6244 6.60142 72.7681 7.06753 72.7636C9.22095 72.7445 11.3754 72.7445 13.5308 72.7636C13.9977 72.7681 14.1705 72.6244 14.1652 72.1475C14.1488 68.4611 14.1483 64.7747 14.1637 61.0883V61.0868Z" fill="#FFF8E7"/>
<path d="M20.4317 61.9194C20.3649 61.9329 20.2959 61.9321 20.2294 61.9172C20.1628 61.9022 20.1003 61.8733 20.0458 61.8325C19.9914 61.7916 19.9464 61.7397 19.9137 61.6803C19.8811 61.6208 19.8616 61.5551 19.8565 61.4876C19.866 61.3779 19.9181 61.2761 20.0018 61.2038C20.0856 61.1315 20.1943 61.0944 20.3052 61.1002C23.6497 61.1424 26.9943 61.0581 30.3389 61.0513C30.6246 61.0513 30.9824 61.0423 30.9824 61.4605C30.9824 61.9118 30.7648 61.9517 30.4117 61.9509C28.7117 61.9464 22.0551 61.9239 20.4317 61.9194Z" fill="#FFF8E7"/>
<path d="M17.5765 69.2599C17.2544 69.2373 17.1301 68.5423 17.5856 68.4415C17.8956 68.3723 24.7234 68.3926 24.8462 68.4235C24.9432 68.4459 25.0296 68.5006 25.0909 68.5785C25.1523 68.6564 25.1848 68.7528 25.1832 68.8517C25.1817 68.9505 25.146 69.0459 25.0822 69.1218C25.0184 69.1977 24.9303 69.2496 24.8326 69.2689C24.7568 69.2727 17.6712 69.3088 17.5765 69.2599Z" fill="#FFF8E7"/>
<path d="M118.429 96.4946C118.321 96.653 118.201 96.8037 118.072 96.9459C116.993 97.94 115.564 98.4746 114.093 98.4352C111.359 98.5247 111.387 98.4691 110.19 97.8335C110.077 97.7741 110.034 97.4642 110.064 97.2851C110.127 96.8887 110.435 97.1136 110.594 97.1723C112.187 97.7064 113.902 97.7688 115.53 97.3521C116.296 97.1265 117.046 96.8469 117.773 96.5157C117.959 96.456 118.148 96.4058 118.34 96.3652C118.367 96.41 118.397 96.4532 118.429 96.4946Z" fill="#FFF8E7"/>
<path d="M114.063 101.932C113.49 101.774 112.876 101.606 112.268 101.42C111.927 101.317 111.514 101.155 111.705 100.714C111.764 100.579 112.268 100.524 112.521 100.597C113.454 100.935 114.456 101.045 115.44 100.916C116.324 100.742 117.166 100.359 118.032 100.102C118.32 100.043 118.613 100.01 118.907 100.004C118.767 100.251 118.606 100.485 118.426 100.705C117.73 101.284 116.883 101.655 115.983 101.776C115.372 102.012 114.705 102.066 114.063 101.932Z" fill="#FFF8E7"/>
<path d="M26.7041 69.201C26.3918 69.201 26.0925 69.1296 26.0978 68.7497C26.1031 68.3699 26.4062 68.306 26.7139 68.3045C28.0152 68.2999 29.3158 68.3045 30.6163 68.2729C31.0332 68.2638 30.9741 68.5068 30.9741 68.7588C30.9741 69.0107 31.0195 69.2545 30.6072 69.2356C29.9585 69.2026 27.3521 69.2116 26.7041 69.201Z" fill="#FFF8E7"/>
<path d="M17.5451 61.8743C17.3776 61.8637 17.1464 61.9495 17.11 61.4982C17.1555 61.165 17.232 61.1334 17.489 61.1221C17.8405 61.0803 18.1961 61.0879 18.5455 61.1447C18.8941 61.1627 18.9487 61.8494 18.5227 61.8735C18.1969 61.8817 17.8709 61.8819 17.5451 61.8743Z" fill="#FFF8E7"/>
<path d="M85.0412 37.5964C84.8062 37.5964 36.1806 37.5723 32.2335 37.5362C31.7166 37.5272 31.6037 37.6866 31.6082 38.1658C31.6256 39.2993 31.59 72.4176 31.662 74.2484C31.6939 75.0351 31.9705 75.2262 32.7814 75.2262C37.4364 75.2397 84.1173 75.2623 84.3348 75.2488C84.4305 75.2562 84.5268 75.2424 84.6165 75.2083C84.7062 75.1743 84.7871 75.1209 84.8535 75.052C84.9199 74.9831 84.97 74.9005 85.0002 74.81C85.0304 74.7195 85.04 74.6235 85.0283 74.5289C85.0359 74.0648 85.1215 38.7254 85.0412 37.5964ZM61.8777 43.5386C63.6496 43.5115 65.4223 43.5205 67.1943 43.525C67.5111 43.525 67.8378 43.6243 67.7832 43.9763C67.7604 44.1335 67.4042 44.3359 67.1898 44.3449C66.4432 44.3795 63.0214 44.3577 61.9232 44.3629C61.5745 44.3675 61.257 44.2779 61.2797 43.9116C61.2888 43.7747 61.6647 43.5453 61.8777 43.5408V43.5386ZM56.0222 43.6063C57.2462 43.5656 58.5695 43.6551 59.7935 43.6642C60.7446 43.8665 60.2823 44.3569 59.6298 44.3411C59.0545 44.3276 56.0631 44.2968 55.9229 44.2787C55.5644 44.2336 55.1931 43.698 56.0222 43.6085V43.6063ZM52.6776 43.531C53.0679 43.522 54.1282 43.5942 54.4041 43.531C54.9028 43.5401 54.8263 44.372 54.4905 44.3449C53.8624 44.3794 53.2328 44.3779 52.6049 44.3404C52.2608 44.3366 52.0887 43.5498 52.6776 43.5363V43.531ZM36.1669 43.5318C37.2325 43.4912 38.3648 43.5182 39.3668 43.5182C39.4274 43.5085 39.4895 43.5118 39.5488 43.5279C39.608 43.544 39.6631 43.5727 39.7103 43.6118C39.7574 43.651 39.7955 43.6997 39.8219 43.7548C39.8484 43.8098 39.8626 43.8699 39.8636 43.9309C39.8646 43.9919 39.8523 44.0524 39.8277 44.1082C39.803 44.1641 39.7665 44.2141 39.7207 44.2547C39.6748 44.2953 39.6207 44.3257 39.562 44.3437C39.5033 44.3617 39.4414 44.367 39.3804 44.3592C38.8415 44.3321 36.6975 44.3998 36.1851 44.3366C36.1285 44.3437 36.071 44.3389 36.0163 44.3226C35.9617 44.3062 35.9111 44.2787 35.8678 44.2417C35.8246 44.2047 35.7896 44.1591 35.7653 44.1078C35.7409 44.0566 35.7276 44.0009 35.7264 43.9442C35.7251 43.8876 35.7358 43.8313 35.7578 43.779C35.7799 43.7267 35.8127 43.6796 35.8542 43.6408C35.8958 43.6019 35.9451 43.5721 35.9989 43.5533C36.0528 43.5345 36.11 43.5272 36.1669 43.5318ZM39.3258 46.9775C38.9469 46.9948 37.0059 46.9865 36.3572 46.9414C35.8865 46.9948 35.841 46.208 36.2943 46.1892C37.3423 46.1502 38.3913 46.1471 39.4395 46.1802C39.9519 46.3028 39.7336 46.9903 39.3258 46.9775ZM35.6645 57.696C35.6144 57.2996 35.9994 57.2507 36.3125 57.2447C36.7543 57.2349 39.9162 57.2394 39.992 57.2402C40.305 57.2447 40.6089 57.3207 40.618 57.6855C40.6271 58.0503 40.3323 58.1488 40.0117 58.1488C38.7658 58.1488 37.5198 58.1669 36.2776 58.1217C36.0586 58.1142 35.6872 57.8667 35.6645 57.696ZM36.6293 59.8322C37.6948 59.7961 38.7599 59.7931 39.8245 59.8232C39.9161 59.8267 40.0028 59.8652 40.0665 59.9306C40.1303 59.9959 40.1661 60.0832 40.1667 60.1741C40.1673 60.2651 40.1325 60.3528 40.0697 60.419C40.0068 60.4851 39.9206 60.5247 39.8291 60.5294C39.294 60.5746 38.7506 60.5475 38.2064 60.5475V60.534C37.6812 60.534 37.1552 60.5656 36.6383 60.5204C36.2533 60.5565 36.1404 59.8502 36.6293 59.8322ZM40.3778 66.9252C39.9519 66.9252 37.441 66.9839 36.8331 66.9162C36.2124 66.9914 36.3352 66.2324 36.8248 66.246C37.9406 66.2007 39.0574 66.1889 40.1739 66.2106C40.7628 66.255 40.7037 66.9252 40.3778 66.9252ZM41.864 43.9545C41.8413 43.4957 42.4173 43.5273 42.7432 43.5182C44.1983 43.5092 49.3603 43.4957 50.6063 43.5182C50.9784 43.525 51.1596 43.6266 51.2596 43.8334C51.2596 44.1162 51.155 44.3998 50.933 44.3599C49.0663 44.4028 44.2635 44.366 42.8523 44.3464C42.4809 44.3411 41.8913 44.4404 41.864 43.9545ZM42.2907 60.2323C42.301 60.1566 42.3306 60.0847 42.3766 60.0234C42.4226 59.9621 42.4835 59.9134 42.5537 59.8818C43.2542 59.8264 43.9584 59.8369 44.6568 59.9134C44.7379 59.9315 44.9691 60.0345 44.9736 60.2414C44.9782 60.4211 44.8425 60.637 44.6478 60.6242C43.948 60.6509 43.2473 60.6374 42.5491 60.5836C42.478 60.5538 42.4164 60.5054 42.3709 60.4435C42.3254 60.3816 42.2977 60.3086 42.2907 60.2323ZM58.9545 58.1323C56.7081 58.1879 62.8796 58.1857 50.6563 58.1857V58.1729H43.0471C42.4984 58.3233 41.7102 57.2868 43.4094 57.3004C46.6865 57.3274 49.903 57.2078 53.0763 57.2515C57.4607 57.3109 58.5331 57.2515 58.9325 57.3365C59.435 57.444 59.3759 58.1142 58.9545 58.1323ZM65.4307 59.8096C65.7755 59.8096 66.2742 59.6975 66.2879 60.2098C66.3061 60.7769 65.7846 60.6611 65.4269 60.6611C63.6292 60.6611 46.1582 60.6679 46.043 60.6302C45.7482 60.531 45.68 59.8472 46.0476 59.8337C46.6107 59.8096 42.2036 59.8096 65.4307 59.8096ZM51.6628 66.9252C50.3297 66.9252 44.4787 66.9207 42.9107 66.8944C42.4809 66.8357 42.29 66.2701 42.9152 66.2731C45.8255 66.2881 48.7715 66.3317 51.681 66.2956C52.0342 66.2911 52.4146 66.2415 52.4101 66.5927C52.4101 66.9793 51.9159 66.9207 51.6628 66.9252ZM62.2771 66.9207C60.8629 66.9162 55.2878 66.9297 53.9062 66.9252C53.625 66.9252 53.2756 66.9839 53.2892 66.5341C53.3029 66.1339 53.5841 66.0617 53.9335 66.0617C56.7245 66.0707 59.5131 66.0722 62.2991 66.0662C62.6666 66.0662 62.8523 66.1881 62.8523 66.5476C62.8523 66.9553 62.553 66.9207 62.2771 66.9207ZM72.4018 66.8944C72.326 66.9372 72.83 66.9162 64.4204 66.9162C64.3129 66.9189 64.2052 66.9144 64.0983 66.9026C63.464 66.7996 63.7724 66.0609 63.9467 66.0617C65.0661 66.0677 70.7314 66.0752 72.0001 66.0752C72.9316 66.0617 72.5693 66.7951 72.4018 66.8944ZM76.9567 46.9474C76.8051 47.0144 42.7886 46.9963 42.3627 46.9429C42.1952 46.9203 42.1353 46.8256 42.077 46.5826C42.0804 46.4966 42.1126 46.4141 42.1684 46.3482C42.2243 46.2823 42.3006 46.2367 42.3854 46.2186C42.5802 46.1509 76.8885 46.1915 76.9787 46.2141C77.6949 46.3968 77.3281 46.9903 76.9567 46.9474Z" fill="#FFBF19"/>
<path d="M89.8109 25.3011C90.1345 24.2044 90.922 21.8832 90.9712 21.8411C91.1228 21.7155 91.6753 21.8862 91.6419 22.0479C91.3623 23.4124 90.5513 26.1902 90.3641 27.7509C90.2497 28.7047 91.698 29.0469 91.6965 29.1048C91.667 30.294 90.1891 29.8803 89.6934 29.1184C89.0257 28.4437 89.5615 26.1428 89.8109 25.3011Z" fill="#FFF8E7"/>
<path d="M90.7201 31.7918C90.5844 31.7166 90.4419 31.0577 90.9421 31.1148C91.358 31.2144 91.7808 31.2823 92.2071 31.3179C93.1226 31.2818 93.7926 29.6752 93.8517 29.6128C94.0321 29.4232 94.2306 29.1554 94.4504 29.1268C94.8226 29.0795 94.9567 29.4059 94.9719 29.7391C95.0188 30.8275 94.3011 31.5301 93.4712 32.1228C92.749 32.641 91.2066 32.0686 90.7201 31.7918Z" fill="#FFF8E7"/>
<path d="M89.4608 19.9262C89.5909 19.9296 89.7162 19.9757 89.817 20.0574C89.9179 20.1391 89.9885 20.2517 90.0178 20.3775C90.1277 20.7062 89.8663 20.9356 89.5517 20.9582C89.1331 21.0216 88.7322 21.1701 88.3742 21.3946C88.0162 21.619 87.7088 21.9145 87.4713 22.2625C87.2038 22.6047 86.9272 22.1233 86.959 21.9428C87.102 21.3843 87.4226 20.8865 87.8733 20.5232C88.324 20.1599 88.8807 19.9506 89.4608 19.9262Z" fill="#FFF8E7"/>
<path d="M89.4696 24.546C89.4802 26.0894 87.6968 25.9397 87.684 24.6137C87.6764 23.8352 88.0098 23.3154 88.5222 23.3086C89.0345 23.3019 89.465 23.8713 89.4696 24.546Z" fill="#FFF8E7"/>
<path d="M71.1053 94.7361C71.0581 96.8071 70.3958 98.8182 69.2014 100.517C68.0071 102.216 66.3338 103.527 64.3916 104.286C62.4493 105.045 60.3246 105.217 58.2838 104.782C56.2431 104.347 54.3772 103.324 52.9203 101.84C51.4633 100.357 50.4801 98.4796 50.0941 96.4438C49.7081 94.4079 49.9363 92.3043 50.7502 90.3968C51.5642 88.4892 52.9275 86.8626 54.6693 85.7211C56.4111 84.5796 58.4537 83.9738 60.541 83.98C63.3781 84.019 66.0838 85.1735 68.0643 87.19C70.0448 89.2064 71.1385 91.9203 71.1053 94.7361ZM70.3474 94.2848C70.2763 92.1083 69.4762 90.0174 68.0737 88.3426C67.8517 88.0673 67.7327 88.0417 67.475 88.3155C63.1681 92.9289 58.8719 97.5527 54.5863 102.187C54.3862 102.402 54.3445 102.517 54.6135 102.714C61.1216 107.589 70.4186 103.024 70.3444 94.2818L70.3474 94.2848ZM50.6778 95.1874C50.766 97.6499 51.7815 99.9901 53.5237 101.746C53.7609 101.996 53.9026 102.079 54.1808 101.764C55.9914 99.7328 57.8278 97.7222 59.6331 95.6869C59.7226 95.584 59.7907 95.4646 59.8335 95.3355C59.8763 95.2064 59.8929 95.0702 59.8824 94.9347C59.2761 91.8202 58.6642 88.7062 58.0468 85.5927C57.9665 85.1835 57.8429 85.0977 57.4124 85.2421C53.4108 86.5818 50.6278 90.4322 50.6748 95.1859L50.6778 95.1874ZM60.5486 94.4947C60.6759 94.4721 60.7002 94.4721 60.7078 94.4631C62.7647 92.1313 64.8284 89.7951 66.8709 87.4423C66.8936 87.3815 66.9 87.3161 66.8896 87.2522C66.8793 87.1882 66.8525 87.1281 66.8118 87.0775C65.7372 86.1523 64.4692 85.4751 63.0992 85.0945C61.7292 84.714 60.2913 84.6395 58.8888 84.8766C58.8249 84.9087 58.7703 84.9567 58.7305 85.0158C58.6907 85.075 58.6669 85.1434 58.6615 85.2143C59.3201 88.2907 59.9112 91.3852 60.5456 94.4931L60.5486 94.4947Z" fill="#FFF8E7"/>
<path d="M87.1901 87.4814C87.5168 87.498 87.8525 87.5438 87.8336 87.9621C87.8161 88.3381 87.4895 88.3803 87.1856 88.3803C86.8817 88.3803 74.8979 88.4058 74.5864 88.3585C74.2423 88.3058 74.243 87.5882 74.5864 87.5077C74.9183 87.4303 87.0992 87.4762 87.1901 87.4814Z" fill="#FFF8E7"/>
<path d="M78.1258 100.75C78.0398 100.722 77.9647 100.668 77.9108 100.596C77.8569 100.524 77.8269 100.437 77.8249 100.347C77.8229 100.257 77.8491 100.169 77.8997 100.095C77.9503 100.02 78.0229 99.9632 78.1076 99.9315C78.4191 99.8089 88.5225 99.8563 88.6271 99.927C88.7081 99.9587 88.7778 100.014 88.8276 100.084C88.8773 100.155 88.9049 100.239 88.9068 100.326C88.9088 100.412 88.885 100.497 88.8385 100.57C88.792 100.643 88.7248 100.701 88.6453 100.736C88.4596 100.769 78.2395 100.79 78.1258 100.75Z" fill="#FFF8E7"/>
<path d="M80.8535 90.3417C81.1938 90.3417 81.5545 90.3733 81.5424 90.8231C81.5318 91.2368 81.1801 91.2676 80.8671 91.2683H74.9078C74.5902 91.2683 74.2431 91.2277 74.2454 90.8095C74.2454 90.3582 74.613 90.3417 74.9525 90.3417H80.8535Z" fill="#FFF8E7"/>
<path d="M74.7284 100.705C74.2615 100.669 74.1304 100.103 74.5472 99.9629C74.9777 99.9358 76.063 99.8771 76.7451 99.9087C77.1582 100.003 77.1483 100.668 76.9672 100.709C76.2227 100.784 75.4725 100.782 74.7284 100.705Z" fill="#FFF8E7"/>
<path d="M83.1813 32.3748C81.5541 32.3612 47.4292 32.386 33.271 32.3748C33.0678 32.3603 32.8638 32.3871 32.6713 32.4534C32.4788 32.5197 32.3019 32.6242 32.1514 32.7605C32.0009 32.8968 31.8799 33.062 31.7958 33.2462C31.7117 33.4303 31.6661 33.6296 31.662 33.8317C31.6128 34.6193 31.6219 35.4113 31.6401 36.2026C31.6619 36.2802 31.7032 36.351 31.7602 36.4084C31.8173 36.4658 31.888 36.5078 31.966 36.5305C34.2866 36.5305 69.662 36.4741 85.0351 36.4696C85.0526 33.4225 85.3496 32.3883 83.1813 32.3748ZM34.4769 34.8329C34.3935 34.8329 34.312 34.8083 34.2427 34.7624C34.1734 34.7164 34.1194 34.6511 34.0875 34.5747C34.0556 34.4983 34.0473 34.4142 34.0636 34.3331C34.0798 34.252 34.12 34.1774 34.1789 34.1189C34.2378 34.0605 34.3129 34.0206 34.3946 34.0045C34.4764 33.9884 34.5611 33.9966 34.6381 34.0283C34.7151 34.0599 34.7809 34.1135 34.8272 34.1823C34.8735 34.2511 34.8982 34.332 34.8982 34.4147C34.8982 34.5256 34.8538 34.632 34.7748 34.7104C34.6958 34.7888 34.5886 34.8329 34.4769 34.8329ZM36.5573 34.9269C36.4739 34.9269 36.3925 34.9024 36.3232 34.8564C36.2539 34.8105 36.1998 34.7451 36.168 34.6687C36.1361 34.5923 36.1277 34.5082 36.144 34.4271C36.1602 34.346 36.2004 34.2715 36.2593 34.213C36.3182 34.1545 36.3933 34.1146 36.4751 34.0985C36.5568 34.0824 36.6415 34.0907 36.7185 34.1223C36.7955 34.154 36.8613 34.2076 36.9076 34.2763C36.9539 34.3451 36.9787 34.426 36.9787 34.5087C36.9787 34.6196 36.9343 34.726 36.8552 34.8044C36.7762 34.8828 36.669 34.9269 36.5573 34.9269ZM38.311 34.9269C38.2277 34.9269 38.1462 34.9024 38.0769 34.8564C38.0076 34.8105 37.9536 34.7451 37.9217 34.6687C37.8898 34.5923 37.8815 34.5082 37.8977 34.4271C37.914 34.346 37.9541 34.2715 38.0131 34.213C38.072 34.1545 38.1471 34.1146 38.2288 34.0985C38.3106 34.0824 38.3953 34.0907 38.4723 34.1223C38.5493 34.154 38.6151 34.2076 38.6614 34.2763C38.7077 34.3451 38.7324 34.426 38.7324 34.5087C38.7324 34.6196 38.688 34.726 38.609 34.8044C38.53 34.8828 38.4228 34.9269 38.311 34.9269Z" fill="#FFBF19"/>
<path d="M49.0977 78.301C49.0977 78.4787 49.1689 78.6492 49.2955 78.7749C49.4221 78.9006 49.5939 78.9712 49.773 78.9712C49.9521 78.9712 50.1239 78.9006 50.2505 78.7749C50.3771 78.6492 50.4483 78.4787 50.4483 78.301C50.4483 78.1232 50.3771 77.9528 50.2505 77.8271C50.1239 77.7014 49.9521 77.6308 49.773 77.6308C49.5939 77.6308 49.4221 77.7014 49.2955 77.8271C49.1689 77.9528 49.0977 78.1232 49.0977 78.301Z" fill="#FFF8E7"/>
<path d="M51.6355 78.2965C51.6355 78.4743 51.7066 78.6448 51.8332 78.7704C51.9599 78.8961 52.1316 78.9667 52.3107 78.9667C52.4898 78.9667 52.6616 78.8961 52.7882 78.7704C52.9149 78.6448 52.986 78.4743 52.986 78.2965C52.986 78.1188 52.9149 77.9483 52.7882 77.8226C52.6616 77.697 52.4898 77.6264 52.3107 77.6264C52.1316 77.6264 51.9599 77.697 51.8332 77.8226C51.7066 77.9483 51.6355 78.1188 51.6355 78.2965Z" fill="#FFF8E7"/>
<path d="M54.1508 78.301C54.1508 78.4787 54.2219 78.6492 54.3486 78.7749C54.4752 78.9006 54.647 78.9712 54.826 78.9712C55.0051 78.9712 55.1769 78.9006 55.3036 78.7749C55.4302 78.6492 55.5013 78.4787 55.5013 78.301C55.5013 78.1232 55.4302 77.9528 55.3036 77.8271C55.1769 77.7014 55.0051 77.6308 54.826 77.6308C54.647 77.6308 54.4752 77.7014 54.3486 77.8271C54.2219 77.9528 54.1508 78.1232 54.1508 78.301Z" fill="#FFF8E7"/>
<path d="M3.11911 49.5723C3.11911 49.7501 3.19026 49.9205 3.3169 50.0462C3.44354 50.1719 3.6153 50.2425 3.79439 50.2425C3.97349 50.2425 4.14525 50.1719 4.27189 50.0462C4.39853 49.9205 4.46968 49.7501 4.46968 49.5723C4.46968 49.3946 4.39853 49.2241 4.27189 49.0984C4.14525 48.9727 3.97349 48.9021 3.79439 48.9021C3.6153 48.9021 3.44354 48.9727 3.3169 49.0984C3.19026 49.2241 3.11911 49.3946 3.11911 49.5723Z" fill="#FFF8E7"/>
<path d="M5.68474 49.5723C5.68474 49.7501 5.75589 49.9205 5.88253 50.0462C6.00917 50.1719 6.18093 50.2425 6.36002 50.2425C6.53912 50.2425 6.71088 50.1719 6.83752 50.0462C6.96416 49.9205 7.03531 49.7501 7.03531 49.5723C7.03531 49.3946 6.96416 49.2241 6.83752 49.0984C6.71088 48.9727 6.53912 48.9021 6.36002 48.9021C6.18093 48.9021 6.00917 48.9727 5.88253 49.0984C5.75589 49.2241 5.68474 49.3946 5.68474 49.5723Z" fill="#FFF8E7"/>
<path d="M8.24938 49.5723C8.24938 49.7501 8.32052 49.9205 8.44716 50.0462C8.5738 50.1719 8.74556 50.2425 8.92466 50.2425C9.10376 50.2425 9.27552 50.1719 9.40216 50.0462C9.5288 49.9205 9.59994 49.7501 9.59994 49.5723C9.59994 49.3946 9.5288 49.2241 9.40216 49.0984C9.27552 48.9727 9.10376 48.9021 8.92466 48.9021C8.74556 48.9021 8.5738 48.9727 8.44716 49.0984C8.32052 49.2241 8.24938 49.3946 8.24938 49.5723Z" fill="#FFF8E7"/>
</svg>
