<svg width="23" height="22" viewBox="0 0 23 22" fill="none" xmlns="http://www.w3.org/2000/svg">
<path d="M11.5005 22.0015C12.3923 22.0015 13.2741 21.9855 14.1439 21.9555C18.6508 21.7965 22.294 18.1525 22.4529 13.6445C22.5157 11.8824 22.5157 10.1186 22.4529 8.35646C22.294 3.84846 18.6508 0.20446 14.1439 0.0454617C12.3822 -0.017292 10.6188 -0.017292 8.85712 0.0454617C4.34917 0.20446 0.706017 3.84846 0.547054 8.35746C0.484315 10.1196 0.484315 11.8834 0.547054 13.6455C0.706017 18.1525 4.34917 21.7965 8.85712 21.9545C9.7379 21.9855 10.6192 22.0018 11.5005 22.0015ZM6.88158 15.2805C6.78792 15.1794 6.71509 15.0608 6.66726 14.9316C6.61943 14.8023 6.59754 14.6649 6.60283 14.5272C6.60812 14.3894 6.6405 14.2541 6.6981 14.1289C6.75571 14.0037 6.83742 13.8911 6.93856 13.7975L13.0012 8.17846L9.377 7.80746C9.11306 7.78046 8.88111 7.65746 8.71415 7.47646C8.56847 7.32026 8.47399 7.12325 8.44338 6.91183C8.41276 6.70042 8.44747 6.4847 8.54285 6.29356C8.63823 6.10243 8.78973 5.94502 8.97705 5.84241C9.16437 5.73981 9.37857 5.69691 9.59095 5.71946L15.1876 6.29546C15.3634 6.30016 15.5365 6.34012 15.6965 6.41295C15.8566 6.48578 16.0004 6.59001 16.1194 6.71946C16.3614 6.98046 16.4863 7.32146 16.4713 7.60646L16.6183 13.3065C16.6269 13.4472 16.6071 13.5882 16.5601 13.7211C16.513 13.854 16.4397 13.976 16.3445 14.0799C16.2493 14.1839 16.1341 14.2676 16.0059 14.326C15.8776 14.3845 15.7389 14.4165 15.598 14.4202C15.4571 14.4239 15.3169 14.3992 15.1858 14.3475C15.0547 14.2959 14.9353 14.2183 14.8347 14.1195C14.7342 14.0207 14.6546 13.9027 14.6007 13.7724C14.5467 13.6422 14.5196 13.5024 14.5208 13.3615L14.4288 9.71846L8.36523 15.3375C8.26414 15.4312 8.14558 15.5042 8.0163 15.5521C7.88703 15.6001 7.74958 15.622 7.61181 15.6168C7.47403 15.6116 7.33863 15.5794 7.21334 15.5218C7.08805 15.4643 6.97531 15.3816 6.88158 15.2805Z" fill="#FFF8E7"/>
</svg>
