<svg width="140" height="108" viewBox="0 0 140 108" fill="none" xmlns="http://www.w3.org/2000/svg">
<path fill-rule="evenodd" clip-rule="evenodd" d="M130.16 1.29033C130.156 0.0871314 130.131 0.0834557 128.923 0.0871307C85.2564 0.205319 57.3754 0.106168 39.5731 0.0428109C11.808 -0.0560467 8.55973 -0.0675865 8.17845 0.969132C8.12788 1.1065 8.12773 1.26225 8.12751 1.43865C8.11402 12.0943 8.09765 21.6834 8.08033 30.3121C8.37337 30.2974 8.6768 30.2827 8.99099 30.2683C8.98472 27.7305 8.97846 25.4125 8.9727 23.2952C8.91284 1.14436 8.91233 0.962664 9.60337 1.02426C10.9443 1.14406 96.6203 1.00956 96.5908 1.00956C96.6689 1.00956 96.7567 0.976629 96.837 0.946567C96.9292 0.912022 97.011 0.881374 97.0552 0.909451C97.4054 1.13054 95.443 4.9948 78.0253 39.2878C74.4366 46.3532 70.1918 54.7103 65.1764 64.5932C79.3869 68.8069 81.3353 69.8793 81.1532 71.3949C81.0448 72.2974 80.4049 72.4665 74.5796 74.0071C73.8867 74.1901 73.1207 74.3929 72.2729 74.6186C66.7469 76.0893 62.1143 77.3219 58.1912 78.3619C54.025 86.5763 49.4213 95.658 44.3356 105.699L44.3221 105.733C44.2041 106.031 44.1134 106.26 43.9603 106.435C43.4518 107.017 42.2551 107.001 37.0822 106.931C32.2869 106.867 24.0748 106.757 9.82674 107.036C9.17138 107.048 8.97602 106.932 8.9775 106.234C9.00765 93.9719 9.02342 83.1372 9.02962 73.5646C8.57639 73.336 8.21996 73.1603 7.97956 73.0508C7.90687 105.029 7.97838 107.635 8.73009 107.847C8.79681 107.866 8.86891 107.866 8.94668 107.866H8.94727C54.0699 107.861 82.4735 107.927 100.332 107.968C127.68 108.031 130.298 108.037 130.359 107.644C130.366 107.603 130.344 107.557 130.32 107.506C130.294 107.453 130.266 107.395 130.265 107.331C130.235 105.192 130.214 98.745 130.202 90.0051C126.778 91.7272 123.903 93.1818 121.479 94.4085C110.364 100.032 108.729 100.859 107.19 100.71C106.925 100.685 106.662 100.63 106.354 100.566C106.227 100.54 106.091 100.512 105.944 100.483C100.37 99.4065 60.8429 88.9526 59.7386 88.3903C55.3874 86.1743 67.1817 82.8396 75.2615 80.5552C79.1495 79.4564 82.1772 78.6001 82.1337 78.2289C82.0076 77.1507 82.2885 76.1253 82.5679 75.1051C82.6504 74.8045 82.733 74.5047 82.8045 74.2033C89.0714 47.8792 89.193 47.6778 89.872 46.5581C89.8823 46.5413 89.8926 46.5243 89.903 46.507C89.9103 46.494 89.9184 46.4808 89.9266 46.4673C90.9144 44.8225 91.8941 44.8649 98.6166 45.156C99.7909 45.2069 101.141 45.2653 102.696 45.3237C104.524 45.3922 107.255 45.4982 110.375 45.6192L110.381 45.6194C116.846 45.8702 124.975 46.1855 130.176 46.3665C130.175 41.4093 130.174 36.5427 130.174 31.9395V31.6489C130.174 16.75 130.173 4.66317 130.161 1.28959L130.16 1.29033ZM55.6146 104.643C54.3629 104.643 54.3481 102.622 55.5999 102.593C56.9556 102.563 56.9711 104.643 55.6146 104.643ZM58.1027 98.523C56.2103 98.5377 56.225 95.7851 58.0577 95.8189C58.7728 95.8322 59.3905 96.4724 59.3987 97.186C59.406 97.8395 58.758 98.5179 58.1027 98.523ZM72.8391 102.058C71.5874 102.058 71.6618 100.024 72.9283 100.068C74.2398 100.114 74.2545 102.058 72.8391 102.058ZM76.2811 57.5945C74.9998 57.6261 74.9696 55.8121 76.2361 55.7967C77.4429 55.782 77.3987 57.5666 76.2811 57.5945ZM79.008 52.6625C77.9206 52.6412 77.7415 50.8404 79.0824 50.8647C80.2597 50.886 80.1853 52.6853 79.008 52.6625ZM84.9682 105.475C83.3589 105.446 83.5823 103.114 84.9977 103.143C86.4875 103.173 86.607 105.506 84.9682 105.475ZM93.1931 32.8006C91.4798 32.8336 91.4496 30.1781 93.2823 30.2303C93.8779 30.2472 94.4898 30.8837 94.5038 31.493C94.5193 32.1618 93.8934 32.7866 93.1931 32.8006ZM99.6302 40.0954C98.5274 40.1564 98.4677 38.4461 99.5853 38.4615C100.658 38.4762 100.688 40.0374 99.6302 40.0954ZM100.092 7.17475C98.7515 7.15196 98.7663 5.22111 100.033 5.18436C101.329 5.14688 101.404 7.19753 100.092 7.17475ZM103.803 36.8269C102.73 36.6784 102.923 35.2775 103.937 35.3415C104.785 35.3951 104.95 36.7674 103.803 36.8269ZM120.61 9.93761C122.279 10.0141 122.04 12.3668 120.565 12.3741C119.075 12.3815 119.03 9.86558 120.61 9.93761ZM112.132 3.72759C113.428 3.65262 113.547 5.71797 112.206 5.74811C110.895 5.77751 110.865 3.80109 112.132 3.72759ZM104.965 12.7306C104.979 10.7549 107.952 10.7549 107.975 12.7159C107.997 14.7217 104.95 14.6769 104.965 12.7306ZM113.919 39.5155C112.444 39.456 112.384 37.2054 113.979 37.2128C115.648 37.2209 115.394 39.5751 113.919 39.5155ZM113.607 31.7907C110.628 32.2714 106.625 30.6926 106.783 29.9487C106.843 29.6606 107.383 29.6004 108.15 29.515C108.764 29.4467 109.523 29.3621 110.299 29.1314C116.109 27.4034 117.243 20.4408 113.011 15.3597C110.895 12.8196 120.556 15.4494 120.61 23.3073C120.64 27.5857 117.616 31.1439 113.607 31.7907ZM120.55 38.3866C119.492 38.3866 119.522 36.9746 120.476 36.9607C121.504 36.9452 121.489 38.3866 120.55 38.3866ZM122.309 105.312C120.744 105.305 120.759 103.002 122.309 102.995C123.829 102.987 123.858 105.32 122.309 105.312ZM125.512 19.3111C124.246 19.267 124.424 17.4545 125.572 17.4839C126.779 17.514 126.809 19.3559 125.512 19.3111Z" fill="#FFBF19"/>
<path d="M76.6239 19.1325C70.5745 20.9745 51.6359 19.8014 47.8217 19.8014C47.4641 19.8014 47.2533 19.7125 47.2105 19.2965C46.9437 16.6835 49.7915 14.5212 51.5762 15.4487C52.9946 16.1859 52.1158 13.7016 55.0034 12.1956C57.33 10.9821 58.037 12.874 58.6688 12.0765C59.5689 10.9402 61.7532 10.7844 62.528 12.0912C62.7219 12.4183 62.9172 12.2279 63.1236 12.0765C65.608 10.2545 69.0573 10.3809 71.2888 13.2356C71.4974 13.5032 71.6463 13.6061 71.9744 13.473C74.2965 12.5322 77.1768 14.1265 77.8004 16.6968C78.0997 17.9293 78.1277 18.2256 77.8454 18.3013C77.5173 18.3887 77.3515 17.7816 77.2645 17.4545C76.3437 13.9853 72.9865 13.6634 72.0938 14.1566C70.8104 14.8659 70.9158 12.5411 67.8476 11.7796C64.0916 10.8476 63.319 13.8435 62.2301 12.7153C61.0241 11.4665 59.8254 11.637 58.8029 13.1019C58.626 13.3554 58.4601 13.3393 58.2515 13.1908C55.8969 11.5128 53.5209 13.7722 53.0366 15.7758C52.8457 16.5637 52.8287 16.5755 52.0827 16.2807C49.9551 15.4414 48.1519 16.4888 47.8954 18.6577C47.8217 19.2818 48.0893 19.3259 48.5508 19.3266C76.6231 19.3714 76.3843 18.7474 76.6231 19.1333L76.6239 19.1325Z" fill="#FFBF19"/>
<path d="M19.7346 20.4546C11.3159 20.6516 8.21892 9.6295 15.6218 5.92583C24.4011 1.5342 32.0333 12.6606 25.0985 18.4936C23.5467 19.799 21.7457 20.4076 19.7346 20.4546ZM12.3443 12.6702C12.2875 18.7016 20.3163 21.7923 24.7564 17.5131C29.2717 13.1612 25.7398 5.46499 18.4387 6.19264C15.0114 6.53441 12.376 9.37152 12.3443 12.6695V12.6702Z" fill="#FFBF19"/>
<path d="M16.0841 97.3492C15.5326 97.3316 15.2812 97.1412 15.2945 96.5172C15.3277 94.9575 15.7405 93.6037 17.0977 92.6695C19.3904 91.0914 20.3893 92.8319 21.0763 91.9117C22.5633 89.9191 25.4486 89.4362 27.5283 90.857C27.9168 91.1223 28.1652 91.2245 28.5714 90.8121C29.2798 90.0926 30.4203 90.0529 31.1641 90.7232C31.6418 91.1532 31.9691 91.2289 32.5795 90.9606C34.2345 90.2344 36.124 91.8624 36.7366 93.6492C36.8435 93.9601 36.9599 94.1086 37.3477 93.9315C39.5357 92.9311 41.3964 95.3735 41.2364 97.0809C41.1804 97.6756 40.8789 97.7314 37.8541 97.7498C16.2787 97.877 26.5618 97.6903 16.0848 97.3485L16.0841 97.3492ZM40.2375 96.9781C41.3403 96.8729 39.9389 93.5735 37.2423 94.5415C36.7056 94.7341 36.4409 94.8083 36.2589 94.0807C35.8342 92.385 33.8305 90.6497 31.9824 91.9565C31.2673 92.4622 30.6267 89.6244 28.6001 91.5854C27.6167 92.5364 27.0491 90.0933 24.0553 90.7533C21.3867 91.3421 21.5223 93.1752 20.39 92.818C16.7689 91.6758 14.9068 96.6657 16.5308 96.7546C22.2374 97.067 34.5294 97.5212 40.2368 96.9773L40.2375 96.9781Z" fill="#FFBF19"/>
<path d="M69.8071 27.9394C69.3213 29.0904 67.7127 30.8544 66.7153 32.4435C66.5089 32.772 66.1786 32.919 65.7916 32.6963C63.3338 31.2837 64.0032 30.5428 64.6593 30.9882C65.8211 31.7761 65.886 32.2686 66.3725 31.4336C67.1856 30.04 68.2037 28.7898 69.3523 27.6829C70.0216 27.0383 70.0488 27.3661 69.8071 27.9394Z" fill="#FFBF19"/>
<path d="M72.2501 32.7829C72.0415 33.2048 71.5166 34.0567 70.2162 36.1132C70.009 36.441 69.7399 36.735 69.3072 36.6329C67.4915 36.2066 67.6404 34.9791 68.4277 35.3106C68.7411 35.4422 69.0057 35.8824 69.3514 35.7413C69.8719 35.5289 70.2781 33.9442 71.8321 32.633C72.2619 32.2699 72.6364 31.9987 72.2494 32.7829H72.2501Z" fill="#FFBF19"/>
<path d="M24.056 25.03C24.101 25.7878 23.5038 25.7437 23.3557 25.2975C22.1865 21.7791 22.0899 21.6887 22.432 21.524C22.9539 21.2734 23.4301 23.2476 24.056 25.03Z" fill="#FFBF19"/>
<path d="M16.0397 22.3416C15.0114 25.5506 14.9988 25.9151 14.6391 25.8027C14.1798 25.6601 14.3781 25.4381 15.4588 22.0439C15.596 21.6139 16.1444 21.6132 16.0397 22.3408V22.3416Z" fill="#FFBF19"/>
<path d="M29.0173 9.62465C27.3785 9.53572 30.5219 8.36045 31.8636 7.87167C32.0273 7.81214 32.1747 7.84227 32.2514 8.02014C32.4556 8.49716 31.1213 8.90361 30.0907 9.25347C29.7339 9.37475 29.3903 9.60995 29.0181 9.62465H29.0173Z" fill="#FFBF19"/>
<path d="M27.2592 18.5828C27.8851 18.954 29.1442 20.1646 29.7472 20.7518C30.2463 21.2369 29.8276 21.6427 29.3447 21.1825C26.996 18.9452 26.7372 19.043 27.2584 18.5828H27.2592Z" fill="#FFBF19"/>
<path d="M33.2194 14.4526C33.1921 14.8687 33.0115 14.7738 29.6138 14.5269C29.1965 14.4968 29.3012 14.0815 29.6138 14.066C29.748 14.0513 33.2518 13.9624 33.2194 14.4526Z" fill="#FFBF19"/>
<path d="M26.4991 6.16353C26.171 6.104 26.1717 5.85189 26.3199 5.71812C27.0232 5.08235 27.6624 4.38262 28.4504 3.86077C28.7188 3.6829 29.0896 4.02247 28.7785 4.29148C26.5462 6.2238 26.7519 6.05916 26.4991 6.16353Z" fill="#FFBF19"/>
<path d="M135.063 46.5268C141.678 46.5746 140.439 47.9969 138.251 62.6307C134.462 87.9743 134.63 87.7817 132.53 88.8364C130.429 89.8912 113.055 98.7582 108.868 100.498C107.333 101.136 103.027 99.9614 94.966 97.8534C88.4846 96.1585 65.2991 90.1168 60.4719 88.6725C58.4896 88.0794 58.4026 86.9519 59.5335 86.0875C61.8018 84.3544 77.9486 79.8165 81.7496 78.6001C81.9287 78.5427 82.1469 78.5413 82.1071 78.2436C81.9553 77.1168 81.7474 78.1466 88.7375 49.7204C89.4938 46.6444 90.1824 44.9547 93.1031 45.026C101.298 45.2266 131.233 46.4989 135.062 46.5261L135.063 46.5268ZM103.444 46.2741C92.3298 45.8176 91.3022 45.2347 90.2575 47.403C89.499 48.9781 90.0814 47.3589 84.8937 69.0333C82.7492 77.9915 82.1374 78.0062 84.2229 78.3333L131.114 85.7612C133.051 86.0728 132.738 87.0541 133.244 86.9049C133.647 86.7865 133.513 86.935 137.938 58.2927C139.264 49.7057 140.04 48.3218 137.312 47.6559C136.702 47.5067 104.472 46.3167 103.444 46.2741H103.444ZM107.095 99.874C109.971 99.5917 114.531 96.3849 128.984 89.5641C138.014 85.3018 129.619 87.4973 86.2796 79.5365C82.3305 78.811 83.0441 78.506 62.3651 85.7017C56.1365 87.8692 60.3252 87.6421 88.8281 95.2096C102.134 98.7428 103.147 99.2801 107.096 99.8747L107.095 99.874Z" fill="#30235B"/>
<path d="M113.234 49.7807C137.521 50.9692 135.838 50.182 135.584 52.1283C134.826 57.937 132.124 73.7748 130.772 82.464C130.58 83.6973 130.696 83.2695 117.675 81.2902C103.236 79.0955 98.6498 78.4207 86.6372 76.5068C85.1326 76.2672 84.7485 78.5986 91.2115 51.311C91.5388 49.9292 91.5845 49.8211 91.7924 49.8549C91.9568 49.8814 91.9118 50.0629 91.9118 50.1967C91.9118 51.103 91.9118 51.1199 92.8355 51.1772C134.626 53.7835 134.259 53.7931 134.646 53.5689C135.078 53.3175 134.909 52.4679 135.092 51.9195C135.267 51.3984 135.137 51.2066 134.541 51.1919C124.066 50.9273 113.606 50.3746 103.131 49.974C95.8698 49.6962 92.2487 49.4237 92.2686 49.1567C92.2885 48.8897 99.2764 49.0977 113.233 49.7807H113.234ZM134.586 54.4303C134.654 54.2385 134.452 54.2502 133.805 54.1598C132.601 53.993 128.788 53.7291 114.784 52.9441C99.109 52.0658 94.1846 51.6175 92.5119 51.6873C91.7025 51.7211 91.5653 51.8027 91.51 52.1562C91.3847 52.9574 87.1311 71.6771 86.9652 72.4342C86.7441 73.4448 83.1163 72.1784 130.176 78.7927C131.204 78.9375 130.831 78.9117 134.587 54.4288L134.586 54.4303ZM129.803 82.5081C130.563 82.805 130.159 81.7503 130.637 80.012C130.92 78.9867 133.951 79.9723 88.4846 73.7726C86.6512 73.5227 86.6799 73.5051 86.2944 75.2433C86.0703 76.2532 82.6143 75.4065 129.803 82.5081Z" fill="#30235B"/>
<path d="M108.912 88.5395C118.001 90.352 119.358 90.3373 117.927 91.0503C114.797 92.6099 114.572 92.7944 113.784 92.6246C103.993 90.5181 104.038 91.2502 108.272 88.7174C108.449 88.6115 108.704 88.5983 108.912 88.5388V88.5395Z" fill="#30235B"/>
<path d="M103.146 94.3776C94.4743 92.2829 93.5646 92.446 94.8761 91.5405C97.3494 89.8316 96.2893 90.0213 105.5 92.1939C105.753 92.2535 106.065 92.2829 106.111 92.5952C106.154 92.8922 105.856 92.9789 105.664 93.1002C103.665 94.3651 103.578 94.4078 103.146 94.3776Z" fill="#30235B"/>
<path d="M114.128 88.3462C107.408 87.1129 105.44 87.0078 106.603 86.2963C108.986 84.838 109.062 84.7043 109.792 84.8255C119.109 86.372 118.968 85.6495 114.738 88.1382C114.56 88.2433 114.366 88.3756 114.127 88.3462H114.128Z" fill="#30235B"/>
<path d="M103.519 90.3667C96.6645 88.8666 95.2196 88.8063 96.2775 88.1382C98.795 86.5476 98.677 86.5168 99.2874 86.638C108.398 88.4462 108.098 87.559 104.458 90.0992C104.204 90.2763 103.921 90.3961 103.52 90.3667H103.519Z" fill="#30235B"/>
<path d="M101.179 83.3989C106.677 84.3346 107.631 84.3052 106.886 84.8248C105.843 85.5525 104.353 86.5785 103.712 86.4587C97.0943 85.221 97.1157 85.7906 100.27 83.6062C100.508 83.4415 100.807 83.4129 101.179 83.3982V83.3989Z" fill="#30235B"/>
<path d="M96.1581 85.0629C90.2723 84.0082 90.335 84.0523 90.3025 83.8744C90.2885 83.8002 92.1632 81.4291 95.2049 82.3743C98.5259 83.4055 101.168 82.2023 97.0228 84.7807C96.767 84.9402 96.4861 85.0776 96.1588 85.0629H96.1581Z" fill="#30235B"/>
<path d="M92.388 91.7779C86.9195 90.4704 87.0235 90.6041 86.9645 90.3219C86.8746 89.8912 87.4857 89.7574 87.7688 89.4605C88.6917 88.4939 89.7209 88.3161 91.0021 88.7475C95.3235 90.2021 96.5598 89.0151 92.8348 91.6147C92.6859 91.7037 92.5222 91.7934 92.388 91.7779Z" fill="#30235B"/>
<path d="M120.878 89.5641C116.109 88.7174 114.668 88.9621 119.134 86.7858C119.924 86.4007 120.129 86.5065 124.006 87.276C124.718 87.4172 124.648 87.7266 124.126 87.989C120.901 89.6111 121.295 89.4149 120.878 89.5634V89.5641Z" fill="#30235B"/>
<path d="M94.0423 88.272C91.2115 87.6332 90.3335 87.5899 90.9284 87.1283C91.2719 86.8615 93.1031 85.4231 93.5359 85.5091C96.6601 86.128 97.6007 86.1743 97.0375 86.5785C96.4839 86.9762 94.7132 88.1977 94.0423 88.272Z" fill="#30235B"/>
<path d="M125.229 89.7427C125.154 90.1587 125.257 90.0668 121.518 91.9264C120.982 92.1932 120.654 91.5853 121.22 91.3171C125.217 89.4222 125.109 89.3855 125.229 89.7427Z" fill="#30235B"/>
<path d="M113.664 56.6294C114.509 56.7676 114.499 56.8918 114.485 57.1042C114.452 57.5945 114.276 57.5372 111.997 57.3571C92.4758 55.8136 92.806 55.9312 92.8798 55.3366C92.9196 55.0139 93.3729 55.0036 93.7931 55.0374C94.1662 55.0668 112.09 56.3722 113.665 56.6294H113.664Z" fill="#30235B"/>
<path d="M113.666 59.823C113.635 60.3133 113.638 60.2082 105.575 59.5702C104.785 59.5077 93.7275 58.5845 92.9395 58.4412C92.4021 58.3435 92.433 57.8473 92.9992 57.8473C95.07 57.8473 113.708 59.1542 113.666 59.823Z" fill="#30235B"/>
<path d="M110.426 64.0566C91.7327 61.9942 91.7319 62.1522 91.7622 61.6951C91.7909 61.2643 90.4957 61.2364 108.584 62.9872C112.578 63.3738 112.534 63.4032 112.503 63.8045C112.446 64.5476 110.561 64.0713 110.426 64.0566Z" fill="#30235B"/>
<path d="M124.692 67.2958C116.988 73.6976 117.062 73.8189 116.75 73.4757C116.481 73.1795 116.463 73.1559 124.111 66.8651C124.854 66.2535 125.318 66.7761 124.692 67.2958Z" fill="#30235B"/>
<path d="M126.078 71.1281C123.888 69.5978 123.706 69.5662 123.947 69.2413C124.124 69.0024 124.365 69.1957 124.528 69.3008C128.222 71.6727 128.014 71.2133 123.441 72.6877C122.889 72.8656 122.638 72.3077 123.292 72.0939C126.013 71.2001 124.946 71.5889 126.079 71.1281H126.078Z" fill="#30235B"/>
<path d="M116.825 67.6669C118.27 69.7764 118.43 69.8749 118.121 70.0888C117.849 70.2769 117.842 70.3041 115.975 67.578C115.315 66.6152 116.75 66.8989 119.789 67.0429C120.37 67.0709 120.34 67.6838 119.759 67.6669C117.018 67.5876 117.077 67.5038 116.824 67.6669H116.825Z" fill="#30235B"/>
<path d="M108.019 77.6946C108.042 78.9279 106.204 78.8235 106.29 77.6946C106.382 76.4914 107.998 76.6104 108.019 77.6946ZM107.199 77.219C106.588 77.2484 106.438 78.1157 107.08 78.1848C107.675 78.2488 107.974 77.3381 107.199 77.219Z" fill="#30235B"/>
<path d="M110.104 77.5608C110.999 77.6946 110.968 78.8985 110.075 78.8831C109.255 78.8691 109.077 77.6203 110.104 77.5608Z" fill="#30235B"/>
<path d="M104.294 76.6847C105.217 76.8184 105.054 78.0062 104.249 77.9922C103.385 77.9768 103.34 76.7442 104.294 76.6847Z" fill="#30235B"/>
<path d="M110.12 48.0573C110.151 47.3296 111.422 47.3149 111.401 48.1763C111.377 49.1715 110.076 49.0826 110.12 48.0573Z" fill="#30235B"/>
<path d="M133.14 51.5925C133.423 52.0975 133.766 52.0534 134.198 51.8299C133.9 52.2166 133.736 52.573 134.004 53.0478C133.647 52.7362 133.304 52.6171 132.857 52.8692C133.319 52.5128 133.26 52.0821 133.14 51.5918V51.5925Z" fill="#30235B"/>
<path d="M109.3 48.1463C109.211 48.6814 108.533 48.5476 108.525 48.1014C108.518 47.6707 109.211 47.4921 109.3 48.1463Z" fill="#30235B"/>
<path d="M131.933 52.603C131.487 52.5582 131.56 51.9893 131.874 51.9496C132.275 51.8989 132.41 52.5435 131.933 52.603Z" fill="#30235B"/>
<path d="M72.228 84.4095C80.5126 86.311 80.9608 86.2088 79.8572 86.8608C77.8631 88.0382 77.6066 88.2301 76.862 88.0493C68.1085 85.9244 65.8506 85.9846 72.228 84.4095Z" fill="#30235B"/>
<path d="M104.368 97.9431C103.545 98.2422 64.2478 87.62 62.3112 86.8872C62.1992 86.8446 62.2043 86.7549 62.3577 86.7836C63.6316 87.0195 74.5391 89.8566 103.489 97.5565C103.772 97.6315 104.084 97.6601 104.368 97.9431Z" fill="#30235B"/>
<path d="M88.1565 83.6069C82.1071 82.4926 78.7676 82.1024 80.2148 81.5864C84.4123 80.0892 83.3139 80.4118 84.9682 80.6801C92.374 81.8804 92.1499 81.5415 88.4993 83.5025C88.3954 83.5768 88.2612 83.5768 88.1565 83.6062V83.6069Z" fill="#30235B"/>
<path d="M77.771 82.389C84.7146 83.726 86.0865 83.8171 85.2955 84.2758C82.6925 85.784 82.778 85.7737 82.36 85.6723C75.8137 84.0854 73.8837 83.8495 74.716 83.518C75.7466 83.1078 76.772 82.597 77.7702 82.389H77.771Z" fill="#30235B"/>
<path d="M85.1466 90.0249C79.291 88.6137 78.5782 88.6475 79.3353 88.1676C80.1727 87.6376 81.5535 86.1824 84.6844 87.276C87.9752 88.4256 89.5417 87.4392 85.9214 89.7868C85.6833 89.9206 85.4297 89.9801 85.1466 90.0242V90.0249Z" fill="#30235B"/>
<path d="M91.8366 85.3158C89.1694 87.1577 89.3029 87.1893 88.7227 87.0688C82.8922 85.8553 83.6877 86.2382 86.3983 84.4838C86.9947 84.0979 87.0065 84.214 91.4946 85.1225C91.569 85.1379 91.6435 85.1967 91.8374 85.3158H91.8366Z" fill="#30235B"/>
<path d="M107.914 92.7584C110.373 93.3971 112.355 93.6955 111.356 94.2585C108.482 95.8807 109.331 95.9182 105.604 94.9862C105.38 94.9303 105.158 94.8524 105.113 94.5996C105.068 94.3467 105.307 94.2872 105.47 94.1836C107.868 92.6658 107.467 92.9355 107.914 92.7577V92.7584Z" fill="#30235B"/>
<path d="M116.676 93.9763C116.69 94.4518 116.78 94.1659 109.226 97.8534C108.463 98.2261 108.141 97.7461 109.062 97.2889C116.864 93.4148 116.557 93.4118 116.676 93.9763Z" fill="#30235B"/>
<path d="M46.7785 28.9668C50.8316 28.8477 50.6827 31.7297 52.396 38.5343C52.396 38.549 57.9072 60.4764 57.8645 61.4275C57.7709 63.5068 59.4155 62.1662 74.7912 67.6963C75.3279 67.8896 79.1259 69.1685 80.155 69.8205C81.4945 70.6694 81.6921 71.952 79.9014 72.5246C76.9401 73.472 54.1542 79.4483 51.1884 80.22C34.0538 84.68 32.7733 85.2526 30.0597 84.0531C28.645 83.4276 14.4813 76.373 8.63315 73.372C7.39467 72.7362 5.81707 72.4658 5.32536 69.3163C-0.474172 32.1471 -0.915015 32.1824 1.06362 31.1659C2.67512 30.3383 40.6982 29.1454 46.7778 28.9675L46.7785 28.9668ZM25.4412 30.6749C2.10748 31.5599 1.48971 31.1034 0.91544 33.0071C0.628671 33.9567 6.20483 69.6566 6.5034 70.5481C6.63757 70.9495 6.82555 71.0347 7.06956 70.6672C7.85615 69.4817 6.94497 69.9138 55.9868 62.2588C57.1487 62.0773 57.1767 61.5466 56.8811 60.4015C53.7406 48.2407 50.4756 33.1401 49.8335 31.6701C48.6591 28.98 49.1029 29.7775 25.4419 30.6749H25.4412ZM32.8913 83.8149C35.1559 83.5327 79.723 71.5735 79.7378 71.5588C81.2726 70.7716 79.4717 69.8881 58.699 63.4179C56.598 62.7638 58.5331 62.7542 31.8489 66.9533C6.51667 70.9399 4.52108 70.313 10.527 73.2971C31.6815 83.8076 31.1043 83.7113 32.892 83.8149H32.8913Z" fill="#30235B"/>
<path d="M54.3481 59.6003C54.5722 60.5808 56.8575 59.8355 10.3479 67.0731C9.31948 67.2333 9.30768 67.1025 9.17057 66.2116C4.24684 34.1523 3.65783 34.8807 4.90884 34.791C4.92359 34.791 47.7008 32.5183 47.7317 33.1416C47.7457 33.4238 47.6278 33.4848 45.5858 33.5723C9.55833 35.1165 9.4824 35.0953 5.28039 35.1769C4.58006 35.1909 4.79458 35.3686 5.05702 36.6623C5.25533 37.642 5.25017 37.6663 6.29403 37.598C44.0966 35.1379 45.4516 35.1321 47.6868 35.1174C47.8681 35.1159 48.163 35.0291 48.2338 34.7865C48.2979 34.5682 48.1512 34.2471 48.093 34.034C48.0119 33.7341 48.2677 33.5452 48.4077 33.934C48.8058 35.0424 49.989 40.5711 54.3466 59.5996L54.3481 59.6003ZM5.80306 37.9846C5.02827 38.014 5.11157 36.8395 7.88932 54.6236C8.02423 55.485 7.94682 55.1117 44.5286 50.8206C50.25 50.1495 50.2235 49.9732 50.2802 50.509C50.3274 50.9544 50.1918 50.8412 47.4044 51.1778C17.5665 54.775 14.3847 55.1242 8.49972 55.6644C7.8591 55.7232 8.09795 55.7092 9.11085 62.394C9.23028 63.1812 9.1713 62.8152 24.8006 60.7601C55.4516 56.7294 53.2585 57.4328 53.0064 56.3332C48.2249 35.4524 48.7896 35.5003 47.7317 35.565C41.8445 35.9236 12.1798 37.7457 5.80232 37.9868L5.80306 37.9846ZM9.30474 63.7597C9.70724 66.4042 9.54359 66.6276 10.4518 66.4637C12.8212 66.0352 13.6564 65.9353 36.2293 62.5271C54.3938 59.7841 54.1107 60.2537 53.6175 59.066C53.2909 58.278 53.6787 57.1844 52.4402 57.5952C51.577 57.8811 8.93172 63.0026 9.304 63.7604L9.30474 63.7597Z" fill="#30235B"/>
<path d="M29.8518 32.2352C29.8518 32.993 28.5256 33.1267 28.5853 32.0867C28.6296 31.3142 29.8518 31.1952 29.8518 32.2352Z" fill="#30235B"/>
<path d="M6.89035 35.4143C6.90509 35.9935 6.33893 36.4984 7.18818 36.7513C6.69647 36.7219 6.29396 36.5881 6.01088 37.0335C6.10008 36.5727 6.2195 36.1566 5.71305 35.9045C6.02562 35.6671 6.17527 36.0677 6.33893 36.0082C6.50259 35.9339 6.62201 35.7112 6.89035 35.4143Z" fill="#30235B"/>
<path d="M30.8655 32.458C30.6863 32.4609 30.5079 31.7002 31.0291 31.7002C31.5503 31.7002 31.7 32.4433 30.8655 32.458Z" fill="#30235B"/>
<path d="M8.35081 36.2911C8.27635 36.7072 7.71829 36.6329 7.72493 36.2463C7.7323 35.8156 8.33606 35.7708 8.35081 36.2911Z" fill="#30235B"/>
<path d="M30.3582 68.7665C31.0438 68.7665 31.4102 68.9907 33.2487 70.1924C33.4286 70.31 33.6844 70.4158 33.6365 70.6827C33.5532 71.1442 27.7972 71.8601 27.1551 72.0939C25.5347 72.6833 24.6346 71.8146 22.7297 70.5937C21.8053 70.0013 22.7002 70.0741 30.3589 68.7665H30.3582Z" fill="#30235B"/>
<path d="M52.3215 67.4883C51.6367 67.6236 51.3565 67.5655 49.5054 66.4042C49.2953 66.2726 48.9393 66.1668 48.999 65.8691C49.0587 65.5715 49.4162 65.5862 49.6698 65.5421C55.5372 64.5285 56.407 64.0809 58.9975 65.2745C60.8914 66.147 61.7731 65.6222 52.3223 67.4883H52.3215Z" fill="#30235B"/>
<path d="M57.4472 69.6728C57.1641 69.6728 57.2165 69.6735 54.7801 68.3057C54.6466 68.2307 54.4682 68.1719 54.497 67.994C54.5279 67.8014 54.7351 67.8294 54.8693 67.8007C64.2641 65.8338 61.1494 66.2352 65.1502 67.4295C66.3695 67.7934 62.9003 68.3953 57.4465 69.6728H57.4472Z" fill="#30235B"/>
<path d="M36.0059 70.4746C35.6182 70.3556 31.9093 68.5328 33.2193 68.3204C39.4066 67.3171 39.1943 67.2502 39.6263 67.5479C42.8611 69.7742 43.0233 69.1671 36.0052 70.4746H36.0059Z" fill="#30235B"/>
<path d="M43.7538 69.0333C43.1877 68.9885 40.7291 67.5479 40.8183 67.1914C40.9223 66.7754 43.114 66.8224 45.2887 66.2403C46.6149 65.8853 47.7059 66.0882 48.6857 67.0128C48.9997 67.309 49.6978 67.4582 49.6241 67.8301C49.5482 68.216 48.8655 68.1021 48.4616 68.1866C47.1088 68.4696 44.2448 68.9591 43.7531 69.0333H43.7538Z" fill="#30235B"/>
<path d="M51.0549 71.0987C50.5632 71.0391 50.808 71.0891 48.477 69.5089C47.7936 69.0458 48.5934 68.9877 52.6488 68.2461C53.2297 68.1395 53.5032 68.3725 55.3904 69.5831C56.2418 70.1292 55.1965 70.1623 51.0542 71.0987H51.0549Z" fill="#30235B"/>
<path d="M45.9146 72.2423C45.1545 72.0637 43.6897 71.0898 43.0535 70.6378C42.7232 70.4034 42.7107 70.1917 43.1575 70.1027C46.525 69.4332 46.5264 69.3721 46.7933 69.5236C47.588 69.9756 48.3252 70.4923 49.0285 71.0685C49.6669 71.5919 48.7904 71.6036 45.9146 72.2423Z" fill="#30235B"/>
<path d="M37.5252 49.3345C36.1842 49.3492 36.4378 49.3794 36.1245 48.2504C35.4987 45.9925 34.9937 43.7191 34.4555 41.4465C34.1879 40.3176 34.0958 40.71 44.8706 39.6641C45.8091 39.573 45.5687 39.6833 47.4781 47.0031C47.8622 48.4746 48.8043 47.9983 37.5245 49.3353L37.5252 49.3345ZM37.0482 48.651C38.5683 48.443 44.112 47.8006 46.4357 47.6411C47.2407 47.586 46.9827 47.8396 45.2584 40.7924C45.1272 40.2566 45.0203 40.333 43.1426 40.5101C34.4415 41.3319 34.9126 41.1356 35.0519 41.6538C36.9104 48.5937 36.6465 48.7399 37.0482 48.651Z" fill="#30235B"/>
<path d="M8.00801 42.6497C7.99253 42.219 7.99474 42.5328 28.1681 40.7181C28.4666 40.6909 28.8677 40.5697 28.8979 41.0298C28.9274 41.4752 28.5249 41.4421 28.227 41.4605C7.63057 42.7614 8.02202 43.065 8.00727 42.649L8.00801 42.6497Z" fill="#30235B"/>
<path d="M9.48314 45.8137C9.1256 45.8137 8.80197 45.8578 8.7828 45.5608C8.75848 45.1889 8.84251 45.1772 11.9417 44.9221C29.2274 43.497 29.223 43.333 29.2554 43.838C29.2967 44.4767 9.49788 45.8137 9.48314 45.8137Z" fill="#30235B"/>
<path d="M13.074 58.5007C12.8359 58.4559 12.5373 58.5154 12.5373 58.2038C12.5373 57.9363 12.8204 57.9083 13.0438 57.8767C26.4357 56.0128 26.4077 55.7974 26.4688 56.3171C26.5271 56.8073 26.5286 56.7331 13.0733 58.5007H13.074Z" fill="#30235B"/>
<path d="M32.7873 60.8035C33.8901 60.7748 34.0088 62.4381 32.8617 62.5418C31.6999 62.6461 31.6247 60.8344 32.7873 60.8035ZM33.279 61.7245C33.1898 60.9814 32.2963 61.071 32.3103 61.6355C32.3265 62.2889 33.2487 62.3338 33.279 61.7245Z" fill="#30235B"/>
<path d="M30.5971 62.1699C30.418 63.1504 29.2341 63.0019 29.2259 62.2294C29.2178 61.4121 30.4475 61.2195 30.5971 62.1699Z" fill="#30235B"/>
<path d="M36.3782 61.2938C36.3185 62.2448 35.0594 62.1405 35.0667 61.2643C35.0734 60.5066 36.2883 60.3728 36.3782 61.2938Z" fill="#30235B"/>
<path d="M25.6948 76.6847C25.1434 76.5061 25.6424 76.789 21.91 74.9464C21.7604 74.8729 21.5223 74.8428 21.5672 74.6046C21.5967 74.3672 21.8348 74.3349 22.0295 74.293C31.4051 72.2666 31.1353 72.4173 31.4759 72.5848C32.4504 73.0633 33.3727 73.6491 34.2027 74.3231C34.892 74.8832 34.5905 74.7391 25.6948 76.6854V76.6847Z" fill="#30235B"/>
<path d="M36.721 78.3634C36.4084 78.3634 36.1806 78.3105 34.2919 77.0713C32.9178 76.1694 34.4586 76.2812 42.2935 74.3084C43.1729 74.0872 43.4214 74.3672 45.3182 75.6601C45.6624 75.8953 45.7509 76.1819 45.2142 76.3135C36.7269 78.4031 36.9599 78.3193 36.721 78.3634Z" fill="#30235B"/>
<path d="M36.3332 74.3371C35.9012 74.3819 35.9831 74.3768 33.3085 72.5099C33.0542 72.3327 33.0247 72.1343 33.428 72.049C41.3528 70.3784 41.0314 70.4372 41.4147 70.6672C43.9617 72.1953 44.0649 72.2122 44.0222 72.4944C43.975 72.8061 36.3487 74.3363 36.334 74.3363L36.3332 74.3371Z" fill="#30235B"/>
<path d="M62.7219 72.0792C62.2007 72.0939 62.1343 71.9865 60.0694 70.8017C59.8903 70.6988 59.6669 70.6231 59.6971 70.3857C59.7421 70.1483 60.0097 70.1615 60.1889 70.1182C70.214 67.6971 66.5936 68.3439 71.1701 69.4942C71.4082 69.5537 71.5579 69.9249 71.0507 70.0439C71.0507 70.0439 63.2283 71.9755 62.7211 72.0792H62.7219Z" fill="#30235B"/>
<path d="M35.7619 81.7966C38.3458 81.0072 77.5314 70.4599 77.6515 70.9796C77.7216 71.2817 38.7675 81.5423 35.8246 81.9032C35.7501 81.912 35.5209 81.8694 35.7612 81.7966H35.7619Z" fill="#30235B"/>
<path d="M54.78 73.9358C54.348 73.9806 54.2809 73.8652 52.2175 72.554C51.8165 72.2989 51.9492 72.0475 52.2625 71.9748C58.2478 70.5739 57.8328 70.5232 58.744 71.0391C60.943 72.2828 60.8899 72.3019 60.845 72.4356C60.8 72.6583 55.0189 73.9358 54.7808 73.9358H54.78Z" fill="#30235B"/>
<path d="M50.5632 72.3614C51.1744 72.6142 52.3082 73.5036 52.8279 73.9064C53.6491 74.5429 52.6937 74.4694 47.7914 75.6887C47.4338 75.7777 47.4257 75.7836 45.2134 74.2033C44.1887 73.4712 45.8843 73.5646 50.5625 72.3614H50.5632Z" fill="#30235B"/>
<path d="M19.0489 73.5198C18.3338 73.2375 16.2321 72.1541 15.9497 72.0042C15.2037 71.608 15.3143 71.353 16.0242 71.217C20.6368 70.3343 19.778 70.0307 23.1462 72.049C23.2951 72.138 23.5782 72.1828 23.5185 72.4503C23.4588 72.8369 23.4293 72.7921 19.0482 73.5198H19.0489Z" fill="#30235B"/>
<path d="M31.461 79.6261C31.0585 79.5666 29.4028 78.7963 28.6899 78.2892C27.7338 77.6093 29.0165 77.466 31.938 76.7736C32.1909 76.7133 32.311 76.7133 34.6796 78.259C35.5444 78.8235 34.039 79.0021 31.461 79.6261Z" fill="#30235B"/>
<path d="M30.895 81.2454C31.3719 81.482 31.5466 81.6143 31.4014 81.8694C31.2333 82.1641 31.296 82.0943 25.1883 79.1807C23.4146 78.3348 23.1795 78.3046 23.296 77.8886C23.4331 77.3991 23.3181 77.4873 30.895 81.2461V81.2454Z" fill="#30235B"/>
<path d="M19.0342 75.6446C18.9598 76.254 18.4504 75.9173 16.9635 75.1691C15.1721 74.2687 14.5182 74.024 14.8027 73.6094C14.9362 73.4154 14.9192 73.3456 18.5727 75.1992C18.7688 75.2985 18.99 75.3778 19.035 75.6446H19.0342Z" fill="#30235B"/>
</svg>
