<svg width="143" height="130" viewBox="0 0 143 130" fill="none" xmlns="http://www.w3.org/2000/svg">
<path d="M132.714 37.9097C131.113 37.6424 129.041 39.2199 129.204 42.6062C129.288 44.5266 130.027 47.4645 132.403 47.6629C134.502 47.8396 134.801 44.0879 134.827 42.6841C134.864 41.1395 134.706 38.2428 132.714 37.9097Z" fill="#FFF8E7"/>
<path d="M132.523 32.3564C125.316 32.3564 120.983 37.1046 120.983 43.6273C121.021 46.4058 122.146 49.0601 124.12 51.0264C126.094 52.9927 128.76 54.116 131.553 54.1576C138.593 54.1576 143.093 50.4007 142.999 43.1578C142.904 35.915 138.587 32.3564 132.523 32.3564ZM132.419 48.8928C129.517 48.6181 128.264 45.2347 128.143 42.7663C128.001 39.9212 129.481 36.2856 132.911 36.8284C135.283 37.2027 135.943 39.898 135.933 42.4481C135.925 44.6043 135.419 49.1728 132.419 48.8891V48.8928Z" fill="#FFF8E7"/>
<path d="M61.3728 96.9845C60.8979 97.26 61.6249 98.3359 61.8996 99.0142C62.0938 99.5383 62.9488 99.1348 62.6869 98.6129C62.501 98.3202 61.932 96.6603 61.3728 96.9845Z" fill="#FFF8E7"/>
<path d="M100.803 109.811C100.751 109.832 100.706 109.868 100.674 109.915C100.642 109.962 100.625 110.017 100.625 110.073C100.625 110.13 100.642 110.185 100.674 110.232C100.706 110.278 100.751 110.314 100.803 110.335C101.375 110.554 108.184 110.934 108.713 110.46C108.756 110.425 108.792 110.383 108.819 110.335C108.846 110.287 108.862 110.235 108.869 110.18C108.875 110.126 108.87 110.071 108.855 110.018C108.84 109.965 108.814 109.916 108.78 109.873C108.372 109.355 101.42 109.609 100.803 109.811Z" fill="#FFF8E7"/>
<path d="M66.0154 57.9213C66.4407 55.3121 65.6015 44.2292 66.0154 39.0992C66.1885 37.0777 66.2518 36.0782 68.539 35.9689C72.2886 35.7862 84.354 35.5563 87.2388 35.8191C91.1946 36.1845 90.1928 41.1266 93.9484 42.7962C95.8052 43.6258 115.177 43.4011 118.471 43.4483C118.544 43.4569 118.617 43.4503 118.687 43.429C118.757 43.4078 118.822 43.3723 118.877 43.3248C118.933 43.2773 118.977 43.2189 119.009 43.1533C119.04 43.0877 119.058 43.0163 119.06 42.9436C119.062 42.871 119.049 42.7987 119.022 42.7313C118.994 42.6639 118.953 42.6029 118.901 42.5522C118.848 42.5015 118.786 42.4623 118.717 42.4368C118.649 42.4114 118.576 42.4005 118.503 42.4046C116.253 42.4046 95.5583 42.368 94.2262 41.6896C91.6032 40.354 91.7508 36.472 89.1015 35.1618C87.5278 34.3846 71.6338 34.6923 68.2658 34.9274C65.5014 35.1153 65.2079 36.4929 64.9407 38.9187C64.6735 41.3445 65.0716 56.8065 65.3072 57.9708C65.3171 58.0616 65.3621 58.1451 65.4325 58.2037C65.503 58.2623 65.5936 58.2915 65.6852 58.2851C65.7769 58.2787 65.8625 58.2373 65.924 58.1694C65.9856 58.1016 66.0184 58.0127 66.0154 57.9213Z" fill="#FFF8E7"/>
<path d="M138.485 54.6677C138.481 54.3959 137.714 54.3854 137.72 54.6677C137.971 71.0993 138.924 87.62 139.041 103.745C139.041 105.179 138.821 108.717 136.838 108.816C135.233 108.9 133.26 106.583 132.725 105.297C127.171 91.9228 122.502 78.1003 116.8 64.8252C114.529 59.5492 111.187 59.6068 106.215 59.6068C88.4375 59.5701 70.172 59.5597 52.4108 59.8157C46.9971 59.8906 45.6281 62.1951 47.244 67.0219C48.5287 70.8784 53.3342 83.8556 55.6365 86.8511C55.8254 87.0854 56.2085 86.8825 56.0986 86.616C53.8641 81.2464 49.8977 72.2718 47.7445 65.4826C46.6479 62.0229 49.0608 60.9949 52.5545 60.9425C70.2111 60.7029 88.4917 60.8856 106.101 60.682C111.289 60.6243 113.66 60.8384 115.9 65.6129C121.308 77.0926 125.83 90.8379 130.588 102.85C131.542 105.276 132.198 107.243 134.511 108.95C132.895 108.95 121.203 108.918 120.122 109.324C120.058 109.344 120.002 109.384 119.962 109.438C119.922 109.491 119.901 109.557 119.901 109.623C119.901 109.69 119.922 109.755 119.962 109.809C120.002 109.863 120.058 109.903 120.122 109.923C121.477 110.403 135.592 109.886 136.906 109.876C140.269 109.844 139.916 103.961 139.916 103.791C139.873 94.9707 138.603 63.7733 138.485 54.6677Z" fill="#FFF8E7"/>
<path d="M86.0903 107.645C85.5634 107.848 79.2241 116.881 78.5369 116.881C77.8498 116.881 72.2148 111.293 71.7858 111.345C71.3568 111.396 66.0659 118.865 66.3361 119.276C66.6063 119.688 93.4871 119.6 94.1374 119.058C94.7876 118.516 86.6292 107.437 86.0903 107.645Z" fill="#FFF8E7"/>
<path d="M73.5112 104.112C72.6397 101.216 67.5045 101.305 68.1871 105.678C68.7531 109.362 74.6853 108.016 73.5112 104.112ZM72.4621 104.112C73.7107 106.644 69.3146 108.349 69.1054 105.011C68.9842 102.604 71.7486 102.666 72.4779 104.139L72.4621 104.112Z" fill="#FFF8E7"/>
<path d="M89.8513 92.4918C89.8652 93.8348 90.4135 95.1176 91.3761 96.0595C92.3386 97.0013 93.6371 97.5254 94.9873 97.517C97.3053 97.517 100.122 95.9515 100.091 92.0433C100.037 85.3702 89.7821 85.1575 89.8513 92.4918ZM93.6649 94.7304C93.482 94.5207 93.4812 90.2217 93.713 89.9874C93.9449 89.753 97.1277 92.1586 97.1277 92.5494C97.1277 92.9402 93.7966 94.8808 93.6649 94.7304Z" fill="#FFF8E7"/>
<path d="M132.791 128.841C88.8698 128.825 45.1219 128.893 0.408309 128.841C-0.162935 128.841 -0.11853 129.697 0.439919 129.708C44.6026 130.232 88.9067 129.885 132.833 129.916C133.557 129.931 133.51 128.841 132.791 128.841Z" fill="#30235B"/>
<path d="M55.4254 23.0278C55.8521 23.2479 56.1125 22.631 55.8604 22.4116C55.5779 22.1971 55.2324 22.0809 54.8771 22.0809C54.5217 22.0809 54.1762 22.1971 53.8938 22.4116C53.6943 22.6205 53.8042 22.9357 54.103 22.8818C54.5464 22.7613 55.0193 22.8135 55.4254 23.0278Z" fill="#30235B"/>
<path d="M53.2528 26.7638C53.2813 27.6981 54.758 28.4805 55.3511 27.3328C55.5136 27.0251 55.2201 26.7114 55.0312 27.0977C54.8423 27.484 53.982 27.7341 53.6306 26.6807C53.541 26.3932 53.2452 26.5167 53.2528 26.7638Z" fill="#30235B"/>
<path d="M53.7391 24.8905C54.0161 25.3037 55.0351 24.2915 54.4842 23.9823C54.0296 23.7375 53.5562 24.6149 53.7391 24.8905Z" fill="#30235B"/>
<path d="M51.9322 27.8754C51.9953 27.91 52.0688 27.921 52.1393 27.9062C52.2099 27.8915 52.2727 27.8521 52.3166 27.7952C52.3604 27.7383 52.3822 27.6677 52.3781 27.5961C52.374 27.5245 52.3443 27.4568 52.2942 27.4052C50.9982 26.3204 50.1959 27.4996 50.9147 27.4996C51.4054 27.4996 51.4806 27.6051 51.9322 27.8754Z" fill="#30235B"/>
<path d="M58.0839 25.1309C58.4271 25.1309 58.3375 24.4234 58.0575 24.0872C57.7956 23.7997 57.329 24.0872 57.5307 24.3215C57.916 24.7812 57.7008 25.1309 58.0839 25.1309Z" fill="#30235B"/>
<path d="M56.904 25.8248C56.603 25.4782 55.9392 26.2104 56.1905 26.4874C56.4419 26.7644 57.1313 26.0891 56.904 25.8248Z" fill="#30235B"/>
<path d="M19.0725 58.0052C18.5871 59.5187 18.2618 61.0785 18.1016 62.6591C17.9759 63.8855 18.0655 64.027 19.1507 64.7465C24.748 68.4413 36.8232 69.443 43.1129 68.0812C43.2649 68.0624 43.4041 67.9867 43.502 67.8694C43.5999 67.7521 43.6491 67.6022 43.6397 67.45C43.6397 63.2281 43.7549 58.5787 46.3778 55.0307C46.8428 56.5644 47.7121 57.9464 48.8953 59.0332C50.3539 60.2902 50.7942 59.3828 49.8865 58.7667C47.9982 57.4886 47.673 55.6356 46.8075 54.4721C50.658 49.6558 51.8012 46.2118 50.4796 40.0178C50.4269 39.7775 50.0754 39.8681 50.0807 40.0807C50.2591 45.8884 50.9462 47.9076 46.0918 54.0544C43.0286 57.9214 42.9134 62.4869 42.8871 67.2142C36.8706 68.3312 23.9352 67.4702 18.803 63.562C18.988 61.8346 19.3037 60.1234 19.7476 58.4432C20.3274 58.8438 21.0165 59.0585 21.7225 59.0585C22.4284 59.0585 23.1175 58.8438 23.6974 58.4432C26.9495 56.0639 24.1376 52.9643 22.9003 50.3446C23.7518 48.0828 24.7486 45.8778 25.8845 43.7433C26.2202 43.0545 25.7061 42.9946 25.3238 43.4147C24.6261 44.1873 22.8002 48.5133 22.5278 49.5098C21.8284 47.8661 21.3113 46.1514 20.9856 44.3962C23.9093 43.0118 26.9612 41.9133 30.0985 41.1162C30.3348 41.0638 30.2399 40.631 29.9984 40.5921C28.5089 40.3675 21.7736 42.8928 20.8765 43.7538C20.6929 42.4653 20.2104 42.3313 20.0637 42.7416C19.4864 44.3386 21.9309 50.4232 23.0065 52.2755C24.0082 54.0079 25.7656 56.2982 23.1216 57.9004C21.517 58.8737 19.8274 57.8637 18.5374 56.5647C14.7343 52.7397 9.47798 44.9749 12.5103 39.3448C16.2576 32.4096 36.194 24.57 42.0728 29.2217C44.0657 30.7872 44.795 33.782 45.8863 36.3343C46.2167 37.1017 46.3379 37.0545 47.1289 36.5693C48.0808 35.8471 48.8976 34.9639 49.5418 33.9601C52.5425 36.9871 53.4239 43.9844 54.1953 48.1853C54.9818 52.4746 56.4871 53.9877 60.6363 57.8488C61.3709 58.5323 61.6855 57.9745 61.1142 57.3247C57.4158 53.1507 55.5117 52.3466 54.9871 48.094C54.5724 44.775 52.955 35.9651 49.8986 33.2279C49.6366 32.9928 49.3168 32.7735 49.1459 33.153C48.5209 34.3463 47.6399 35.3884 46.5652 36.2055C45.9194 33.5963 44.2569 30.043 42.8931 28.7694C36.7502 23.0794 15.5268 31.4939 11.6403 38.9869C8.49204 45.0745 14.3987 54.6915 19.0725 58.0052Z" fill="#30235B"/>
<path d="M27.2399 62.2423C27.5967 62.4923 28.0738 61.501 27.827 61.0443C27.7813 60.9803 27.7145 60.9342 27.6381 60.9143C27.5617 60.8944 27.4807 60.9019 27.4094 60.9356C27.338 60.9692 27.2809 61.0267 27.2479 61.0981C27.215 61.1695 27.2085 61.2501 27.2294 61.3259C27.3212 61.8769 26.9983 62.0963 27.2399 62.2423Z" fill="#30235B"/>
<path d="M23.3422 62.4718C23.0788 62.0915 22.5971 62.4718 22.8154 62.8836C23.4762 64.0112 25.3231 64.0628 25.1914 62.6388C24.9506 60.082 23.2346 61.7673 21.4832 59.7189C21.0738 59.2382 20.5755 60.243 22.1756 61.2163C23.5921 62.0773 24.4155 61.1586 24.4576 62.8387C24.2568 62.9059 24.0395 62.9065 23.8384 62.8403C23.6373 62.7742 23.4631 62.6449 23.3422 62.4718Z" fill="#30235B"/>
<path d="M26.0339 62.2633C25.9541 62.5195 25.856 62.7697 25.7404 63.012C25.4574 63.4814 26.2281 63.6903 26.5013 63.0696C26.592 62.8888 26.6608 62.6977 26.706 62.5006C26.779 62.0963 26.2281 61.8141 26.0339 62.2633Z" fill="#30235B"/>
<path d="M28.3264 60.7553C29.1016 60.2215 28.1999 56.7767 25.8088 56.0482C25.5672 55.9734 25.4732 56.299 25.6147 56.445C26.344 57.1698 27.6076 57.6504 27.8176 59.5079C27.9019 60.3061 27.8048 61.1139 28.3264 60.7553Z" fill="#30235B"/>
<path d="M63.2299 100.214C63.1426 106.476 63.0259 113.526 63.388 119.803C63.4715 121.226 63.1464 121.89 64.7043 122.049C69.9132 122.573 90.7956 122.34 94.6513 122.242C97.2742 122.173 97.0695 122.722 97.1267 118.192C97.1794 114.586 97.1636 110.986 97.1689 107.385C97.1648 107.27 97.1192 107.16 97.0404 107.076C96.9616 106.991 96.8548 106.938 96.7396 106.925C96.6244 106.912 96.5084 106.941 96.413 107.007C96.3175 107.072 96.249 107.17 96.2198 107.281C96.0572 107.923 96.1144 120.175 96.2612 121.187C86.8534 121.349 73.5484 121.187 64.185 121.14C64.5417 120.181 64.2896 101.734 64.2738 99.2245H71.8174C71.959 99.2136 72.0909 99.1484 72.1853 99.0427C72.2796 98.937 72.329 98.799 72.3231 98.6577C72.3175 98.5198 72.2573 98.3896 72.1557 98.2955C72.0541 98.2015 71.9192 98.1511 71.7805 98.1553C69.5143 98.186 67.2429 98.2122 64.9609 98.2482C63.1569 98.2781 63.2502 98.7655 63.2299 100.214Z" fill="#30235B"/>
<path d="M98.9621 108.041C98.92 113.031 98.7047 119.266 98.8259 124.218C90.3385 124.192 76.3532 124.218 67.9185 124.218C65.5477 124.218 65.5635 125.235 67.6566 125.261C78.2212 125.324 88.408 125.294 99.0878 125.261C100.252 125.261 99.8645 124.288 99.8751 123.211C99.9167 118.194 99.9513 113.178 99.9789 108.162C99.9902 106.727 98.9712 106.649 98.9621 108.041Z" fill="#30235B"/>
<path d="M78.0901 105.699C86.5195 106.572 102.475 106.377 112.034 106.148C112.642 106.148 112.642 105.59 112.626 105.105C112.411 96.5697 113.008 87.759 112.589 79.3115C112.589 78.8833 112.243 78.6826 111.54 78.6796C79.2077 78.5598 80.3638 78.7418 77.5964 78.5029C76.0226 78.3667 74.7589 77.8605 75.0532 76.0809C75.3881 74.0721 79.4117 74.469 80.8229 74.4794C88.5749 74.5206 96.6905 74.844 104.401 74.6674C104.449 75.7103 104.208 77.6517 105.079 77.7041C106.274 77.7789 105.687 74.4996 105.756 74.0145C105.824 73.5293 105.657 73.0547 105.132 73.0494C96.9328 72.9746 88.5983 72.8301 80.9395 72.8458C76.3809 72.8458 73.1122 73.0651 73.0241 77.4742C72.9082 83.7363 72.6147 91.3647 72.9775 97.3034C73.2221 101.316 73.49 105.222 78.0901 105.699ZM76.3274 103.452C75.771 102.993 75.3165 102.424 74.9927 101.781C74.6688 101.138 74.4826 100.435 74.4459 99.7164C75.0079 100.136 75.6507 100.436 76.3342 100.598C76.3327 101.55 76.3274 102.5 76.3274 103.455V103.452ZM77.7281 100.812L81.227 101.115C81.227 102.21 81.2639 103.312 81.285 104.409C80.0135 104.401 78.7462 104.262 77.503 103.997C77.503 103.719 77.5053 104.221 77.7281 100.814V100.812ZM82.7225 104.642L82.8482 101.069L86.6196 101.172L86.7769 104.705L82.7225 104.642ZM88.1249 104.717C88.167 103.545 88.2056 102.372 88.2408 101.198C89.253 101.198 90.2608 101.229 91.2671 101.239C91.3145 102.408 91.3619 103.582 91.4033 104.751L88.1249 104.717ZM92.7257 104.761L92.883 101.252H96.1667L96.3714 104.761H92.7257ZM97.824 101.247C99.1719 101.247 100.515 101.247 101.864 101.21L101.974 104.738C100.557 104.779 99.1411 104.79 97.7193 104.79C97.7193 104.197 97.8209 101.355 97.824 101.253V101.247ZM103.489 101.189L107.622 101.101C107.68 102.29 107.744 103.475 107.801 104.665C106.353 104.722 104.911 104.739 103.478 104.754C103.504 104.684 103.487 104.94 103.487 101.195L103.489 101.189ZM109.165 104.644C109.165 103.454 109.212 102.269 109.233 101.086C110.025 101.101 110.817 101.064 111.604 100.976C111.604 102.186 111.604 103.396 111.646 104.596L109.165 104.644ZM111.552 85.0495C111.552 89.8332 111.571 94.6218 111.609 99.4155C110.224 99.3107 107.833 99.5143 106.238 99.551C106.448 98.2258 106.028 90.4611 106.013 85.1491C107.859 85.2323 109.709 85.201 111.552 85.0555V85.0495ZM108.263 80.189H111.531C111.505 81.3053 111.531 82.4141 111.531 83.5364C110.407 83.4421 109.276 83.4421 108.152 83.5364L108.263 80.189ZM103.327 80.2017H106.639V83.5521H103.214C103.332 79.4545 103.371 80.2983 103.327 80.2077V80.2017ZM98.5585 80.2017H101.644C101.644 81.3292 101.662 82.4523 101.697 83.5708H98.4968L98.5585 80.2017ZM93.8057 80.2017H96.9163C96.9637 81.3248 97.0119 82.4403 97.0668 83.5626L93.741 83.5312C93.7379 82.4725 93.8373 81.2304 93.8057 80.2077V80.2017ZM88.3032 80.2017H92.2116V83.5177C90.8892 83.5177 89.5624 83.4765 88.2408 83.4495C88.3269 82.3704 88.3477 81.2871 88.3032 80.2054V80.2017ZM104.564 85.1768C104.46 85.7009 104.64 97.9301 104.974 99.6004H86.0371C86.226 98.1494 85.5757 91.0473 85.8015 84.9889L104.564 85.1768ZM82.8798 80.198H86.6881C86.6881 81.2686 86.7001 82.3417 86.7242 83.4174C85.3657 83.3754 84.002 83.3073 82.6382 83.2968C82.7323 82.2689 82.8113 81.2304 82.8798 80.198ZM81.2639 80.198V83.2811L78.0645 83.0939C78.3223 82.1322 78.4509 81.1408 78.4468 80.1456C78.2978 80.1456 79.6555 80.2219 81.2639 80.198ZM74.6807 79.2059C75.3379 79.6611 76.1022 79.9397 76.8994 80.0145C76.8161 81.0171 76.8835 82.0265 77.0996 83.0093C74.6762 82.6806 74.6596 81.3188 74.6912 79.2052L74.6807 79.2059ZM74.3796 83.4481C75.7908 84.7643 78.3347 84.6542 80.1914 84.7687C80.8552 84.8623 83.9734 84.9582 84.3354 84.9671C84.0479 85.7391 84.4769 98.7896 84.5928 99.5517C81.9224 99.5098 74.9358 100.188 74.3014 96.9111C74.2359 85.3879 74.4587 83.4481 74.3819 83.4481H74.3796Z" fill="#30235B"/>
<path d="M112.507 107.755C112.947 108.199 113.398 108.626 113.85 109.065C110.922 109.712 109.27 107.373 108.028 106.675C107.66 106.466 107.275 107.04 108.856 108.511C109.536 109.177 110.37 109.667 111.284 109.94C112.198 110.212 113.165 110.26 114.101 110.077C114.716 109.921 115.456 109.487 114.731 108.777C114 108.078 113.214 107.438 112.381 106.862C112.255 106.805 111.64 106.879 112.507 107.755Z" fill="#30235B"/>
<path d="M114.689 116.13C115.297 115.984 115.109 115.086 114.521 115.086C109.417 114.977 110.056 122.282 113.923 122.498C116.498 122.648 116.456 120.452 116.461 118.767C116.525 98.2821 116.687 95.9402 116.461 89.5351C120.847 96.2195 120.074 101.406 117.169 107.866C117.104 107.963 117.08 108.081 117.102 108.195C117.125 108.31 117.192 108.41 117.289 108.475C117.386 108.54 117.505 108.564 117.62 108.542C117.734 108.52 117.836 108.453 117.901 108.357C122.51 101.385 121.446 92.6272 116.241 88.043C115.931 87.7712 115.407 88.2773 115.407 88.5229C115.331 95.5464 115.528 116 115.482 119.237C115.482 120.092 115.581 121.033 114.385 121.324C112.743 121.716 111.458 119.32 112.286 117.395C112.685 116.422 113.828 116.335 114.689 116.13Z" fill="#30235B"/>
<path d="M122.048 112.858C123.994 110.591 127.745 114.131 125.353 116.568C124.996 116.934 124.826 117.092 124.482 116.876C122.5 115.717 119.714 112.702 117.934 110.996C117.588 110.667 116.99 111.282 117.31 111.679C119.001 113.636 120.877 115.427 122.912 117.027C124.14 118.009 125.095 118.682 126.358 117.231C129.05 114.137 124.979 108.995 121.879 111.444C120.37 112.633 121.546 113.444 122.048 112.858Z" fill="#30235B"/>
<path d="M48.9309 32.5295C49.2 31.7883 49.5519 31.0796 49.9801 30.4167C53.3948 33.2183 58.5826 27.0977 59.8681 24.1965C60.0149 23.8573 59.6213 23.5653 59.4482 23.8888C58.1423 26.325 53.1118 32.394 50.1427 29.6283C49.6862 29.1203 49.3454 28.5202 49.1435 27.8691C48.9417 27.2179 48.8835 26.5311 48.9731 25.8556C48.9655 25.8062 48.9416 25.7607 48.9051 25.7263C48.8686 25.692 48.8216 25.6707 48.7716 25.6659C48.7216 25.6611 48.6714 25.673 48.629 25.6998C48.5865 25.7265 48.5543 25.7666 48.5373 25.8137C48.3832 26.5288 48.3894 27.2689 48.5553 27.9814C48.7213 28.6939 49.0431 29.3612 49.4977 29.936C48.0022 32.0443 48.657 32.9832 48.9309 32.5295Z" fill="#30235B"/>
<path d="M41.5817 16.5725C40.8892 19.2753 43.622 22.0777 46.3021 19.604C46.2081 17.5638 49.2291 10.5403 57.9265 12.7527C59.3324 12.2885 60.6073 8.27025 57.5501 7.84274C60.2596 6.22481 58.2064 2.53599 55.6513 3.81926C56.2534 -0.298567 49.8816 -1.45605 49.2253 2.33759C48.2605 -1.19026 40.5912 -0.991859 42.8107 4.77459C39.0024 2.86467 35.4666 7.57621 39.5323 10.4781C35.1873 10.7072 36.2463 18.8478 41.5817 16.5725Z" fill="#30235B"/>
<path d="M47.4515 23.1423C45.935 24.4151 44.2408 26.3258 43.6327 28.2462C43.5574 28.4858 43.9157 28.5591 44.009 28.3765C45.0943 26.2524 46.1066 25.0732 48.8605 22.9334C49.1231 22.7305 49.1653 22.5838 49.0283 22.4094C48.2004 21.4548 50.1572 19.6025 50.8805 20.3227C51.3208 20.766 50.8805 21.4862 51.4073 21.4705C52.6255 21.3333 53.7581 20.78 54.612 19.905C56.1858 21.2616 59.6795 23.4478 60.5766 23.1401C61.4737 22.8324 64.2479 16.8787 58.7981 13.8413C53.3484 10.8038 44.7075 15.2578 47.4515 23.1423Z" fill="#30235B"/>
<path d="M61.0583 82.8693C59.5869 85.2285 50.8082 99.1909 50.5968 100.141C50.1257 102.5 49.8177 104.889 49.6748 107.29C49.6748 108.198 51.2801 106.946 51.673 106.664C53.1857 105.635 54.6442 104.529 56.0428 103.351C59.6095 97.6733 63.5856 91.9592 66.6495 86.0161C66.8385 85.6507 67.1056 85.1027 66.6495 84.7845C66.0143 84.3457 62.8826 82.7959 62.2324 82.3886C61.5821 81.9814 61.2652 82.5346 61.0583 82.8693ZM50.5674 106.453C50.7977 104.663 50.9655 102.842 51.2019 101.063L54.9522 103.181L50.5674 106.453ZM65.8841 85.4501C62.2753 91.8394 58.9321 96.8744 55.6958 102.509L51.4058 100.225C54.8943 94.4381 58.6709 88.62 61.9283 83.1823L65.8841 85.4501Z" fill="#30235B"/>
<path d="M36.6874 122.569C36.6848 122.496 36.6569 122.425 36.6082 122.37C36.5596 122.315 36.4932 122.278 36.4204 122.266C36.3476 122.253 36.2727 122.266 36.2085 122.303C36.1443 122.339 36.0947 122.396 36.068 122.465C35.7654 123.494 35.5222 124.539 35.3395 125.596C34.8126 128.205 35.9529 127.959 38.1716 127.944C41.4922 127.912 44.818 127.829 48.1386 127.745C48.7309 127.745 49.5912 127.62 49.7124 126.905C49.8802 126.06 48.8521 125.664 48.2696 125.34C46.2119 124.324 44.0719 123.483 41.8723 122.824C41.3454 122.647 41.0797 123.289 41.6149 123.467C44.0049 124.266 46.3272 125.254 48.5601 126.419C49.6093 127.025 47.7736 126.978 47.4643 126.989C43.9232 127.139 40.3617 127.209 36.8154 127.134C35.2311 127.134 36.1982 126.446 36.6874 122.569Z" fill="#30235B"/>
<path d="M7.04513 122.825C9.81077 125.745 13.5567 127.555 17.5736 127.913C18.2081 127.965 19.6712 128.257 20.0069 127.51C20.3425 126.764 19.4146 125.799 18.911 125.366C17.1747 123.864 15.4174 123.64 13.8436 120.643C13.5922 120.164 13.0157 120.513 13.2663 120.993C15.0132 124.323 17.238 124.811 18.6695 126.211C20.0024 127.526 19.1052 127.255 18.1027 127.185C14.1455 126.958 10.424 125.239 7.69615 122.378C7.29199 121.956 6.89837 121.555 7.10835 120.938C7.55228 119.893 8.17316 118.93 8.94401 118.093C9.21721 117.759 8.76564 117.301 8.46157 117.619C7.74282 118.368 6.08026 120.441 6.29025 121.588C6.41811 122.063 6.68003 122.493 7.04513 122.825Z" fill="#30235B"/>
<path d="M15.2443 119.564C17.9349 117.304 28.2903 102.625 31.5055 95.3981C34.0336 89.684 34.9781 82.221 35.9799 75.7935C35.9914 75.7409 36.0224 75.6945 36.0668 75.6636C36.1112 75.6327 36.1656 75.6196 36.2193 75.6269C36.2729 75.6341 36.3219 75.6613 36.3563 75.7028C36.3908 75.7444 36.4082 75.7974 36.4051 75.8511C35.7297 82.5431 34.389 89.152 32.4027 95.5807C33.6821 103.345 35.1121 117.618 35.4395 121.374C37.8214 121.547 40.2128 121.547 42.5947 121.374C43.3391 116.459 44.4831 93.4477 43.166 68.9654C32.6751 70.8177 22.1421 67.9996 18.6379 65.3799C17.8935 82.1409 20.18 90.2972 19.8338 92.1757C19.4876 94.0542 12.2277 109.527 8.7506 115.506C10.6231 117.783 12.4641 118.723 15.2443 119.564Z" fill="#30235B"/>
</svg>
