<svg width="190" height="108" viewBox="0 0 190 108" fill="none" xmlns="http://www.w3.org/2000/svg">
<path d="M118.722 53.984C112.796 53.984 110.034 58.4916 109.866 63.5123C109.698 68.5329 113.966 71.5095 118.722 71.6596C123.477 71.8097 127.351 66.9323 127.409 63.2935C127.467 59.6548 125.723 53.984 118.722 53.984ZM118.832 68.3778C118.832 68.3778 114.041 63.72 114.041 63.5242C114.041 63.3283 116.541 63.2647 116.636 63.1563C116.731 63.048 116.689 58.3425 116.816 58.0313C116.944 57.7201 120.292 57.733 120.477 57.8325C120.662 57.9319 120.749 63.0142 120.882 63.1225C121.015 63.2309 123.622 63.1225 123.656 63.2836C123.695 63.4616 118.353 68.8441 118.832 68.3778Z" fill="#FFBF19"/>
<path d="M106.838 55.2279C99.6736 55.1483 92.5096 55.1414 85.3516 55.1126C84.8186 55.1126 84.8006 56.0391 85.3516 56.0451C92.5146 56.1137 99.6736 56.2002 106.838 56.2121C107.417 56.2121 107.417 55.2338 106.838 55.2279ZM93.2216 58.2502C93.113 58.2628 93.0128 58.3146 92.9401 58.3958C92.8674 58.477 92.8272 58.5819 92.8272 58.6906C92.8272 58.7993 92.8674 58.9043 92.9401 58.9855C93.0128 59.0667 93.113 59.1185 93.2216 59.1311C97.9936 59.2981 103.922 59.8628 108.586 59.6719C109.154 59.661 109.299 58.7771 108.714 58.6946C108.714 58.5276 97.7746 58.1995 93.2216 58.2502Z" fill="#30235B"/>
<path d="M137.4 31.218C136.963 27.0553 135.518 26.2202 132.118 26.1476C131.632 26.1476 126.825 26.0959 119.957 26.0383C120.009 27.3108 120.057 28.6003 120.078 29.8043H133.3C133.595 34.8249 136.444 72.271 136.444 73.7285C132.564 73.9472 63.2593 74.7644 61.9433 74.6899C62.2433 62.1094 62.7133 32.0322 62.8583 29.337H78.7374V25.7023C74.0116 25.6662 69.2859 25.6201 64.5603 25.5641C61.2603 25.5004 59.6553 28.5874 59.5683 31.0569C59.4183 35.1272 58.5263 66.7542 58.5953 78.0731C61.6703 78.2172 126.557 77.9985 140.531 77.7112C140.566 76.1105 137.887 35.8768 137.4 31.218Z" fill="#30235B"/>
<path d="M164.681 91.6209C158.628 87.8569 148.627 81.2635 142.355 78.6319C141.747 78.3784 141.238 79.2075 141.84 79.5416C149.675 84.0154 156.94 87.7118 164.426 93.0496C170.68 97.5115 162.77 100.926 158.084 101.003C119.011 101.654 78.2514 101.337 38.5402 100.33C34.1402 100.215 33.3282 96.4895 37.4982 93.317C41.3552 90.3633 45.6922 88.0081 49.7983 85.4351C52.2363 83.9031 54.6923 82.4058 57.1133 80.8618C57.7263 80.4701 57.2133 79.4799 56.5683 79.8597C51.6109 82.7839 46.6866 85.7665 41.7952 88.8074C39.5399 90.1324 37.3905 91.6281 35.3662 93.2812C28.6142 99.0396 37.5732 107.676 46.5442 107.837C56.5283 108.004 156.364 108.182 159.445 107.601C165.6 106.441 173.609 97.1735 164.681 91.6209ZM148.381 88.4604C148.7 88.8402 148.681 89.5371 148.062 89.5252C117.699 89.0708 87.2534 89.6465 56.9073 89.0768C56.2293 89.0768 56.1483 88.023 56.8433 88.017C86.5584 87.6949 116.396 88.4664 146.144 88.3153C143.885 86.5884 139.912 83.5879 137.995 81.8839C113.365 82.368 84.3044 82.0827 61.8943 82.0559C61.4833 82.6325 54.3373 88.2576 53.3703 88.8969C53.3193 88.9403 53.2603 88.9734 53.1964 88.9942C53.1326 89.015 53.0653 89.0231 52.9984 89.018C52.9314 89.0129 52.8661 88.9948 52.8062 88.9646C52.7463 88.9344 52.693 88.8928 52.6493 88.8422C52.6055 88.7915 52.5723 88.7328 52.5514 88.6694C52.5305 88.6059 52.5223 88.539 52.5274 88.4725C52.5326 88.4059 52.5508 88.341 52.5811 88.2814C52.6115 88.2219 52.6533 88.1688 52.7043 88.1254C53.4513 87.3817 60.9743 80.9573 61.3913 80.9573C89.8084 81.0567 112.685 80.7783 137.767 80.7207C138.058 80.7076 138.347 80.7885 138.589 80.9513C139.545 81.5906 148.098 88.1711 148.336 88.4366L148.381 88.4604ZM117.415 97.759C117.428 97.8487 117.423 97.9403 117.399 98.0278C117.375 98.1152 117.332 98.1967 117.274 98.2668C117.217 98.3368 117.144 98.394 117.063 98.4345C116.981 98.475 116.892 98.4979 116.801 98.5017C105.636 98.5017 93.6355 98.8994 82.5334 98.4669C82.0644 98.4669 82.0764 97.8903 82.2034 97.5513C82.6664 96.2041 84.3174 92.4272 85.4404 91.7303C85.7764 91.5175 86.3904 91.7303 86.2864 92.1966C86.1824 92.6628 84.0104 95.9626 83.5354 97.2232C94.1745 96.8663 105.375 97.3445 116.066 97.3385C115.597 95.6152 114.903 93.9602 114.004 92.4153C105.612 92.5147 96.8615 92.7384 88.5214 92.4909C87.8794 92.4909 87.7694 91.5056 88.4404 91.4718C96.9015 91.0165 105.815 91.3724 114.328 91.273C114.464 91.2512 114.605 91.2703 114.73 91.3279C114.856 91.3854 114.962 91.4787 115.035 91.5961C115.889 93.0725 117.308 96.1932 117.418 97.759H117.415Z" fill="#30235B"/>
<path d="M85.8838 8.5156C84.5108 8.84368 81.1638 9.38551 81.0538 13.1217C80.6308 27.4062 80.8048 45.2339 80.6188 59.4419C80.5898 61.6589 82.5478 62.9484 84.5568 63.518C86.7348 64.1344 101.497 63.9386 107.989 64.0937C108.904 64.0937 108.689 62.7296 107.775 62.6949C101.497 62.4881 87.2749 62.4811 86.0278 62.2514C81.9748 61.5088 81.9458 59.6546 81.9748 56.684C82.0148 53.3386 83.1328 52.2738 86.7579 52.1873C96.7939 51.9686 107.606 52.6367 117.707 52.8613C117.807 52.8634 117.906 52.8434 117.998 52.8028C118.089 52.7622 118.17 52.7021 118.236 52.6266C118.301 52.5512 118.349 52.4624 118.375 52.3665C118.402 52.2706 118.407 52.17 118.39 52.072C117.938 46.4757 119.102 10.9971 117.365 9.20059C117.578 7.92902 87.3078 8.17459 85.8838 8.5156ZM95.0839 30.5209C95.9179 30.4752 105.335 30.5736 106.377 30.7635C106.51 30.8105 106.625 30.8986 106.704 31.0149C106.783 31.1312 106.822 31.2696 106.816 31.4099C106.811 31.5502 106.76 31.685 106.671 31.7944C106.583 31.9039 106.461 31.9823 106.325 32.0182C105.306 32.1504 95.8369 31.7597 95.0319 31.6732C94.8782 31.6664 94.7335 31.5991 94.6297 31.4862C94.5259 31.3733 94.4715 31.224 94.4784 31.0712C94.4853 30.9184 94.5529 30.7746 94.6665 30.6714C94.7801 30.5682 94.9302 30.5141 95.0839 30.5209ZM90.8349 25.6912C93.6209 25.5411 106.929 25.0112 109.286 25.5987C109.414 25.6406 109.525 25.7225 109.603 25.8324C109.681 25.9422 109.721 26.0741 109.717 26.2082C109.713 26.3424 109.665 26.4717 109.581 26.5769C109.497 26.6821 109.381 26.7574 109.251 26.7917C106.987 27.3684 93.5169 26.9767 90.7999 26.8554C90.7204 26.8553 90.6418 26.8394 90.5687 26.8086C90.4955 26.7778 90.4294 26.7327 90.3741 26.676C90.3187 26.6193 90.2754 26.5522 90.2467 26.4786C90.2179 26.405 90.2043 26.3264 90.2067 26.2474C90.209 26.1685 90.2273 26.0908 90.2603 26.019C90.2934 25.9472 90.3406 25.8827 90.3992 25.8294C90.4577 25.776 90.5265 25.7349 90.6013 25.7084C90.6762 25.682 90.7556 25.6707 90.8349 25.6753V25.6912Z" fill="#FFBF19"/>
<path d="M179.309 22.495C171.783 20.0225 159.709 18.6256 152.716 19.4667C149.774 9.09734 140.055 2.56553 133.83 0.172515C133.25 -0.0511776 133.14 -0.160536 132.793 0.506564C129.764 6.39116 124.888 13.2829 121.093 18.7181C120.728 19.2361 121.55 19.7779 121.92 19.2937C125.494 14.3228 131.054 6.62678 133.671 1.21542C146.215 6.74807 149.627 14.296 151.772 19.8982C148.436 24.6136 145.066 29.3639 141.891 34.1946C141.607 34.6261 142.337 35.1331 142.649 34.7126C146.068 30.0667 149.34 25.2996 152.623 20.5554C161.023 19.6397 173.802 21.6718 179.107 23.5031C177.416 26.2868 162.023 51.6804 161.982 52.1695C156.857 49.9416 149.282 47.7882 143.688 47.7484C143.622 47.7457 143.556 47.7559 143.495 47.7784C143.433 47.8009 143.376 47.8353 143.328 47.8796C143.28 47.9238 143.241 47.9771 143.213 48.0364C143.185 48.0957 143.17 48.1598 143.167 48.2251C143.164 48.2904 143.175 48.3555 143.197 48.4169C143.22 48.4782 143.254 48.5345 143.299 48.5826C143.343 48.6306 143.397 48.6695 143.457 48.6969C143.516 48.7244 143.581 48.7399 143.646 48.7426C150.654 49.7368 154.454 50.2448 160.928 53.0086C162.011 53.4749 162.086 53.6936 162.868 52.4907C168.858 43.0012 174.674 33.4037 180.312 23.703C180.5 23.3301 180.445 22.8678 179.309 22.495Z" fill="#30235B"/>
<path d="M179.529 30.9008C174.515 40.0603 165.416 54.6401 162.08 60.8408C159.26 58.8435 145.079 53.3556 141.231 52.3425C141.091 52.3116 140.944 52.3337 140.82 52.4044C140.695 52.4751 140.601 52.5894 140.556 52.7252C140.511 52.8609 140.519 53.0083 140.577 53.1388C140.636 53.2693 140.741 53.3734 140.872 53.4311C147.198 55.4655 153.347 58.007 159.26 61.0307C162.52 62.683 162.214 63.1036 164.026 60.1727C167.715 54.2076 176.321 38.9905 180.699 31.558C181.082 30.9008 179.9 30.2268 179.529 30.9008Z" fill="#FFBF19"/>
<path d="M168.768 77.6418C168.259 76.6287 168.681 76.0928 168.247 75.6783C167.813 75.2637 166.857 76.0183 167.627 77.8655C167.912 78.5455 169.081 80.169 169.637 79.3737C169.962 78.8975 169.058 78.2174 168.768 77.6418ZM187.788 57.427C187.25 56.3841 187.44 54.8819 187.209 54.5438C186.909 54.0467 185.836 54.2386 186.23 56.3403C186.734 58.9928 188.227 58.28 187.788 57.427Z" fill="#30235B"/>
<path d="M48.6055 77.101C43.8424 80.5598 33.8664 87.1483 28.1914 88.909C24.1374 90.1816 22.6144 86.1869 25.6784 83.0204C31.0634 77.4579 44.2564 72.316 46.4395 69.6446C47.8525 67.9147 28.6774 52.5386 24.3224 50.1834C23.7904 49.8961 10.6143 57.3863 9.00429 58.2443C3.27726 61.3481 -3.78777 66.7883 2.40426 73.6283C7.47828 79.2485 16.1353 86.2953 22.9044 89.6696C23.8142 90.1298 24.8108 90.3957 25.8302 90.4502C26.8496 90.5046 27.8692 90.3464 28.8234 89.9857C36.0748 86.7973 42.9484 82.8198 49.3185 78.126C49.9665 77.6578 49.2545 76.6288 48.6055 77.101ZM20.6803 80.6403C14.7139 76.197 8.99325 71.4365 3.54327 66.3797C3.03426 65.8916 3.76927 65.1479 4.30227 65.5973C9.9893 70.3992 15.6533 75.2061 21.6293 79.6511C22.3363 80.1751 21.3843 81.1702 20.6803 80.6403Z" fill="#FFBF19"/>
<path d="M47.2106 76.4495C45.5536 75.7068 45.4326 74.5496 45.5476 72.9957C45.6056 72.2063 43.9206 71.74 44.1586 74.1469C44.4186 76.7259 47.0136 78.0243 47.4126 77.1007C47.4624 76.986 47.4694 76.8574 47.4324 76.7381C47.3953 76.6187 47.3167 76.5164 47.2106 76.4495Z" fill="#30235B"/>
<path d="M13.655 38.5759C13.383 38.0003 12.392 38.2707 12.578 38.9159C13.261 41.2761 16.249 49.9991 17.587 52.0491C17.9811 52.6248 18.8871 52.1128 18.7871 51.4735C18.4221 49.2107 14.687 40.6259 13.656 38.5491L13.655 38.5759ZM57.3332 59.8794C57.0712 59.3703 56.6202 59.5165 56.2332 59.7292C55.2825 60.1646 54.2133 60.274 53.1932 60.0404C52.9732 59.9947 44.8652 63.0687 44.0662 63.4207C43.4872 63.6732 43.7942 64.727 44.4252 64.5083C47.4712 63.4723 50.5002 62.3728 53.5402 61.301C55.0162 61.7335 57.9222 61.0257 57.3332 59.8794Z" fill="#FFBF19"/>
<path d="M69.7898 22.9384C69.4658 21.8249 64.1718 12.6386 63.2338 11.0201C62.6548 10.019 62.7468 10.0359 61.8088 10.5081C57.2627 12.8106 41.3537 22.9772 39.7987 26.2431C33.0756 25.414 21.5336 26.4101 14.6246 30.1006C14.2246 30.3203 14.1246 30.6424 14.3246 31.2528C16.4446 37.5858 18.5066 44.3453 20.9386 50.4943C21.0108 50.6053 21.1191 50.6882 21.2454 50.7293C21.3718 50.7704 21.5085 50.767 21.6326 50.7199C21.7568 50.6727 21.8609 50.5846 21.9275 50.4702C21.9941 50.3559 22.0192 50.2222 21.9986 50.0917C20.1336 43.7577 17.5626 37.2001 15.3386 30.9476C22.9547 27.4278 31.4556 26.2527 39.7487 27.5733C44.0057 36.9187 47.6417 45.8773 52.4667 55.6184C48.8007 56.9377 45.1167 58.2092 41.4667 59.6091C40.8877 59.8278 41.2467 60.6569 41.8147 60.472C42.8217 60.1499 53.6577 56.5122 53.6747 56.4953C54.6394 55.443 55.8028 54.5897 57.0987 53.9839C57.1848 53.8993 57.2421 53.79 57.2626 53.6714C57.283 53.5527 57.2656 53.4307 57.2128 53.3224C57.16 53.2141 57.0744 53.1249 56.968 53.0674C56.8617 53.0099 56.7399 52.9869 56.6197 53.0017C55.4835 53.5187 54.4513 54.2369 53.5737 55.1213C50.5567 48.3668 44.3737 34.8886 40.7347 26.8685C46.1087 21.1797 53.8577 16.2625 62.3708 11.6276C63.8648 14.3974 67.1778 19.8962 68.9558 23.4822C69.1928 23.9634 69.9198 23.3868 69.7898 22.9384Z" fill="#30235B"/>
<path d="M189.172 58.232C186.672 61.3826 178.689 71.1296 169.307 81.6889L153.168 76.6046C150.457 75.7536 144.648 72.9729 148.1 69.4316C154.714 71.245 160.331 72.3793 166.881 74.9235C167.053 74.9704 167.234 74.9723 167.406 74.9291C167.579 74.8859 167.737 74.799 167.866 74.6769C172.944 68.9196 183.914 57.9745 187.556 52.1466C187.764 51.8136 187.84 51.4268 187.214 51.0709C185.614 50.1493 177.178 47.4491 174.358 46.8555C171.416 52.245 165.277 63.5579 163.273 63.9844C161.507 64.3642 156.323 61.8717 153.22 60.3228C150.932 63.1065 148.841 66.0175 146.728 68.9016C143.073 73.9054 149.472 76.9098 153.318 78.1138C158.438 79.7204 163.618 81.1252 168.671 82.9386C169.871 83.3641 169.731 83.048 170.771 81.9713C175.404 77.1574 189.256 60.9511 189.971 58.9001C190.145 58.4746 189.489 57.8344 189.172 58.232Z" fill="#FFBF19"/>
</svg>
