<svg width="172" height="146" viewBox="0 0 172 146" fill="none" xmlns="http://www.w3.org/2000/svg">
<path d="M56.2393 67.7729C56.2819 67.7133 56.3045 67.6417 56.3038 67.5684C56.3031 67.4951 56.2791 67.4239 56.2354 67.3652C56.1917 67.3064 56.1304 67.2631 56.0605 67.2415C55.9906 67.2199 55.9156 67.2211 55.8464 67.245C54.6352 67.6078 51.7637 70.5456 51.1219 72.2508C50.4801 73.956 52.067 77.7119 52.9931 79.2475C53.1877 79.5695 53.6476 79.2475 53.5362 78.9382C53.0456 77.4761 51.7184 74.0404 52.0643 72.6798C52.63 70.5883 55.2209 69.1543 56.2393 67.7729Z" fill="#FFF8E7"/>
<path d="M62.3207 70.4614C62.0691 72.3299 61.9876 76.972 62.9924 78.3524C63.018 78.3851 63.0497 78.4124 63.0858 78.4328C63.1218 78.4531 63.1616 78.4662 63.2027 78.4711C63.2438 78.4761 63.2855 78.4729 63.3254 78.4617C63.3653 78.4505 63.4025 78.4316 63.4351 78.4059C63.9918 77.9733 62.7109 75.1833 63.35 70.524C63.5863 68.9984 62.5181 68.9921 62.3207 70.4614Z" fill="#FFF8E7"/>
<path d="M77.5167 74.5574C80.5471 73.2 83.7616 72.3001 87.0554 71.8871C87.5397 71.8082 87.3523 71.1289 86.916 71.0862C85.5678 71.1534 84.2316 71.3734 82.9328 71.742C82.0123 70.726 81.174 69.6381 80.4262 68.4886C80.0378 67.8818 79.4747 68.2763 79.9355 69.1988C80.5273 70.2299 81.2842 71.1565 82.176 71.9415C80.8797 72.3044 78.2517 73.1551 77.2587 73.9986C76.9771 74.2163 77.1718 74.7106 77.5167 74.5574Z" fill="#FFF8E7"/>
<path d="M78.8179 59.678C84.3473 61.1102 88.3023 65.1754 91.3549 69.763C92.9653 72.1902 94.1775 75.3865 91.1123 77.3665C88.296 79.1869 82.7911 80.5646 79.314 80.8739C78.9999 80.8739 78.8424 81.3845 79.2117 81.4807C81.7555 82.0875 89.9436 79.5696 92.2085 77.6939C94.698 75.6368 94.0679 72.2328 92.5417 69.8029C89.5136 64.9486 84.7564 60.2694 78.9447 59.1474C78.8744 59.1306 78.8004 59.1424 78.7389 59.1802C78.6773 59.2181 78.6333 59.2789 78.6165 59.3492C78.5997 59.4196 78.6115 59.4938 78.6493 59.5554C78.687 59.6171 78.7477 59.6612 78.8179 59.678Z" fill="#FFF8E7"/>
<path d="M74.9482 61.0741C73.9624 63.4105 69.3211 64.2051 68.2248 62.2332C68.0005 61.794 67.8619 61.3159 67.8166 60.8246C67.7496 60.4564 67.6554 60.2369 67.2444 60.3095C66.4207 60.4546 63.2287 62.245 62.5688 63.2463C62.4348 63.4404 62.6475 63.7679 62.8829 63.6835C63.3554 63.513 65.5082 62.0509 67.2499 61.3253C67.2897 61.848 67.4383 62.3566 67.6862 62.8182C68.7399 64.4445 72.0831 64.7357 74.1905 63.2609C76.5895 61.5838 75.275 60.2977 74.9482 61.0741Z" fill="#FFF8E7"/>
<path d="M69.8363 78.5684C72.1076 78.4061 72.5738 77.0093 71.8225 76.9721C70.7633 76.924 70.5144 78.1856 67.7044 77.2995C66.8625 77.0265 67.0019 78.7707 69.8363 78.5684Z" fill="#FFF8E7"/>
<path d="M70.8539 76.1648C70.6783 75.4918 70.3107 72.7789 68.789 72.9249C67.2673 73.071 67.862 75.3158 68.0983 76.6083C69.037 76.8024 70.4664 76.8686 70.8539 76.1648Z" fill="#FFF8E7"/>
<path d="M72.1381 79.9335C72.5264 79.7711 72.416 79.1017 71.9624 79.1752C69.7998 79.509 69.9998 79.8918 67.7711 79.1335C67.4995 79.0428 67.1655 79.3512 67.371 79.6242C68.3885 80.7888 70.8562 80.4677 72.1381 79.9335Z" fill="#FFF8E7"/>
<path d="M69.3999 83.6347C71.0095 84.1681 75.1664 83.6347 75.5113 81.7237C75.7358 80.5101 75.82 77.2149 73.5252 75.4798C71.2304 73.7447 71.0176 74.8231 71.3145 75.0853C71.8676 75.5033 72.4437 75.89 73.04 76.2435C74.712 77.4571 75.0143 80.4067 74.6088 81.7046C73.8572 82.2796 72.9884 82.6815 72.0642 82.8819C71.1399 83.0822 70.183 83.076 69.2614 82.8638C68.9156 82.7549 69.0369 83.515 69.3999 83.6347Z" fill="#FFF8E7"/>
<path d="M72.2893 81.196C71.7851 80.5947 70.3629 82.2844 68.05 81.0682C67.978 81.0262 67.8927 81.0131 67.8115 81.0315C67.7302 81.05 67.659 81.0986 67.612 81.1676C67.5651 81.2366 67.546 81.3208 67.5586 81.4033C67.5711 81.4858 67.6144 81.5605 67.6797 81.6124C69.818 83.2105 72.9936 82.0359 72.2893 81.196Z" fill="#FFF8E7"/>
<path d="M55.8094 79.4056C56.7844 79.6677 58.7895 79.7212 59.3291 78.9747C59.383 78.8815 59.3979 78.7706 59.3704 78.6664C59.3429 78.5621 59.2753 78.4731 59.1824 78.4187C58.6736 78.1185 57.6009 79.2505 55.0707 78.3679C54.6353 78.1711 54.1437 78.9575 55.8094 79.4056Z" fill="#FFF8E7"/>
<path d="M55.2705 76.0848C55.6905 76.2659 56.1456 76.3506 56.6025 76.3327C57.0594 76.3148 57.5065 76.1948 57.9112 75.9814C57.7048 75.1923 57.5599 72.7833 56.0943 72.8259C54.6287 72.8685 55.1067 75.0544 55.2705 76.0848Z" fill="#FFF8E7"/>
<path d="M54.6284 77.3301C56.4534 78.4757 59.5947 77.6512 58.9103 76.8449C58.492 76.3469 57.8747 77.3673 54.9371 76.6381C54.8486 76.6126 54.7539 76.6199 54.6704 76.6588C54.5869 76.6977 54.5202 76.7655 54.4827 76.8497C54.4451 76.934 54.4392 77.0289 54.4659 77.1172C54.4927 77.2055 54.5504 77.2811 54.6284 77.3301Z" fill="#FFF8E7"/>
<path d="M72.2164 51.8676C72.5785 51.6046 71.981 50.2713 71.532 50.5869C70.9391 50.976 71.6968 52.2422 72.2164 51.8676Z" fill="#FFF8E7"/>
<path d="M77.3706 57.7967C77.3411 56.7485 77.1616 55.7099 76.8374 54.7129C76.7405 54.4644 76.2797 54.4644 76.2942 54.7619C76.2942 56.0607 78.1111 59.7622 73.0661 60.0833C72.1292 60.056 71.1945 59.9778 70.2661 59.8493C69.8723 59.8855 69.2703 60.7173 71.6774 60.9377C73.9306 61.1463 77.4204 60.6846 77.3706 57.7967Z" fill="#FFF8E7"/>
<path d="M73.6879 57.7051C73.925 57.3225 74.2772 57.0253 74.6937 56.8561C74.7613 56.8278 74.817 56.7767 74.8511 56.7116C74.8852 56.6466 74.8955 56.5717 74.8804 56.4998C74.8653 56.4279 74.8256 56.3636 74.7682 56.3178C74.7109 56.2721 74.6393 56.2479 74.566 56.2493C74.2463 56.2913 73.947 56.43 73.708 56.6468C73.4689 56.8636 73.3015 57.1483 73.2281 57.4629C73.2036 57.7631 73.5413 57.9391 73.6879 57.7051Z" fill="#FFF8E7"/>
<path d="M75.4507 50.4167C75.9214 50.2136 75.39 48.9728 74.9238 49.2032C74.4576 49.4335 75.0922 50.5736 75.4507 50.4167Z" fill="#FFF8E7"/>
<path d="M60.1279 53.482C61.1461 54.0282 62.2748 54.3354 63.4288 54.3807C64.5829 54.4259 65.7321 54.208 66.7897 53.7432C67.695 55.5636 68.2979 56.2312 70.2786 56.6257C73.2334 57.2325 73.2397 53.5419 74.518 52.7419C75.015 52.9517 75.4372 53.3071 75.7292 53.7614C75.4064 54.0632 75.0402 54.3149 74.6429 54.5079C74.0735 54.799 75.0177 55.5056 76.1447 54.3138C76.2962 54.1878 76.3955 54.0099 76.4235 53.8146C76.4514 53.6193 76.4059 53.4207 76.2959 53.2571C78.5971 53.5909 77.8765 49.1066 77.5071 47.942C76.9015 46.0373 75.9084 46.1579 74.3387 46.5579C72.3094 47.0717 70.3813 47.9251 68.6356 49.0821C67.4243 49.8658 65.7532 50.7873 66.2131 52.4081C64.1962 53.1972 62.5794 52.9297 60.51 52.4807C60.3907 52.4732 60.2722 52.504 60.1717 52.5688C60.0712 52.6335 59.994 52.7287 59.9513 52.8406C59.9086 52.9524 59.9028 53.0749 59.9345 53.1903C59.9663 53.3057 60.0341 53.4079 60.1279 53.482ZM76.0261 47.4141C76.8409 48.245 77.594 52.9297 76.3529 52.214C75.2929 51.6072 74.1359 51.346 73.3656 52.3836C72.3417 53.7614 72.6323 55.97 70.1673 55.3387C68.3504 54.8652 67.6606 53.336 67.2849 51.6072C69.8001 49.4963 72.8096 48.0607 76.0306 47.435L76.0261 47.4141Z" fill="#FFF8E7"/>
<path d="M82.416 57.4631C86.3856 55.3253 91.6035 52.3957 95.2861 50.588C95.7532 50.3576 95.2861 49.72 94.8498 49.8624C91.9792 50.8093 84.7661 55.1421 82.1308 56.9924C81.871 57.172 82.1317 57.6155 82.416 57.4631Z" fill="#FFF8E7"/>
<path d="M83.8388 54.3167C83.9144 54.32 83.9887 54.2953 84.0474 54.2474C84.1061 54.1994 84.1451 54.1315 84.1571 54.0566C84.169 53.9816 84.1531 53.9049 84.1123 53.841C84.0714 53.7771 84.0086 53.7304 83.9356 53.7099C83.2033 53.504 80.9075 52.4963 81.9187 51.5331C84.0995 49.4279 90.9369 49.349 93.7052 49.2765C93.8194 49.2741 93.9283 49.228 94.0095 49.1476C94.0908 49.0672 94.1382 48.9587 94.142 48.8444C94.1459 48.73 94.1058 48.6186 94.0301 48.5329C93.9544 48.4473 93.8488 48.394 93.7351 48.384C78.3574 48.2996 78.5702 53.8224 83.8388 54.3167Z" fill="#FFF8E7"/>
<path d="M80.853 59.0956C88.9741 58.3428 94.4627 59.7995 93.7168 69.6233C93.657 70.3879 94.2925 70.4006 94.3767 69.9389C95.8486 61.8865 91.8936 56.195 80.7616 58.5106C80.6837 58.5226 80.6137 58.5652 80.5671 58.6289C80.5205 58.6926 80.5011 58.7722 80.5131 58.8503C80.5251 58.9283 80.5675 58.9984 80.6311 59.0451C80.6947 59.0918 80.7742 59.1113 80.8521 59.0993L80.853 59.0956Z" fill="#FFF8E7"/>
<path d="M107.078 46.9164C107.122 46.8624 107.147 46.7945 107.147 46.7243C107.147 46.6542 107.123 46.5861 107.079 46.5317C107.035 46.4773 106.973 46.44 106.905 46.4261C106.836 46.4123 106.765 46.4227 106.703 46.4556C105.945 46.9091 97.3152 53.9194 96.945 51.9775C96.2787 48.5182 97.5506 37.8381 99.5702 31.4546C100.339 29.0274 102.423 23.5963 104.416 28.8333C105.276 31.109 105.955 38.5846 106.293 41.2249C106.353 41.7038 107.098 41.7219 107.049 41.2249C106.716 37.6567 106.698 29.6342 104.476 26.7826C101.496 22.965 99.1275 29.2823 98.5835 31.4301C97.4863 35.7629 95.0222 48.0511 96.161 52.382C96.9531 55.4305 105.383 49.0306 107.078 46.9164Z" fill="#FFF8E7"/>
<path d="M111.724 59.338C111.118 59.9992 109.551 64.2839 105.115 72.1722C104.909 72.5423 105.521 72.8706 105.762 72.5305C106.849 70.9831 112.249 61.474 112.371 59.5929C112.378 59.5147 112.36 59.4362 112.318 59.3693C112.277 59.3024 112.216 59.2507 112.143 59.222C112.07 59.1933 111.989 59.189 111.914 59.2099C111.838 59.2309 111.771 59.2758 111.724 59.338Z" fill="#FFF8E7"/>
<path d="M112.553 46.2189C112.784 46.4729 113.327 46.1092 113.195 45.7273C112.873 44.8049 110.479 43.8398 110.088 44.599C109.888 44.9872 111.347 44.9019 112.553 46.2189Z" fill="#FFF8E7"/>
<path d="M107.472 56.8563C117.108 55.8178 126.605 54.089 130.486 49.6411C134.163 45.3935 129.275 44.5074 126.52 45.4688C126.437 45.5067 126.371 45.5723 126.332 45.6542C126.293 45.7361 126.283 45.8291 126.306 45.9171C126.328 46.005 126.38 46.0824 126.454 46.1357C126.527 46.1891 126.617 46.215 126.707 46.2089C128.343 46.0031 132.048 45.4144 130.341 48.2724C126.828 54.2251 113.904 54.7956 107.781 55.9121C109.274 53.3534 110.946 50.9038 112.784 48.5817C115.072 48.1509 117.368 47.7318 119.651 47.2828C120.124 47.1858 121.166 46.0085 116.018 47.028C114.298 47.3681 112.735 47.2828 111.565 48.618C109.84 50.5698 105.373 57.0822 107.472 56.8563Z" fill="#FFF8E7"/>
<path d="M157.407 67.403C144.082 65.9735 116.889 70.9947 103.075 74.0776C99.4186 74.6968 96.053 76.4625 93.4626 79.1206C88.5262 83.6892 82.9615 91.0623 80.6079 95.9837C77.7481 101.961 82.3279 102.131 86.5065 101.652C106.493 99.3759 132.936 94.0055 151.504 86.686C157.033 84.5091 164.829 80.6906 165.434 73.8336C165.856 68.8651 161.392 67.8311 157.407 67.403ZM164.614 73.8345C163.658 80.4494 154.797 84.3332 150.43 86.0257C131.462 93.3724 106.478 98.5206 86.5581 100.59C82.3188 101.032 79.135 101.263 81.9558 95.9592C85.2839 89.7472 89.6396 84.1459 94.8377 79.3936C98.0722 76.4377 98.4714 76.3597 103.032 75.2214C116.356 71.9144 143.902 67.2479 156.837 68.4487C160.587 68.8043 165.257 69.3866 164.614 73.8345Z" fill="#FFF8E7"/>
<path d="M30.2755 80.2309C27.1623 80.0858 20.3484 80.4368 17.0659 80.7162C-3.15039 82.4341 -4.24666 95.8805 7.70279 99.4187C12.6194 100.725 17.6287 101.652 22.6867 102.191C23.3828 102.27 23.5349 101.057 22.8324 100.978C18.5922 100.407 14.3528 99.7035 10.1497 98.7394C-1.52816 96.0564 -0.667257 88.55 6.70338 84.5755C13.2747 81.0318 23.056 82.1057 30.3968 80.9348C30.8204 80.8804 30.6883 80.25 30.2755 80.2309Z" fill="#FFF8E7"/>
<path d="M48.0147 79.994C49.0386 76.5047 48.433 74.5692 51.309 68.2337C52.0332 66.6564 54.9436 66.4623 56.5541 66.3771C62.8167 66.0433 69.0612 65.6669 71.7317 66.905C73.8455 67.8818 76.1168 79.5695 77.4068 82.7976C77.5878 83.2592 78.312 83.2511 78.312 82.6824C78.312 79.6176 75.4152 71.5652 74.0718 68.5675C73.0669 66.3227 72.3826 65.4002 70.1592 65.0547C66.6106 64.5105 61.3357 64.6919 56.7442 65.09C51.8992 65.5036 50.688 66.5231 50.0099 68.124C48.5805 71.4382 46.9818 77.829 47.1448 79.9087C47.1663 80.0032 47.217 80.0884 47.2895 80.1524C47.3621 80.2164 47.4529 80.2559 47.5491 80.2653C47.6453 80.2747 47.7421 80.2536 47.8256 80.2049C47.9092 80.1562 47.9753 80.0825 48.0147 79.994Z" fill="#FFF8E7"/>
<path d="M74.633 86.6208C76.7586 86.4393 79.8057 85.4072 80.9255 83.429C81.1319 83.0771 80.7499 82.5365 80.3507 82.8222C78.2369 84.2 77.4792 85.2185 74.5968 85.4679C69.7519 85.8924 67.5711 82.1002 62.2291 80.6136C58.2197 79.4844 51.213 80.1456 47.5304 81.9116C43.751 83.7319 37.2965 92.7675 36.8284 96.9461C36.7859 97.328 37.4341 97.504 37.5065 97.1647C38.3122 93.8088 45.4347 84.063 48.1179 82.7524C49.7103 81.976 57.1117 80.3796 61.8779 81.6912C66.5056 82.9129 69.3943 87.0724 74.633 86.6208Z" fill="#FFF8E7"/>
<path d="M84.8448 103.163C82.9531 104.691 81.296 106.491 79.9265 108.502C79.7635 108.8 80.1872 109.164 80.4352 108.933C82.1616 107.282 83.8752 105.626 85.559 103.939C85.9999 103.526 85.3354 102.847 84.8448 103.163Z" fill="#FFF8E7"/>
<path d="M74.9424 113.036C67.1644 119.721 61.979 119.131 59.0741 119.71C58.5418 119.825 57.8628 121.373 63.6529 120.147C68.1929 119.265 72.3691 117.052 75.6512 113.787C75.7423 113.691 75.7931 113.564 75.7933 113.431C75.7935 113.299 75.743 113.171 75.6522 113.075C75.5614 112.979 75.4372 112.921 75.3052 112.914C75.1731 112.906 75.0433 112.95 74.9424 113.036Z" fill="#FFF8E7"/>
<path d="M171.392 25.2651C170.701 26.4787 169.471 30.8886 168.968 32.4858C159.521 62.5985 160.368 60.4779 159.805 62.8516C159.72 63.2035 160.278 63.4584 160.411 63.0756C161.039 61.443 160.311 63.8493 170.912 29.5671C171.426 28.2207 171.79 26.8214 171.998 25.3948C172.033 25.0583 171.561 25.0202 171.392 25.2651Z" fill="#FFBF19"/>
<path d="M15.2615 75.8127C19.461 70.8178 20.2024 68.2972 36.6257 50.2414C38.2733 48.421 40.865 45.4778 41.7857 43.2511C41.9432 42.8565 41.3738 42.6443 41.1438 42.9536C37.6495 47.5049 34.6332 50.8609 30.7813 55.1628C26.7077 59.7078 17.8868 70.1938 14.6469 75.4245C14.3934 75.8553 14.97 76.1592 15.2615 75.8127Z" fill="#FFBF19"/>
<path d="M155.675 46.9838C155.058 48.0567 153.49 53.2639 152.959 54.8747C152.063 57.545 151.016 60.1907 150.276 62.909C150.246 62.9975 150.253 63.0943 150.294 63.178C150.336 63.2617 150.409 63.3254 150.497 63.3553C150.585 63.3851 150.682 63.3785 150.765 63.337C150.849 63.2955 150.913 63.2225 150.942 63.1339C152.262 60.2878 154.085 54.638 155.182 51.2821C155.704 49.9752 156.085 48.6164 156.321 47.2286C156.335 47.1479 156.32 47.0648 156.28 46.9935C156.24 46.9223 156.176 46.8674 156.099 46.8384C156.023 46.8094 155.938 46.808 155.861 46.8346C155.784 46.8611 155.718 46.9139 155.675 46.9838Z" fill="#FFBF19"/>
<path d="M28.3554 72.1177C28.1137 72.4524 28.5736 72.8642 28.8461 72.5367C32.1593 68.604 35.4472 64.6458 38.7723 60.722C39.8812 59.4169 41.0988 58.1915 42.0855 56.7892C42.2792 56.5226 41.9588 56.0736 41.6673 56.3285C38.7542 58.8645 30.471 69.1862 28.3554 72.1177Z" fill="#FFBF19"/>
<path d="M124.151 10.7323C125.523 9.86765 126.957 9.10318 128.439 8.44486C129.642 10.8604 130.191 13.5502 130.031 16.2451C130.031 17.8052 130.431 18.0238 130.813 16.5426C132.024 11.7917 131.461 6.29978 130.08 1.52438C129.523 -0.399387 129.293 -0.223427 129.25 0.534832C128.99 5.20774 124.805 7.12516 123.599 10.5537C123.491 10.823 123.749 10.9954 124.151 10.7323Z" fill="#FFBF19"/>
<path d="M107.986 34.2464C110.943 34.2527 112.081 31.012 113.644 28.9857C113.038 30.7698 114.304 33.6523 113.352 35.8672C112.814 37.1234 114.285 37.3538 115.327 31.0129C116.036 26.6592 123.316 24.945 126.084 20.2539C127.936 17.0921 127.579 12.4682 127.13 14.1071C124.629 23.2062 113.882 22.0371 110.694 28.5485C109.724 30.5267 110.639 32.4804 107.762 33.6087C107.611 33.6514 106.587 34.2427 107.986 34.2464Z" fill="#FFBF19"/>
<path d="M150.116 19.2581C149.957 18.7356 149.612 17.7833 149.249 19.5429C148.225 24.4525 142.176 26.2175 140.77 28.1957C140.031 29.2279 140.219 29.5671 141.278 28.8025C143.192 27.4737 145.312 27.5409 146.935 26.4243C147.547 28.6999 147.599 31.0901 147.087 33.3902C146.82 34.6037 147.135 34.9321 147.892 33.9552C150.726 30.3018 151.45 23.6707 150.116 19.2581Z" fill="#FFBF19"/>
<path d="M142.842 31.4301C138.429 38.6472 122.098 38.8885 120.226 49.7626C120.178 50.0238 120.371 50.4302 120.747 49.9386C121.29 49.2347 124.381 42.4566 135.283 40.9211C133.201 44.3432 133.296 46.989 131.964 50.3268C127.518 61.4195 120.457 63.131 112.746 63.9564C112.431 63.9564 112.456 64.8725 112.958 64.9269C130.359 66.8017 135.143 55.2219 137.184 45.9396C138.444 40.2354 144.494 38.9855 143.623 31.3757C143.568 30.8252 143.417 30.4905 142.842 31.4301Z" fill="#FFBF19"/>
<path d="M130.607 27.2742C128.79 30.5141 128.79 34.4587 129.51 38.093C129.638 38.6998 130.184 38.318 130.159 37.1044C130.044 30.5993 134.398 28.0933 138.571 24.5124C143.846 19.9674 149.225 9.38441 144.077 3.1977C143.707 2.82764 143.387 2.88841 143.471 3.29475C145.288 13.3979 137.875 17.6463 130.616 22.2213C117.943 30.2311 125.474 34.5158 113.846 39.0245C109.989 40.5302 105.055 42.0621 103.924 46.6253C103.897 46.7122 103.906 46.8062 103.949 46.8865C103.991 46.9668 104.064 47.0268 104.151 47.0534C104.238 47.08 104.331 47.0709 104.412 47.0282C104.492 46.9855 104.552 46.9127 104.578 46.8257C105.686 43.6639 114.426 41.6676 117.23 40.5755C126.331 37.0191 124.671 32.0043 130.607 27.2742Z" fill="#FFBF19"/>
<path d="M65.3542 51.8495C64.8817 50.0962 67.6617 48.2088 70.3757 46.9163C73.0897 45.6238 73.8637 45.6601 74.6839 45.7C73.4237 42.9028 71.1352 40.0139 64.7939 42.4774C58.4525 44.9408 59.9788 50.0055 60.3726 51.7289C62.0001 52.1641 63.7076 52.2054 65.3542 51.8495Z" fill="#FFBF19"/>
<path d="M60.8125 54.8717C60.1335 58.1242 61.4598 60.0416 64.3611 60.272C64.8434 60.3222 65.3308 60.2751 65.7947 60.1335C66.2586 59.992 66.6895 59.7589 67.062 59.4479C67.4346 59.137 67.7412 58.7544 67.9639 58.3229C68.1866 57.8913 68.3209 57.4195 68.3587 56.9351C67.4742 56.4913 66.7855 55.7344 66.426 54.8109C64.5944 55.3371 62.655 55.3581 60.8125 54.8717Z" fill="#FFBF19"/>
<path d="M58.9321 140.888C53.8808 145.018 44.5122 145.944 38.437 143.468C38.0804 143.322 37.6377 143.801 38.007 144.074C43.0466 147.776 54.9354 145.646 59.5568 141.86C60.1217 141.39 59.5079 140.419 58.9321 140.888Z" fill="#FFBF19"/>
<path d="M69.3574 99.6672C71.8667 104.37 71.7807 105.845 73.0282 110.733C73.0498 110.868 73.1241 110.989 73.2348 111.069C73.3455 111.15 73.4835 111.182 73.6184 111.161C73.7533 111.139 73.8742 111.065 73.9543 110.954C74.0344 110.843 74.0673 110.705 74.0457 110.569C73.9063 107.226 72.3311 101.746 70.1386 99.1973C69.8118 98.8119 69.1021 99.1883 69.3574 99.6672Z" fill="#FFBF19"/>
<path d="M72.6706 95.9359C79.1088 106.132 78.1221 114.085 77.2874 118.952C77.215 119.377 78.1175 119.559 78.2207 119.128C80.3463 110.111 78.5539 101.597 73.2961 95.4987C73.0282 95.1712 72.447 95.5857 72.6706 95.9359Z" fill="#FFBF19"/>
<path d="M23.3645 123.303C23.7167 123.562 24.0616 123.09 23.8434 122.769C22.1053 120.256 20.8751 118.03 21.009 114.878C21.009 114.162 19.9309 114.062 19.9001 114.782C19.7553 117.799 20.8207 121.43 23.3645 123.303Z" fill="#FFBF19"/>
<path d="M56.6758 137.842C57.095 137.455 56.4513 136.701 56.0032 137.071C52.1215 140.282 49.7895 139.827 45.4171 139.572C45.3467 139.576 45.2796 139.603 45.2261 139.649C45.1726 139.695 45.1357 139.757 45.1212 139.826C45.1066 139.895 45.1152 139.967 45.1457 140.031C45.1761 140.095 45.2266 140.147 45.2895 140.179C48.3601 141.934 53.9057 140.401 56.6758 137.842Z" fill="#FFBF19"/>
<path d="M66.7051 128.54C65.5979 127.683 64.4582 126.92 63.5077 126.21C59.434 123.176 55.3604 120.141 51.2867 117.14C52.0167 116.637 52.7123 116.086 53.3688 115.49C54.3926 113.711 53.5869 110.763 52.4635 108.967C57.4243 105.744 67.0717 98.9897 70.1243 93.7962C73.1768 88.6026 67.9018 84.6508 63.2198 88.0611C58.9805 91.1259 52.4635 101.108 49.7314 105.657C47.9571 104.529 44.3714 104.073 42.8334 105.05C42.4355 105.382 42.0985 105.781 41.8376 106.229C37.5973 101.527 33.291 96.3385 28.8643 91.8787C22.6442 85.6204 14.1284 90.7432 23.4617 99.621C25.7248 101.776 33.8242 108.117 39.6142 110.666C38.7931 112.582 38.2839 114.618 38.1061 116.696C33.9636 119.489 27.8468 124.883 23.8799 128.458C16.6967 134.932 25.3935 141.855 31.7167 134.386C35.0119 130.49 38.4338 124.926 41.365 120.647C43.4174 120.692 45.4513 120.249 47.2999 119.355C50.782 125.057 54.6258 130.53 58.8076 135.739C67.5959 146.666 76.3135 135.983 66.7051 128.54ZM30.6205 133.667C25.3564 139.589 18.8104 134.574 24.7462 129.223C28.9856 125.37 34.0487 121.868 38.1676 117.949C38.2121 118.5 38.4196 119.026 38.7638 119.458C39.1079 119.89 39.573 120.21 40.0995 120.376C37.247 124.401 33.7871 130.105 30.6205 133.667ZM39.8541 110.105C39.4785 109.68 30.9826 105.146 24.2773 98.7212C15.9616 90.7658 23.0353 86.9972 28.3709 92.7132C32.7379 97.3979 36.9899 102.418 41.2537 107.225C40.7366 108.159 40.2704 109.121 39.8569 110.105H39.8541ZM49.0778 108.114C52.4816 103.363 59.3743 91.8878 63.8743 88.8475C67.575 86.3351 71.5111 88.9872 69.0588 93.0959C66.0669 98.1144 55.3948 105.736 49.9387 109.583C49.22 109.583 48.9656 108.982 49.0806 108.114H49.0778ZM48.3998 118.817C49.0974 118.466 49.7786 118.083 50.4412 117.67C52.1304 119.059 61.7053 126.151 65.9094 129.503C73.7462 135.772 67.4601 144.249 59.9075 134.836C59.9102 134.614 55.0254 129.145 48.4025 118.819L48.3998 118.817Z" fill="#FFBF19"/>
<path d="M17.0479 106.591C17.0683 106.477 17.0481 106.359 16.9908 106.258C16.9335 106.157 16.8426 106.079 16.7341 106.038C16.6255 105.997 16.506 105.995 16.3963 106.033C16.2867 106.071 16.1937 106.146 16.1336 106.246C12.7905 112.804 14.9223 122.727 19.8343 128.127C20.1249 128.443 20.6825 127.988 20.4399 127.636C15.3161 120.891 14.9586 114.383 17.0479 106.591Z" fill="#FFBF19"/>
<path d="M36.8159 85.0979C34.5183 85.7065 31.2259 87.057 30.1541 89.3454C29.9667 89.739 30.5778 90.1282 30.8683 89.818C33.146 87.3908 34.0485 87.3364 37.1798 86.0992C37.7248 85.887 37.3944 84.9446 36.8159 85.0979Z" fill="#FFBF19"/>
<path d="M39.9109 79.8245C35.8046 80.0558 29.5728 82.6036 26.513 86.3958C26.2587 86.7114 26.7068 87.1214 26.9657 86.8756C30.0789 84.0176 33.7071 81.2385 40.0241 80.8739C40.6921 80.8313 40.5717 79.7873 39.9109 79.8245Z" fill="#FFBF19"/>
</svg>
