<svg width="178" height="27" viewBox="0 0 178 27" fill="none" xmlns="http://www.w3.org/2000/svg">
<path d="M175.573 26.9999C176.911 26.9999 178 25.9136 178 24.5772C178 23.2408 176.911 22.1545 175.573 22.1545C174.235 22.1545 173.146 23.2408 173.146 24.5772C173.146 25.9136 174.235 26.9999 175.573 26.9999ZM175.573 23.0665C176.407 23.0665 177.086 23.7438 177.086 24.5763C177.086 25.4088 176.407 26.0861 175.573 26.0861C174.739 26.0861 174.06 25.4088 174.06 24.5763C174.061 23.7438 174.74 23.0665 175.573 23.0665Z" fill="#150035"/>
<path d="M152.963 26.9999C154.3 26.9999 155.389 25.9136 155.389 24.5772C155.389 23.2408 154.3 22.1545 152.963 22.1545C151.625 22.1545 150.536 23.2408 150.536 24.5772C150.536 25.9136 151.624 26.9999 152.963 26.9999ZM152.963 23.0665C153.796 23.0665 154.475 23.7438 154.475 24.5763C154.475 25.4088 153.796 26.0861 152.963 26.0861C152.129 26.0861 151.45 25.4088 151.45 24.5763C151.45 23.7438 152.129 23.0665 152.963 23.0665Z" fill="#150035"/>
<path d="M158.973 26.9999H161.949C162.467 26.9999 162.888 26.58 162.888 26.0633V23.0911C162.888 22.5744 162.468 22.1545 161.949 22.1545H158.973C158.456 22.1545 158.034 22.5744 158.034 23.0911V26.0633C158.034 26.58 158.456 26.9999 158.973 26.9999ZM161.949 23.0665L161.974 26.0624L158.973 26.0861C158.96 26.0861 158.949 26.0752 158.949 26.0624V23.0902L161.949 23.0665Z" fill="#150035"/>
<path d="M151.474 26.9999H154.451C154.969 26.9999 155.389 26.58 155.389 26.0633V23.0911C155.389 22.5744 154.969 22.1545 154.451 22.1545H151.474C150.957 22.1545 150.536 22.5744 150.536 23.0911V26.0633C150.536 26.58 150.957 26.9999 151.474 26.9999ZM154.451 23.0665L154.475 26.0624L151.474 26.0861C151.46 26.0861 151.45 26.0752 151.45 26.0624V23.0902L154.451 23.0665Z" fill="#150035"/>
<path d="M130.078 19.4817C131.416 19.4817 132.505 18.3945 132.505 17.0591C132.505 15.7227 131.416 14.6355 130.078 14.6355C128.741 14.6355 127.652 15.7227 127.652 17.0591C127.651 18.3954 128.74 19.4817 130.078 19.4817ZM130.078 15.5483C130.912 15.5483 131.591 16.2256 131.591 17.0591C131.591 17.8916 130.912 18.5689 130.078 18.5689C129.245 18.5689 128.566 17.8916 128.566 17.0591C128.565 16.2256 129.244 15.5483 130.078 15.5483Z" fill="#FFB000"/>
<path d="M128.59 19.4817H131.567C132.084 19.4817 132.505 19.0618 132.505 18.5452V15.573C132.505 15.0563 132.084 14.6355 131.567 14.6355H128.59C128.072 14.6355 127.652 15.0563 127.652 15.573V18.5452C127.651 19.0618 128.072 19.4817 128.59 19.4817ZM131.566 15.5483L131.59 18.5452L128.589 18.5689C128.576 18.5689 128.565 18.557 128.565 18.5452V15.573L131.566 15.5483Z" fill="#FFB000"/>
<path d="M174.085 19.4817H177.062C177.579 19.4817 178 19.0618 178 18.5452V15.573C178 15.0563 177.579 14.6355 177.062 14.6355H174.085C173.567 14.6355 173.146 15.0563 173.146 15.573V18.5452C173.147 19.0618 173.567 19.4817 174.085 19.4817ZM177.062 15.5483L177.086 18.5452L174.085 18.5689C174.071 18.5689 174.06 18.5579 174.06 18.5452V15.573L177.062 15.5483Z" fill="#150035"/>
<path d="M152.963 19.4817C154.3 19.4817 155.389 18.3945 155.389 17.0591C155.389 15.7227 154.3 14.6355 152.963 14.6355C151.625 14.6355 150.536 15.7227 150.536 17.0591C150.536 18.3954 151.624 19.4817 152.963 19.4817ZM152.963 15.5483C153.796 15.5483 154.475 16.2256 154.475 17.0591C154.475 17.8916 153.796 18.5689 152.963 18.5689C152.129 18.5689 151.45 17.8916 151.45 17.0591C151.45 16.2256 152.129 15.5483 152.963 15.5483Z" fill="#150035"/>
<path d="M160.004 15.092H160.918V19.0263H160.004V15.092Z" fill="#150035"/>
<path d="M158.491 16.6028H162.431V17.5156H158.491V16.6028Z" fill="#150035"/>
<path d="M167.617 22.6099H168.531V26.5433H167.617V22.6099Z" fill="#150035"/>
<path d="M166.105 24.1199H170.045V25.0327H166.105V24.1199Z" fill="#150035"/>
<path d="M143.715 26.9998H146.666C147.191 26.9998 147.618 26.5735 147.618 26.0505V23.1038C147.618 22.5799 147.191 22.1536 146.666 22.1536H143.715C143.19 22.1536 142.763 22.5799 142.763 23.1038V26.0505C142.763 26.5735 143.19 26.9998 143.715 26.9998ZM146.666 23.0664L146.703 26.0505L143.715 26.087C143.694 26.087 143.678 26.0705 143.678 26.0505V23.1038L146.666 23.0664Z" fill="#150035"/>
<path d="M128.59 26.9999H131.567C132.084 26.9999 132.505 26.58 132.505 26.0633V23.0911C132.505 22.5744 132.084 22.1545 131.567 22.1545H128.59C128.072 22.1545 127.652 22.5744 127.652 23.0911V26.0633C127.651 26.58 128.072 26.9999 128.59 26.9999ZM131.566 23.0665L131.59 26.0624L128.589 26.0861C128.575 26.0861 128.565 26.0752 128.565 26.0624V23.0902L131.566 23.0665Z" fill="#FFB000"/>
<path d="M122.579 19.4817C123.917 19.4817 125.006 18.3945 125.006 17.0591C125.006 15.7227 123.917 14.6355 122.579 14.6355C121.241 14.6355 120.152 15.7227 120.152 17.0591C120.152 18.3954 121.241 19.4817 122.579 19.4817ZM122.579 15.5483C123.413 15.5483 124.092 16.2256 124.092 17.0591C124.092 17.8916 123.413 18.5689 122.579 18.5689C121.745 18.5689 121.066 17.8916 121.066 17.0591C121.066 16.2256 121.745 15.5483 122.579 15.5483Z" fill="#FFB000"/>
<path d="M144.733 15.092H145.647V19.0263H144.733V15.092Z" fill="#150035"/>
<path d="M143.221 16.6028H147.16V17.5156H143.221V16.6028Z" fill="#150035"/>
<path d="M137.234 22.6099H138.148V26.5433H137.234V22.6099Z" fill="#FFB000"/>
<path d="M135.722 24.1199H139.661V25.0327H135.722V24.1199Z" fill="#FFB000"/>
<path d="M122.122 22.6099H123.036V26.5433H122.122V22.6099Z" fill="#FFB000"/>
<path d="M120.609 24.1199H124.549V25.0327H120.609V24.1199Z" fill="#FFB000"/>
<path d="M115.269 26.9999C116.607 26.9999 117.696 25.9136 117.696 24.5772C117.696 23.2408 116.607 22.1545 115.269 22.1545C113.931 22.1545 112.842 23.2408 112.842 24.5772C112.842 25.9136 113.931 26.9999 115.269 26.9999ZM115.269 23.0665C116.103 23.0665 116.782 23.7438 116.782 24.5763C116.782 25.4088 116.103 26.0861 115.269 26.0861C114.435 26.0861 113.756 25.4088 113.756 24.5763C113.756 23.7438 114.435 23.0665 115.269 23.0665Z" fill="#FFB000"/>
<path d="M107.77 19.4817C109.108 19.4817 110.197 18.3945 110.197 17.0591C110.197 15.7227 109.108 14.6355 107.77 14.6355C106.433 14.6355 105.344 15.7227 105.344 17.0591C105.343 18.3954 106.432 19.4817 107.77 19.4817ZM107.77 15.5483C108.604 15.5483 109.283 16.2256 109.283 17.0591C109.283 17.8916 108.604 18.5689 107.77 18.5689C106.937 18.5689 106.258 17.8916 106.258 17.0591C106.257 16.2256 106.937 15.5483 107.77 15.5483Z" fill="#FFB000"/>
<path d="M92.6578 26.9999C93.9954 26.9999 95.0844 25.9136 95.0844 24.5772C95.0844 23.2408 93.9954 22.1545 92.6578 22.1545C91.3193 22.1545 90.2303 23.2408 90.2303 24.5772C90.2303 25.9136 91.3193 26.9999 92.6578 26.9999ZM92.6578 23.0665C93.4917 23.0665 94.1701 23.7438 94.1701 24.5763C94.1701 25.4088 93.4917 26.0861 92.6578 26.0861C91.8231 26.0861 91.1446 25.4088 91.1446 24.5763C91.1456 23.7438 91.824 23.0665 92.6578 23.0665Z" fill="#FFB000"/>
<path d="M98.6684 26.9999H101.645C102.163 26.9999 102.583 26.58 102.583 26.0633V23.0911C102.583 22.5744 102.163 22.1545 101.645 22.1545H98.6684C98.1509 22.1545 97.7304 22.5744 97.7304 23.0911V26.0633C97.7304 26.58 98.1509 26.9999 98.6684 26.9999ZM101.645 23.0665L101.669 26.0624L98.6684 26.0861C98.6547 26.0861 98.6447 26.0752 98.6447 26.0624V23.0902L101.645 23.0665Z" fill="#FFB000"/>
<path d="M91.1693 26.9999H94.1454C94.6629 26.9999 95.0844 26.58 95.0844 26.0633V23.0911C95.0844 22.5744 94.6638 22.1545 94.1454 22.1545H91.1693C90.6518 22.1545 90.2303 22.5744 90.2303 23.0911V26.0633C90.2312 26.58 90.6518 26.9999 91.1693 26.9999ZM94.1463 23.0665L94.171 26.0624L91.1702 26.0861C91.1565 26.0861 91.1455 26.0752 91.1455 26.0624V23.0902L94.1463 23.0665Z" fill="#FFB000"/>
<path d="M69.7735 19.4817C71.1112 19.4817 72.2001 18.3945 72.2001 17.0591C72.2001 15.7227 71.1112 14.6355 69.7735 14.6355C68.435 14.6355 67.346 15.7227 67.346 17.0591C67.346 18.3954 68.435 19.4817 69.7735 19.4817ZM69.7735 15.5483C70.6074 15.5483 71.2858 16.2256 71.2858 17.0591C71.2858 17.8916 70.6074 18.5689 69.7735 18.5689C68.9388 18.5689 68.2603 17.8916 68.2603 17.0591C68.2603 16.2256 68.9388 15.5483 69.7735 15.5483Z" fill="#FFB000"/>
<path d="M68.285 19.4817H71.2611C71.7786 19.4817 72.2001 19.0618 72.2001 18.5452V15.573C72.2001 15.0563 71.7786 14.6355 71.2611 14.6355H68.285C67.7675 14.6355 67.346 15.0563 67.346 15.573V18.5452C67.346 19.0618 67.7675 19.4817 68.285 19.4817ZM71.2611 15.5483L71.2858 18.5452L68.285 18.5689C68.2713 18.5689 68.2603 18.5579 68.2603 18.5452V15.573L71.2611 15.5483Z" fill="#FFB000"/>
<path d="M113.78 19.4817H116.757C117.274 19.4817 117.696 19.0618 117.696 18.5452V15.573C117.696 15.0563 117.275 14.6355 116.757 14.6355H113.78C113.263 14.6355 112.842 15.0563 112.842 15.573V18.5452C112.842 19.0618 113.263 19.4817 113.78 19.4817ZM116.757 15.5483L116.782 18.5452L113.78 18.5689C113.767 18.5689 113.756 18.557 113.756 18.5452V15.573L116.757 15.5483Z" fill="#FFB000"/>
<path d="M92.6577 19.4817C93.9954 19.4817 95.0843 18.3945 95.0843 17.0591C95.0843 15.7227 93.9954 14.6355 92.6577 14.6355C91.3192 14.6355 90.2302 15.7227 90.2302 17.0591C90.2312 18.3954 91.3192 19.4817 92.6577 19.4817ZM92.6577 15.5483C93.4916 15.5483 94.17 16.2256 94.17 17.0591C94.17 17.8916 93.4916 18.5689 92.6577 18.5689C91.823 18.5689 91.1445 17.8916 91.1445 17.0591C91.1455 16.2256 91.8239 15.5483 92.6577 15.5483Z" fill="#FFB000"/>
<path d="M99.6999 15.092H100.614V19.0263H99.6999V15.092Z" fill="#FFB000"/>
<path d="M98.1867 16.6028H102.126V17.5156H98.1867V16.6028Z" fill="#FFB000"/>
<path d="M107.313 22.6101H108.227V26.5435H107.313V22.6101Z" fill="#FFB000"/>
<path d="M105.8 24.1199H109.74V25.0327H105.8V24.1199Z" fill="#FFB000"/>
<path d="M77.3871 19.4817C78.7247 19.4817 79.8136 18.3945 79.8136 17.0591C79.8136 15.7227 78.7247 14.6355 77.3871 14.6355C76.0485 14.6355 74.9596 15.7227 74.9596 17.0591C74.9596 18.3954 76.0485 19.4817 77.3871 19.4817ZM77.3871 15.5483C78.2209 15.5483 78.8993 16.2256 78.8993 17.0591C78.8993 17.8916 78.2209 18.5689 77.3871 18.5689C76.5523 18.5689 75.8739 17.8916 75.8739 17.0591C75.8739 16.2256 76.5523 15.5483 77.3871 15.5483Z" fill="#FFB000"/>
<path d="M68.285 26.9999H71.2611C71.7786 26.9999 72.2001 26.58 72.2001 26.0633V23.0911C72.2001 22.5744 71.7786 22.1545 71.2611 22.1545H68.285C67.7675 22.1545 67.346 22.5744 67.346 23.0911V26.0633C67.346 26.58 67.7675 26.9999 68.285 26.9999ZM71.2611 23.0665L71.2858 26.0624L68.285 26.0861C68.2713 26.0861 68.2603 26.0752 68.2603 26.0624V23.0902L71.2611 23.0665Z" fill="#FFB000"/>
<path d="M62.2744 19.4817C63.613 19.4817 64.7019 18.3945 64.7019 17.0591C64.7019 15.7227 63.613 14.6355 62.2744 14.6355C60.9368 14.6355 59.8478 15.7227 59.8478 17.0591C59.8478 18.3954 60.9359 19.4817 62.2744 19.4817ZM62.2744 15.5483C63.1092 15.5483 63.7876 16.2256 63.7876 17.0591C63.7876 17.8916 63.1092 18.5689 62.2744 18.5689C61.4406 18.5689 60.7622 17.8916 60.7622 17.0591C60.7622 16.2256 61.4406 15.5483 62.2744 15.5483Z" fill="#FFB000"/>
<path d="M84.4282 15.092H85.3425V19.0263H84.4282V15.092Z" fill="#FFB000"/>
<path d="M82.9159 16.6028H86.8557V17.5156H82.9159V16.6028Z" fill="#FFB000"/>
<path d="M61.8173 22.6101H62.7316V26.5435H61.8173V22.6101Z" fill="#FFB000"/>
<path d="M60.3051 24.1199H64.2448V25.0327H60.3051V24.1199Z" fill="#FFB000"/>
<path d="M54.9645 26.9999C56.3021 26.9999 57.3911 25.9136 57.3911 24.5772C57.3911 23.2408 56.3021 22.1545 54.9645 22.1545C53.6259 22.1545 52.537 23.2408 52.537 24.5772C52.537 25.9136 53.6259 26.9999 54.9645 26.9999ZM54.9645 23.0665C55.7983 23.0665 56.4767 23.7438 56.4767 24.5763C56.4767 25.4088 55.7983 26.0861 54.9645 26.0861C54.1297 26.0861 53.4513 25.4088 53.4513 24.5763C53.4513 23.7438 54.1297 23.0665 54.9645 23.0665Z" fill="#FFB000"/>
<path d="M47.4654 19.4817C48.8039 19.4817 49.8929 18.3945 49.8929 17.0591C49.8929 15.7227 48.8039 14.6355 47.4654 14.6355C46.1277 14.6355 45.0388 15.7227 45.0388 17.0591C45.0379 18.3954 46.1268 19.4817 47.4654 19.4817ZM47.4654 15.5483C48.3001 15.5483 48.9785 16.2256 48.9785 17.0591C48.9785 17.8916 48.3001 18.5689 47.4654 18.5689C46.6315 18.5689 45.9531 17.8916 45.9531 17.0591C45.9522 16.2256 46.6315 15.5483 47.4654 15.5483Z" fill="#FFB000"/>
<path d="M32.3527 26.9999C33.6913 26.9999 34.7802 25.9136 34.7802 24.5772C34.7802 23.2408 33.6913 22.1545 32.3527 22.1545C31.0151 22.1545 29.9262 23.2408 29.9262 24.5772C29.9262 25.9136 31.0151 26.9999 32.3527 26.9999ZM32.3527 23.0665C33.1875 23.0665 33.8659 23.7438 33.8659 24.5763C33.8659 25.4088 33.1875 26.0861 32.3527 26.0861C31.5189 26.0861 30.8405 25.4088 30.8405 24.5763C30.8405 23.7438 31.5189 23.0665 32.3527 23.0665Z" fill="#FFB000"/>
<path d="M38.3643 26.9999H41.3403C41.8578 26.9999 42.2793 26.58 42.2793 26.0633V23.0911C42.2793 22.5744 41.8588 22.1545 41.3403 22.1545H38.3643C37.8468 22.1545 37.4253 22.5744 37.4253 23.0911V26.0633C37.4253 26.58 37.8459 26.9999 38.3643 26.9999ZM41.3403 23.0665L41.365 26.0624L38.3643 26.0861C38.3506 26.0861 38.3396 26.0752 38.3396 26.0624V23.0902L41.3403 23.0665Z" fill="#FFB000"/>
<path d="M30.8642 26.9999H33.8412C34.3587 26.9999 34.7802 26.58 34.7802 26.0633V23.0911C34.7802 22.5744 34.3596 22.1545 33.8412 22.1545H30.8642C30.3467 22.1545 29.9262 22.5744 29.9262 23.0911V26.0633C29.9262 26.58 30.3467 26.9999 30.8642 26.9999ZM33.8412 23.0665L33.8659 26.0624L30.8642 26.0861C30.8505 26.0861 30.8405 26.0752 30.8405 26.0624V23.0902L33.8412 23.0665Z" fill="#FFB000"/>
<path d="M53.476 19.4817H56.4529C56.9704 19.4817 57.391 19.0618 57.391 18.5452V15.573C57.391 15.0563 56.9704 14.6355 56.4529 14.6355H53.476C52.9585 14.6355 52.537 15.0563 52.537 15.573V18.5452C52.537 19.0618 52.9575 19.4817 53.476 19.4817ZM56.4529 15.5483L56.4767 18.5452L53.476 18.5689C53.4622 18.5689 53.4513 18.5579 53.4513 18.5452V15.573L56.4529 15.5483Z" fill="#FFB000"/>
<path d="M47.0082 22.6101H47.9225V26.5435H47.0082V22.6101Z" fill="#FFB000"/>
<path d="M45.495 24.1199H49.4347V25.0327H45.495V24.1199Z" fill="#FFB000"/>
<path d="M23.1054 26.9998H26.0559C26.5807 26.9998 27.0077 26.5735 27.0077 26.0505V23.1038C27.0077 22.5799 26.5807 22.1536 26.0559 22.1536H23.1054C22.5806 22.1536 22.1536 22.5799 22.1536 23.1038V26.0505C22.1536 26.5735 22.5806 26.9998 23.1054 26.9998ZM26.0559 23.0664L26.0934 26.0505L23.1054 26.087C23.0844 26.087 23.0679 26.0705 23.0679 26.0505V23.1038L26.0559 23.0664Z" fill="#FFB000"/>
<path d="M17.082 19.4817C18.4196 19.4817 19.5085 18.3945 19.5085 17.0591C19.5085 15.7227 18.4196 14.6355 17.082 14.6355C15.7444 14.6355 14.6554 15.7227 14.6554 17.0591C14.6545 18.3954 15.7434 19.4817 17.082 19.4817ZM17.082 15.5483C17.9158 15.5483 18.5942 16.2256 18.5942 17.0591C18.5942 17.8916 17.9158 18.5689 17.082 18.5689C16.2481 18.5689 15.5697 17.8916 15.5697 17.0591C15.5688 16.2256 16.2472 15.5483 17.082 15.5483Z" fill="#FFB000"/>
<path d="M7.98009 26.9999H10.9571C11.4746 26.9999 11.8961 26.58 11.8961 26.0633V23.0911C11.8961 22.5744 11.4755 22.1545 10.9571 22.1545H7.98009C7.46259 22.1545 7.04201 22.5744 7.04201 23.0911V26.0633C7.04201 26.58 7.46259 26.9999 7.98009 26.9999ZM10.9571 23.0665L10.9818 26.0624L7.98009 26.0861C7.96638 26.0861 7.95632 26.0752 7.95632 26.0624V23.0902L10.9571 23.0665Z" fill="#FFB000"/>
<path d="M24.123 15.092H25.0373V19.0263H24.123V15.092Z" fill="#FFB000"/>
<path d="M22.6108 16.6028H26.5505V17.5156H22.6108V16.6028Z" fill="#FFB000"/>
<path d="M16.6248 22.6101H17.5391V26.5435H16.6248V22.6101Z" fill="#FFB000"/>
<path d="M15.1117 24.1199H19.0514V25.0327H15.1117V24.1199Z" fill="#FFB000"/>
<path d="M1.51225 22.6101H2.42656V26.5435H1.51225V22.6101Z" fill="#FFB000"/>
<path d="M-4.26769e-05 24.1199H3.9397V25.0327H-4.26769e-05V24.1199Z" fill="#FFB000"/>
<path d="M175.573 12.3646C176.911 12.3646 178 11.2783 178 9.94193C178 8.60555 176.911 7.51929 175.573 7.51929C174.235 7.51929 173.146 8.60555 173.146 9.94193C173.146 11.2783 174.235 12.3646 175.573 12.3646ZM175.573 8.4312C176.407 8.4312 177.086 9.10851 177.086 9.94101C177.086 10.7735 176.407 11.4509 175.573 11.4509C174.739 11.4509 174.06 10.7735 174.06 9.94101C174.06 9.10851 174.74 8.4312 175.573 8.4312Z" fill="#150035"/>
<path d="M168.074 4.84529C169.413 4.84529 170.502 3.75903 170.502 2.42265C170.502 1.08626 169.413 0 168.074 0C166.737 0 165.648 1.08626 165.648 2.42265C165.648 3.75903 166.737 4.84529 168.074 4.84529ZM168.074 0.912831C168.909 0.912831 169.587 1.59014 169.587 2.42265C169.587 3.25515 168.909 3.93246 168.074 3.93246C167.24 3.93246 166.562 3.25515 166.562 2.42265C166.562 1.59014 167.24 0.912831 168.074 0.912831Z" fill="#150035"/>
<path d="M152.963 12.3646C154.3 12.3646 155.389 11.2783 155.389 9.94193C155.389 8.60555 154.3 7.51929 152.963 7.51929C151.625 7.51929 150.536 8.60555 150.536 9.94193C150.536 11.2783 151.624 12.3646 152.963 12.3646ZM152.963 8.4312C153.796 8.4312 154.475 9.10851 154.475 9.94101C154.475 10.7735 153.796 11.4509 152.963 11.4509C152.129 11.4509 151.45 10.7735 151.45 9.94101C151.45 9.10851 152.129 8.4312 152.963 8.4312Z" fill="#150035"/>
<path d="M158.973 12.3646H161.949C162.467 12.3646 162.888 11.9447 162.888 11.428V8.45585C162.888 7.93919 162.468 7.51929 161.949 7.51929H158.973C158.456 7.51929 158.034 7.93919 158.034 8.45585V11.428C158.034 11.9447 158.456 12.3646 158.973 12.3646ZM161.949 8.4312L161.974 11.4271L158.973 11.4509C158.96 11.4509 158.949 11.4399 158.949 11.4271V8.45493L161.949 8.4312Z" fill="#150035"/>
<path d="M174.085 4.84529H177.062C177.579 4.84529 178 4.42539 178 3.90873V0.936565C178 0.419903 177.579 0 177.062 0H174.085C173.567 0 173.146 0.419903 173.146 0.936565V3.90873C173.147 4.42539 173.567 4.84529 174.085 4.84529ZM177.062 0.912831L177.086 3.90873L174.085 3.93246C174.071 3.93246 174.06 3.9215 174.06 3.90873V0.936565L177.062 0.912831Z" fill="#150035"/>
<path d="M151.474 12.3646H154.451C154.969 12.3646 155.389 11.9447 155.389 11.428V8.45585C155.389 7.93919 154.969 7.51929 154.451 7.51929H151.474C150.957 7.51929 150.536 7.93919 150.536 8.45585V11.428C150.536 11.9447 150.957 12.3646 151.474 12.3646ZM154.451 8.4312L154.475 11.4271L151.474 11.4509C151.46 11.4509 151.45 11.4399 151.45 11.4271V8.45493L154.451 8.4312Z" fill="#150035"/>
<path d="M130.078 4.84529C131.416 4.84529 132.505 3.75903 132.505 2.42265C132.505 1.08626 131.416 0 130.078 0C128.741 0 127.652 1.08626 127.652 2.42265C127.651 3.75903 128.74 4.84529 130.078 4.84529ZM130.078 0.912831C130.912 0.912831 131.591 1.59014 131.591 2.42265C131.591 3.25515 130.912 3.93246 130.078 3.93246C129.245 3.93246 128.566 3.25515 128.566 2.42265C128.566 1.59014 129.244 0.912831 130.078 0.912831Z" fill="#FFB000"/>
<path d="M128.59 4.84529H131.567C132.084 4.84529 132.505 4.42539 132.505 3.90873V0.936565C132.505 0.419903 132.084 0 131.567 0H128.59C128.072 0 127.652 0.419903 127.652 0.936565V3.90873C127.651 4.42539 128.072 4.84529 128.59 4.84529ZM131.566 0.912831L131.59 3.90873L128.589 3.93246C128.575 3.93246 128.565 3.9215 128.565 3.90873V0.936565L131.566 0.912831Z" fill="#FFB000"/>
<path d="M152.963 4.84529C154.3 4.84529 155.389 3.75903 155.389 2.42265C155.389 1.08626 154.3 0 152.963 0C151.625 0 150.536 1.08626 150.536 2.42265C150.536 3.75903 151.624 4.84529 152.963 4.84529ZM152.963 0.912831C153.796 0.912831 154.475 1.59014 154.475 2.42265C154.475 3.25515 153.796 3.93246 152.963 3.93246C152.129 3.93246 151.45 3.25515 151.45 2.42265C151.45 1.59014 152.129 0.912831 152.963 0.912831Z" fill="#150035"/>
<path d="M167.617 7.97461H168.531V11.908H167.617V7.97461Z" fill="#150035"/>
<path d="M166.105 9.48438H170.045V10.3972H166.105V9.48438Z" fill="#150035"/>
<path d="M143.715 12.3643H146.666C147.191 12.3643 147.618 11.938 147.618 11.414V8.46742C147.618 7.94437 147.191 7.51807 146.666 7.51807H143.715C143.19 7.51807 142.763 7.94437 142.763 8.46742V11.414C142.763 11.938 143.19 12.3643 143.715 12.3643ZM146.666 8.4309L146.703 11.414L143.715 11.4514C143.695 11.4514 143.678 11.4341 143.678 11.414V8.46742L146.666 8.4309Z" fill="#150035"/>
<path d="M137.691 4.84529C139.029 4.84529 140.118 3.75903 140.118 2.42265C140.118 1.08626 139.029 0 137.691 0C136.353 0 135.264 1.08626 135.264 2.42265C135.264 3.75903 136.353 4.84529 137.691 4.84529ZM137.691 0.912831C138.525 0.912831 139.203 1.59014 139.203 2.42265C139.203 3.25515 138.525 3.93246 137.691 3.93246C136.857 3.93246 136.179 3.25515 136.179 2.42265C136.179 1.59014 136.857 0.912831 137.691 0.912831Z" fill="#FFB000"/>
<path d="M128.59 12.3646H131.567C132.084 12.3646 132.505 11.9447 132.505 11.428V8.45585C132.505 7.93919 132.084 7.51929 131.567 7.51929H128.59C128.072 7.51929 127.652 7.93919 127.652 8.45585V11.428C127.651 11.9447 128.072 12.3646 128.59 12.3646ZM131.566 8.4312L131.59 11.4271L128.589 11.4509C128.575 11.4509 128.565 11.4399 128.565 11.4271V8.45493L131.566 8.4312Z" fill="#FFB000"/>
<path d="M122.579 4.84529C123.917 4.84529 125.006 3.75903 125.006 2.42265C125.006 1.08626 123.917 0 122.579 0C121.241 0 120.152 1.08626 120.152 2.42265C120.152 3.75903 121.241 4.84529 122.579 4.84529ZM122.579 0.912831C123.413 0.912831 124.092 1.59014 124.092 2.42265C124.092 3.25515 123.413 3.93246 122.579 3.93246C121.745 3.93246 121.066 3.25515 121.066 2.42265C121.066 1.59014 121.745 0.912831 122.579 0.912831Z" fill="#FFB000"/>
<path d="M144.733 0.456543H145.647V4.38992H144.733V0.456543Z" fill="#150035"/>
<path d="M143.221 1.96631H147.16V2.87914H143.221V1.96631Z" fill="#150035"/>
<path d="M137.234 7.97461H138.148V11.908H137.234V7.97461Z" fill="#FFB000"/>
<path d="M135.722 9.48438H139.661V10.3972H135.722V9.48438Z" fill="#FFB000"/>
<path d="M122.122 7.97461H123.036V11.908H122.122V7.97461Z" fill="#FFB000"/>
<path d="M120.609 9.48438H124.549V10.3972H120.609V9.48438Z" fill="#FFB000"/>
<path d="M115.269 12.3646C116.607 12.3646 117.696 11.2783 117.696 9.94193C117.696 8.60555 116.607 7.51929 115.269 7.51929C113.931 7.51929 112.842 8.60555 112.842 9.94193C112.842 11.2783 113.931 12.3646 115.269 12.3646ZM115.269 8.4312C116.103 8.4312 116.782 9.10851 116.782 9.94101C116.782 10.7735 116.103 11.4509 115.269 11.4509C114.435 11.4509 113.756 10.7735 113.756 9.94101C113.756 9.10851 114.435 8.4312 115.269 8.4312Z" fill="#FFB000"/>
<path d="M107.77 4.84529C109.108 4.84529 110.197 3.75903 110.197 2.42265C110.197 1.08626 109.108 0 107.77 0C106.433 0 105.344 1.08626 105.344 2.42265C105.343 3.75903 106.432 4.84529 107.77 4.84529ZM107.77 0.912831C108.604 0.912831 109.283 1.59014 109.283 2.42265C109.283 3.25515 108.604 3.93246 107.77 3.93246C106.937 3.93246 106.258 3.25515 106.258 2.42265C106.258 1.59014 106.937 0.912831 107.77 0.912831Z" fill="#FFB000"/>
<path d="M92.6578 12.3646C93.9954 12.3646 95.0844 11.2783 95.0844 9.94193C95.0844 8.60555 93.9954 7.51929 92.6578 7.51929C91.3193 7.51929 90.2303 8.60555 90.2303 9.94193C90.2303 11.2783 91.3193 12.3646 92.6578 12.3646ZM92.6578 8.4312C93.4917 8.4312 94.1701 9.10851 94.1701 9.94101C94.1701 10.7735 93.4917 11.4509 92.6578 11.4509C91.8231 11.4509 91.1446 10.7735 91.1446 9.94101C91.1446 9.10851 91.824 8.4312 92.6578 8.4312Z" fill="#FFB000"/>
<path d="M98.6684 12.3646H101.645C102.163 12.3646 102.583 11.9447 102.583 11.428V8.45585C102.583 7.93919 102.163 7.51929 101.645 7.51929H98.6684C98.1509 7.51929 97.7304 7.93919 97.7304 8.45585V11.428C97.7304 11.9447 98.1509 12.3646 98.6684 12.3646ZM101.645 8.4312L101.669 11.4271L98.6684 11.4509C98.6547 11.4509 98.6447 11.4399 98.6447 11.4271V8.45493L101.645 8.4312Z" fill="#FFB000"/>
<path d="M91.1693 12.3646H94.1454C94.6629 12.3646 95.0844 11.9447 95.0844 11.428V8.45585C95.0844 7.93919 94.6638 7.51929 94.1454 7.51929H91.1693C90.6518 7.51929 90.2303 7.93919 90.2303 8.45585V11.428C90.2312 11.9447 90.6518 12.3646 91.1693 12.3646ZM94.1463 8.4312L94.171 11.4271L91.1702 11.4509C91.1565 11.4509 91.1455 11.4399 91.1455 11.4271V8.45493L94.1463 8.4312Z" fill="#FFB000"/>
<path d="M69.7735 4.84529C71.1112 4.84529 72.2001 3.75903 72.2001 2.42265C72.2001 1.08626 71.1112 0 69.7735 0C68.435 0 67.346 1.08626 67.346 2.42265C67.346 3.75903 68.435 4.84529 69.7735 4.84529ZM69.7735 0.912831C70.6074 0.912831 71.2858 1.59014 71.2858 2.42265C71.2858 3.25515 70.6074 3.93246 69.7735 3.93246C68.9388 3.93246 68.2603 3.25515 68.2603 2.42265C68.2603 1.59014 68.9388 0.912831 69.7735 0.912831Z" fill="#FFB000"/>
<path d="M68.285 4.84529H71.2611C71.7786 4.84529 72.2001 4.42539 72.2001 3.90873V0.936565C72.2001 0.419903 71.7786 0 71.2611 0H68.285C67.7675 0 67.346 0.419903 67.346 0.936565V3.90873C67.346 4.42539 67.7675 4.84529 68.285 4.84529ZM71.2611 0.912831L71.2858 3.90873L68.285 3.93246C68.2713 3.93246 68.2603 3.9215 68.2603 3.90873V0.936565L71.2611 0.912831Z" fill="#FFB000"/>
<path d="M113.78 4.84529H116.757C117.274 4.84529 117.696 4.42539 117.696 3.90873V0.936565C117.696 0.419903 117.275 0 116.757 0H113.78C113.263 0 112.842 0.419903 112.842 0.936565V3.90873C112.842 4.42539 113.263 4.84529 113.78 4.84529ZM116.757 0.912831L116.782 3.90873L113.78 3.93246C113.766 3.93246 113.756 3.9215 113.756 3.90873V0.936565L116.757 0.912831Z" fill="#FFB000"/>
<path d="M92.6577 4.84529C93.9954 4.84529 95.0843 3.75903 95.0843 2.42265C95.0843 1.08626 93.9954 0 92.6577 0C91.3192 0 90.2302 1.08626 90.2302 2.42265C90.2312 3.75903 91.3192 4.84529 92.6577 4.84529ZM92.6577 0.912831C93.4916 0.912831 94.17 1.59014 94.17 2.42265C94.17 3.25515 93.4916 3.93246 92.6577 3.93246C91.823 3.93246 91.1445 3.25515 91.1445 2.42265C91.1445 1.59014 91.8239 0.912831 92.6577 0.912831Z" fill="#FFB000"/>
<path d="M99.6999 0.456543H100.614V4.38992H99.6999V0.456543Z" fill="#FFB000"/>
<path d="M98.1867 1.96631H102.126V2.87914H98.1867V1.96631Z" fill="#FFB000"/>
<path d="M83.4105 12.3643H86.3619C86.8867 12.3643 87.3127 11.938 87.3127 11.414V8.46742C87.3127 7.94437 86.8858 7.51807 86.3619 7.51807H83.4105C82.8857 7.51807 82.4596 7.94437 82.4596 8.46742V11.414C82.4587 11.938 82.8857 12.3643 83.4105 12.3643ZM86.361 8.4309L86.3975 11.414L83.4096 11.4514C83.3885 11.4514 83.373 11.435 83.373 11.414V8.46742L86.361 8.4309Z" fill="#FFB000"/>
<path d="M77.3871 4.84529C78.7247 4.84529 79.8136 3.75903 79.8136 2.42265C79.8136 1.08626 78.7247 0 77.3871 0C76.0485 0 74.9596 1.08626 74.9596 2.42265C74.9596 3.75903 76.0485 4.84529 77.3871 4.84529ZM77.3871 0.912831C78.2209 0.912831 78.8993 1.59014 78.8993 2.42265C78.8993 3.25515 78.2209 3.93246 77.3871 3.93246C76.5523 3.93246 75.8739 3.25515 75.8739 2.42265C75.8739 1.59014 76.5523 0.912831 77.3871 0.912831Z" fill="#FFB000"/>
<path d="M68.285 12.3646H71.2611C71.7786 12.3646 72.2001 11.9447 72.2001 11.428V8.45585C72.2001 7.93919 71.7786 7.51929 71.2611 7.51929H68.285C67.7675 7.51929 67.346 7.93919 67.346 8.45585V11.428C67.346 11.9447 67.7675 12.3646 68.285 12.3646ZM71.2611 8.4312L71.2858 11.4271L68.285 11.4509C68.2713 11.4509 68.2603 11.4399 68.2603 11.4271V8.45493L71.2611 8.4312Z" fill="#FFB000"/>
<path d="M62.2744 4.84529C63.613 4.84529 64.7019 3.75903 64.7019 2.42265C64.7019 1.08626 63.613 0 62.2744 0C60.9368 0 59.8478 1.08626 59.8478 2.42265C59.8478 3.75903 60.9359 4.84529 62.2744 4.84529ZM62.2744 0.912831C63.1092 0.912831 63.7876 1.59014 63.7876 2.42265C63.7876 3.25515 63.1092 3.93246 62.2744 3.93246C61.4406 3.93246 60.7622 3.25515 60.7622 2.42265C60.7622 1.59014 61.4406 0.912831 62.2744 0.912831Z" fill="#FFB000"/>
<path d="M84.4282 0.456543H85.3425V4.38992H84.4282V0.456543Z" fill="#FFB000"/>
<path d="M82.9159 1.96631H86.8557V2.87914H82.9159V1.96631Z" fill="#FFB000"/>
<path d="M76.9299 7.97461H77.8442V11.908H76.9299V7.97461Z" fill="#FFB000"/>
<path d="M75.4167 9.48438H79.3564V10.3972H75.4167V9.48438Z" fill="#FFB000"/>
<path d="M61.8173 7.97461H62.7316V11.908H61.8173V7.97461Z" fill="#FFB000"/>
<path d="M60.3051 9.48438H64.2448V10.3972H60.3051V9.48438Z" fill="#FFB000"/>
<path d="M54.9645 12.3646C56.3021 12.3646 57.3911 11.2783 57.3911 9.94193C57.3911 8.60555 56.3021 7.51929 54.9645 7.51929C53.6259 7.51929 52.537 8.60555 52.537 9.94193C52.537 11.2783 53.6259 12.3646 54.9645 12.3646ZM54.9645 8.4312C55.7983 8.4312 56.4767 9.10851 56.4767 9.94101C56.4767 10.7735 55.7983 11.4509 54.9645 11.4509C54.1297 11.4509 53.4513 10.7735 53.4513 9.94101C53.4513 9.10851 54.1297 8.4312 54.9645 8.4312Z" fill="#FFB000"/>
<path d="M32.3527 12.3646C33.6913 12.3646 34.7802 11.2783 34.7802 9.94193C34.7802 8.60555 33.6913 7.51929 32.3527 7.51929C31.0151 7.51929 29.9262 8.60555 29.9262 9.94193C29.9262 11.2783 31.0151 12.3646 32.3527 12.3646ZM32.3527 8.4312C33.1875 8.4312 33.8659 9.10851 33.8659 9.94101C33.8659 10.7735 33.1875 11.4509 32.3527 11.4509C31.5189 11.4509 30.8405 10.7735 30.8405 9.94101C30.8405 9.10851 31.5189 8.4312 32.3527 8.4312Z" fill="#FFB000"/>
<path d="M38.3643 12.3646H41.3403C41.8578 12.3646 42.2793 11.9447 42.2793 11.428V8.45585C42.2793 7.93919 41.8588 7.51929 41.3403 7.51929H38.3643C37.8468 7.51929 37.4253 7.93919 37.4253 8.45585V11.428C37.4253 11.9447 37.8459 12.3646 38.3643 12.3646ZM41.3403 8.4312L41.365 11.4271L38.3643 11.4509C38.3506 11.4509 38.3396 11.4399 38.3396 11.4271V8.45493L41.3403 8.4312Z" fill="#FFB000"/>
<path d="M30.8642 12.3646H33.8412C34.3587 12.3646 34.7802 11.9447 34.7802 11.428V8.45585C34.7802 7.93919 34.3596 7.51929 33.8412 7.51929H30.8642C30.3467 7.51929 29.9262 7.93919 29.9262 8.45585V11.428C29.9262 11.9447 30.3467 12.3646 30.8642 12.3646ZM33.8412 8.4312L33.8659 11.4271L30.8642 11.4509C30.8505 11.4509 30.8405 11.4399 30.8405 11.4271V8.45493L33.8412 8.4312Z" fill="#FFB000"/>
<path d="M32.3529 4.84529C33.6914 4.84529 34.7803 3.75903 34.7803 2.42265C34.7803 1.08626 33.6914 0 32.3529 0C31.0152 0 29.9263 1.08626 29.9263 2.42265C29.9263 3.75903 31.0152 4.84529 32.3529 4.84529ZM32.3529 0.912831C33.1876 0.912831 33.866 1.59014 33.866 2.42265C33.866 3.25515 33.1876 3.93246 32.3529 3.93246C31.519 3.93246 30.8406 3.25515 30.8406 2.42265C30.8406 1.59014 31.519 0.912831 32.3529 0.912831Z" fill="#FFB000"/>
<path d="M39.3948 0.456543H40.3091V4.38992H39.3948V0.456543Z" fill="#FFB000"/>
<path d="M37.8826 1.96631H41.8223V2.87914H37.8826V1.96631Z" fill="#FFB000"/>
<path d="M47.0082 7.97461H47.9225V11.908H47.0082V7.97461Z" fill="#FFB000"/>
<path d="M45.495 9.48438H49.4347V10.3972H45.495V9.48438Z" fill="#FFB000"/>
<path d="M23.1054 12.3643H26.0559C26.5807 12.3643 27.0077 11.938 27.0077 11.414V8.46742C27.0077 7.94437 26.5807 7.51807 26.0559 7.51807H23.1054C22.5806 7.51807 22.1536 7.94437 22.1536 8.46742V11.414C22.1536 11.938 22.5806 12.3643 23.1054 12.3643ZM26.0559 8.4309L26.0934 11.414L23.1054 11.4514C23.0853 11.4514 23.0679 11.4341 23.0679 11.414V8.46742L26.0559 8.4309Z" fill="#FFB000"/>
<path d="M16.6248 7.97461H17.5391V11.908H16.6248V7.97461Z" fill="#FFB000"/>
<path d="M15.1117 9.48438H19.0514V10.3972H15.1117V9.48438Z" fill="#FFB000"/>
</svg>
