<svg width="248" height="18" viewBox="0 0 248 18" fill="none" xmlns="http://www.w3.org/2000/svg">
<path d="M3.37344 18.0002C1.51328 18.0002 0 16.4175 0 14.472C0 12.5278 1.51328 10.9451 3.37344 10.9451C5.23232 10.9451 6.7456 12.5278 6.7456 14.472C6.74687 16.4188 5.23359 18.0002 3.37344 18.0002ZM3.37344 12.274C2.21338 12.274 1.2706 13.26 1.2706 14.472C1.2706 15.6853 2.21338 16.6713 3.37344 16.6713C4.53222 16.6713 5.475 15.6853 5.475 14.472C5.47627 13.26 4.53222 12.274 3.37344 12.274Z" fill="#150035"/>
<path d="M13.7948 7.05637C11.9359 7.05637 10.4227 5.47365 10.4227 3.52813C10.4227 1.58394 11.9359 0.0012207 13.7948 0.0012207C15.6537 0.0012207 17.167 1.58394 17.167 3.52813C17.167 5.47365 15.6537 7.05637 13.7948 7.05637ZM13.7948 1.33012C12.636 1.33012 11.6933 2.31617 11.6933 3.52813C11.6933 4.74142 12.636 5.72747 13.7948 5.72747C14.9536 5.72747 15.8964 4.74142 15.8964 3.52813C15.8964 2.31617 14.9536 1.33012 13.7948 1.33012Z" fill="#150035"/>
<path d="M34.7953 18.0002C32.9364 18.0002 31.4231 16.4175 31.4231 14.472C31.4231 12.5278 32.9364 10.9451 34.7953 10.9451C36.6554 10.9451 38.1687 12.5278 38.1687 14.472C38.1687 16.4188 36.6554 18.0002 34.7953 18.0002ZM34.7953 12.274C33.6365 12.274 32.6937 13.26 32.6937 14.472C32.6937 15.6853 33.6365 16.6713 34.7953 16.6713C35.9553 16.6713 36.8981 15.6853 36.8981 14.472C36.8981 13.26 35.9553 12.274 34.7953 12.274Z" fill="#150035"/>
<path d="M36.8638 18.0002H32.7267C32.0076 18.0002 31.4231 17.3889 31.4231 16.6354V12.3099C31.4231 11.5577 32.0076 10.9451 32.7267 10.9451H36.8638C37.5829 10.9451 38.1687 11.5564 38.1687 12.3099V16.6354C38.1687 17.3889 37.5829 18.0002 36.8638 18.0002ZM32.7267 12.274L32.6937 16.6354L36.8638 16.6713C36.8828 16.6713 36.8981 16.6554 36.8981 16.6354V12.3099L32.7267 12.274Z" fill="#150035"/>
<path d="M66.5983 7.05637C64.7394 7.05637 63.2261 5.47365 63.2261 3.52813C63.2261 1.58394 64.7394 0.0012207 66.5983 0.0012207C68.4584 0.0012207 69.9717 1.58394 69.9717 3.52813C69.9705 5.47365 68.4572 7.05637 66.5983 7.05637ZM66.5983 1.33012C65.4395 1.33012 64.4967 2.31617 64.4967 3.52813C64.4967 4.74142 65.4395 5.72747 66.5983 5.72747C67.7584 5.72747 68.7011 4.74142 68.7011 3.52813C68.6999 2.31617 67.7571 1.33012 66.5983 1.33012Z" fill="#FFB000"/>
<path d="M68.6655 7.05637H64.5298C63.8106 7.05637 63.2249 6.44507 63.2249 5.69159V1.36468C63.2249 0.612516 63.8093 0.0012207 64.5298 0.0012207H68.6655C69.3847 0.0012207 69.9704 0.612516 69.9704 1.36468V5.69159C69.9704 6.44375 69.386 7.05637 68.6655 7.05637ZM64.5298 1.33012L64.4954 5.69159L68.6655 5.72747C68.6846 5.72747 68.6998 5.71152 68.6998 5.69159V1.36468L64.5298 1.33012Z" fill="#FFB000"/>
<path d="M34.7953 7.05637C32.9364 7.05637 31.4231 5.47365 31.4231 3.52813C31.4231 1.58394 32.9364 0.0012207 34.7953 0.0012207C36.6554 0.0012207 38.1687 1.58394 38.1687 3.52813C38.1687 5.47365 36.6554 7.05637 34.7953 7.05637ZM34.7953 1.33012C33.6365 1.33012 32.6937 2.31617 32.6937 3.52813C32.6937 4.74142 33.6365 5.72747 34.7953 5.72747C35.9553 5.72747 36.8981 4.74142 36.8981 3.52813C36.8981 2.31617 35.9553 1.33012 34.7953 1.33012Z" fill="#150035"/>
<path d="M25.0104 0.665771H23.7398V6.39202H25.0104V0.665771Z" fill="#150035"/>
<path d="M27.112 2.86353H21.637V4.19243H27.112V2.86353Z" fill="#150035"/>
<path d="M14.4301 11.6091H13.1595V17.3354H14.4301V11.6091Z" fill="#150035"/>
<path d="M16.533 13.8086H11.058V15.1375H16.533V13.8086Z" fill="#150035"/>
<path d="M47.6473 18.0002H43.5458C42.8165 18.0002 42.2244 17.3796 42.2244 16.6168V12.3285C42.2244 11.5657 42.8178 10.9451 43.5458 10.9451H47.6473C48.3766 10.9451 48.97 11.5657 48.97 12.3285V16.6168C48.97 17.3809 48.3766 18.0002 47.6473 18.0002ZM43.5458 12.274L43.495 16.6168L47.6473 16.6713C47.6753 16.6713 47.6994 16.6474 47.6994 16.6168V12.3285L43.5458 12.274Z" fill="#150035"/>
<path d="M5.42291 7.05648H1.32269C0.593369 7.05648 0 6.43588 0 5.67309V1.38339C0 0.620598 0.593369 0 1.32269 0H5.42291C6.15223 0 6.7456 0.620598 6.7456 1.38339V5.67309C6.74687 6.43588 6.1535 7.05648 5.42291 7.05648ZM1.32269 1.33023L1.2706 5.67309L5.42291 5.72757C5.45086 5.72757 5.475 5.70233 5.475 5.67309V1.38339L1.32269 1.33023Z" fill="#150035"/>
<path d="M68.6655 18.0002H64.5298C63.8106 18.0002 63.2249 17.3889 63.2249 16.6354V12.3099C63.2249 11.5577 63.8093 10.9451 64.5298 10.9451H68.6655C69.3847 10.9451 69.9704 11.5564 69.9704 12.3099V16.6354C69.9704 17.3889 69.386 18.0002 68.6655 18.0002ZM64.5298 12.274L64.4954 16.6354L68.6655 16.6713C68.6846 16.6713 68.6998 16.6554 68.6998 16.6354V12.3099L64.5298 12.274Z" fill="#FFB000"/>
<path d="M77.0197 7.05637C75.1596 7.05637 73.6463 5.47365 73.6463 3.52813C73.6463 1.58394 75.1596 0.0012207 77.0197 0.0012207C78.8786 0.0012207 80.3919 1.58394 80.3919 3.52813C80.3919 5.47365 78.8786 7.05637 77.0197 7.05637ZM77.0197 1.33012C75.8597 1.33012 74.9169 2.31617 74.9169 3.52813C74.9169 4.74142 75.8597 5.72747 77.0197 5.72747C78.1785 5.72747 79.1213 4.74142 79.1213 3.52813C79.1213 2.31617 78.1785 1.33012 77.0197 1.33012Z" fill="#FFB000"/>
<path d="M46.2319 0.665771H44.9613V6.39202H46.2319V0.665771Z" fill="#150035"/>
<path d="M48.3347 2.86353H42.8597V4.19243H48.3347V2.86353Z" fill="#150035"/>
<path d="M56.6533 11.6091H55.3827V17.3354H56.6533V11.6091Z" fill="#FFB000"/>
<path d="M58.7561 13.8086H53.2811V15.1375H58.7561V13.8086Z" fill="#FFB000"/>
<path d="M77.6551 11.6091H76.3845V17.3354H77.6551V11.6091Z" fill="#FFB000"/>
<path d="M79.7566 13.8086H74.2816V15.1375H79.7566V13.8086Z" fill="#FFB000"/>
<path d="M87.1781 18C85.3192 18 83.806 16.4172 83.806 14.4717C83.806 12.5275 85.3192 10.9448 87.1781 10.9448C89.037 10.9448 90.5503 12.5275 90.5503 14.4717C90.5503 16.4186 89.037 18 87.1781 18ZM87.1781 12.2737C86.0193 12.2737 85.0766 13.2598 85.0766 14.4717C85.0766 15.685 86.0193 16.6711 87.1781 16.6711C88.3369 16.6711 89.2797 15.685 89.2797 14.4717C89.2797 13.2598 88.3369 12.2737 87.1781 12.2737Z" fill="#FFB000"/>
<path d="M97.5984 7.05637C95.7395 7.05637 94.2262 5.47365 94.2262 3.52813C94.2262 1.58394 95.7395 0.0012207 97.5984 0.0012207C99.4585 0.0012207 100.972 1.58394 100.972 3.52813C100.972 5.47365 99.4585 7.05637 97.5984 7.05637ZM97.5984 1.33012C96.4396 1.33012 95.4968 2.31617 95.4968 3.52813C95.4968 4.74142 96.4396 5.72747 97.5984 5.72747C98.7584 5.72747 99.7012 4.74142 99.7012 3.52813C99.7012 2.31617 98.7584 1.33012 97.5984 1.33012Z" fill="#FFB000"/>
<path d="M118.6 18C116.74 18 115.227 16.4172 115.227 14.4717C115.227 12.5275 116.74 10.9448 118.6 10.9448C120.459 10.9448 121.972 12.5275 121.972 14.4717C121.972 16.4186 120.46 18 118.6 18ZM118.6 12.2737C117.44 12.2737 116.497 13.2598 116.497 14.4717C116.497 15.685 117.44 16.6711 118.6 16.6711C119.759 16.6711 120.702 15.685 120.702 14.4717C120.702 13.2598 119.759 12.2737 118.6 12.2737Z" fill="#FFB000"/>
<path d="M120.669 18H116.531C115.812 18 115.227 17.3887 115.227 16.6352V12.3096C115.227 11.5574 115.811 10.9448 116.531 10.9448H120.669C121.388 10.9448 121.972 11.5561 121.972 12.3096V16.6352C121.972 17.3887 121.388 18 120.669 18ZM116.531 12.2737L116.497 16.6352L120.669 16.6711C120.688 16.6711 120.702 16.6551 120.702 16.6352V12.3096L116.531 12.2737Z" fill="#FFB000"/>
<path d="M150.402 7.05637C148.542 7.05637 147.028 5.47365 147.028 3.52813C147.028 1.58394 148.542 0.0012207 150.402 0.0012207C152.261 0.0012207 153.774 1.58394 153.774 3.52813C153.775 5.47365 152.262 7.05637 150.402 7.05637ZM150.402 1.33012C149.242 1.33012 148.299 2.31617 148.299 3.52813C148.299 4.74142 149.242 5.72747 150.402 5.72747C151.56 5.72747 152.503 4.74142 152.503 3.52813C152.505 2.31617 151.562 1.33012 150.402 1.33012Z" fill="#FFB000"/>
<path d="M152.47 7.05637H148.333C147.614 7.05637 147.028 6.44507 147.028 5.69159V1.36468C147.028 0.612516 147.613 0.0012207 148.333 0.0012207H152.47C153.189 0.0012207 153.774 0.612516 153.774 1.36468V5.69159C153.775 6.44375 153.189 7.05637 152.47 7.05637ZM148.334 1.33012L148.3 5.69159L152.472 5.72747C152.491 5.72747 152.505 5.71152 152.505 5.69159V1.36468L148.334 1.33012Z" fill="#FFB000"/>
<path d="M89.2467 7.05637H85.1096C84.3904 7.05637 83.806 6.44507 83.806 5.69159V1.36468C83.806 0.612516 84.3904 0.0012207 85.1096 0.0012207H89.2467C89.9658 0.0012207 90.5503 0.612516 90.5503 1.36468V5.69159C90.5503 6.44375 89.9658 7.05637 89.2467 7.05637ZM85.1096 1.33012L85.0766 5.69159L89.2467 5.72747C89.2657 5.72747 89.2797 5.71152 89.2797 5.69159V1.36468L85.1096 1.33012Z" fill="#FFB000"/>
<path d="M118.6 7.05637C116.74 7.05637 115.227 5.47365 115.227 3.52813C115.227 1.58394 116.74 0.0012207 118.6 0.0012207C120.459 0.0012207 121.972 1.58394 121.972 3.52813C121.972 5.47365 120.46 7.05637 118.6 7.05637ZM118.6 1.33012C117.44 1.33012 116.497 2.31617 116.497 3.52813C116.497 4.74142 117.44 5.72747 118.6 5.72747C119.759 5.72747 120.702 4.74142 120.702 3.52813C120.702 2.31617 119.759 1.33012 118.6 1.33012Z" fill="#FFB000"/>
<path d="M108.814 0.665771H107.543V6.39202H108.814V0.665771Z" fill="#FFB000"/>
<path d="M110.917 2.86353H105.442V4.19243H110.917V2.86353Z" fill="#FFB000"/>
<path d="M98.2335 11.6091H96.963V17.3354H98.2335V11.6091Z" fill="#FFB000"/>
<path d="M100.336 13.8086H94.8615V15.1375H100.336V13.8086Z" fill="#FFB000"/>
<path d="M131.452 18H127.352C126.622 18 126.029 17.3794 126.029 16.6166V12.3282C126.029 11.5654 126.622 10.9448 127.352 10.9448H131.452C132.181 10.9448 132.775 11.5654 132.775 12.3282V16.6166C132.775 17.3807 132.181 18 131.452 18ZM127.351 12.2737L127.298 16.6166L131.451 16.6711C131.479 16.6711 131.503 16.6472 131.503 16.6166V12.3282L127.351 12.2737Z" fill="#FFB000"/>
<path d="M139.823 7.05637C137.963 7.05637 136.449 5.47365 136.449 3.52813C136.449 1.58394 137.963 0.0012207 139.823 0.0012207C141.682 0.0012207 143.195 1.58394 143.195 3.52813C143.195 5.47365 141.682 7.05637 139.823 7.05637ZM139.823 1.33012C138.663 1.33012 137.72 2.31617 137.72 3.52813C137.72 4.74142 138.663 5.72747 139.823 5.72747C140.982 5.72747 141.924 4.74142 141.924 3.52813C141.924 2.31617 140.982 1.33012 139.823 1.33012Z" fill="#FFB000"/>
<path d="M152.47 18H148.333C147.614 18 147.028 17.3887 147.028 16.6352V12.3096C147.028 11.5574 147.613 10.9448 148.333 10.9448H152.47C153.189 10.9448 153.774 11.5561 153.774 12.3096V16.6352C153.775 17.3887 153.189 18 152.47 18ZM148.334 12.2737L148.3 16.6352L152.472 16.6711C152.491 16.6711 152.505 16.6551 152.505 16.6352V12.3096L148.334 12.2737Z" fill="#FFB000"/>
<path d="M160.823 7.05637C158.964 7.05637 157.451 5.47365 157.451 3.52813C157.451 1.58394 158.964 0.0012207 160.823 0.0012207C162.682 0.0012207 164.195 1.58394 164.195 3.52813C164.195 5.47365 162.683 7.05637 160.823 7.05637ZM160.823 1.33012C159.664 1.33012 158.722 2.31617 158.722 3.52813C158.722 4.74142 159.664 5.72747 160.823 5.72747C161.982 5.72747 162.925 4.74142 162.925 3.52813C162.925 2.31617 161.982 1.33012 160.823 1.33012Z" fill="#FFB000"/>
<path d="M130.037 0.665771H128.766V6.39202H130.037V0.665771Z" fill="#FFB000"/>
<path d="M132.138 2.86353H126.663V4.19243H132.138V2.86353Z" fill="#FFB000"/>
<path d="M140.458 11.6091H139.187V17.3354H140.458V11.6091Z" fill="#FFB000"/>
<path d="M142.56 13.8086H137.085V15.1375H142.56V13.8086Z" fill="#FFB000"/>
<path d="M161.458 11.6091H160.188V17.3354H161.458V11.6091Z" fill="#FFB000"/>
<path d="M163.561 13.8086H158.086V15.1375H163.561V13.8086Z" fill="#FFB000"/>
<path d="M170.983 18C169.123 18 167.609 16.4172 167.609 14.4717C167.609 12.5275 169.123 10.9448 170.983 10.9448C172.842 10.9448 174.355 12.5275 174.355 14.4717C174.355 16.4186 172.842 18 170.983 18ZM170.983 12.2737C169.823 12.2737 168.88 13.2598 168.88 14.4717C168.88 15.685 169.823 16.6711 170.983 16.6711C172.142 16.6711 173.084 15.685 173.084 14.4717C173.084 13.2598 172.142 12.2737 170.983 12.2737Z" fill="#FFB000"/>
<path d="M202.405 18C200.546 18 199.032 16.4172 199.032 14.4717C199.032 12.5275 200.546 10.9448 202.405 10.9448C204.265 10.9448 205.778 12.5275 205.778 14.4717C205.777 16.4186 204.265 18 202.405 18ZM202.405 12.2737C201.246 12.2737 200.303 13.2598 200.303 14.4717C200.303 15.685 201.246 16.6711 202.405 16.6711C203.565 16.6711 204.507 15.685 204.507 14.4717C204.506 13.2598 203.563 12.2737 202.405 12.2737Z" fill="#FFB000"/>
<path d="M204.473 18H200.336C199.617 18 199.032 17.3887 199.032 16.6352V12.3096C199.032 11.5574 199.617 10.9448 200.336 10.9448H204.473C205.192 10.9448 205.778 11.5561 205.778 12.3096V16.6352C205.777 17.3887 205.192 18 204.473 18ZM200.336 12.2737L200.303 16.6352L204.473 16.6711C204.492 16.6711 204.507 16.6551 204.507 16.6352V12.3096L200.336 12.2737Z" fill="#FFB000"/>
<path d="M234.206 7.05637C232.347 7.05637 230.834 5.47365 230.834 3.52813C230.834 1.58394 232.347 0.0012207 234.206 0.0012207C236.067 0.0012207 237.58 1.58394 237.58 3.52813C237.58 5.47365 236.067 7.05637 234.206 7.05637ZM234.206 1.33012C233.048 1.33012 232.105 2.31617 232.105 3.52813C232.105 4.74142 233.048 5.72747 234.206 5.72747C235.366 5.72747 236.309 4.74142 236.309 3.52813C236.309 2.31617 235.366 1.33012 234.206 1.33012Z" fill="#FFB000"/>
<path d="M236.275 7.05637H232.138C231.419 7.05637 230.834 6.44507 230.834 5.69159V1.36468C230.834 0.612516 231.419 0.0012207 232.138 0.0012207H236.275C236.994 0.0012207 237.58 0.612516 237.58 1.36468V5.69159C237.58 6.44375 236.994 7.05637 236.275 7.05637ZM232.138 1.33012L232.105 5.69159L236.275 5.72747C236.294 5.72747 236.309 5.71152 236.309 5.69159V1.36468L232.138 1.33012Z" fill="#FFB000"/>
<path d="M202.405 7.05637C200.546 7.05637 199.032 5.47365 199.032 3.52813C199.032 1.58394 200.546 0.0012207 202.405 0.0012207C204.265 0.0012207 205.778 1.58394 205.778 3.52813C205.777 5.47365 204.265 7.05637 202.405 7.05637ZM202.405 1.33012C201.246 1.33012 200.303 2.31617 200.303 3.52813C200.303 4.74142 201.246 5.72747 202.405 5.72747C203.565 5.72747 204.507 4.74142 204.507 3.52813C204.506 2.31617 203.563 1.33012 202.405 1.33012Z" fill="#FFB000"/>
<path d="M192.619 0.665771H191.348V6.39202H192.619V0.665771Z" fill="#FFB000"/>
<path d="M194.72 2.86353H189.245V4.19243H194.72V2.86353Z" fill="#FFB000"/>
<path d="M182.038 11.6091H180.768V17.3354H182.038V11.6091Z" fill="#FFB000"/>
<path d="M184.141 13.8086H178.666V15.1375H184.141V13.8086Z" fill="#FFB000"/>
<path d="M215.255 18H211.155C210.426 18 209.833 17.3794 209.833 16.6166V12.3282C209.833 11.5654 210.426 10.9448 211.155 10.9448H215.255C215.985 10.9448 216.578 11.5654 216.578 12.3282V16.6166C216.578 17.3807 215.985 18 215.255 18ZM211.155 12.2737L211.103 16.6166L215.255 16.6711C215.285 16.6711 215.308 16.6472 215.308 16.6166V12.3282L211.155 12.2737Z" fill="#FFB000"/>
<path d="M223.626 7.05637C221.767 7.05637 220.254 5.47365 220.254 3.52813C220.254 1.58394 221.767 0.0012207 223.626 0.0012207C225.486 0.0012207 227 1.58394 227 3.52813C227 5.47365 225.486 7.05637 223.626 7.05637ZM223.626 1.33012C222.467 1.33012 221.525 2.31617 221.525 3.52813C221.525 4.74142 222.467 5.72747 223.626 5.72747C224.786 5.72747 225.729 4.74142 225.729 3.52813C225.729 2.31617 224.786 1.33012 223.626 1.33012Z" fill="#FFB000"/>
<path d="M244.628 7.05637C242.768 7.05637 241.254 5.47365 241.254 3.52813C241.254 1.58394 242.768 0.0012207 244.628 0.0012207C246.487 0.0012207 248 1.58394 248 3.52813C248.001 5.47365 246.488 7.05637 244.628 7.05637ZM244.628 1.33012C243.468 1.33012 242.525 2.31617 242.525 3.52813C242.525 4.74142 243.468 5.72747 244.628 5.72747C245.787 5.72747 246.729 4.74142 246.729 3.52813C246.731 2.31617 245.787 1.33012 244.628 1.33012Z" fill="#FFB000"/>
<path d="M213.841 0.665771H212.571V6.39202H213.841V0.665771Z" fill="#FFB000"/>
<path d="M215.943 2.86353H210.468V4.19243H215.943V2.86353Z" fill="#FFB000"/>
<path d="M224.261 11.6091H222.991V17.3354H224.261V11.6091Z" fill="#FFB000"/>
<path d="M226.364 13.8086H220.889V15.1375H226.364V13.8086Z" fill="#FFB000"/>
</svg>
