<svg width="24" height="20" viewBox="0 0 24 20" fill="none" xmlns="http://www.w3.org/2000/svg">
<path d="M12 1.09375C13.0343 1.09375 14.0263 1.50036 14.7577 2.22413C15.4891 2.94791 15.9 3.92956 15.9 4.95312C15.9 5.9767 15.4891 6.95834 14.7577 7.68212C14.0263 8.40589 13.0343 8.8125 12 8.8125C10.9657 8.8125 9.97368 8.40589 9.24228 7.68212C8.51089 6.95834 8.1 5.9767 8.1 4.95312C8.1 3.92956 8.51089 2.94791 9.24228 2.22413C9.97368 1.50036 10.9657 1.09375 12 1.09375ZM3.6 3.76562C3.95457 3.76562 4.30567 3.83474 4.63325 3.96901C4.96082 4.10328 5.25847 4.30009 5.50919 4.5482C5.75991 4.79631 5.95879 5.09085 6.09448 5.41502C6.23016 5.73918 6.3 6.08662 6.3 6.4375C6.3 6.78838 6.23016 7.13582 6.09448 7.45998C5.95879 7.78415 5.75991 8.07869 5.50919 8.3268C5.25847 8.57491 4.96082 8.77172 4.63325 8.90599C4.30567 9.04027 3.95457 9.10938 3.6 9.10938C3.24543 9.10938 2.89433 9.04027 2.56675 8.90599C2.23918 8.77172 1.94153 8.57491 1.69081 8.3268C1.44009 8.07869 1.24121 7.78415 1.10553 7.45998C0.969838 7.13582 0.9 6.78838 0.9 6.4375C0.9 6.08662 0.969838 5.73918 1.10553 5.41502C1.24121 5.09085 1.44009 4.79631 1.69081 4.5482C1.94153 4.30009 2.23918 4.10328 2.56675 3.96901C2.89433 3.83474 3.24543 3.76562 3.6 3.76562ZM0 15.9375C0 13.3139 2.14875 11.1875 4.8 11.1875C5.28 11.1875 5.745 11.258 6.18375 11.3879C4.95 12.7535 4.2 14.557 4.2 16.5312V17.125C4.2 17.548 4.29 17.9488 4.45125 18.3125H1.2C0.53625 18.3125 0 17.7818 0 17.125V15.9375ZM19.5487 18.3125C19.71 17.9488 19.8 17.548 19.8 17.125V16.5312C19.8 14.557 19.05 12.7535 17.8163 11.3879C18.255 11.258 18.72 11.1875 19.2 11.1875C21.8513 11.1875 24 13.3139 24 15.9375V17.125C24 17.7818 23.4638 18.3125 22.8 18.3125H19.5487ZM17.7 6.4375C17.7 5.72887 17.9845 5.04927 18.4908 4.5482C18.9972 4.04713 19.6839 3.76562 20.4 3.76562C21.1161 3.76562 21.8028 4.04713 22.3092 4.5482C22.8155 5.04927 23.1 5.72887 23.1 6.4375C23.1 7.14613 22.8155 7.82573 22.3092 8.3268C21.8028 8.82787 21.1161 9.10938 20.4 9.10938C19.6839 9.10938 18.9972 8.82787 18.4908 8.3268C17.9845 7.82573 17.7 7.14613 17.7 6.4375ZM6 16.5312C6 13.2508 8.685 10.5938 12 10.5938C15.315 10.5938 18 13.2508 18 16.5312V17.125C18 17.7818 17.4638 18.3125 16.8 18.3125H7.2C6.53625 18.3125 6 17.7818 6 17.125V16.5312Z" fill="#FFBF19"/>
</svg>
