<svg width="180" height="124" viewBox="0 0 180 124" fill="none" xmlns="http://www.w3.org/2000/svg">
<path d="M102.128 37.7871C101.805 37.7871 101.079 37.9214 100.991 38.2759C100.812 39.0381 102.326 38.2759 103.097 38.2759H103.744C102.755 39.3902 101.459 40.1836 100.02 40.555C99.9781 40.6212 99.9513 40.6963 99.9419 40.7745C99.9326 40.8527 99.941 40.932 99.9666 41.0065C99.9921 41.0809 100.034 41.1486 100.089 41.2044C100.145 41.2602 100.212 41.3027 100.286 41.3286C100.669 41.3581 101.054 41.2906 101.405 41.1324C100.933 42.6596 100.468 44.1891 100.01 45.721C99.9153 45.5689 99.8095 45.424 99.6936 45.2875V45.277H99.6812C99.343 44.8826 99.0901 44.974 99.0465 45.1141C98.6382 46.4128 98.2583 48.4298 98.9158 49.6227C97.357 52.3301 95.9415 55.1183 94.6754 57.9759C94.8373 58.3018 95.1613 58.3018 95.1613 58.1389C95.2561 57.9416 99.2616 50.2125 99.3118 50.1144L99.3705 50.1611C99.4544 50.1553 99.5334 50.119 99.5928 50.0591C99.6523 49.9992 99.688 49.9197 99.6936 49.8352C99.4719 49.3903 99.2085 49.2159 99.2085 48.6804C99.1552 47.6959 99.2683 46.7094 99.5429 45.763C99.8485 46.4374 100.063 47.1502 100.18 47.882C100.342 48.2078 100.827 48.2078 100.827 47.882C100.822 47.4733 100.716 47.0722 100.519 46.7148C100.849 46.0361 101.119 45.3288 101.323 44.6015C102.812 47.4237 101.312 50.6546 100.342 53.9056C99.308 57.3709 98.821 63.4459 96.7795 64.8151C96.1575 65.2865 95.5091 65.7213 94.8373 66.1176C94.6754 66.2805 94.6753 66.4425 94.9993 66.4425C95.6409 66.3565 96.2533 66.1202 96.7875 65.7527C97.3216 65.3851 97.7625 64.8966 98.0745 64.3263C99.9257 61.4432 99.7712 58.4504 100.822 54.5573C101.853 50.7585 103.53 46.7491 101.459 44.1537C101.837 43.0395 102.122 41.8953 102.311 40.7331C102.769 40.516 103.195 40.2372 103.578 39.9042C104.006 39.516 104.387 39.0789 104.715 38.6017C104.918 37.7528 102.988 37.7871 102.128 37.7871Z" fill="#30235B"/>
<path d="M88.0453 44.1376C95.9397 39.9024 94.2742 40.435 101.806 36.6476C102.676 36.2103 102.627 35.834 102.291 35.834C102.039 35.834 102.48 35.6548 98.5677 37.6252C94.8967 39.5494 91.3301 41.6688 87.8833 43.9747C87.8828 43.9962 87.8866 44.0176 87.8946 44.0376C87.9025 44.0576 87.9144 44.0758 87.9296 44.091C87.9447 44.1063 87.9628 44.1183 87.9827 44.1263C88.0026 44.1343 88.0239 44.1381 88.0453 44.1376Z" fill="#30235B"/>
<path d="M86.9116 50.8127C89.0518 51.351 88.3479 51.4634 88.8537 51.4634C89.6628 50.9401 90.3751 50.2792 90.9588 49.5102C91.29 48.567 91.2942 47.539 90.9708 46.5931C90.6475 45.6473 90.0156 44.8392 89.1777 44.3003C87.4109 43.297 85.9396 44.6252 85.4546 44.951H85.1306V45.2769C85.4802 47.0367 85.2357 46.9624 84.6446 47.556C84.4835 47.7189 84.1595 47.8818 84.8066 50.8127C85.4872 50.5679 86.2311 50.5679 86.9116 50.8127ZM87.8827 45.7628C88.4896 46.1371 88.9476 46.7126 89.1777 47.3902C89.3228 47.7526 89.3784 48.1449 89.3397 48.5336C89.3397 49.0862 89.3881 49.2958 89.1777 49.5102V49.6731C89.1777 49.836 88.8537 49.6731 88.8537 49.5102V48.5336C88.8537 48.2077 88.6917 47.8819 88.6917 47.556C88.5303 46.9311 88.1939 46.366 87.7226 45.9277C87.5587 45.9277 87.7226 45.6028 87.8827 45.7657V45.7628Z" fill="#FFBF19"/>
<path d="M96.6281 62.3721V62.0472C96.4661 60.9039 96.3041 59.2794 95.4912 58.7906C95.1898 58.6439 94.8527 58.5873 94.5202 58.6276C94.5093 58.7161 94.5182 58.8059 94.5462 58.8905C94.5742 58.975 94.6207 59.0522 94.6822 59.1164C94.8637 60.2969 94.6352 61.5042 94.0351 62.5351C94.0351 62.698 93.8731 62.5351 93.8731 62.5351C94.088 61.464 94.1426 60.3667 94.0351 59.2794C94.0351 58.5171 91.5492 53.1424 88.2069 51.9523C86.2335 51.556 84.2288 51.3379 82.2167 51.3006C81.5572 50.9651 80.8456 50.7451 80.1126 50.6499L79.4646 48.2078H79.1415C78.9795 48.2078 73.6373 49.6733 71.8563 53.5807C70.0752 57.4881 70.8852 59.9301 71.0491 60.093V60.256C71.6422 60.256 77.6494 61.5585 80.2774 61.5585C80.4394 62.3721 80.7625 65.14 81.8955 65.9547C83.1915 67.098 85.9427 66.7684 88.5338 64.1634C89.3428 64.9771 91.6089 67.2571 93.5548 67.2571C93.6426 67.2682 93.7318 67.2593 93.8157 67.2311C93.8997 67.2029 93.9763 67.1561 94.0399 67.0942C96.1392 66.4425 96.7863 64.1634 96.6281 62.3721ZM85.8451 60.175C85.062 58.6377 84.6507 56.9363 84.6448 55.209C84.5823 54.7145 84.6378 54.2122 84.8068 53.7436C84.9413 53.553 85.1308 53.5807 85.1308 53.9065C84.9999 54.4384 84.9453 54.9865 84.9688 55.5339C85.0889 57.1056 85.4401 58.6507 86.0109 60.1188C86.0412 60.2198 85.8925 60.2722 85.8451 60.175Z" fill="#FFBF19"/>
<path d="M126.513 61.7432C124.749 62.3539 122.83 61.5526 121.07 61.2325C119.16 60.7722 117.175 60.7167 115.242 61.0695C115.08 61.0695 114.918 60.9066 115.242 60.7437C119.671 59.1239 123.976 61.7784 126.575 60.9066C126.669 60.8113 126.556 61.3525 127.1 56.3522C124.208 56.3347 121.323 56.0608 118.479 55.5338C115.981 54.9096 113.369 54.9096 110.871 55.5338C109.78 55.8238 108.778 56.3835 107.957 57.1621C108.029 56.4361 110.124 42.1251 109.576 35.5079C109.576 35.3449 109.418 35.3449 109.414 35.5079C109.146 44.5796 108.172 53.6163 106.5 62.5349C106.5 62.6979 106.5 62.8608 106.824 63.0237C108.605 63.3496 110.386 63.5116 112.166 63.6745C115.437 64.1546 118.736 64.4267 122.041 64.4891C122.326 64.4958 125.785 64.6635 126.184 64.7521L126.513 61.7432ZM109.09 57.8176C110.122 57.041 111.299 56.482 112.551 56.1742C113.803 55.8664 115.103 55.8161 116.375 56.0264C117.67 56.1893 118.965 56.6771 120.259 56.8401C120.907 57.003 121.554 57.003 122.364 57.1659H124.307C124.469 57.1659 124.469 57.3289 124.307 57.4918C122.465 58.7304 118.054 57.1745 116.86 57.003C115.522 56.7584 114.151 56.7584 112.813 57.003C111.577 57.2112 110.378 57.5962 109.251 58.1464C109.09 58.3017 108.929 57.9758 109.09 57.8176ZM113.785 58.961C112.125 59.1353 110.493 59.5195 108.929 60.1044C108.605 60.2673 108.443 59.9414 108.767 59.9414C109.641 59.4632 110.564 59.0799 111.519 58.7981C112.461 58.5062 113.449 58.3957 114.432 58.4722C114.663 58.537 114.676 58.9534 113.785 58.9534V58.961Z" fill="#FFBF19"/>
<path d="M136.773 90.3768C134.781 89.3248 133.062 87.8193 131.752 85.9806C131.59 85.8177 131.428 85.9806 131.428 86.1435C132.534 88.4486 134.351 90.333 136.608 91.5164C136.85 91.6641 137.137 91.7218 137.417 91.6793C137.744 91.6793 138.068 91.1905 136.773 90.3768Z" fill="#FFBF19"/>
<path d="M133.05 80.9334C133.535 80.7704 125.927 79.9644 124.793 80.1187C119.779 80.8047 120.26 86.1433 120.422 86.794C120.584 89.237 127.87 90.7005 129.328 90.8644C129.652 90.8644 130.138 90.5395 129.814 90.2136C129.363 89.3997 129.099 88.4943 129.043 87.5643C128.987 86.6343 129.14 85.7035 129.49 84.8408C130.136 83.0495 131.269 81.4212 133.05 80.9334Z" fill="#FFBF19"/>
<path d="M92.416 94.6103C92.1733 94.4624 91.8867 94.4047 91.606 94.4473C91.0536 94.4771 90.5083 94.5869 89.987 94.7732C90.149 94.7732 90.149 93.3078 90.149 93.1449C90.149 92.4932 90.311 92.0015 90.311 91.3536C90.311 90.8648 90.473 90.2103 90.311 89.8882C90.149 89.0745 89.0159 88.7448 89.0159 89.4004C88.8539 91.1907 85.4548 90.5437 84.9688 90.377C84.6448 90.2141 84.1597 88.9116 83.9977 88.9116C82.0547 88.5857 82.3787 91.5165 82.3787 92.6561C82.406 94.1805 82.5141 95.7024 82.7027 97.2152C82.6776 97.4965 82.7338 97.779 82.8647 98.0289C83.3497 99.1723 85.1279 98.5053 85.9398 98.3548C87.8747 98.0347 89.7381 97.3731 91.444 96.4006C92.254 96.2376 93.3871 95.0981 92.416 94.6103Z" fill="#FFBF19"/>
<path d="M77.0369 103.239C76.5509 102.588 75.4178 102.914 74.7708 103.076C74.9328 103.076 74.9328 101.611 74.9328 101.448C74.9328 100.686 75.5305 98.5738 74.4467 98.0288C74.2848 97.8658 73.7988 98.1917 74.1228 98.3546C74.2848 98.5175 73.7988 99.82 73.6377 99.9829C73.4757 100.308 68.7805 99.6571 68.6166 99.4942C68.4527 99.3312 68.6166 98.6805 68.4546 98.3508C68.1316 97.6991 67.6456 98.6767 67.4836 99.0016C66.6498 101.404 66.3192 103.954 66.5125 106.492C66.6423 107.96 67.8076 107.957 69.1026 107.794L71.5308 107.305C73.198 106.823 74.745 105.992 76.0705 104.867C76.5509 104.867 77.6811 103.89 77.0369 103.239Z" fill="#FFBF19"/>
<path d="M93.0635 67.9079C92.5226 68.3548 91.8566 70.41 91.6064 71.1646C91.2929 72.1126 91.0106 73.3389 91.9305 72.9558C92.0779 72.8779 92.2013 72.7607 92.287 72.617C92.3727 72.4734 92.4175 72.3087 92.4165 72.1412C92.4401 71.8963 93.3221 69.016 93.3875 68.8855C93.4673 68.7351 93.509 68.5672 93.509 68.3967C93.509 68.2262 93.4673 68.0583 93.3875 67.9079C93.3435 67.8667 93.2856 67.8438 93.2255 67.8438C93.1654 67.8438 93.1075 67.8667 93.0635 67.9079Z" fill="#30235B"/>
<path d="M118.641 5.55023C118.284 3.58651 115.782 3.8352 115.08 4.89947C114.865 5.21872 114.764 5.60169 114.794 5.98598C114.823 6.37027 114.981 6.73321 115.242 7.01563C115.559 7.32236 115.948 7.54311 116.372 7.65711C116.797 7.77111 117.244 7.77464 117.67 7.66735C118.479 7.66735 118.819 6.52399 118.641 5.55023ZM117.994 6.36487C117.953 6.60953 117.841 6.83624 117.67 7.01563C117.179 7.50918 114.964 7.31767 115.404 5.55023C115.481 5.29529 115.629 5.06786 115.831 4.8948C116.032 4.72175 116.278 4.61029 116.541 4.57361C116.957 4.64768 117.332 4.86949 117.599 5.19863C117.866 5.52776 118.006 5.94232 117.994 6.36678V6.36487Z" fill="#30235B"/>
<path d="M90.9587 87.283C97.4151 87.8737 105.886 88.4378 112.654 88.5855C114.754 88.7537 116.861 88.8081 118.967 88.7484C119.291 88.7484 119.453 88.0967 119.129 88.0967C117.307 87.8267 115.465 87.718 113.625 87.7718C108.46 87.7718 104.398 87.1201 97.1119 87.1201C95.0078 87.1201 93.0647 86.9571 90.9606 86.9571C90.7967 86.9571 90.7967 87.283 90.9587 87.283Z" fill="#30235B"/>
<path d="M101.968 93.1449C100.174 93.3955 98.2435 93.6327 96.3014 93.7956C96.1394 93.7956 96.1394 93.9586 96.3014 93.9586H99.2155C100.025 93.9586 100.834 93.7956 101.644 93.7956C101.299 94.8361 98.0028 99.904 98.4055 100.308C98.9966 100.704 102.058 94.3463 102.355 93.4783C102.43 93.2621 102.294 93.0991 101.968 93.1449Z" fill="#30235B"/>
<path d="M96.3008 96.8893C97.4981 96.4245 98.6386 95.8236 99.7 95.0981C99.76 95.0532 99.8006 94.9869 99.8133 94.9128C99.8261 94.8387 99.8101 94.7625 99.7687 94.7C99.7272 94.6374 99.6635 94.5932 99.5906 94.5765C99.5177 94.5598 99.4413 94.5719 99.377 94.6102C98.3349 95.1343 97.3392 96.0585 95.9769 96.4005L96.3008 96.8893Z" fill="#30235B"/>
<path d="M91.1238 105.395C89.734 105.065 84.9659 105.482 81.0286 104.896C80.6819 104.844 80.5142 103.766 80.4365 103.402C80.0747 101.681 79.8044 99.9416 79.6265 98.1918C80.5754 98.5387 81.5497 98.8107 82.5406 99.0055C82.7026 99.0055 82.8646 98.8435 82.7026 98.6805C81.7602 98.2287 80.7862 97.8466 79.7885 97.5372C80.0074 97.5372 81.5696 97.1265 81.5696 96.7225C81.5696 96.5596 81.5696 96.3967 81.4076 96.3967C80.6422 96.5392 79.904 96.8022 79.2201 97.1761C79.0202 97.2876 78.9795 97.3743 78.9795 97.5372C79.0132 99.3991 79.2299 101.253 79.6265 103.072L80.1125 105.026C80.4612 105.727 90.563 105.813 91.1361 105.623C91.2725 105.581 91.2811 105.433 91.1238 105.395Z" fill="#30235B"/>
<path d="M98.0819 101.285C97.9566 101.287 97.8333 101.318 97.7212 101.374C97.6091 101.431 97.5109 101.512 97.4339 101.611C96.9479 101.936 96.4628 102.425 95.9768 102.754C95.1509 103.355 94.2855 103.898 93.3867 104.382C95.3847 98.825 96.0261 98.2323 95.8148 97.3815C95.8148 97.2185 95.6528 97.0556 95.3298 97.2186C94.1929 97.5444 92.9007 97.8693 91.7677 98.1952C90.5995 98.544 89.4099 98.8158 88.2065 99.0089C88.0445 99.0089 88.0445 99.3347 88.2065 99.3347C92.2594 98.825 92.8903 98.7954 95.1678 98.0322C95.1678 98.945 93.4748 102.739 92.7387 104.22C92.5902 104.296 92.4659 104.413 92.3801 104.557C92.2944 104.7 92.2505 104.866 92.2537 105.033C92.2537 105.196 92.4157 105.359 92.7387 105.359C94.5717 104.391 96.3069 103.245 97.9199 101.94C98.2429 101.611 98.243 101.285 98.0819 101.285Z" fill="#30235B"/>
<path d="M74.4463 68.071C74.7294 68.9785 75.1106 69.8521 75.5832 70.6759C76.0777 71.5335 76.3875 70.8922 76.2312 70.513C75.9007 69.5158 75.4084 68.5806 74.7741 67.7451C74.6064 67.6032 74.3724 67.8433 74.4463 68.071Z" fill="#30235B"/>
<path d="M74.7704 70.1879C74.7704 69.7906 74.2664 69.7716 73.9614 70.5129C73.8382 70.8111 74.1054 70.9016 74.2371 70.7939C74.5734 70.5214 74.7704 70.3366 74.7704 70.1879Z" fill="#30235B"/>
<path d="M76.07 68.8853C76.232 68.8853 76.394 68.7223 76.555 68.5594C76.7161 68.3965 77.0912 68.203 76.879 67.9077C76.7454 67.7171 76.555 67.7448 76.394 67.9077C76.2144 68.0519 76.0514 68.2159 75.908 68.3965C75.8587 68.4803 75.7232 68.8853 76.07 68.8853Z" fill="#30235B"/>
<path d="M76.7822 69.7278C77.6691 69.8674 78.568 69.9124 79.4643 69.8621C79.7883 69.8621 80.1123 70.025 80.4363 70.025C80.4948 70.0291 80.5529 70.0134 80.6016 69.9805C80.6503 69.9477 80.6868 69.8994 80.7052 69.8434C80.7237 69.7875 80.7231 69.7269 80.7036 69.6713C80.684 69.6157 80.6466 69.5682 80.5973 69.5363C80.0042 69.2128 79.3206 69.0981 78.6552 69.2104H76.8741C76.5501 69.2104 76.462 69.6782 76.7822 69.7278Z" fill="#30235B"/>
<path d="M71.208 69.0474C71.3331 69.0998 73.7811 69.7897 74.2841 69.5362C74.3218 69.5077 74.3524 69.4708 74.3734 69.4284C74.3945 69.386 74.4054 69.3392 74.4054 69.2918C74.4054 69.2444 74.3945 69.1977 74.3734 69.1553C74.3524 69.1128 74.3218 69.0759 74.2841 69.0474C73.3095 68.7272 72.2808 68.6077 71.2592 68.6959C71.2592 68.6959 71.0593 68.9855 71.208 69.0474Z" fill="#30235B"/>
<path d="M99.3752 41.5325C97.8696 42.3752 96.4104 43.2991 95.004 44.3003C93.6904 45.2987 92.4465 46.3865 91.2809 47.5561C91.2864 47.6405 91.3222 47.72 91.3816 47.7799C91.441 47.8399 91.52 47.8761 91.6039 47.8819C91.7223 47.8819 94.968 45.0597 95.328 44.7882C96.6231 43.8116 98.0801 42.8349 99.3752 41.8574C99.7001 41.6954 99.5381 41.5325 99.3752 41.5325Z" fill="#30235B"/>
<path d="M144.867 81.5843C144.533 81.5176 138.988 80.822 138.554 80.7706C135.964 80.4447 133.37 80.3046 130.785 79.9559C129.715 79.7723 128.633 79.6638 127.548 79.631C126.358 79.5973 125.168 79.6517 123.986 79.7939C120.188 80.3847 118.768 86.2682 120.749 88.2596C121.193 88.6911 121.682 89.0743 122.206 89.4029C119.73 89.8698 117.496 91.1952 115.892 93.1484C114.417 94.852 113.017 97.354 109.741 98.8471C107.687 99.8077 105.506 100.465 103.265 100.8C102.941 100.8 102.779 100.637 102.455 100.637C102.293 100.637 102.132 100.963 102.293 100.963C104.398 101.777 106.664 102.266 108.931 102.917C111.197 103.569 113.464 104.22 115.892 104.708C117.105 105.041 118.358 105.205 119.616 105.197C132.274 105.197 131.729 98.364 136.776 94.6729C139.204 93.2074 141.93 93.8496 144.531 93.2437C145.683 92.9061 146.756 92.3388 147.686 91.5756C148.616 90.8123 149.384 89.8686 149.944 88.8007C151.358 86.1158 148.754 81.5843 144.867 81.5843ZM121.07 87.2829C120.378 85.3421 121.198 81.8215 123.66 80.9335C125.668 80.4123 127.76 80.3015 129.811 80.6076C135.715 81.488 143.662 82.073 142.277 82.073C138.312 83.9129 137.404 89.2695 140.011 91.5162C136.752 91.2637 127.305 90.5758 123.822 89.0742C123.723 89.0256 121.375 88.1405 121.07 87.2829ZM148.59 89.562C147.976 90.451 147.184 91.2002 146.263 91.7612C145.343 92.3223 144.316 92.6825 143.248 92.8187C140.824 93.1684 138.237 92.8301 136.125 94.1212C133.017 96.0201 131.257 100.981 128.192 102.914C126.159 104.085 123.865 104.725 121.522 104.775C119.796 104.872 118.066 104.739 116.375 104.378C114.167 104.056 111.864 103.101 106.177 101.773C105.526 101.622 104.719 101.448 104.071 101.285C107.665 101.036 111.078 99.6062 113.785 97.2149C114.799 96.2269 116.703 93.4123 118.965 91.8421C120.367 90.9062 121.983 90.3457 123.66 90.2138C127.363 91.703 136.516 92.4928 140.82 92.4928C141.115 92.6735 141.447 92.7849 141.791 92.8187C143.857 93.115 146.324 91.2494 146.324 88.0966C146.295 87.4347 146.187 86.7788 146 86.1434C145.978 86.0807 145.941 86.0245 145.892 85.9797C145.843 85.935 145.784 85.9031 145.72 85.887C145.656 85.8708 145.589 85.8709 145.525 85.8872C145.461 85.9036 145.402 85.9356 145.353 85.9805C145.169 85.9805 141.707 86.0939 141.122 85.5412C140.986 85.4117 140.79 85.7146 140.961 85.8671C141.263 86.1358 142.078 86.6541 145.191 86.6293C145.991 89.4439 144.405 91.5839 142.601 91.8392C140.496 92.3271 139.363 90.048 139.363 88.0938C139.433 87.0454 139.787 86.0363 140.387 85.1755C140.986 84.3147 141.808 83.635 142.763 83.2097C143.687 82.812 144.709 82.7084 145.693 82.9128C146.677 83.1172 147.575 83.6199 148.266 84.3531C149.561 85.4917 149.723 87.7717 148.59 89.562Z" fill="#30235B"/>
<path d="M85.9408 44.4635C86.0801 44.2446 86.1542 43.9902 86.1542 43.7303C86.1542 43.4704 86.0801 43.216 85.9408 42.9971C85.4835 42.3422 84.9299 41.761 84.299 41.2735C84.7793 39.7871 84.7007 37.4061 84.3217 37.7872C83.9977 37.9502 83.9977 38.4389 83.5117 38.7648C82.5407 39.4156 81.2456 39.2526 80.2746 39.9082C79.9506 40.0711 79.7886 40.5589 79.4646 41.3736C79.3026 42.0243 79.1415 40.5589 79.1415 40.5589C78.465 40.5868 77.826 40.8791 77.3605 41.3736C77.0753 41.8292 76.8852 42.3384 76.8016 42.8702C76.7181 43.4021 76.7429 43.9454 76.8745 44.4673C77.2398 45.4199 77.6726 46.3449 78.1695 47.2352C78.6992 48.3276 79.109 49.4749 79.3916 50.6567C79.6573 50.6579 79.9201 50.7123 80.1647 50.8167C80.1135 50.3662 80.0056 49.9241 79.8435 49.5009C81.3006 49.176 83.0267 47.723 83.0267 46.0947C83.0267 45.9317 83.0267 45.7698 82.7027 45.7698C82.3787 45.7698 82.0547 45.9317 81.7316 45.6068C81.4076 44.9551 82.1693 44.4101 82.5407 44.1414C83.1716 43.484 83.6844 42.7216 84.0565 41.8881C84.3531 42.4101 84.7127 42.8933 85.127 43.3268C85.289 43.4897 85.451 43.6526 85.289 43.8156C85.0787 44.0271 84.5879 44.2663 84.965 44.7922C85.1715 45.078 85.127 45.0637 85.127 46.5835C85.127 46.7931 84.5586 47.3181 84.5586 47.3181C84.4458 47.441 84.4781 47.4905 84.4781 48.3747C84.558 49.2565 84.7207 50.1287 84.9641 50.9797H85.612C85.505 50.6586 85.1156 48.026 84.9641 47.723C85.4737 47.4667 86.1009 47.2952 86.1009 46.2576C86.1508 45.6949 86.0387 45.1296 85.7778 44.6293L85.9408 44.4635ZM79.3026 46.5796C78.6892 46.1396 78.2346 45.5109 78.0075 44.7884C77.8132 44.4404 77.7112 44.048 77.7112 43.6488C77.7112 43.2497 77.8132 42.8573 78.0075 42.5093C78.1695 42.3464 78.3315 42.3464 78.3315 42.6722C78.0198 43.928 79.4684 45.1886 79.4684 46.4167C79.4689 46.4386 79.465 46.4603 79.4568 46.4806C79.4486 46.5009 79.4363 46.5192 79.4208 46.5345C79.4052 46.5498 79.3867 46.5617 79.3663 46.5695C79.346 46.5772 79.3243 46.5807 79.3026 46.5796Z" fill="#30235B"/>
<path d="M109.418 34.6942C117.816 35.5831 124.705 35.8375 128.52 35.8375C128.582 35.8336 128.64 35.8062 128.683 35.7608C128.725 35.7154 128.749 35.6554 128.749 35.5931C128.749 35.5308 128.725 35.4709 128.683 35.4255C128.64 35.3801 128.582 35.3526 128.52 35.3487C124.269 35.3487 120.553 35.0953 109.418 34.5351C109.252 34.3683 109.252 34.6942 109.418 34.6942Z" fill="#FFBF19"/>
<path d="M157.009 21.1808C157.003 21.0963 156.967 21.0167 156.908 20.9568C156.848 20.8969 156.769 20.8607 156.685 20.8549C150.534 20.8549 144.383 20.773 138.392 20.692C136.773 20.6701 135.154 20.5291 133.371 20.3661C133.287 20.3721 133.208 20.4084 133.149 20.4683C133.089 20.5282 133.054 20.6076 133.048 20.692V24.5985C133.054 24.6828 133.089 24.7623 133.149 24.8221C133.208 24.882 133.287 24.9183 133.371 24.9243C139.361 25.4131 145.512 25.657 151.665 25.5751C153.284 25.5541 154.903 25.4131 156.686 25.2502C157.495 25.4141 157.009 21.8315 157.009 21.1808ZM138.392 24.7623C136.769 24.6366 135.154 24.5994 133.697 24.4365V21.0179C140.761 21.5895 148.121 21.5057 156.361 21.5057C156.322 22.7023 156.376 23.9001 156.523 25.0882C150.478 25.2926 144.426 25.1839 138.392 24.7623Z" fill="#30235B"/>
<path d="M120.26 41.3698C119.68 40.7089 118.868 40.2993 117.994 40.2264C115.727 40.0635 113.324 42.6599 114.11 44.9475C114.389 45.5905 114.878 46.1183 115.496 46.444C116.114 46.7696 116.824 46.8736 117.509 46.7388C120.098 46.4167 122.207 43.6489 120.26 41.3698Z" fill="#FFBF19"/>
<path d="M72.3425 28.9957C72.981 29.2101 73.342 29.1587 79.4648 29.1587C79.7888 29.1587 79.9508 28.6699 79.4648 28.5069C77.0961 28.3084 74.7177 28.254 72.3425 28.344C72.1805 28.6699 72.1805 28.9957 72.3425 28.9957Z" fill="#FFBF19"/>
<path d="M72.1799 31.9266C72.6906 32.1411 73.2529 32.1988 73.7961 32.0923H79.1393C79.3003 32.0923 79.3003 31.7665 79.1393 31.6035C78.3435 31.4035 78.1768 31.4406 73.7961 31.4406C73.2526 31.3324 72.6894 31.3891 72.178 31.6035L72.1799 31.9266Z" fill="#FFBF19"/>
<path d="M72.0179 34.2054C73.1547 34.3683 74.446 34.2054 75.7411 34.3683H77.6803C78.2709 34.4502 78.8699 34.4502 79.4604 34.3683C79.6224 34.3683 79.6224 34.0425 79.4604 33.8796C78.8987 33.689 78.3416 33.7166 75.7373 33.7166C74.4941 33.693 73.2506 33.7474 72.0141 33.8796C71.8559 34.0425 71.8559 34.2054 72.0179 34.2054Z" fill="#FFBF19"/>
<path d="M152.475 35.5079C151.893 37.8489 150.13 53.9817 149.885 54.7201C149.885 55.046 149.723 55.5338 149.885 55.8635C149.885 56.0264 150.209 56.1893 150.371 55.8635C150.502 55.6136 150.558 55.331 150.533 55.0498C150.533 54.7239 150.695 54.2351 150.695 53.9064C150.829 53.2643 150.884 52.6079 150.857 51.9522C151.156 49.5417 152.637 37.7956 152.637 35.345C152.637 35.5079 152.475 35.345 152.475 35.5079Z" fill="#30235B"/>
<path d="M145.676 71.9782C146.859 72.1053 148.049 72.1597 149.238 72.1411C149.4 71.9782 149.388 71.7152 149.238 71.6533C148.062 71.5445 146.877 71.5701 145.706 71.7295C145.483 71.7943 145.548 71.9363 145.676 71.9782Z" fill="#30235B"/>
<path d="M121.555 41.5325C122.313 41.38 126.124 40.5196 126.576 40.0671V39.9051C126.169 39.6993 122.07 41.0018 121.555 41.2076C121.231 41.3695 121.393 41.5325 121.555 41.5325Z" fill="#FFBF19"/>
<path d="M129.976 39.4153C131.47 39.0462 132.932 38.5562 134.347 37.9499C134.509 37.787 134.347 37.625 134.185 37.625C132.757 38.0361 131.351 38.525 129.976 39.0895C129.65 39.2524 129.812 39.4153 129.976 39.4153Z" fill="#30235B"/>
<path d="M122.041 45.1141C123.099 45.3793 124.189 45.489 125.278 45.44C125.44 45.44 125.44 45.1141 125.278 44.9512C125.184 44.9036 122.136 44.7883 122.041 44.7883V45.1141Z" fill="#FFBF19"/>
<path d="M129.326 45.928C129.478 45.9566 138.736 47.5563 139.368 47.5563C139.53 47.5563 139.53 47.2305 139.368 47.0685C138.523 46.6435 130.133 45.6831 129.331 45.6031C129.165 45.6031 129.165 45.766 129.326 45.928Z" fill="#30235B"/>
<path d="M119.19 48.1733C119.893 48.9804 124.988 53.5805 125.603 53.5805C125.646 53.5829 125.69 53.573 125.728 53.5518C125.767 53.5306 125.798 53.499 125.82 53.4606C125.841 53.4222 125.851 53.3785 125.849 53.3345C125.847 53.2905 125.833 53.248 125.808 53.2117C125.421 52.6715 124.683 52.581 119.344 48.0038C119.322 47.9857 119.293 47.977 119.264 47.9793C119.235 47.9816 119.208 47.9949 119.189 48.0164C119.169 48.0378 119.158 48.066 119.159 48.0951C119.159 48.1242 119.17 48.1522 119.19 48.1733Z" fill="#FFBF19"/>
<path d="M115.142 48.7481C115.052 49.5951 114.718 52.5269 115.08 53.2548C115.08 53.4178 115.404 53.4178 115.404 53.2548C115.677 52.706 115.515 52.302 115.566 48.8586C115.569 48.6118 115.165 48.5194 115.142 48.7481Z" fill="#FFBF19"/>
<path d="M164.555 10.6484C158.565 10.4855 83.9334 9.67181 80.5352 9.67181C76.9741 9.67181 73.4129 9.6718 70.0128 9.99766C69.8233 10.0186 69.6897 10.0405 69.6897 10.1606C69.0892 13.4464 68.6576 16.7611 68.3966 20.0916C63.3215 67.7315 61.6068 74.2629 62.6252 74.5383C63.6815 74.8241 68.0119 75.3606 68.7206 75.1233C69.162 74.6793 68.5311 74.4716 67.9115 74.4716C66.3957 74.4716 65.3981 74.3096 63.0136 74.3096C62.9766 74.3096 62.94 74.3017 62.9062 74.2865C62.8725 74.2712 62.8423 74.249 62.8177 74.2212C62.7931 74.1934 62.7746 74.1606 62.7635 74.1251C62.7524 74.0896 62.7488 74.0522 62.7531 74.0152C62.8895 72.809 63.619 68.9654 64.0263 64.0518C64.5114 59.4927 68.2355 26.1161 68.7206 21.557C68.731 21.4455 69.6679 11.8709 70.1056 10.335C73.8762 10.5122 73.8733 10.2225 96.7097 10.335C96.2132 17.2847 95.8457 16.7949 94.8433 26.8765C94.6814 27.854 94.6814 28.9936 94.5193 29.9702C94.5193 30.1331 94.6814 30.1331 94.8433 29.9702C95.4279 27.2271 96.704 15.0056 97.2629 10.3426C98.1914 10.3483 99.1191 10.3556 100.046 10.3645C100.082 10.406 100.132 10.432 100.186 10.4369C101.87 10.5634 103.546 10.7809 105.207 11.0886C106.929 11.5245 108.57 12.2392 110.064 13.2048C112.23 14.4431 114.078 16.1722 115.464 18.2546H100.834C100.673 18.4175 100.673 18.7424 100.834 18.7424C103.263 18.9054 105.855 19.0683 108.281 19.0683C109.576 19.0683 115.127 19.1312 115.87 18.8835C116.324 19.6152 117.061 21.0311 117.112 21.134C115.786 21.1521 117.722 21.1854 109.249 21.1854C109.573 20.6966 109.897 20.3708 110.221 19.8829C110.25 19.8548 110.27 19.818 110.277 19.7778C110.284 19.7376 110.278 19.6963 110.26 19.6598C110.242 19.6234 110.212 19.5937 110.176 19.5752C110.14 19.5567 110.099 19.5504 110.059 19.5571C109.324 19.9185 108.706 20.4834 108.278 21.1854H102.612C102.288 21.1854 100.67 21.3474 100.831 20.8596C100.804 20.3117 100.859 19.7629 100.993 19.2312C100.979 19.1825 100.954 19.1379 100.919 19.1013C100.884 19.0647 100.841 19.0371 100.793 19.0211C100.745 19.005 100.694 19.0009 100.644 19.0092C100.595 19.0174 100.548 19.0377 100.508 19.0683C100.243 19.7405 100.132 20.4642 100.184 21.1854C100.184 21.9991 103.273 21.8695 103.92 21.8695C104.233 21.8695 107.54 21.9896 107.778 21.7066C106.329 25.1167 105.36 28.8526 104.069 32.4189C103.517 34.6427 102.932 35.6194 102.932 36.8151C102.932 37.141 103.318 37.2915 103.48 36.9704C104.31 35.3002 105.412 31.5195 106.17 29.489C106.844 26.8158 107.691 24.1896 108.706 21.6275C110.583 21.6275 116.769 21.7552 117.327 21.6018C117.508 22.0048 117.668 22.4088 117.829 22.8128C118.153 23.6274 118.315 24.6041 118.638 25.4177C118.638 25.5807 118.8 25.5807 118.962 25.4177C120.962 25.4177 123.156 25.2986 125.276 26.7212C126.674 27.605 127.753 28.9179 128.352 30.4657C128.462 33.0172 128.407 35.5731 128.19 38.1176C127.053 57.5766 127.045 57.2888 124.441 76.4467C116.927 76.3086 102.317 75.7274 92.4133 75.7274C92.2513 75.7274 92.2513 76.0532 92.4133 76.0532C107.375 76.8898 158.694 77.6816 156.197 77.6816C156.281 77.6758 156.36 77.6395 156.419 77.5796C156.479 77.5197 156.514 77.4402 156.52 77.3557C157.168 74.2629 157.657 71.0063 158.139 67.9125C158.452 65.5572 164.776 11.646 164.776 11.2458C164.84 11.2064 164.888 11.1459 164.913 11.0747C164.937 11.0035 164.936 10.926 164.91 10.8554C164.884 10.7848 164.834 10.7256 164.769 10.6879C164.704 10.6501 164.629 10.6362 164.555 10.6484ZM125.765 26.2276C124.792 25.5967 123.703 25.1701 122.562 24.9736C121.421 24.7772 120.253 24.8148 119.127 25.0843C119.127 23.6465 117.517 19.1121 114.918 16.128C112.535 13.4447 109.426 11.5175 105.971 10.5817C114.064 12.1312 121.229 16.8119 125.927 23.6179C126.628 24.746 128.031 27.41 128.031 28.502C127.437 27.5965 126.666 26.8225 125.765 26.2276ZM127.544 56.9897C129.677 56.7933 131.789 56.4153 133.859 55.8596C135.993 55.1269 138.243 54.7959 140.496 54.883C140.334 56.0264 140.01 56.9992 139.849 58.1387C139.687 59.1163 139.363 60.0929 139.201 61.2325C139.039 62.21 138.716 63.0237 138.554 64.0003C135.927 64.0003 137.725 64.1633 126.718 64.1633C126.913 62.5635 127.348 58.9543 127.544 56.9897ZM163.165 20.366C162.912 22.9014 157.511 71.7333 156.07 77.0261C147.222 77.0261 146.713 76.8631 142.767 76.8631C136.017 76.8631 130.568 76.5611 124.943 76.4515C125.611 72.7137 126.155 68.7415 126.641 64.815C139.164 64.815 139.043 64.7149 139.043 64.4891C139.335 63.6417 139.551 62.77 139.691 61.8842C141.349 55.3715 142.432 48.7244 142.928 42.0202C143.09 39.9041 143.09 37.9499 143.09 35.8337C143.09 35.3449 142.767 35.3449 142.767 35.5079C142.385 41.7272 141.683 47.9224 140.662 54.0684C136.241 53.7511 133.414 55.7949 127.615 56.3046C127.909 53.2147 128.875 35.9309 128.88 35.8337C130.864 35.8337 132.849 35.8423 134.834 35.9967C136.94 36.078 139.049 36.0235 141.148 35.8337C141.21 35.8298 141.268 35.8024 141.31 35.757C141.353 35.7116 141.376 35.6516 141.376 35.5893C141.376 35.527 141.353 35.4671 141.31 35.4217C141.268 35.3763 141.21 35.3488 141.148 35.3449C140.994 35.3192 137.737 35.3449 128.902 35.3449C128.964 33.9605 129.006 32.5971 129.006 31.2746C129.042 29.9712 129.101 28.5363 127.225 24.7622C124.389 19.0569 116.456 12.4273 107.504 10.4893C119.883 10.6513 157.729 11.2954 164.275 11.2992C163.955 14.3224 163.635 17.3437 163.161 20.366H163.165Z" fill="#30235B"/>
<path d="M111.519 100.313C113.176 101.225 114.909 101.988 116.699 102.593C117.513 102.905 118.479 103.081 119.289 103.406C120.133 103.662 121.001 103.826 121.879 103.895C121.913 103.897 121.946 103.893 121.977 103.881C122.008 103.87 122.037 103.852 122.061 103.829C122.086 103.806 122.105 103.779 122.118 103.748C122.131 103.717 122.138 103.684 122.138 103.651C122.138 103.617 122.131 103.584 122.118 103.554C122.105 103.523 122.086 103.495 122.061 103.472C122.037 103.449 122.008 103.432 121.977 103.42C121.946 103.409 121.913 103.404 121.879 103.406C121.458 103.217 121.026 103.054 120.584 102.919C117.508 102.267 114.594 101.127 111.519 100.151C111.357 99.983 111.357 100.146 111.519 100.313Z" fill="#FFBF19"/>
<path d="M114.594 97.8656C117.329 99.2186 120.207 100.256 123.174 100.959C124.092 101.358 125.092 101.525 126.088 101.448C126.735 101.285 125.926 100.796 125.602 100.796C123.822 100.308 121.879 99.8197 120.098 99.168C118.318 98.6802 116.537 98.0247 114.756 97.5406C114.432 97.3777 114.432 97.7026 114.594 97.8656Z" fill="#FFBF19"/>
<path d="M124.954 94.1193C126.588 94.8235 127.549 94.9769 131.592 96.2355C132.08 96.388 132.239 95.5848 131.754 95.4218C129.557 94.6506 127.273 94.1583 124.954 93.9564C124.793 93.7954 124.793 94.1193 124.954 94.1193Z" fill="#FFBF19"/>
<path d="M136.287 22.971C142.872 23.3388 143.88 23.7856 152.152 23.7856C152.475 23.7856 153.77 23.7856 154.094 23.4598C154.58 22.808 151.828 22.9662 151.504 22.971C146.483 23.0529 141.308 22.5641 136.287 22.6461C136.125 22.648 136.125 22.971 136.287 22.971Z" fill="#30235B"/>
<path d="M92.092 19.7151H72.3422C72.2583 19.7209 72.1793 19.7569 72.1198 19.8166C72.0602 19.8763 72.0241 19.9557 72.0182 20.04C71.8562 21.1834 71.8562 22.32 71.6942 23.4596C71.6942 23.7855 72.0182 23.7854 72.1802 23.6225C78.6554 23.7854 85.1307 23.7855 91.768 23.7855C91.852 23.7797 91.9311 23.7435 91.9907 23.6836C92.0502 23.6237 92.0862 23.5441 92.092 23.4596L92.578 20.04C92.416 19.878 92.254 19.7151 92.092 19.7151ZM73.3132 22.1571C73.7835 21.6852 74.3313 21.2985 74.9323 21.0138C75.5793 20.8508 76.2273 20.6879 76.5504 21.3387C76.677 21.6115 76.886 21.8372 77.1477 21.9834C77.4093 22.1297 77.7102 22.1892 78.0074 22.1533C78.5983 21.7611 79.2576 21.4847 79.9505 21.3387C81.9125 20.8461 81.6794 21.232 82.5406 21.6645C82.7026 21.8274 82.8646 22.1533 83.1886 22.1533C83.8357 22.3162 84.4837 21.8275 84.9687 21.5016C85.6129 21.07 86.8151 20.7546 87.3968 21.3387C87.7208 21.5016 87.8828 21.8275 88.0448 21.8275C88.2898 21.9401 88.5647 21.9692 88.8277 21.9104C89.0907 21.8516 89.3274 21.708 89.5019 21.5016C89.8259 21.1767 90.4729 21.6645 90.1489 22.1533C89.8578 22.5028 89.4471 22.73 88.9978 22.7903C88.5484 22.8506 88.0929 22.7396 87.7208 22.4792C87.3968 22.3162 87.2358 21.9904 86.9118 21.8275C85.6755 21.5168 85.0824 22.8041 83.5117 22.8041C82.8646 22.8041 82.5406 22.4792 82.0546 21.9904C81.5686 21.5016 80.7595 21.6645 80.1125 21.8275C79.4654 21.9904 78.8174 22.4792 78.1694 22.6421C76.5021 23.0613 76.1326 21.1767 75.7413 21.1767C75.6535 21.1658 75.5643 21.1747 75.4802 21.2027C75.3962 21.2307 75.3194 21.2772 75.2553 21.3387C74.6333 21.5418 74.0361 21.8151 73.4752 22.1533C73.3132 22.483 73.1512 22.1571 73.3132 22.1571Z" fill="#FFBF19"/>
<path d="M178.539 5.22332C177.417 4.15379 175.985 3.47022 174.452 3.27104C173.157 2.61647 171.506 2.61837 169.474 2.61837C168.017 2.61837 166.56 2.45544 165.265 2.45544C156.332 1.92759 79.076 0.502208 75.4173 0.502208C71.1892 0.502208 64.5159 0.287828 62.6278 4.08377C62.1893 4.94782 61.9146 5.88646 61.8178 6.85166C56.7427 42.6454 55.5519 44.6368 53.7235 84.4694C53.7235 84.4694 53.7235 84.8401 53.8855 84.8401C55.3406 85.1535 67.3088 86.3417 69.3276 86.1864C69.0576 92.7931 69.1031 93.4581 69.1031 98.1916C68.7791 98.1916 68.4551 98.5175 68.294 99.0053C68.2205 99.2057 68.2121 99.4245 68.2702 99.63C68.3282 99.8355 68.4497 100.017 68.6171 100.149C69.4943 101.029 72.6633 100.996 73.9602 100.474C74.3048 100.29 74.5867 100.006 74.7693 99.6599C74.9313 99.1711 75.0933 98.6833 74.6073 98.3574C75.3105 96.3418 75.8519 94.2727 76.2263 92.17C77.1979 87.5143 77.6324 82.7615 77.5214 78.0057C77.5384 77.1662 77.5042 76.3265 77.4191 75.4912C79.2093 75.96 80.9727 76.5265 82.7016 77.1882C84.6191 78.1533 85.5731 77.8046 84.8057 80.119C84.4289 82.2458 84.1589 84.3904 83.9967 86.5446C83.2985 86.4255 78.0643 86.457 77.9676 86.4579C77.6266 86.4579 77.7658 86.7438 77.9477 86.7514C78.0605 86.7514 83.5325 87.2278 83.9967 87.1878V89.2372C83.8347 89.2372 83.6727 89.3992 83.5107 89.3992C83.364 89.5789 83.2709 89.7967 83.2422 90.0274C83.2135 90.2581 83.2505 90.4922 83.3487 90.7026C83.8347 91.5163 84.9677 91.5163 85.6157 91.6793C86.599 91.8137 87.6 91.7018 88.5299 91.3534C89.0433 91.2439 89.5019 90.9558 89.8249 90.5397C90.148 90.2139 90.31 89.3964 89.8249 89.2372C89.8249 88.9114 89.986 88.7485 89.986 88.5855C90.148 88.0967 90.148 87.4422 90.31 86.9572C91.0347 83.3146 93.0621 75.8847 90.472 73.2807C89.832 72.7534 89.1242 72.3153 88.3678 71.9783C87.6951 71.6367 86.9898 71.3641 86.2628 71.1646C86.949 69.2913 87.7052 67.4447 88.5299 65.6288C88.6919 65.4659 88.3678 65.303 88.2058 65.4659C87.0313 67.2868 86.1057 69.2584 85.4537 71.3275C85.4537 71.4904 85.6157 71.8153 85.7777 71.8153C86.4248 72.1412 87.2338 72.3041 87.8818 72.63C88.5241 72.8567 89.1255 73.1865 89.6629 73.6066C90.958 74.4203 90.958 76.0486 90.7998 77.3511C90.6602 80.4363 90.1713 83.4955 89.3427 86.4694C89.193 87.123 89.1807 87.6127 89.0187 88.2597C88.8337 88.784 88.7248 89.3324 88.6956 89.888C88.6956 90.2015 85.7408 90.8246 84.8114 89.888C84.6829 89.6971 84.6255 89.4666 84.6494 89.2372C84.6494 84.6914 84.5111 84.9192 85.6214 79.956C85.8027 79.3065 85.7452 78.6131 85.4594 78.0028C85.0339 77.4056 84.3961 76.9962 83.6784 76.8594C80.3162 75.7656 75.3159 74.1363 74.4737 73.8686C74.4339 73.8559 74.3916 73.8528 74.3504 73.8596C74.3092 73.8663 74.2701 73.8827 74.2363 73.9075C74.2025 73.9323 74.175 73.9647 74.1561 74.0021C74.1371 74.0396 74.1271 74.081 74.127 74.123C74.127 74.4031 74.4794 74.4317 75.099 74.7423C75.2562 74.8224 76.7673 75.2826 76.9937 75.3712C76.6981 77.3778 76.9198 89.7127 73.4884 98.3508C73.3164 98.8393 73.0399 99.2839 72.6785 99.6532C71.769 100.263 69.609 99.7676 69.609 99.0987C69.609 83.0698 71.4469 60.8172 71.4469 60.7829C72.0949 60.9458 80.1257 61.8805 80.1257 61.8805C80.5104 66.9179 82.9451 67.8698 85.468 66.6016C85.954 66.4387 86.277 66.1138 86.763 65.9509C87.3144 65.6631 87.8084 65.2755 88.2201 64.8075C88.5441 63.9929 88.0581 63.5041 87.7341 63.6641C87.2481 63.8271 86.925 64.3159 86.5972 64.4788C85.8369 65.095 84.9535 65.5392 84.0071 65.7813C83.6234 65.8313 83.2335 65.7652 82.8874 65.5912C82.5413 65.4172 82.2546 65.1434 82.064 64.8046C81.4756 63.7657 81.1948 62.5792 81.255 61.3851C81.1299 59.756 81.1842 58.118 81.417 56.501C81.5951 55.0223 81.7088 52.8318 83.036 51.9419C83.4992 51.5881 84.0738 51.4146 84.6542 51.4531C84.8162 51.4531 84.9782 51.2911 84.8162 51.1282C84.3311 50.9653 84.0071 50.8023 83.6793 50.9653C83.2665 50.9883 82.8639 51.1027 82.5002 51.3004C82.1365 51.498 81.8206 51.774 81.5752 52.1086C80.9306 52.9373 80.4372 53.8745 80.1181 54.8765C79.7594 55.9929 79.4886 57.136 79.3082 58.2951C79.3082 58.7839 79.1471 60.4122 79.1471 60.7371C78.8231 60.7371 72.9949 59.9235 72.8329 59.9235C72.8329 59.9235 73.1569 57.9693 73.1569 57.8073C73.748 55.4253 74.3004 53.7598 76.556 51.9457C77.366 51.4569 78.1751 51.132 79.1471 50.6432C79.3082 50.6432 79.3082 50.3173 79.1471 50.3173C77.8814 50.063 75.5774 51.0491 74.6139 51.7828C73.4017 52.7461 72.5004 54.0491 72.0238 55.5272C71.1219 57.794 71.0963 60.0835 70.5668 65.948C70.0249 71.944 69.609 79.6483 69.3636 85.4861C67.7531 85.3527 55.6466 84.3923 54.6263 84.3694C56.521 47.8572 56.4159 61.2593 62.3104 7.33472C62.3541 6.45849 62.578 5.60089 62.9681 4.81615C63.3582 4.0314 63.9058 3.33658 64.5765 2.77559C67.2292 1.07961 70.9988 1.47311 82.5463 1.47311C97.7421 1.47311 168.573 3.4273 168.67 3.4273C170.778 3.4273 173.553 3.29677 174.822 4.8927C175.335 5.95615 175.45 7.16963 175.146 8.31134C174.206 16.029 165.241 82.9878 164.507 88.9962C164.168 88.9886 163.829 89.0676 163.49 89.0676C154.679 89.0676 153.79 88.9247 151.51 89.2306C151.348 89.0676 151.348 89.3925 151.51 89.5555C154.526 89.9604 157.504 89.8813 163.49 89.8813C163.874 89.8945 164.259 89.8677 164.639 89.8013C164.716 89.845 164.802 89.8689 164.891 89.8707C164.979 89.8725 165.066 89.8523 165.145 89.8118C165.224 89.7713 165.291 89.7118 165.341 89.6386C165.392 89.5654 165.423 89.4809 165.433 89.3925C166.551 80.0189 176.44 7.98644 176.44 6.52008C176.456 6.01347 176.362 5.50946 176.162 5.04381C175.963 4.57815 175.665 4.16224 175.288 3.82557C176.224 3.98902 177.092 4.42353 177.785 5.07581C178.479 5.72808 178.968 6.56977 179.193 7.49765C179.31 8.31407 179.255 9.14611 179.031 9.93967C178.824 10.8677 168.034 90.291 168.192 91.1028C167.15 91.3096 166.094 91.3019 165.343 91.4068C165.325 91.1692 165.301 90.9322 165.271 90.696C165.201 90.4702 164.86 90.5759 164.623 90.696C154.639 95.3085 145.22 101.69 132.569 107.628C128.198 109.745 123.827 112.024 119.133 113.49C113.733 115.3 109.921 114.466 107.315 114.466C100.516 113.978 23.2958 108.28 16.0106 107.465C11.4783 106.976 6.94517 106.652 2.574 105.512C2.088 105.349 1.71569 105.393 1.23253 105.226C1.13779 105.193 1.22305 105.083 1.27895 105.028C1.52658 104.831 1.79851 104.666 2.088 104.539C7.32696 100.777 37.6646 92.108 49.8449 87.7699C51.302 87.2812 52.597 86.7933 54.0541 86.3045C54.5401 86.1416 54.3781 85.4899 53.8921 85.6528C42.1078 89.867 24.2489 94.6282 8.23833 100.797C5.92962 101.536 3.70489 102.519 1.60106 103.727C0.953054 104.216 -0.503054 105.193 0.791054 105.844C1.80109 106.342 2.90469 106.62 4.02916 106.658C5.55727 106.895 7.16686 107.15 8.74233 107.382C9.07254 109.831 9.54098 112.26 10.1454 114.655C8.10665 114.382 6.06791 114.05 4.02916 113.659C3.05811 113.496 1.11505 113.496 0.953054 112.194C0.979865 111.377 0.925596 110.559 0.791054 109.752C0.710533 108.885 0.710533 108.013 0.791054 107.146C0.791054 106.658 0.144 106.495 0.144 106.983C-0.18 108.611 0.144 110.403 0.144 112.194C0.0921219 112.621 0.19422 113.054 0.431795 113.412C0.66937 113.77 1.02671 114.031 1.43905 114.147C8.88065 116.797 72.0361 120.592 107.475 123.265C117.924 124.141 120.772 122.635 131.272 117.567C141.471 112.682 151.487 107.231 161.222 101.448C162.537 100.667 163.974 99.9829 165.269 99.1682C165.342 99.1101 165.402 99.0365 165.445 98.9525C165.487 98.8686 165.511 98.7764 165.514 98.6823C165.567 98.6591 165.612 98.6202 165.642 98.5708C165.981 97.9563 165.453 92.6711 165.391 91.9727C166.487 91.9746 167.582 91.9017 168.668 91.7545C168.702 91.75 168.735 91.7386 168.765 91.7212C168.794 91.7037 168.82 91.6805 168.841 91.6528C168.862 91.6251 168.877 91.5936 168.885 91.56C168.894 91.5265 168.896 91.4915 168.891 91.4573C168.952 91.4371 169.009 91.4024 169.054 91.356C169.1 91.3096 169.134 91.2528 169.154 91.1905C169.964 85.4918 179.352 14.1796 179.514 12.8771C179.888 9.46994 180.76 7.45859 178.539 5.22332ZM137.906 112.682C137.906 112.396 137.264 108.489 137.01 106.717C138.146 106.134 139.278 105.544 140.404 104.947C140.599 106.688 140.972 110.808 141.129 111.337C140.098 111.886 139.059 112.428 138.013 112.965C137.989 112.866 137.953 112.771 137.906 112.682ZM140.748 104.763C142.201 103.991 143.65 103.21 145.097 102.42C145.262 104.161 145.522 108.028 145.787 108.826C144.405 109.576 143.029 110.322 141.645 111.061C141.461 108.947 141.163 106.844 140.751 104.763H140.748ZM125.654 118.921C125.239 119.102 124.824 119.281 124.408 119.459C124.235 117.844 123.913 114.298 123.734 112.97C124.258 112.757 124.776 112.539 125.297 112.322C125.311 112.709 125.594 118.718 125.654 118.921ZM125.675 112.162C126.994 111.578 128.304 110.98 129.604 110.368C129.794 112.281 130.101 115.664 130.353 116.758C129.008 117.403 127.647 118.033 126.271 118.648C126.225 117.286 125.862 113.794 125.675 112.162ZM77.1358 113.191C80.8836 113.455 84.5727 113.713 88.0789 113.953C88.1594 114.708 88.4654 119.633 88.7781 121.133C85.1619 120.91 81.5316 120.657 77.8606 120.391C77.7431 119.75 77.438 115.063 77.1358 113.191ZM88.4095 113.979L91.119 114.17C91.073 116.549 91.1736 118.929 91.4203 121.296C90.778 121.26 90.136 121.222 89.4943 121.184C89.4422 119.67 88.5204 114.742 88.4114 113.979H88.4095ZM40.6886 117.478C40.4148 115.729 39.6863 111.84 39.3623 110.45C41.7307 110.63 44.4487 110.831 47.4206 111.054C47.5333 112.579 48.2638 116.776 48.5783 118.124C45.9503 117.911 43.2967 117.694 40.6905 117.478H40.6886ZM49.0255 117.73C48.6882 115.49 48.2396 113.268 47.6811 111.073C49.5342 111.211 51.4829 111.353 53.5018 111.5C53.3102 113.847 53.3829 116.208 53.7187 118.539L49.1458 118.17C49.1474 118.015 49.1075 117.863 49.0302 117.73H49.0255ZM54.0465 114.799C54.0646 113.709 54.0276 112.618 53.9357 111.532C56.8678 111.745 59.9439 111.967 63.0882 112.193C63.2095 114.595 63.4966 116.986 63.9475 119.349C60.7385 119.098 57.5297 118.844 54.3213 118.586C54.349 117.317 54.2576 116.047 54.0484 114.795L54.0465 114.799ZM38.8517 110.416C39.0411 111.757 39.7526 115.636 40.033 117.429C35.9593 117.091 32.0183 116.762 28.4675 116.455C28.4827 115.962 28.1464 111.228 27.9825 110.57C27.9825 110.202 27.9825 109.834 27.9531 109.495C28.8806 109.576 34.9295 110.11 38.8535 110.412L38.8517 110.416ZM22.5332 108.987C22.7843 110.532 23.617 114.387 24.0983 116.072C21.2344 115.825 18.3723 115.557 15.5122 115.27C13.9737 109.076 14.1916 108.862 13.9415 108.08C16.8158 108.422 19.6721 108.711 22.5351 108.983L22.5332 108.987ZM10.764 114.739C10.8009 114.656 10.8209 114.567 10.8228 114.476C10.8228 114.165 9.79391 109.567 9.13644 107.444C9.59496 107.512 12.3575 107.885 13.2859 108C13.465 109.363 14.2968 113.663 14.6426 115.175C14.491 115.156 11.9189 114.885 10.7659 114.736L10.764 114.739ZM24.8325 116.137C24.4412 114.631 23.3318 110.647 22.9074 109.022C24.415 109.165 25.9257 109.306 27.4396 109.445C27.401 111.179 27.4741 112.914 27.6585 114.639C27.6393 115.226 27.679 115.814 27.7769 116.393C26.7604 116.302 25.777 116.217 24.8344 116.134L24.8325 116.137ZM64.6703 119.408C64.3804 117.936 63.9124 113.786 63.6879 112.239C67.9653 112.546 72.3592 112.857 76.6811 113.162C76.629 115.395 77.1908 120.244 77.1974 120.349C76.3912 120.288 68.727 119.721 64.6722 119.405L64.6703 119.408ZM92.0891 121.333C92.1062 120.888 91.6022 115.947 91.4781 114.194C95.7251 114.486 99.6188 114.751 102.912 114.97C102.886 116.518 103.303 120.203 103.509 121.913C100.622 121.765 93.009 121.381 92.091 121.33L92.0891 121.333ZM104.166 121.946C103.99 120.294 103.653 116.681 103.379 115.002C109.167 115.383 112.998 115.624 113.459 115.615C116.757 115.413 119.992 114.618 123.01 113.266C123.033 115.459 123.223 117.646 123.579 119.81C114.358 123.644 111.3 122.3 104.168 121.941L104.166 121.946ZM130.797 116.546C130.743 115.212 130.305 111.948 129.993 110.185C132.255 109.116 134.495 108.012 136.712 106.873C137.575 113.801 137.419 113.143 137.464 113.246C136.65 113.657 132.214 115.861 130.799 116.543L130.797 116.546ZM146.334 108.532C146.263 107.313 145.686 103.879 145.439 102.237C148.007 100.833 150.572 99.4112 153.134 97.9725C153.148 100.188 153.281 102.402 153.53 104.603C151.89 105.515 147.084 108.126 146.336 108.53L146.334 108.532ZM154.114 104.277C154.069 102.848 153.694 99.3436 153.51 97.7619C154.512 97.2007 158.376 95.0493 159.289 94.5434C159.351 96.4576 159.584 100.533 159.729 101.199C157.847 102.203 155.976 103.229 154.116 104.274L154.114 104.277ZM160.549 100.766C160.599 100.291 160.605 99.8129 160.568 99.3369C160.432 97.6282 160.179 95.9311 159.81 94.2575C160.39 93.9355 160.969 93.6112 161.547 93.2847C161.591 94.9312 161.816 98.9301 161.969 100.038C161.496 100.275 161.023 100.517 160.551 100.763L160.549 100.766ZM162.532 99.7533C162.482 98.2717 162.069 94.3328 162.029 93.0084C162.872 92.532 163.72 92.0318 164.58 91.5116C164.58 91.8403 164.947 98.2126 165.063 98.5375C164.214 98.9275 163.371 99.3318 162.534 99.7504L162.532 99.7533Z" fill="#30235B"/>
</svg>
